<svg width="18" height="18" viewBox="0 0 18 18" fill="none" xmlns="http://www.w3.org/2000/svg">
<g clip-path="url(#clip0_2523_20260)">
<rect x="1" y="1" width="16" height="16" rx="4" fill="white" fill-opacity="0.08"/>
<path d="M7.24622 11.7112L7.12524 11.7809L7.12534 11.6412C7.12534 11.6412 7.12364 11.7127 7.15588 11.7305C7.18744 11.748 7.24622 11.7112 7.24622 11.7112Z" fill="#8E3315"/>
<path d="M4.14709 11.5672C4.82768 12.8542 5.99175 13.818 7.38315 14.2468C8.77457 14.6756 10.2793 14.5341 11.5665 13.8535C12.8536 13.1728 13.8177 12.0088 14.2466 10.6174C14.6755 9.22604 14.5312 7.72126 13.8506 6.4342C14.4643 8.36846 12.3276 9.04798 12.3276 9.04798L9.74152 10.3996L7.05386 11.8013C7.05386 11.8013 5.22211 12.9806 4.14709 11.5672Z" fill="#473ADE"/>
<path d="M4.13745 11.5767C4.81804 12.8638 5.98208 13.8278 7.3735 14.2566C8.7649 14.6854 10.2697 14.5439 11.5569 13.8632C12.844 13.1826 13.8081 12.0185 14.237 10.6272C14.6659 9.23578 14.5244 7.73103 13.8438 6.44397C14.4576 8.37823 12.3179 9.0577 12.3179 9.0577L9.73187 10.4093L7.04421 11.8111C7.04421 11.8111 5.21244 12.9901 4.13745 11.5767Z" fill="url(#paint0_linear_2523_20260)"/>
<path d="M12.2588 8.91382L12.4588 9.01105L12.2477 9.09577C12.2477 9.09577 12.3383 9.05298 12.3491 9.01105C12.3597 8.96997 12.2588 8.91382 12.2588 8.91382Z" fill="#251E73"/>
<path d="M13.8838 11.5099C14.5484 10.2145 14.6712 8.70811 14.2251 7.32215C13.779 5.93619 12.8006 4.78414 11.5052 4.11948C10.2097 3.4548 8.70327 3.33195 7.31726 3.77794C5.93126 4.22392 4.77923 5.20222 4.11462 6.4976C5.3479 4.8861 7.13102 6.25 7.13102 6.25L9.72076 7.59455L12.4098 8.99358C12.4098 8.99358 14.4259 9.81889 13.8838 11.5099Z" fill="#D71D6A"/>
<path d="M13.8706 11.5045C14.5332 10.213 14.6556 8.71113 14.2109 7.3293C13.7661 5.94747 12.7906 4.79886 11.499 4.13618C10.2074 3.47347 8.70545 3.35098 7.32359 3.79566C5.94171 4.2403 4.79312 5.21567 4.13049 6.50721C5.3601 4.9005 7.1379 6.26035 7.1379 6.26035L9.71991 7.6009L12.401 8.99575C12.401 8.99575 14.411 9.8186 13.8706 11.5045Z" fill="url(#paint1_linear_2523_20260)"/>
<path d="M7.12605 6.38034L7.12378 6.23413L7.25154 6.30529C7.25154 6.30529 7.18705 6.26739 7.15432 6.2878C7.12225 6.3078 7.12605 6.38034 7.12605 6.38034Z" fill="#741039"/>
<path d="M8.99961 3.51282C7.54368 3.51282 6.14737 4.09121 5.11786 5.12079C4.08836 6.15037 3.51001 7.54675 3.51001 9.00278C3.51001 10.4588 4.08836 11.8552 5.11786 12.8848C6.14737 13.9144 7.54177 14.49 8.99771 14.49C7.12913 14.1763 7.13101 11.7581 7.13101 11.7581V9.00278V6.19869C7.13101 6.19869 7.13101 3.84726 8.99961 3.51282Z" fill="#FF5B25"/>
<path d="M8.99961 3.5C7.54368 3.5 6.14737 4.0784 5.11786 5.10797C4.08836 6.13753 3.51001 7.53393 3.51001 8.98996C3.51001 10.446 4.08836 11.8424 5.11786 12.872C6.14737 13.9016 7.54177 14.4903 8.99771 14.4903C7.12913 13.8933 7.13101 11.7612 7.13101 11.7612V8.99676V6.24998C7.13101 6.24998 7.06304 3.85576 8.99961 3.5Z" fill="url(#paint2_linear_2523_20260)"/>
<path d="M8.99961 3.5C7.54368 3.5 6.14737 4.0784 5.11786 5.10797C4.08836 6.13753 3.51001 7.53393 3.51001 8.98996C3.51001 10.446 4.08836 11.8424 5.11786 12.872C6.14737 13.9016 7.54177 14.4903 8.99771 14.4903C7.12913 13.8933 7.13101 11.7612 7.13101 11.7612V8.99676V6.24998C7.13101 6.24998 7.06304 3.85576 8.99961 3.5Z" fill="url(#paint3_linear_2523_20260)" fill-opacity="0.3"/>
<path d="M8.99768 14.4899C7.14351 13.6454 7.13318 11.7603 7.13318 11.7603C7.13318 11.7603 4.83505 13.0566 4.0614 11.3986C4.0614 11.3986 5.37085 14.5009 8.99768 14.4899Z" fill="#473ADE"/>
<g clip-path="url(#clip1_2523_20260)">
<path d="M17 1H1V17H17V1Z" fill="#FF4D00"/>
<path d="M5.53333 9.02773C5.53333 7.09781 7.08538 5.53333 8.99999 5.53333C10.9146 5.53333 12.4667 7.09781 12.4667 9.02773V12.4632C12.4648 10.5502 10.9134 8.99999 8.99999 8.99999C7.08543 8.99999 5.53333 10.552 5.53333 12.4667L5.53333 9.02773Z" fill="white"/>
</g>
</g>
<rect x="0.5" y="0.5" width="17" height="17" rx="4.5" stroke="#1F1A34"/>
<defs>
<linearGradient id="paint0_linear_2523_20260" x1="13.8442" y1="8.37689" x2="5.85671" y2="16.2633" gradientUnits="userSpaceOnUse">
<stop stop-opacity="0.6"/>
<stop offset="0.655513" stop-opacity="0"/>
</linearGradient>
<linearGradient id="paint1_linear_2523_20260" x1="5.70949" y1="5.40234" x2="16.7171" y2="7.42184" gradientUnits="userSpaceOnUse">
<stop stop-opacity="0.6"/>
<stop offset="0.645833" stop-opacity="0"/>
</linearGradient>
<linearGradient id="paint2_linear_2523_20260" x1="6.44985" y1="13.7999" x2="3.18411" y2="3.74109" gradientUnits="userSpaceOnUse">
<stop stop-opacity="0.6"/>
<stop offset="0.675464" stop-opacity="0"/>
</linearGradient>
<linearGradient id="paint3_linear_2523_20260" x1="6.44985" y1="13.7999" x2="3.18411" y2="3.74109" gradientUnits="userSpaceOnUse">
<stop stop-opacity="0.6"/>
<stop offset="0.675464" stop-opacity="0"/>
</linearGradient>
<clipPath id="clip0_2523_20260">
<rect x="1" y="1" width="16" height="16" rx="4" fill="white"/>
</clipPath>
<clipPath id="clip1_2523_20260">
<rect width="16" height="16" fill="white" transform="translate(1 1)"/>
</clipPath>
</defs>
</svg>
