<svg width="18" height="18" viewBox="0 0 18 18" fill="none" xmlns="http://www.w3.org/2000/svg">
<g clip-path="url(#clip0_1738_8730)">
<rect x="1" y="1" width="16" height="16" rx="4" fill="#F9BC2C"/>
<g opacity="0.95">
<path d="M8.33333 5.67001H5C4.73479 5.67001 4.48043 5.77537 4.29289 5.9629C4.10536 6.15045 4 6.4048 4 6.67001V11.3367C4.00038 11.5483 4.06791 11.7544 4.19287 11.9252C4.31782 12.0961 4.49376 12.2229 4.69534 12.2873C4.89694 12.3518 5.1138 12.3507 5.3147 12.2841C5.51561 12.2175 5.69019 12.0888 5.81333 11.9167L9.14667 7.25001C9.2531 7.10054 9.31635 6.92465 9.32949 6.74162C9.34262 6.55859 9.30515 6.37548 9.22117 6.21232C9.13718 6.04917 9.00992 5.91228 8.85332 5.81662C8.69673 5.72097 8.51683 5.67025 8.33333 5.67001ZM5.66667 8.00335C5.53481 8.00335 5.40592 7.96425 5.29629 7.89099C5.18666 7.81774 5.1012 7.71362 5.05074 7.5918C5.00029 7.46998 4.98709 7.33594 5.01281 7.20662C5.03853 7.0773 5.10202 6.95851 5.19527 6.86528C5.2885 6.77204 5.40729 6.70855 5.53661 6.68282C5.66592 6.6571 5.79997 6.6703 5.92179 6.72076C6.04361 6.77121 6.14772 6.85667 6.22098 6.9663C6.29423 7.07594 6.33333 7.20482 6.33333 7.33668C6.33333 7.51349 6.2631 7.68306 6.13807 7.80808C6.01304 7.93311 5.84348 8.00335 5.66667 8.00335Z" fill="#0D0A03"/>
<path d="M10.8333 12.0033C11.2936 12.0033 11.6667 11.6302 11.6667 11.17C11.6667 10.7098 11.2936 10.3367 10.8333 10.3367C10.3731 10.3367 10 10.7098 10 11.17C10 11.6302 10.3731 12.0033 10.8333 12.0033Z" fill="#0D0A03"/>
<path d="M14 6.67001V11.3367C14.0003 11.5862 13.9074 11.8269 13.7394 12.0114C13.5714 12.1959 13.3406 12.311 13.092 12.334C12.8435 12.3569 12.5955 12.2862 12.3965 12.1356C12.1975 11.985 12.062 11.7654 12.0167 11.52C12.006 11.4595 12.0004 11.3981 12 11.3367V10.5767C11.9982 10.3656 11.9297 10.1605 11.8042 9.99071C11.6787 9.82096 11.5028 9.69526 11.3015 9.63161C11.1002 9.56798 10.884 9.56967 10.6837 9.63644C10.4834 9.70321 10.3095 9.83165 10.1867 10.0033L8.82999 11.9067C8.67041 12.1096 8.43856 12.2429 8.18294 12.2788C7.92731 12.3147 7.66772 12.2503 7.45845 12.0992C7.2492 11.948 7.10649 11.7218 7.06018 11.4679C7.01386 11.214 7.06754 10.9519 7.20999 10.7367L10.5433 6.07001C10.6354 5.94716 10.7546 5.84717 10.8916 5.7778C11.0286 5.70844 11.1798 5.67156 11.3333 5.67001H13C13.2652 5.67001 13.5196 5.77537 13.7071 5.9629C13.8947 6.15045 14 6.4048 14 6.67001Z" fill="#FFFDFA"/>
</g>
</g>
<rect x="0.5" y="0.5" width="17" height="17" rx="4.5" stroke="#1F1A34"/>
<defs>
<clipPath id="clip0_1738_8730">
<rect x="1" y="1" width="16" height="16" rx="4" fill="white"/>
</clipPath>
</defs>
</svg>
