<svg width="18" height="18" viewBox="0 0 18 18" fill="none" xmlns="http://www.w3.org/2000/svg">
<g clip-path="url(#clip0_1677_1866)">
<rect x="1" y="1" width="16" height="16" rx="4" fill="black"/>
<path d="M12.6534 5.15799L9.5833 8.21045C9.42247 8.37038 9.2117 8.45027 9.00095 8.45027C8.7902 8.45027 8.57942 8.37035 8.41862 8.21045L5.34852 5.15799L6.5132 4L9.00095 6.47345L11.4887 4L12.6534 5.15799Z" fill="white"/>
<path d="M11.5399 8.9979L14.0277 11.4713L12.863 12.6293L9.79292 9.57688C9.47132 9.2571 9.47132 8.73868 9.79292 8.4189L12.863 5.36641L14.0277 6.5244L11.5399 8.9979Z" fill="white"/>
<path d="M11.4844 14L8.9967 11.5265L6.50892 14L5.34427 12.842L8.41435 9.78955C8.73595 9.4698 9.25737 9.4698 9.57902 9.78955L12.6491 12.842L11.4844 14Z" fill="white"/>
<path d="M8.44595 9.00212C8.44595 9.2193 8.35917 9.42758 8.20472 9.58113L5.13465 12.6336L3.96997 11.4756L6.45775 9.0021L3.96997 6.52868L5.13465 5.37068L8.20472 8.42315C8.35917 8.5767 8.44595 8.78498 8.44595 9.00212Z" fill="white"/>
</g>
<rect x="0.5" y="0.5" width="17" height="17" rx="4.5" stroke="#1F1A34"/>
<defs>
<clipPath id="clip0_1677_1866">
<rect x="1" y="1" width="16" height="16" rx="4" fill="white"/>
</clipPath>
</defs>
</svg>
