<svg width="18" height="18" viewBox="0 0 18 18" fill="none" xmlns="http://www.w3.org/2000/svg">
<g clip-path="url(#clip0_1677_1375)">
<rect x="1" y="1" width="16" height="16" rx="4" fill="#4520E6"/>
<path d="M9 17C13.4183 17 17 13.4183 17 9C17 4.58172 13.4183 1 9 1C4.58172 1 1 4.58172 1 9C1 13.4183 4.58172 17 9 17Z" fill="#4520E6"/>
<path fillRule="evenodd" clipRule="evenodd" d="M11.5599 10.7099C11.5599 11.4744 10.9497 12.0962 10.1995 12.0962H7.59127L10.3019 9.33396C11.0036 9.3884 11.5599 9.98112 11.5599 10.7099ZM7.24617 9.16132V5.96745H10.2848C10.3367 5.96745 10.3879 5.9703 10.4383 5.97595L7.24617 9.16132ZM12.1745 7.37833C12.1745 6.73418 11.8588 6.16277 11.3746 5.81163L12.6815 4.5L11.8997 4.50447L10.8614 5.54651C10.6692 5.48172 10.4636 5.44659 10.2499 5.44659H6.67549V10.5279L10.979 6.2087C11.3666 6.45306 11.6248 6.886 11.6248 7.37833C11.6248 8.13924 11.0081 8.7582 10.2499 8.7582H10.1361L5.34813 13.5637H6.12549L7.06419 12.6216H10.2499C11.3111 12.6216 12.1745 11.755 12.1745 10.69C12.1745 9.98752 11.7978 9.37334 11.2378 9.03523C11.7984 8.6972 12.1745 8.0811 12.1745 7.37833Z" fill="white"/>
</g>
<rect x="0.5" y="0.5" width="17" height="17" rx="4.5" stroke="#1F1A34"/>
<defs>
<clipPath id="clip0_1677_1375">
<rect x="1" y="1" width="16" height="16" rx="4" fill="white"/>
</clipPath>
</defs>
</svg>
