<svg width="165" height="162" viewBox="0 0 165 162" fill="none" xmlns="http://www.w3.org/2000/svg">
<g filter="url(#filter0_d_2236_7196)">
<path d="M90.26 159.262C131.808 162.529 160.477 131.794 154.296 90.6136C148.114 49.433 109.422 13.401 67.8741 10.1339C26.3264 6.86674 -2.34335 37.6017 3.83836 78.7823C10.0201 119.963 48.7123 155.995 90.26 159.262Z" fill="#BEA8FF"/>
<path d="M90.2159 159.823C111.142 161.468 128.87 154.551 140.588 141.989C152.305 129.428 157.965 111.272 154.852 90.5301C148.631 49.0903 109.726 12.8607 67.9182 9.57311C46.9923 7.92759 29.2638 14.845 17.5464 27.4065C5.82891 39.968 0.168555 58.1244 3.28209 78.8658C9.5027 120.306 48.4076 156.535 90.2159 159.823Z" stroke="#09031D" stroke-width="1.125"/>
</g>
<g filter="url(#filter1_d_2236_7196)">
<path d="M98.1876 151.307C139.719 154.573 168.377 123.85 162.198 82.6858C156.019 41.5215 117.342 5.50386 75.8106 2.23803C34.2794 -1.0278 5.62104 29.6949 11.8003 70.8592C17.9795 112.023 56.6565 148.041 98.1876 151.307Z" fill="#BEA8FF"/>
<path d="M98.1435 151.868C119.061 153.513 136.783 146.598 148.495 134.041C160.208 121.485 165.866 103.336 162.754 82.6023C156.536 41.1789 117.646 4.96359 75.8547 1.67726C54.9371 0.0323915 37.2155 6.94711 25.5027 19.5036C13.7898 32.0602 8.13172 50.2094 11.244 70.9427C17.4622 112.366 56.3517 148.581 98.1435 151.868Z" stroke="#09031D" stroke-width="1.125"/>
</g>
<path d="M79.0981 27.8123C77.9092 29.071 74.8674 34.5987 75.8947 57.8219C76.0865 57.9216 76.2787 58.0218 76.4713 58.1225M79.0981 27.8123L85.4526 36.0475C88.9423 44.498 91.3772 52.6566 93.03 59.2956C92.8557 59.3699 92.6811 59.4447 92.5062 59.5199M79.0981 27.8123C79.2289 27.6737 79.4173 27.5976 79.6301 27.5974C79.8428 27.5973 80.0661 27.6733 80.2604 27.8118L79.0981 27.8123ZM76.4713 58.1225C76.4811 58.338 76.4913 58.555 76.5018 58.7735C79.1299 60.1521 81.8309 61.6256 84.5837 63.1861C84.7873 63.0853 84.9907 62.9852 85.1939 62.8857M76.4713 58.1225C79.3027 59.6033 82.2191 61.1943 85.1939 62.8857M76.4713 58.1225C75.974 47.2069 76.3723 40.1923 77.053 35.6967C77.8369 30.52 78.986 28.7502 79.507 28.1986L79.5073 28.1983C79.519 28.1859 79.5525 28.16 79.6303 28.1599C79.7119 28.1599 79.8229 28.1907 79.9339 28.2698L79.9351 28.2707C80.4563 28.64 81.0369 29.3038 81.6261 30.1413C82.2083 30.9686 82.7704 31.9239 83.2634 32.8361C83.7555 33.7469 84.1742 34.6064 84.47 35.2387C84.6177 35.5545 84.7345 35.813 84.8142 35.9921C84.854 36.0816 84.8845 36.1512 84.9049 36.1982L84.9279 36.2513L84.9327 36.2622C84.9331 36.2633 84.9336 36.2644 84.934 36.2655C88.4257 44.7214 90.8583 52.8863 92.5062 59.5199M85.1939 62.8857C85.3908 62.9976 85.5879 63.11 85.7853 63.2228C88.1042 62.0932 90.3962 61.042 92.6428 60.0736C92.5978 59.8902 92.5523 59.7057 92.5062 59.5199M85.1939 62.8857C87.6674 61.6739 90.1122 60.5502 92.5062 59.5199M76.6773 62.0113C76.664 61.7898 76.651 61.5698 76.6384 61.3512C78.5192 62.364 80.3757 63.3876 82.1784 64.3996C81.979 64.5021 81.7795 64.6052 81.5798 64.7088M76.6773 62.0113C76.4835 61.9067 76.2894 61.8022 76.0951 61.6978C76.1256 62.2155 76.1579 62.741 76.1921 63.2744M76.6773 62.0113C78.3375 62.9075 79.9785 63.8118 81.5798 64.7088M76.6773 62.0113C76.7012 62.4108 76.7263 62.815 76.7525 63.2238M76.1921 63.2744C76.1921 63.2744 76.367 64.7863 76.7122 67.3334C76.8877 67.2352 77.0636 67.1371 77.2401 67.0391M76.1921 63.2744C76.7509 63.2097 76.7509 63.2098 76.7509 63.2101L76.751 63.2112L76.7516 63.2158L76.7525 63.2238M76.1921 63.2744L76.7534 63.2384C76.7531 63.2335 76.7528 63.2287 76.7525 63.2238M77.2401 67.0391C77.2661 67.2323 77.2932 67.4319 77.3213 67.6375C78.1497 67.1762 78.9893 66.7176 79.8395 66.2623C80.6168 65.8461 81.3928 65.4381 82.1669 65.0383C81.9718 64.9286 81.7761 64.8188 81.5798 64.7088M77.2401 67.0391C77.117 66.1262 77.0169 65.355 76.9401 64.7493C76.8771 64.2527 76.8297 63.8673 76.7981 63.6063C76.7823 63.4759 76.7705 63.3765 76.7626 63.3098L76.7538 63.2346L76.7525 63.2238M77.2401 67.0391C78.0087 66.6123 78.7869 66.1879 79.574 65.7665C80.2436 65.4079 80.9124 65.0553 81.5798 64.7088M74.4772 72.4233C73.0652 73.2625 71.6285 74.138 70.1937 75.0407C70.3602 75.1568 70.5275 75.2732 70.6956 75.3898M74.4772 72.4233L75.0849 72.7168C75.2232 73.7261 75.3693 74.7438 75.5232 75.7689C75.6858 76.8524 75.8548 77.9286 76.0299 78.9965C75.8164 78.8561 75.6035 78.7157 75.3914 78.5752M74.4772 72.4233C74.5045 72.6247 74.5321 72.8265 74.56 73.0286M74.4772 72.4233L74.56 73.0286M70.6956 75.3898C70.5232 75.498 70.3508 75.6066 70.1784 75.7155C71.8864 76.9028 73.6755 78.1186 75.5148 79.3309C75.4733 79.0794 75.4322 78.8275 75.3914 78.5752M70.6956 75.3898C71.9883 74.5789 73.2828 73.7896 74.56 73.0286M70.6956 75.3898C72.2061 76.4379 73.7785 77.5071 75.3914 78.5752M75.3914 78.5752C75.2455 77.6731 75.1039 76.7653 74.9669 75.8524C74.8246 74.9046 74.689 73.9631 74.56 73.0286M94.814 124.806L94.7603 124.853L94.7175 124.92C94.6262 125.062 94.5583 125.09 94.5391 125.097C94.5145 125.105 94.4757 125.109 94.4108 125.09C94.3431 125.071 94.273 125.034 94.2138 124.994C94.1999 124.985 94.1875 124.976 94.177 124.968C94.1664 124.96 94.1577 124.953 94.151 124.948C94.1501 124.947 94.1492 124.947 94.1483 124.946C92.4867 123.197 91.0555 120.761 90.0312 118.731C89.5198 117.717 89.1148 116.815 88.8379 116.167C88.6996 115.843 88.5934 115.583 88.522 115.405C88.4863 115.316 88.4594 115.247 88.4415 115.201L88.4215 115.149L88.4167 115.136L88.4156 115.133L88.4154 115.133L88.4154 115.133L88.4091 115.116L88.4016 115.1C88.319 114.917 88.2368 114.732 88.155 114.545C88.5655 114.329 88.9327 114.049 89.2459 113.713C90.1365 112.759 90.5442 111.4 90.3184 109.896C89.8938 107.067 87.3662 104.603 84.5377 104.179C83.5776 100.841 82.7019 97.3024 81.9131 93.7567C84.2463 92.7489 86.627 91.6527 89.0349 90.4731C92.0099 92.1641 94.9259 93.7548 97.7568 95.2352C97.8067 96.2088 97.8483 97.15 97.8828 98.0522C98.007 101.295 98.04 104.031 98.042 105.955C98.043 106.918 98.0362 107.677 98.0292 108.195C98.0257 108.454 98.0222 108.653 98.0195 108.787L98.0163 108.938L98.0154 108.976L98.0151 108.985L98.0151 108.987L98.0151 108.988L98.0151 108.988C97.8226 115.746 96.9812 119.742 96.2062 122.03C95.8191 123.173 95.4497 123.885 95.1887 124.302C95.0583 124.511 94.955 124.645 94.8899 124.723C94.8574 124.761 94.8344 124.786 94.8223 124.798C94.8186 124.802 94.8159 124.804 94.8143 124.806C94.8133 124.807 94.8126 124.808 94.8125 124.808L94.814 124.806ZM124.986 90.254C120.805 86.6023 115.64 82.5851 109.758 78.434C114.498 75.1647 118.554 71.9143 121.726 68.8714C124.808 65.9157 127.085 63.1294 128.336 60.6881C129.577 58.267 129.884 56.0233 128.7 54.3241L128.7 54.324C127.538 52.6577 125.192 51.8922 122.203 51.759C119.615 51.6437 116.422 51.9957 112.794 52.7623C111.621 51.1501 109.762 49.9952 107.802 49.8411C106.286 49.7218 104.958 50.2235 104.068 51.1781C103.177 52.1329 102.769 53.4915 102.995 54.9953C103.018 55.1508 103.048 55.3051 103.084 55.4581C100.663 56.2675 98.1382 57.2016 95.5399 58.2531C93.9728 51.6963 92.2124 45.7697 90.3766 40.7953C88.6232 36.0441 86.7929 32.1389 84.9837 29.3792C84.0794 27.9997 83.168 26.8872 82.2584 26.0975C81.3523 25.3107 80.4077 24.8097 79.4431 24.7339C78.4546 24.6561 77.5759 25.0342 76.8308 25.7491C76.0987 26.4516 75.4855 27.4854 74.972 28.7695C73.9445 31.3394 73.2551 35.0706 72.9028 39.6585C72.542 44.3572 72.5319 49.9969 72.8935 56.2872C66.6351 53.1405 60.8732 50.585 55.9179 48.7369C51.1016 46.9407 47.0174 45.8014 43.9675 45.4479C42.4454 45.2715 41.141 45.2857 40.1178 45.5364C39.0892 45.7885 38.2738 46.3011 37.8796 47.1686C37.4937 48.0172 37.5912 49.0316 37.9823 50.1035C38.3763 51.1834 39.0972 52.4043 40.0878 53.7345C41.6556 55.8397 43.9438 58.2778 46.8246 60.9448C46.7032 61.5116 46.6848 62.1246 46.7807 62.7637C47.2257 65.7283 49.9802 68.293 52.9704 68.5282C53.8397 68.5965 54.6468 68.4609 55.3451 68.153C58.1321 70.3426 61.188 72.6137 64.4666 74.9266C59.7266 78.1952 55.671 81.4449 52.4982 84.4872C49.416 87.4426 47.1388 90.2287 45.8868 92.6701C44.645 95.0914 44.3373 97.3353 45.5202 99.0357L45.5206 99.0362C46.6825 100.702 49.0284 101.468 52.0179 101.601C55.0422 101.736 58.8939 101.233 63.2988 100.175C67.8925 99.0726 73.1177 97.3598 78.681 95.1089C79.4944 98.512 80.3599 101.745 81.261 104.764C80.9401 104.959 80.6491 105.195 80.394 105.469C79.5034 106.424 79.0957 107.782 79.3215 109.286C79.7287 111.999 82.0701 114.377 84.7562 114.941C86.2276 118.626 87.7403 121.696 89.2387 123.981C90.1434 125.361 91.0553 126.473 91.9653 127.263C92.8719 128.05 93.8171 128.551 94.7821 128.627C95.7702 128.704 96.6484 128.326 97.393 127.611C98.1246 126.909 98.7374 125.875 99.2504 124.591C100.277 122.021 100.966 118.29 101.318 113.702C101.679 109.001 101.689 103.359 101.327 97.0666C107.591 100.217 113.356 102.775 118.313 104.624C123.127 106.42 127.209 107.559 130.256 107.913C131.778 108.089 133.081 108.075 134.104 107.824C135.131 107.572 135.946 107.059 136.34 106.192C136.727 105.345 136.63 104.332 136.239 103.261C135.845 102.182 135.125 100.962 134.134 99.632C132.152 96.9694 129.016 93.7731 124.986 90.254ZM85.3684 88.3552C83.9424 89.0035 82.5274 89.6168 81.1484 90.1923C80.8024 88.5209 80.4762 86.8623 80.1697 85.237C80.9417 85.7102 81.72 86.1827 82.5042 86.6542L82.5043 86.6543C83.4632 87.2306 84.4182 87.7977 85.3684 88.3552ZM97.541 91.6301C95.576 90.6108 93.82 89.661 92.3131 88.8238C93.0908 88.4221 93.8705 88.0122 94.6513 87.5941C95.4763 87.1523 96.2915 86.7073 97.0963 86.2597C97.2757 88.0979 97.422 89.898 97.541 91.6301ZM124.469 103.161C115.735 100.268 107.588 96.6481 101.081 93.4248C100.859 90.5542 100.565 87.5685 100.197 84.4924C102.542 83.1229 104.785 81.7356 106.911 80.3451C116.911 87.5595 123.131 92.8307 126.997 96.59C131.447 100.916 132.751 103.213 133.127 104.135C133.169 104.241 133.161 104.317 133.149 104.353C133.138 104.383 133.122 104.401 133.09 104.414L133.086 104.415C132.651 104.591 131.919 104.639 130.982 104.567C130.068 104.496 129.04 104.318 128.068 104.109C127.099 103.9 126.197 103.662 125.537 103.477C125.207 103.384 124.938 103.305 124.752 103.249C124.659 103.221 124.587 103.198 124.539 103.183L124.484 103.166L124.472 103.162L124.47 103.162L124.469 103.161ZM53.0853 89.2107C56.4119 85.2978 61.9375 81.0952 67.8055 77.2435C70.4515 79.0501 73.2216 80.8738 76.0944 82.6959C76.6383 85.7239 77.2289 88.6746 77.8575 91.524C77.047 91.8421 76.2584 92.1446 75.4976 92.4309C72.6499 93.5021 70.1968 94.3432 68.4563 94.9162C67.5861 95.2027 66.8943 95.4221 66.4205 95.5698C66.1836 95.6436 66.0012 95.6995 65.8783 95.7368L65.7393 95.7788L65.7044 95.7893L65.6958 95.7918L65.6946 95.7922L65.6938 95.7924L65.6933 95.7926C59.4483 97.6289 55.2402 98.0815 52.6134 98.0829C51.3002 98.0835 50.3825 97.9715 49.8028 97.8633C49.513 97.8092 49.3075 97.756 49.1791 97.7183C49.115 97.6994 49.07 97.6844 49.0435 97.6751C49.0302 97.6704 49.0215 97.6672 49.0172 97.6656C49.0171 97.6655 49.0171 97.6656 49.017 97.6655C49.0165 97.6654 49.0166 97.6654 49.0163 97.6653C49.0158 97.665 49.0154 97.6649 49.0152 97.6648L49.0144 97.6645L49.0142 97.6644L48.9664 97.6447L48.9119 97.634C48.4622 97.5459 48.3415 97.3538 48.2973 97.2551C48.2682 97.1901 48.2567 97.1265 48.2529 97.0786C48.2518 97.0638 48.2514 97.0515 48.2514 97.0423C48.6638 95.1283 49.8375 93.1939 50.9479 91.7069C51.5021 90.9648 52.0303 90.3474 52.4196 89.9159C52.6141 89.7004 52.7735 89.5318 52.8835 89.4178C52.9385 89.3608 52.9811 89.3175 53.0095 89.2889L53.0413 89.2571L53.0488 89.2496L53.0504 89.248L53.0505 89.2479L53.0507 89.2478L53.0688 89.2301L53.0853 89.2107ZM88.7182 86.7737C88.0383 86.3749 87.4924 86.0478 87.0934 85.8059C86.8357 85.6496 86.6393 85.5289 86.5076 85.4475C86.4417 85.4067 86.3921 85.3758 86.359 85.3552L86.322 85.3321L86.3129 85.3264L86.3108 85.325L86.3103 85.3247L86.0105 85.8006L86.3102 85.3247L86.2994 85.3178L86.2882 85.3115C83.9965 84.0102 81.694 82.6185 79.434 81.1914C78.7748 77.4331 78.2344 73.9799 77.8158 71.1256C80.6311 69.5105 83.258 68.0789 85.4612 66.9109C89.1558 69.033 92.5096 71.0311 95.2287 72.6805C95.3233 73.2701 95.396 73.753 95.4491 74.1193C95.4885 74.391 95.5171 74.5985 95.5357 74.7376C95.5451 74.8071 95.5519 74.8596 95.5564 74.8944L95.5614 74.9334L95.5626 74.9429L95.5629 74.9451L95.563 74.9456L95.5648 74.9608L95.5676 74.9759C96.0172 77.4754 96.3863 80.0148 96.6891 82.5222C96.1806 82.8041 95.7635 83.0284 95.4506 83.1937C95.2327 83.3088 95.0654 83.3953 94.9531 83.4528C94.8969 83.4815 94.8545 83.503 94.8263 83.5172L94.7949 83.533L94.7874 83.5367L94.7857 83.5376L94.7854 83.5378L94.7684 83.5462L94.752 83.5557C92.8084 84.6897 90.7723 85.7653 88.7182 86.7737ZM106.625 76.2571C103.915 74.4027 101.074 72.53 98.125 70.6591C97.5818 67.6353 96.992 64.6886 96.3644 61.843C99.56 60.6109 102.427 59.5982 104.997 58.7689C106.134 59.8827 107.627 60.6372 109.185 60.7597C110.701 60.879 112.029 60.3774 112.919 59.4227C113.675 58.6132 114.082 57.5133 114.052 56.2807C121.288 54.7145 124.455 55.2824 125.567 55.6558C125.677 55.6932 125.789 55.7704 125.874 55.8764C125.958 55.983 125.993 56.0907 125.997 56.1691L125.997 56.1767C126.026 56.6946 125.849 57.3588 125.51 58.1071C125.176 58.8438 124.712 59.6062 124.233 60.3023C123.757 60.9963 123.274 61.6126 122.91 62.0558C122.728 62.2771 122.576 62.4545 122.471 62.576C122.418 62.6367 122.377 62.6834 122.349 62.7146L122.318 62.7496L122.314 62.7543C122.313 62.7554 122.312 62.7565 122.311 62.7576C117.125 68.3042 111.462 72.8472 106.625 76.2571ZM51.817 50.7858C57.7521 52.5323 65.506 56.1386 73.1553 60.139C73.3749 62.948 73.6638 65.8662 74.0237 68.8707C71.6826 70.2381 69.4429 71.6232 67.3196 73.0114C66.4291 72.3748 65.5702 71.7535 64.7483 71.1532C61.7892 68.992 59.3127 67.1048 57.574 65.7563C57.8292 65.0414 57.9063 64.2313 57.7776 63.374C57.3326 60.4094 54.5781 57.8447 51.5879 57.6096C50.4916 57.5234 49.4942 57.7615 48.6892 58.2607C46.275 55.9887 44.6387 54.1794 43.5377 52.8083C42.6444 51.6959 42.1049 50.8738 41.7885 50.3289L41.8455 50.3334L41.367 49.4796L41.3098 49.3055L41.2616 49.2797C41.1915 49.1269 41.1791 49.0342 41.179 48.9905C41.1789 48.9644 41.1829 48.953 41.1836 48.9511C41.1845 48.9488 41.1853 48.9472 41.1876 48.9444C41.195 48.9355 41.2138 48.9203 41.2455 48.9061C41.2518 48.9032 41.2576 48.9009 41.2626 48.8991C43.3052 48.6801 45.9062 49.1307 48.0463 49.66C49.1148 49.9243 50.0511 50.2037 50.7201 50.4169C51.0544 50.5235 51.3215 50.6134 51.5042 50.6764C51.5956 50.7079 51.6659 50.7327 51.7129 50.7494L51.7658 50.7684L51.7787 50.773L51.7817 50.7741L51.7823 50.7743L51.7824 50.7744L51.7994 50.7806L51.817 50.7858ZM93.3416 63.0352C93.3527 63.0839 93.3636 63.1324 93.3746 63.1807C93.8102 65.1084 94.1701 66.8524 94.4634 68.3717C93.5595 67.8156 92.6469 67.2605 91.726 66.7067L91.726 66.7067C90.8083 66.1549 89.8942 65.6115 88.9843 65.0769C89.6211 64.7517 90.1671 64.4766 90.6072 64.2566C91.0126 64.0539 91.3282 63.898 91.5421 63.7929C91.6491 63.7403 91.7307 63.7005 91.7854 63.6738L91.8471 63.6438L91.8523 63.6413C92.3558 63.4344 92.8522 63.2324 93.3416 63.0352ZM103.846 78.1568C102.326 79.1637 100.934 80.0354 99.72 80.7666C99.5733 79.6894 99.4178 78.6028 99.2534 77.5077C99.1221 76.6329 98.9866 75.7628 98.8472 74.8979C99.598 75.3628 100.238 75.7622 100.751 76.0841C101.219 76.3775 101.581 76.6064 101.827 76.762C101.949 76.8398 102.043 76.8992 102.105 76.9391L102.176 76.9842L102.19 76.9931C102.752 77.386 103.304 77.7739 103.846 78.1568ZM87.834 83.1537C89.6701 83.298 91.2674 82.6908 92.3361 81.5452C93.4048 80.3995 93.8989 78.7645 93.6256 76.9442C93.0856 73.3465 89.7363 70.2279 86.1074 69.9425C84.2713 69.7981 82.674 70.4053 81.6053 71.551C80.5366 72.6967 80.0425 74.3317 80.3158 76.152C80.8558 79.7497 84.2051 82.8683 87.834 83.1537Z" fill="white" stroke="#09031D" stroke-width="1.125"/>
<g filter="url(#filter2_d_2236_7196)">
<path d="M79.399 25.4926C72.9989 24.9893 71.2634 47.5897 75.5232 75.9669C79.7829 104.344 88.4261 127.761 94.8262 128.264C101.221 128.767 102.957 106.166 98.6971 77.7892C94.4374 49.412 85.7942 25.9955 79.399 25.4926ZM95.1908 125.422C94.605 126.334 93.7598 125.552 93.7598 125.552C90.3054 121.93 87.8891 115.53 87.8891 115.53C80.2659 98.6798 76.1921 63.4724 76.1921 63.4724C74.4069 35.6383 77.8212 29.3621 79.0981 28.0103C79.2289 27.8717 79.4173 27.7956 79.6301 27.7954C79.8428 27.7953 80.0661 27.8713 80.2604 28.0098C82.6651 29.714 85.4526 36.2455 85.4526 36.2455C93.8162 56.4984 96.1212 75.0743 96.1212 75.0743C99.0429 91.3172 98.5774 109.201 98.5774 109.201C98.1903 122.792 95.1908 125.422 95.1908 125.422Z" fill="white"/>
<path d="M128.238 54.8437C124.224 49.0871 102.564 54.2915 79.8395 66.4603C57.1151 78.6292 41.9777 93.1566 45.982 98.9125C49.9962 104.669 71.6612 99.465 94.3857 87.2962C117.11 75.1274 132.247 60.595 128.238 54.8437ZM48.8037 98.384C47.5658 98.1415 47.6926 97.1639 47.6926 97.1639C48.5528 93.0686 52.6567 89.0443 52.6567 89.0443C62.5899 77.3606 91.6226 63.3255 91.6226 63.3255C115.571 53.4845 123.637 54.6126 125.746 55.3206C125.964 55.3939 126.165 55.537 126.314 55.7243C126.463 55.9116 126.55 56.1309 126.559 56.3429C126.706 58.954 122.725 63.3364 122.725 63.3364C110.243 76.6883 95.0355 84.2396 95.0355 84.2396C82.3721 91.6279 65.8533 96.5299 65.8533 96.5299C53.2805 100.227 48.8037 98.384 48.8037 98.384Z" fill="white"/>
<path d="M135.829 106.157C138.218 100.923 118.338 83.5645 91.4361 67.3868C64.5403 51.2144 40.7741 42.3555 38.3916 47.5994C36.005 52.8479 55.8876 70.1921 82.7941 86.3702C109.705 102.544 133.446 111.401 135.829 106.157ZM40.8401 49.888C40.1931 48.7334 41.1559 48.5429 41.1559 48.5429C45.464 48.0588 51.9758 50.4442 51.9758 50.4442C69.4862 55.5969 102.503 76.7234 102.503 76.7234C128.177 94.6779 132.812 102.066 133.648 104.122C133.733 104.333 133.744 104.55 133.68 104.735C133.616 104.921 133.48 105.062 133.297 105.135C131.041 106.046 124.295 103.894 124.295 103.894C103.481 97.0006 86.0105 85.9986 86.0105 85.9986C70.4742 77.177 54.4747 64.2286 54.4747 64.2286C42.3117 54.3555 40.8458 49.8933 40.8458 49.8933L40.8352 49.8876L40.8401 49.888Z" fill="white"/>
<path d="M87.8781 82.7909C91.2463 83.0557 93.5705 80.5641 93.0694 77.2257C92.5682 73.8872 89.4315 70.9662 86.0633 70.7013C82.6951 70.4364 80.3709 72.9281 80.872 76.2665C81.3732 79.605 84.5099 82.526 87.8781 82.7909Z" fill="white"/>
<path d="M109.229 60.3969C111.958 60.6116 113.842 58.5924 113.436 55.887C113.03 53.1817 110.488 50.8145 107.758 50.5999C105.029 50.3852 103.145 52.4044 103.551 55.1098C103.957 57.8152 106.499 60.1823 109.229 60.3969Z" fill="white"/>
<path d="M53.0145 68.1654C55.744 68.38 57.6275 66.3609 57.2214 63.6555C56.8153 60.9501 54.2733 58.583 51.5438 58.3683C48.8143 58.1537 46.9309 60.1728 47.337 62.8782C47.7431 65.5836 50.285 67.9508 53.0145 68.1654Z" fill="white"/>
<path d="M85.5553 114.688C88.2848 114.902 90.1683 112.883 89.7621 110.178C89.356 107.472 86.8141 105.105 84.0846 104.891C81.3551 104.676 79.4716 106.695 79.8778 109.4C80.2839 112.106 82.8258 114.473 85.5553 114.688Z" fill="white"/>
<path d="M79.0981 28.0103C77.9092 29.269 74.8674 34.7967 75.8947 58.0199C76.0865 58.1196 76.2787 58.2198 76.4713 58.3205M79.0981 28.0103L85.4526 36.2455C88.9423 44.696 91.3772 52.8546 93.03 59.4936C92.8557 59.5679 92.6811 59.6427 92.5062 59.7179M79.0981 28.0103C79.2289 27.8717 79.4173 27.7956 79.6301 27.7954C79.8428 27.7953 80.0661 27.8713 80.2604 28.0098L79.0981 28.0103ZM76.4713 58.3205C76.4811 58.536 76.4913 58.753 76.5018 58.9715C79.1299 60.3501 81.8309 61.8236 84.5837 63.3841C84.7873 63.2833 84.9907 63.1832 85.1939 63.0837M76.4713 58.3205C79.3027 59.8013 82.2191 61.3923 85.1939 63.0837M76.4713 58.3205C75.974 47.4049 76.3723 40.3903 77.053 35.8947C77.8369 30.718 78.986 28.9482 79.507 28.3966L79.5073 28.3963C79.519 28.3839 79.5525 28.358 79.6303 28.3579C79.7119 28.3579 79.8229 28.3887 79.9339 28.4678L79.9351 28.4687C80.4563 28.838 81.0369 29.5018 81.6261 30.3393C82.2083 31.1666 82.7704 32.1219 83.2634 33.0341C83.7555 33.9449 84.1742 34.8044 84.47 35.4367C84.6177 35.7525 84.7345 36.011 84.8142 36.1901C84.854 36.2796 84.8845 36.3492 84.9049 36.3962L84.9279 36.4493L84.9327 36.4602C84.9331 36.4613 84.9336 36.4624 84.934 36.4635C88.4257 44.9194 90.8583 53.0843 92.5062 59.7179M85.1939 63.0837C85.3908 63.1956 85.5879 63.308 85.7853 63.4208C88.1042 62.2912 90.3962 61.24 92.6428 60.2716C92.5978 60.0882 92.5523 59.9037 92.5062 59.7179M85.1939 63.0837C87.6674 61.8719 90.1122 60.7482 92.5062 59.7179M76.6773 62.2093C76.664 61.9878 76.651 61.7678 76.6384 61.5492C78.5192 62.562 80.3757 63.5856 82.1784 64.5976C81.979 64.7001 81.7795 64.8032 81.5798 64.9068M76.6773 62.2093C76.4835 62.1047 76.2894 62.0002 76.0951 61.8958C76.1256 62.4135 76.1579 62.939 76.1921 63.4724M76.6773 62.2093C78.3375 63.1055 79.9785 64.0098 81.5798 64.9068M76.6773 62.2093C76.7012 62.6088 76.7263 63.013 76.7525 63.4218M76.1921 63.4724C76.1921 63.4724 76.367 64.9843 76.7122 67.5314C76.8877 67.4332 77.0636 67.3351 77.2401 67.2371M76.1921 63.4724C76.7509 63.4077 76.7509 63.4078 76.7509 63.4081L76.751 63.4092L76.7516 63.4138L76.7525 63.4218M76.1921 63.4724L76.7534 63.4364C76.7531 63.4315 76.7528 63.4267 76.7525 63.4218M77.2401 67.2371C77.2661 67.4303 77.2932 67.6298 77.3213 67.8355C78.1497 67.3742 78.9893 66.9156 79.8395 66.4603C80.6168 66.0441 81.3928 65.6361 82.1669 65.2363C81.9718 65.1266 81.7761 65.0168 81.5798 64.9068M77.2401 67.2371C77.117 66.3241 77.0169 65.553 76.9401 64.9473C76.8771 64.4507 76.8297 64.0653 76.7981 63.8043C76.7823 63.6739 76.7705 63.5745 76.7626 63.5078L76.7538 63.4326L76.7525 63.4218M77.2401 67.2371C78.0087 66.8103 78.7869 66.3859 79.574 65.9645C80.2436 65.6059 80.9124 65.2533 81.5798 64.9068M74.4772 72.6213C73.0652 73.4605 71.6285 74.336 70.1937 75.2387C70.3602 75.3548 70.5275 75.4712 70.6956 75.5878M74.4772 72.6213L75.0849 72.9148C75.2232 73.9241 75.3693 74.9418 75.5232 75.9669C75.6858 77.0504 75.8548 78.1266 76.0299 79.1945C75.8164 79.0541 75.6035 78.9137 75.3914 78.7732M74.4772 72.6213C74.5045 72.8227 74.5321 73.0245 74.56 73.2266M74.4772 72.6213L74.56 73.2266M70.6956 75.5878C70.5232 75.696 70.3508 75.8046 70.1784 75.9135C71.8864 77.1008 73.6755 78.3166 75.5148 79.5289C75.4733 79.2774 75.4322 79.0255 75.3914 78.7732M70.6956 75.5878C71.9883 74.7769 73.2828 73.9876 74.56 73.2266M70.6956 75.5878C72.2061 76.6359 73.7785 77.7051 75.3914 78.7732M75.3914 78.7732C75.2455 77.8711 75.1039 76.9633 74.9669 76.0504C74.8246 75.1026 74.689 74.1611 74.56 73.2266M94.814 125.004L94.7603 125.051L94.7175 125.118C94.6262 125.26 94.5583 125.288 94.5391 125.295C94.5145 125.303 94.4757 125.307 94.4108 125.288C94.3431 125.269 94.273 125.232 94.2138 125.192C94.1999 125.183 94.1875 125.174 94.177 125.166C94.1664 125.158 94.1577 125.151 94.151 125.146C94.1501 125.145 94.1492 125.145 94.1483 125.144C92.4867 123.395 91.0555 120.959 90.0312 118.929C89.5198 117.915 89.1148 117.013 88.8379 116.365C88.6996 116.041 88.5934 115.781 88.522 115.603C88.4863 115.514 88.4594 115.445 88.4415 115.399L88.4215 115.347L88.4167 115.334L88.4156 115.331L88.4154 115.331L88.4154 115.331L88.4091 115.314L88.4016 115.298C88.319 115.115 88.2368 114.93 88.155 114.743C88.5655 114.527 88.9327 114.247 89.2459 113.911C90.1365 112.957 90.5442 111.598 90.3184 110.094C89.8938 107.265 87.3662 104.801 84.5377 104.377C83.5776 101.039 82.7019 97.5004 81.9131 93.9547C84.2463 92.9469 86.627 91.8507 89.0349 90.6711C92.0099 92.3621 94.9259 93.9528 97.7568 95.4332C97.8067 96.4068 97.8483 97.348 97.8828 98.2502C98.007 101.493 98.04 104.229 98.042 106.153C98.043 107.116 98.0362 107.875 98.0292 108.393C98.0257 108.652 98.0222 108.851 98.0195 108.985L98.0163 109.136L98.0154 109.174L98.0151 109.183L98.0151 109.185L98.0151 109.186L98.0151 109.186C97.8226 115.944 96.9812 119.94 96.2062 122.228C95.8191 123.371 95.4497 124.083 95.1887 124.5C95.0583 124.709 94.955 124.843 94.8899 124.921C94.8574 124.959 94.8344 124.984 94.8223 124.996C94.8186 125 94.8159 125.002 94.8143 125.004C94.8133 125.005 94.8126 125.006 94.8125 125.006L94.814 125.004ZM124.986 90.452C120.805 86.8003 115.64 82.7831 109.758 78.632C114.498 75.3627 118.554 72.1123 121.726 69.0694C124.808 66.1137 127.085 63.3274 128.336 60.8861C129.577 58.465 129.884 56.2213 128.7 54.5221L128.7 54.522C127.538 52.8557 125.192 52.0902 122.203 51.957C119.615 51.8417 116.422 52.1937 112.794 52.9603C111.621 51.3481 109.762 50.1932 107.802 50.0391C106.286 49.9198 104.958 50.4215 104.068 51.3761C103.177 52.3309 102.769 53.6895 102.995 55.1933C103.018 55.3487 103.048 55.5031 103.084 55.6561C100.663 56.4655 98.1382 57.3996 95.5399 58.4511C93.9728 51.8943 92.2124 45.9677 90.3766 40.9933C88.6232 36.2421 86.7929 32.3369 84.9837 29.5772C84.0794 28.1977 83.168 27.0852 82.2584 26.2955C81.3523 25.5087 80.4077 25.0077 79.4431 24.9319C78.4546 24.8541 77.5759 25.2322 76.8308 25.9471C76.0987 26.6496 75.4855 27.6834 74.972 28.9675C73.9445 31.5374 73.2551 35.2686 72.9028 39.8565C72.542 44.5552 72.5319 50.1949 72.8935 56.4852C66.6351 53.3385 60.8732 50.783 55.9179 48.9349C51.1016 47.1387 47.0174 45.9994 43.9675 45.6459C42.4454 45.4695 41.141 45.4837 40.1178 45.7344C39.0892 45.9865 38.2738 46.4991 37.8796 47.3666C37.4937 48.2152 37.5912 49.2296 37.9823 50.3015C38.3763 51.3814 39.0972 52.6023 40.0878 53.9325C41.6556 56.0377 43.9438 58.4758 46.8246 61.1428C46.7032 61.7096 46.6848 62.3226 46.7807 62.9617C47.2257 65.9263 49.9802 68.491 52.9704 68.7262C53.8397 68.7945 54.6468 68.6589 55.3451 68.351C58.1321 70.5406 61.188 72.8117 64.4666 75.1246C59.7266 78.3932 55.671 81.6429 52.4982 84.6852C49.416 87.6406 47.1388 90.4267 45.8868 92.8681C44.645 95.2894 44.3373 97.5333 45.5202 99.2337L45.5206 99.2342C46.6825 100.9 49.0284 101.666 52.0179 101.799C55.0422 101.934 58.8939 101.431 63.2988 100.373C67.8925 99.2706 73.1177 97.5578 78.681 95.3069C79.4944 98.71 80.3599 101.943 81.261 104.962C80.9401 105.157 80.6491 105.393 80.394 105.667C79.5034 106.622 79.0957 107.98 79.3215 109.484C79.7287 112.197 82.0701 114.575 84.7562 115.139C86.2276 118.824 87.7403 121.894 89.2387 124.179C90.1434 125.559 91.0553 126.671 91.9653 127.461C92.8719 128.248 93.8171 128.749 94.7821 128.825C95.7702 128.902 96.6484 128.524 97.393 127.809C98.1246 127.107 98.7374 126.073 99.2504 124.789C100.277 122.219 100.966 118.488 101.318 113.9C101.679 109.199 101.689 103.557 101.327 97.2646C107.591 100.415 113.356 102.973 118.313 104.822C123.127 106.618 127.209 107.757 130.256 108.111C131.778 108.287 133.081 108.273 134.104 108.022C135.131 107.77 135.946 107.257 136.34 106.39C136.727 105.543 136.63 104.53 136.239 103.459C135.845 102.38 135.125 101.16 134.134 99.83C132.152 97.1674 129.016 93.9711 124.986 90.452ZM85.3684 88.5532C83.9424 89.2015 82.5274 89.8148 81.1484 90.3903C80.8024 88.7189 80.4762 87.0603 80.1697 85.435C80.9417 85.9082 81.72 86.3807 82.5042 86.8522L82.5043 86.8523C83.4632 87.4286 84.4182 87.9957 85.3684 88.5532ZM97.541 91.828C95.576 90.8088 93.82 89.859 92.3131 89.0218C93.0908 88.6201 93.8705 88.2102 94.6513 87.7921C95.4763 87.3503 96.2915 86.9053 97.0963 86.4577C97.2757 88.2959 97.422 90.096 97.541 91.828ZM124.469 103.359C115.735 100.466 107.588 96.8461 101.081 93.6228C100.859 90.7522 100.565 87.7665 100.197 84.6904C102.542 83.3209 104.785 81.9336 106.911 80.5431C116.911 87.7575 123.131 93.0287 126.997 96.788C131.447 101.114 132.751 103.411 133.127 104.333C133.169 104.439 133.161 104.515 133.149 104.551C133.138 104.581 133.122 104.599 133.09 104.612L133.086 104.613C132.651 104.789 131.919 104.837 130.982 104.765C130.068 104.694 129.04 104.516 128.068 104.307C127.099 104.098 126.197 103.86 125.537 103.675C125.207 103.582 124.938 103.503 124.752 103.447C124.659 103.419 124.587 103.396 124.539 103.381L124.484 103.364L124.472 103.36L124.47 103.36L124.469 103.359ZM53.0853 89.4087C56.4119 85.4958 61.9375 81.2932 67.8055 77.4415C70.4515 79.2481 73.2216 81.0718 76.0944 82.8939C76.6383 85.9219 77.2289 88.8726 77.8575 91.722C77.047 92.0401 76.2584 92.3426 75.4976 92.6289C72.6499 93.7001 70.1968 94.5412 68.4563 95.1142C67.5861 95.4007 66.8943 95.6201 66.4205 95.7678C66.1836 95.8416 66.0012 95.8975 65.8783 95.9348L65.7393 95.9768L65.7044 95.9873L65.6958 95.9898L65.6946 95.9902L65.6938 95.9904L65.6933 95.9906C59.4483 97.8269 55.2402 98.2795 52.6134 98.2809C51.3002 98.2815 50.3825 98.1695 49.8028 98.0613C49.513 98.0072 49.3075 97.954 49.1791 97.9163C49.115 97.8974 49.07 97.8824 49.0435 97.8731C49.0302 97.8684 49.0215 97.8652 49.0172 97.8636C49.0171 97.8635 49.0171 97.8636 49.017 97.8635C49.0165 97.8634 49.0166 97.8634 49.0163 97.8633C49.0158 97.863 49.0154 97.8629 49.0152 97.8628L49.0144 97.8625L49.0142 97.8624L48.9664 97.8427L48.9119 97.832C48.4622 97.7439 48.3415 97.5518 48.2973 97.4531C48.2682 97.3881 48.2567 97.3245 48.2529 97.2766C48.2518 97.2618 48.2514 97.2495 48.2514 97.2403C48.6638 95.3263 49.8375 93.3919 50.9479 91.9049C51.5021 91.1628 52.0303 90.5454 52.4196 90.1139C52.6141 89.8984 52.7735 89.7298 52.8835 89.6158C52.9385 89.5588 52.9811 89.5155 53.0095 89.4869L53.0413 89.4551L53.0488 89.4476L53.0504 89.446L53.0505 89.4459L53.0507 89.4458L53.0688 89.4281L53.0853 89.4087ZM88.7182 86.9717C88.0383 86.5729 87.4924 86.2458 87.0934 86.0038C86.8357 85.8476 86.6393 85.7269 86.5076 85.6455C86.4417 85.6047 86.3921 85.5738 86.359 85.5532L86.322 85.5301L86.3129 85.5244L86.3108 85.523L86.3103 85.5227L86.0105 85.9986L86.3102 85.5227L86.2994 85.5158L86.2882 85.5095C83.9965 84.2082 81.694 82.8165 79.434 81.3894C78.7748 77.6311 78.2344 74.1779 77.8158 71.3236C80.6311 69.7085 83.258 68.2769 85.4612 67.1089C89.1558 69.231 92.5096 71.2291 95.2287 72.8785C95.3233 73.4681 95.396 73.951 95.4491 74.3173C95.4885 74.589 95.5171 74.7965 95.5357 74.9356C95.5451 75.0051 95.5519 75.0576 95.5564 75.0924L95.5614 75.1314L95.5626 75.1409L95.5629 75.1431L95.563 75.1436L95.5648 75.1588L95.5676 75.1739C96.0172 77.6734 96.3863 80.2128 96.6891 82.7202C96.1806 83.0021 95.7635 83.2264 95.4506 83.3917C95.2327 83.5068 95.0654 83.5933 94.9531 83.6508C94.8969 83.6795 94.8545 83.701 94.8263 83.7152L94.7949 83.731L94.7874 83.7347L94.7857 83.7356L94.7854 83.7358L94.7684 83.7442L94.752 83.7537C92.8084 84.8877 90.7723 85.9633 88.7182 86.9717ZM106.625 76.4551C103.915 74.6007 101.074 72.728 98.125 70.8571C97.5818 67.8333 96.992 64.8866 96.3644 62.041C99.56 60.8089 102.427 59.7962 104.997 58.9669C106.134 60.0807 107.627 60.8352 109.185 60.9577C110.701 61.077 112.029 60.5754 112.919 59.6207C113.675 58.8112 114.082 57.7113 114.052 56.4787C121.288 54.9125 124.455 55.4804 125.567 55.8538C125.677 55.8912 125.789 55.9684 125.874 56.0744C125.958 56.181 125.993 56.2887 125.997 56.3671L125.997 56.3747C126.026 56.8926 125.849 57.5568 125.51 58.3051C125.176 59.0418 124.712 59.8042 124.233 60.5003C123.757 61.1943 123.274 61.8106 122.91 62.2538C122.728 62.4751 122.576 62.6525 122.471 62.774C122.418 62.8347 122.377 62.8814 122.349 62.9126L122.318 62.9476L122.314 62.9523C122.313 62.9534 122.312 62.9545 122.311 62.9556C117.125 68.5022 111.462 73.0452 106.625 76.4551ZM51.817 50.9838C57.7521 52.7303 65.506 56.3365 73.1553 60.337C73.3749 63.146 73.6638 66.0642 74.0237 69.0687C71.6826 70.4361 69.4429 71.8212 67.3196 73.2094C66.4291 72.5728 65.5702 71.9515 64.7483 71.3512C61.7892 69.19 59.3127 67.3028 57.574 65.9543C57.8292 65.2393 57.9063 64.4293 57.7776 63.572C57.3326 60.6074 54.5781 58.0427 51.5879 57.8076C50.4916 57.7214 49.4942 57.9595 48.6892 58.4587C46.275 56.1867 44.6387 54.3774 43.5377 53.0063C42.6444 51.8939 42.1049 51.0718 41.7885 50.5269L41.8455 50.5314L41.367 49.6776L41.3098 49.5035L41.2616 49.4777C41.1915 49.3249 41.1791 49.2322 41.179 49.1885C41.1789 49.1624 41.1829 49.151 41.1836 49.1491C41.1845 49.1468 41.1853 49.1452 41.1876 49.1424C41.195 49.1335 41.2138 49.1183 41.2455 49.1041C41.2518 49.1012 41.2576 49.0989 41.2626 49.0971C43.3052 48.8781 45.9062 49.3287 48.0463 49.858C49.1148 50.1223 50.0511 50.4017 50.7201 50.6149C51.0544 50.7215 51.3215 50.8114 51.5042 50.8744C51.5956 50.9059 51.6659 50.9307 51.7129 50.9474L51.7658 50.9664L51.7787 50.971L51.7817 50.9721L51.7823 50.9723L51.7824 50.9724L51.7994 50.9786L51.817 50.9838ZM93.3416 63.2332C93.3527 63.2819 93.3636 63.3304 93.3746 63.3787C93.8102 65.3064 94.1701 67.0504 94.4634 68.5697C93.5595 68.0136 92.6469 67.4585 91.726 66.9047L91.726 66.9047C90.8083 66.3529 89.8942 65.8095 88.9843 65.2749C89.6211 64.9497 90.1671 64.6746 90.6072 64.4546C91.0126 64.2519 91.3282 64.096 91.5421 63.9909C91.6491 63.9383 91.7307 63.8985 91.7854 63.8718L91.8471 63.8418L91.8523 63.8393C92.3558 63.6324 92.8522 63.4304 93.3416 63.2332ZM103.846 78.3548C102.326 79.3617 100.934 80.2334 99.72 80.9646C99.5733 79.8874 99.4178 78.8008 99.2534 77.7057C99.1221 76.8309 98.9866 75.9608 98.8472 75.0959C99.598 75.5608 100.238 75.9602 100.751 76.2821C101.219 76.5755 101.581 76.8044 101.827 76.96C101.949 77.0378 102.043 77.0972 102.105 77.1371L102.176 77.1822L102.19 77.1911C102.752 77.584 103.304 77.9719 103.846 78.3548ZM87.834 83.3517C89.6701 83.496 91.2674 82.8888 92.3361 81.7432C93.4048 80.5975 93.8989 78.9625 93.6256 77.1422C93.0856 73.5445 89.7363 70.4259 86.1074 70.1405C84.2713 69.9961 82.674 70.6033 81.6053 71.749C80.5366 72.8947 80.0425 74.5297 80.3158 76.35C80.8558 79.9477 84.2051 83.0663 87.834 83.3517Z" stroke="#09031D" stroke-width="1.125"/>
</g>
<defs>
<filter id="filter0_d_2236_7196" x="0.750183" y="8.77075" width="155.509" height="152.979" filterUnits="userSpaceOnUse" color-interpolation-filters="sRGB">
<feFlood flood-opacity="0" result="BackgroundImageFix"/>
<feColorMatrix in="SourceAlpha" type="matrix" values="0 0 0 0 0 0 0 0 0 0 0 0 0 0 0 0 0 0 127 0" result="hardAlpha"/>
<feOffset dx="-1.125" dy="1.125"/>
<feComposite in2="hardAlpha" operator="out"/>
<feColorMatrix type="matrix" values="0 0 0 0 0.0352941 0 0 0 0 0.0117647 0 0 0 0 0.113725 0 0 0 1 0"/>
<feBlend mode="normal" in2="BackgroundImageFix" result="effect1_dropShadow_2236_7196"/>
<feBlend mode="normal" in="SourceGraphic" in2="effect1_dropShadow_2236_7196" result="shape"/>
</filter>
<filter id="filter1_d_2236_7196" x="8.71245" y="0.875" width="155.448" height="152.92" filterUnits="userSpaceOnUse" color-interpolation-filters="sRGB">
<feFlood flood-opacity="0" result="BackgroundImageFix"/>
<feColorMatrix in="SourceAlpha" type="matrix" values="0 0 0 0 0 0 0 0 0 0 0 0 0 0 0 0 0 0 127 0" result="hardAlpha"/>
<feOffset dx="-1.125" dy="1.125"/>
<feComposite in2="hardAlpha" operator="out"/>
<feColorMatrix type="matrix" values="0 0 0 0 0.0352941 0 0 0 0 0.0117647 0 0 0 0 0.113725 0 0 0 1 0"/>
<feBlend mode="normal" in2="BackgroundImageFix" result="effect1_dropShadow_2236_7196"/>
<feBlend mode="normal" in="SourceGraphic" in2="effect1_dropShadow_2236_7196" result="shape"/>
</filter>
<filter id="filter2_d_2236_7196" x="35.9472" y="24.3594" width="101.201" height="106.163" filterUnits="userSpaceOnUse" color-interpolation-filters="sRGB">
<feFlood flood-opacity="0" result="BackgroundImageFix"/>
<feColorMatrix in="SourceAlpha" type="matrix" values="0 0 0 0 0 0 0 0 0 0 0 0 0 0 0 0 0 0 127 0" result="hardAlpha"/>
<feOffset dx="-1.125" dy="1.125"/>
<feComposite in2="hardAlpha" operator="out"/>
<feColorMatrix type="matrix" values="0 0 0 0 0.0352941 0 0 0 0 0.0117647 0 0 0 0 0.113725 0 0 0 1 0"/>
<feBlend mode="normal" in2="BackgroundImageFix" result="effect1_dropShadow_2236_7196"/>
<feBlend mode="normal" in="SourceGraphic" in2="effect1_dropShadow_2236_7196" result="shape"/>
</filter>
</defs>
</svg>
