<svg width="18" height="18" viewBox="0 0 18 18" fill="none" xmlns="http://www.w3.org/2000/svg">
<g clip-path="url(#clip0_1738_8761)">
<rect x="1" y="1" width="16" height="16" rx="4" fill="#3CC194"/>
<path d="M10.2304 10.0487V10.0624L10.2236 10.0811L9.62202 10.7713L9.45842 11.6421L9.45331 11.6489C9.38684 11.7256 9.31868 11.7989 9.2471 11.8671L9.23858 11.8756C8.71541 12.3544 8.03374 12.6203 7.32481 12.622L7.30095 12.6203L7.19018 12.622C6.48296 12.6254 5.79448 12.3885 5.24063 11.9489L5.2304 11.9403C4.55896 11.412 4.14144 10.6247 4.0818 9.77264C4.0818 9.76583 4.0818 9.75731 4.0835 9.75049C4.0801 9.70789 4.07839 9.66528 4.07839 9.62268L4.05794 8.38205V8.36671L4 4.88L5.52352 5.41852L5.54908 6.99487L5.31561 7.99861L5.59168 9.08076L5.58998 9.11313L5.5968 9.61757C5.62065 10.4696 6.32106 11.1445 7.17314 11.1377C7.38957 11.136 7.60259 11.09 7.80027 11.0013L7.8105 10.9962C8.35072 10.7389 8.69496 10.197 8.70007 9.59882V9.0586L9.26074 8.28491L9.43115 7.5436V7.53679C9.49421 7.45328 9.56408 7.37489 9.63906 7.30161L9.65099 7.29139L9.65951 7.28457V7.27776H9.67314L9.68507 7.26753C9.8998 7.06644 10.1503 6.90454 10.4213 6.78866C10.832 6.61995 11.2716 6.53474 11.7164 6.53815L11.9158 6.54838H11.926C12.6656 6.59439 13.3643 6.90114 13.896 7.4175L13.9216 7.44306L12.8701 8.50305L12.8446 8.47748C12.6009 8.24061 12.2873 8.08723 11.9499 8.04292H11.9397C11.8749 8.03611 11.8085 8.0327 11.7437 8.0327C11.333 8.0327 10.941 8.19971 10.6547 8.49452C10.6189 8.53202 10.5866 8.56951 10.5542 8.61041L10.5474 8.62063C10.3275 8.89671 10.2134 9.24095 10.2202 9.59371L10.2168 9.62949C10.2181 9.6809 10.2209 9.74657 10.2237 9.81115C10.2282 9.91355 10.2325 10.0132 10.2304 10.0487Z" fill="white"/>
<path d="M5.57294 8.04292V8.05315L5.78425 8.84558L5.82686 8.77742C6.05521 8.44681 6.40286 8.21675 6.79652 8.14006H6.81356C6.9516 8.11109 7.09305 8.10086 7.23449 8.10768C7.44751 8.12131 7.65371 8.18266 7.84117 8.28491L7.85651 8.29343C8.11384 8.43829 8.34219 8.63086 8.52795 8.86092L8.55862 8.90011L9.05624 8.19971L9.21472 7.4601L9.19768 7.44647L9.14144 7.39705C8.81595 7.09712 8.43081 6.87217 8.00988 6.73413C7.78323 6.66596 7.54806 6.62847 7.31288 6.62506H7.30266C6.76926 6.62677 6.24608 6.7614 5.77744 7.01532L5.7621 7.02384L5.55249 7.96283L5.57294 8.04292Z" fill="white"/>
<path d="M12.9076 10.623L12.8838 10.6486C12.7372 10.7968 12.56 10.9144 12.3657 10.9911H12.3555C12.1766 11.061 11.9857 11.0968 11.7948 11.0968C11.5136 11.1019 11.2359 11.0422 10.9819 10.9212H10.9666L10.9189 10.8974C10.6837 10.7713 10.4911 10.5787 10.3633 10.3435L10.3395 10.3009L9.8197 10.8582C9.8197 10.8582 9.71575 11.3916 9.66973 11.6523V11.6694L9.68166 11.6813L9.68848 11.6898C10.2168 12.2692 10.9649 12.5981 11.7488 12.5981L11.7914 12.5998L11.8255 12.6015C12.3384 12.6015 12.8429 12.4703 13.2911 12.2215L13.3047 12.2147C13.5518 12.075 13.7785 11.9011 13.9761 11.6983L14 11.6728L12.9076 10.623Z" fill="white"/>
</g>
<rect x="0.5" y="0.5" width="17" height="17" rx="4.5" stroke="#1F1A34"/>
<defs>
<clipPath id="clip0_1738_8761">
<rect x="1" y="1" width="16" height="16" rx="4" fill="white"/>
</clipPath>
</defs>
</svg>
