<svg width="18" height="18" viewBox="0 0 18 18" fill="none" xmlns="http://www.w3.org/2000/svg">
<g clip-path="url(#clip0_1738_8806)">
<rect x="1" y="1" width="16" height="16" rx="4" fill="white" fill-opacity="0.08"/>
<path d="M15 9C15 12.3137 12.3137 15 9 15C5.68629 15 3 12.3137 3 9C3 5.68629 5.68629 3 9 3C12.3137 3 15 5.68629 15 9Z" fill="white"/>
<path d="M8.98872 3C8.53844 3 8.08818 3.04554 7.6379 3.15939C7.6379 3.18216 7.6379 3.20493 7.6379 3.2277V10.6281C7.6379 10.7875 7.50281 10.9013 7.36773 10.9013H6.82739C6.71482 10.9013 6.62477 10.8103 6.62477 10.6964V3.47818C4.48593 4.38899 3 6.52941 3 8.98858C3 12.3131 5.67917 15 9.01128 15C12.3434 15 15 12.3131 15 9.01136C15 5.70967 12.2983 3 8.98872 3ZM8.87619 11.4933C8.87619 11.6299 8.76361 11.7438 8.62852 11.7438H8.08818C7.9531 11.7438 7.84053 11.6299 7.84053 11.4933V7.6907C7.84053 7.55407 7.9531 7.44022 8.08818 7.44022H8.62852C8.76361 7.44022 8.87619 7.55407 8.87619 7.6907V11.4933ZM10.0919 11.8577C10.0919 11.9943 9.97937 12.1082 9.84427 12.1082H9.30397C9.16888 12.1082 9.05629 11.9943 9.05629 11.8577V7.32637C9.05629 7.18975 9.16888 7.07589 9.30397 7.07589H9.84427C9.97937 7.07589 10.0919 7.18975 10.0919 7.32637V11.8577ZM11.3077 11.1746C11.3077 11.3112 11.1951 11.425 11.06 11.425H10.5197C10.3846 11.425 10.2721 11.3112 10.2721 11.1746V8.05502C10.2721 7.9184 10.3846 7.80454 10.5197 7.80454H11.06C11.1951 7.80454 11.3077 7.9184 11.3077 8.05502V11.1746Z" fill="#FF005C"/>
<path d="M8.98872 3C8.53844 3 8.08818 3.04554 7.6379 3.15939C7.6379 3.18216 7.6379 3.20493 7.6379 3.2277V10.6281C7.6379 10.7875 7.50281 10.9013 7.36773 10.9013H6.82739C6.71482 10.9013 6.62477 10.8103 6.62477 10.6964V3.47818C4.48593 4.38899 3 6.52941 3 8.98858C3 12.3131 5.67917 15 9.01128 15C12.3434 15 15 12.3131 15 9.01136C15 5.70967 12.2983 3 8.98872 3ZM8.87619 11.4933C8.87619 11.6299 8.76361 11.7438 8.62852 11.7438H8.08818C7.9531 11.7438 7.84053 11.6299 7.84053 11.4933V7.6907C7.84053 7.55407 7.9531 7.44022 8.08818 7.44022H8.62852C8.76361 7.44022 8.87619 7.55407 8.87619 7.6907V11.4933ZM10.0919 11.8577C10.0919 11.9943 9.97937 12.1082 9.84427 12.1082H9.30397C9.16888 12.1082 9.05629 11.9943 9.05629 11.8577V7.32637C9.05629 7.18975 9.16888 7.07589 9.30397 7.07589H9.84427C9.97937 7.07589 10.0919 7.18975 10.0919 7.32637V11.8577ZM11.3077 11.1746C11.3077 11.3112 11.1951 11.425 11.06 11.425H10.5197C10.3846 11.425 10.2721 11.3112 10.2721 11.1746V8.05502C10.2721 7.9184 10.3846 7.80454 10.5197 7.80454H11.06C11.1951 7.80454 11.3077 7.9184 11.3077 8.05502V11.1746Z" fill="url(#paint0_linear_1738_8806)" fill-opacity="0.4"/>
</g>
<rect x="0.5" y="0.5" width="17" height="17" rx="4.5" stroke="#1F1A34"/>
<defs>
<linearGradient id="paint0_linear_1738_8806" x1="9" y1="3" x2="9" y2="15" gradientUnits="userSpaceOnUse">
<stop stop-color="#00E0FF"/>
<stop offset="1" stop-color="#00E0FF" stop-opacity="0"/>
</linearGradient>
<clipPath id="clip0_1738_8806">
<rect x="1" y="1" width="16" height="16" rx="4" fill="white"/>
</clipPath>
</defs>
</svg>
