<svg width="18" height="18" viewBox="0 0 18 18" fill="none" xmlns="http://www.w3.org/2000/svg">
<g clip-path="url(#clip0_1775_6061)">
<rect x="1" y="1" width="16" height="16" rx="4" fill="white" fill-opacity="0.08"/>
<path d="M7.53915 8.58368C7.34949 8.33666 7.22539 8.05732 7.22539 7.70071C7.22539 7.48904 7.24834 7.35792 7.27761 7.23546C7.10715 7.59652 7.04837 7.86532 7.04837 8.11937C7.04837 9.46572 8.28491 9.6404 8.28491 10.592C8.28491 10.8221 8.16245 11.135 7.74941 11.7208C8.99298 10.063 9.30931 9.46713 9.30931 9.05292C9.30931 7.89505 8.07746 7.70141 8.07746 6.39861C8.07746 6.10148 8.24698 5.74394 8.56636 5.27751C8.16994 5.80341 7.82996 6.28693 7.64756 6.57938C7.46539 6.87136 7.34083 7.24272 7.34083 7.72623C7.34106 8.14395 7.44736 8.40761 7.53915 8.58368Z" fill="white"/>
<path d="M11.2586 12.6721C10.0895 12.6721 7.83066 11.6166 6.90648 11.6166C6.27569 11.6166 5.52548 12.435 4 13.9251C4.59638 13.3425 5.11618 12.9365 5.58682 12.9365C7.16896 12.9365 8.63098 14 10.2471 14C10.3967 14 10.4597 13.9581 10.5337 13.8806C10.7257 13.6795 11.2029 13.1735 11.7505 12.5909C11.5773 12.6574 11.4283 12.6721 11.2586 12.6721ZM10.788 8.20296L9.45706 9.32781C10.9807 9.59099 11.8386 10.5571 11.8386 11.8477C11.8386 12.1692 11.8088 12.3589 11.7505 12.5909L11.7508 12.5907C12.4087 11.8906 13.1599 11.0954 13.1819 11.0731C13.1819 9.3531 11.9472 8.40409 10.788 8.20296Z" fill="white"/>
<path d="M7.34996 10.4463C7.75901 10.4463 8.07371 10.3677 8.07371 10.3677C8.07371 10.3677 7.78383 10.437 7.34996 10.437C5.76314 10.437 4.71345 9.28824 4.71345 7.98146C4.71345 6.69387 5.8973 5.17191 8.16222 5.17191C10.0705 5.17191 11.2059 6.59811 11.2174 7.88054L12.6344 6.71167C12.1971 5.20539 10.7503 4 8.69444 4C6.22745 4 4.57296 6.05348 4.57296 7.68666C4.57296 9.31282 5.66315 10.4463 7.34996 10.4463Z" fill="white"/>
</g>
<rect x="0.5" y="0.5" width="17" height="17" rx="4.5" stroke="#1F1A34"/>
<defs>
<clipPath id="clip0_1775_6061">
<rect x="1" y="1" width="16" height="16" rx="4" fill="white"/>
</clipPath>
</defs>
</svg>
