<svg width="18" height="18" viewBox="0 0 18 18" fill="none" xmlns="http://www.w3.org/2000/svg">
<g clip-path="url(#clip0_1738_8942)">
<rect x="1" y="1" width="16" height="16" rx="4" fill="white" fill-opacity="0.08"/>
<path d="M14.7752 9.17429C14.7752 12.4652 11.8674 14.6293 9.65849 14.9573C9.44046 14.9899 9.27948 14.996 9.21427 14.9981C6.80569 15.0735 3.12557 12.9155 3.12557 9.17429C3.12353 6.02805 5.7257 3.35049 8.94937 3.35049C12.1669 3.35049 14.7752 5.95877 14.7752 9.17429Z" fill="#F0A841"/>
<path d="M14.9077 8.82584C14.9077 12.1168 11.9998 14.2808 9.79095 14.6089C9.57291 14.6415 9.41193 14.6476 9.34673 14.6496C6.94018 14.725 3.2621 12.5671 3.26006 8.82584C3.25802 5.6796 5.85815 3 9.08386 3C12.2994 3 14.9077 5.60828 14.9077 8.82584Z" fill="#FFD056"/>
<path d="M13.2653 8.68524C13.3101 10.5294 11.9672 12.1392 10.3595 12.5854C7.92032 13.262 5.0023 11.2222 5.02268 8.68524C5.04102 6.68827 6.87701 4.77282 9.14295 4.77282C11.3294 4.77485 13.2143 6.55786 13.2653 8.68524Z" fill="#F0A841"/>
<path d="M10.4695 5.83854C10.5204 5.97711 10.6692 6.03009 10.7792 6.11363C11.6045 6.75348 12.2219 7.52577 12.6417 8.43256C12.7477 8.66282 12.7966 8.91142 12.927 9.13353C12.929 9.1315 12.9331 9.12946 12.9351 9.12946C12.9392 9.12742 12.9392 9.12538 12.9392 9.12335C12.9514 9.10704 13.844 8.29196 14.3452 7.19974C14.4492 6.97355 14.6591 6.50691 14.7324 5.86707C14.8363 4.96436 14.5612 4.67093 14.5857 4.01275C14.5877 3.97811 14.5918 3.89048 14.5368 3.81509C14.4125 3.63984 14.0763 3.67245 13.8073 3.71728C13.0004 3.8538 12.2179 3.98626 11.4211 4.66278C11.1664 4.88082 10.7894 5.25779 10.4695 5.83854Z" fill="#3D3C3A"/>
<path d="M7.38644 5.95877C7.33549 6.09733 7.18674 6.15031 7.07671 6.23386C6.25143 6.8737 5.634 7.646 5.21423 8.55278C5.10827 8.78304 5.05936 9.03165 4.92895 9.25376C4.92691 9.25172 4.92284 9.24968 4.9208 9.24968C4.91672 9.24765 4.91672 9.24561 4.91672 9.24357C4.9045 9.22727 4.01198 8.41218 3.5107 7.31996C3.40677 7.09378 3.19689 6.62714 3.12353 5.98729C3.01961 5.08458 3.2947 4.79115 3.27025 4.13297C3.26821 4.09833 3.26413 4.01071 3.31915 3.93531C3.44345 3.76007 3.77968 3.79267 4.04865 3.8375C4.85559 3.97403 5.63808 4.10648 6.43482 4.783C6.68954 5.00308 7.06855 5.37802 7.38644 5.95877Z" fill="#3D3C3A"/>
<path d="M7.20508 6.22163C7.16432 6.33982 7.04817 6.38465 6.96259 6.45597C6.31256 7.00004 5.82554 7.65822 5.49543 8.43052C5.41188 8.62614 5.37317 8.83806 5.27128 9.02757C5.26721 9.02553 5.26109 9.02146 5.26109 9.01942C5.2183 8.68931 5.02675 8.43867 4.83317 8.1758C4.43582 7.63581 4.25853 7.00208 4.13016 6.35816C4.01808 5.79982 3.97937 5.23537 3.9651 4.66685C3.96103 4.48549 4.00993 4.44882 4.18925 4.48549C5.39354 4.7341 6.40018 5.31077 7.20508 6.22163Z" fill="#FFD056"/>
<path d="M10.9443 6.14216C10.983 6.26035 11.1012 6.30518 11.1868 6.37854C11.8327 6.92668 12.3157 7.58691 12.6417 8.36124C12.7253 8.5589 12.7619 8.76878 12.8618 8.95829C12.8659 8.95625 12.872 8.95218 12.872 8.95014C12.9168 8.62003 13.1084 8.37143 13.304 8.10856C13.7034 7.5706 13.8847 6.93891 14.0172 6.29499C14.1333 5.73869 14.1761 5.17221 14.1924 4.60572C14.1985 4.42436 14.1496 4.38565 13.9683 4.42233C12.764 4.66482 11.7553 5.23538 10.9443 6.14216Z" fill="#FFD056"/>
<path d="M10.7976 6.43559C10.8343 6.53952 10.9443 6.57823 11.0238 6.6414C11.6269 7.11823 12.0793 7.69083 12.387 8.36531C12.4644 8.53648 12.5011 8.72191 12.5948 8.88697C12.5989 8.88493 12.605 8.88289 12.605 8.87882C12.6458 8.5915 12.8231 8.37142 13.0024 8.14116C13.3712 7.66841 13.5363 7.11619 13.6565 6.55378C13.7604 6.06676 13.7971 5.5716 13.8114 5.07643C13.8154 4.91749 13.7706 4.88489 13.6035 4.91749C12.4787 5.13553 11.5454 5.64088 10.7976 6.43559Z" fill="white"/>
<path d="M7.40682 6.56601C7.37014 6.66993 7.2601 6.70865 7.18063 6.77182C6.57747 7.24864 6.12509 7.82124 5.8174 8.49573C5.73996 8.6669 5.70329 8.85233 5.60955 9.01738C5.60548 9.01535 5.59936 9.01331 5.59936 9.00923C5.55861 8.72192 5.38133 8.50184 5.20201 8.27158C4.83318 7.79883 4.66812 7.24661 4.5479 6.6842C4.44398 6.19718 4.4073 5.70202 4.39303 5.20685C4.38896 5.04791 4.43379 5.0153 4.60088 5.04791C5.7257 5.26391 6.66101 5.76926 7.40682 6.56601Z" fill="white"/>
<path d="M9.04107 12.9094C11.3166 12.9094 13.1613 11.1578 13.1613 8.99701C13.1613 6.83624 11.3166 5.08459 9.04107 5.08459C6.76551 5.08459 4.9208 6.83624 4.9208 8.99701C4.9208 11.1578 6.76551 12.9094 9.04107 12.9094Z" fill="#3D3C3A"/>
<path d="M6.78939 11.1835C7.5963 11.1835 8.25043 10.5293 8.25043 9.72243C8.25043 8.91552 7.5963 8.26139 6.78939 8.26139C5.98248 8.26139 5.32834 8.91552 5.32834 9.72243C5.32834 10.5293 5.98248 11.1835 6.78939 11.1835Z" fill="#FFD056"/>
<path d="M6.82403 10.7759C7.46326 10.7759 7.98145 10.2577 7.98145 9.61851C7.98145 8.97928 7.46326 8.46109 6.82403 8.46109C6.1848 8.46109 5.66661 8.97928 5.66661 9.61851C5.66661 10.2577 6.1848 10.7759 6.82403 10.7759Z" fill="#3D3C3A"/>
<path d="M11.9672 11.1081C12.7741 11.1081 13.4283 10.454 13.4283 9.64704C13.4283 8.84013 12.7741 8.18599 11.9672 8.18599C11.1603 8.18599 10.5062 8.84013 10.5062 9.64704C10.5062 10.454 11.1603 11.1081 11.9672 11.1081Z" fill="#FFD056"/>
<path d="M12.0019 10.7005C12.6411 10.7005 13.1593 10.1823 13.1593 9.54312C13.1593 8.90389 12.6411 8.38569 12.0019 8.38569C11.3626 8.38569 10.8444 8.90389 10.8444 9.54312C10.8444 10.1823 11.3626 10.7005 12.0019 10.7005Z" fill="#3D3C3A"/>
<path d="M12.3096 9.34749C12.5009 9.34749 12.656 9.1924 12.656 9.00108C12.656 8.80976 12.5009 8.65467 12.3096 8.65467C12.1183 8.65467 11.9632 8.80976 11.9632 9.00108C11.9632 9.1924 12.1183 9.34749 12.3096 9.34749Z" fill="#FFF8E8"/>
<path d="M11.4942 10.4578C11.5121 10.3478 11.4374 10.2442 11.3274 10.2264C11.2174 10.2085 11.1138 10.2832 11.096 10.3932C11.0781 10.5031 11.1528 10.6068 11.2628 10.6246C11.3727 10.6425 11.4764 10.5678 11.4942 10.4578Z" fill="#FFF8E8"/>
<path d="M8.84952 13.1703C8.92491 13.2966 9.16536 13.698 9.60144 13.698C9.91321 13.698 10.2087 13.4881 10.3513 13.1723C10.3819 13.0663 10.4756 12.7118 10.2922 12.4387C9.956 11.9395 8.91472 12.0291 8.70484 12.4509C8.57239 12.7138 8.78635 13.0663 8.84952 13.1703Z" fill="#FF7456"/>
<path d="M11.2235 11.7133C11.2887 12.1168 11.1297 12.5324 10.8546 12.8035C10.6325 13.0235 10.388 13.0949 10.1761 13.154C9.98861 13.2069 9.03699 13.4718 8.30137 12.8911C8.19134 12.8055 7.72878 12.4387 7.70636 11.8783C7.69413 11.5768 7.8164 11.3424 7.89179 11.1977C8.1567 10.7005 8.45624 10.6985 8.70281 10.3786C9.29171 9.6124 8.6865 8.17785 9.07163 7.65008C9.10627 7.60117 9.20612 7.46668 9.34265 7.46464C9.4751 7.46261 9.57699 7.58894 9.61367 7.63377C10.0294 8.14932 9.57087 9.64093 10.2392 10.3867C10.443 10.615 10.7038 10.7189 10.9851 11.1672C11.0951 11.3383 11.1868 11.4912 11.2235 11.7133Z" fill="white"/>
<path d="M9.49751 12.0617C9.308 12.0189 9.15314 11.915 9.14295 11.9069C9.00642 11.8152 8.84136 11.7031 8.85359 11.5645C8.8597 11.4973 8.90453 11.4463 8.91472 11.4362C8.96567 11.3832 9.03495 11.3648 9.15314 11.3363C9.16944 11.3322 9.19185 11.3261 9.22242 11.322C9.52196 11.267 9.85004 11.3057 9.85004 11.3057C9.91524 11.3139 9.98453 11.3241 10.0579 11.3404C10.1149 11.3526 10.17 11.3669 10.2189 11.3811C10.278 11.3954 10.3248 11.4362 10.3411 11.4912C10.3595 11.5543 10.3289 11.6073 10.3248 11.6175C10.2494 11.754 10.1618 11.8457 10.1007 11.8987C10.0273 11.9639 9.94173 12.0393 9.81336 12.0679C9.73389 12.0862 9.65441 12.0821 9.63608 12.0821C9.6157 12.0801 9.56476 12.076 9.49751 12.0617Z" fill="#3D3C3A"/>
<path d="M7.12968 9.42289C7.321 9.42289 7.4761 9.2678 7.4761 9.07648C7.4761 8.88516 7.321 8.73006 7.12968 8.73006C6.93837 8.73006 6.78327 8.88516 6.78327 9.07648C6.78327 9.2678 6.93837 9.42289 7.12968 9.42289Z" fill="#FFF8E8"/>
<path d="M6.28199 10.7026C6.39341 10.7026 6.48373 10.6123 6.48373 10.5008C6.48373 10.3894 6.39341 10.2991 6.28199 10.2991C6.17058 10.2991 6.08026 10.3894 6.08026 10.5008C6.08026 10.6123 6.17058 10.7026 6.28199 10.7026Z" fill="#FFF8E8"/>
</g>
<rect x="0.5" y="0.5" width="17" height="17" rx="4.5" stroke="#1F1A34"/>
<defs>
<clipPath id="clip0_1738_8942">
<rect x="1" y="1" width="16" height="16" rx="4" fill="white"/>
</clipPath>
</defs>
</svg>
