<svg width="18" height="18" viewBox="0 0 18 18" fill="none" xmlns="http://www.w3.org/2000/svg">
<g clip-path="url(#clip0_1738_8960)">
<rect x="1" y="1" width="16" height="16" rx="4" fill="white" fill-opacity="0.08"/>
<path d="M13.7311 10.9579H7.27066V7.35513H6.27555V11.4557C6.27553 11.5211 6.2884 11.5858 6.3134 11.6462C6.33841 11.7066 6.37507 11.7614 6.42129 11.8076C6.46751 11.8539 6.52238 11.8905 6.58276 11.9155C6.64315 11.9405 6.70787 11.9533 6.77323 11.9533H12.4334L11.2645 13.0046H4.99499V7.04157H6.27555H7.27066H11.4554C11.5783 7.04161 11.6968 6.99614 11.7881 6.91394L14.0639 4.86797C14.139 4.80069 14.1918 4.71222 14.2154 4.61426C14.2391 4.5163 14.2324 4.41347 14.1963 4.31939C14.1602 4.2253 14.0964 4.14438 14.0133 4.08735C13.9303 4.03032 13.8318 3.99986 13.7311 4H6.77323C6.70788 3.99998 6.64316 4.01284 6.58278 4.03784C6.5224 4.06284 6.46754 4.09948 6.42132 4.14569C6.37511 4.19189 6.33845 4.24675 6.31344 4.30712C6.28842 4.3675 6.27555 4.43221 6.27555 4.49756V5.73227H7.27066V4.99523H12.4336L11.2648 6.04658H7.27066H6.27555H4.49743C4.36552 6.04661 4.23901 6.09903 4.14573 6.19231C4.05245 6.28559 4.00003 6.41209 4 6.54401V13.5021C3.99995 13.5674 4.01278 13.6322 4.03776 13.6926C4.06273 13.753 4.09936 13.8079 4.14556 13.8541C4.19175 13.9003 4.2466 13.937 4.30698 13.9621C4.36736 13.9871 4.43207 14 4.49743 14H11.4554C11.5782 14 11.6968 13.9546 11.7881 13.8725L14.0639 11.8256C14.1389 11.7583 14.1918 11.6698 14.2154 11.5719C14.239 11.474 14.2324 11.3712 14.1963 11.2771C14.1603 11.183 14.0965 11.1021 14.0135 11.045C13.9304 10.988 13.832 10.9575 13.7313 10.9576L13.7311 10.9579Z" fill="#E91D3D"/>
</g>
<rect x="0.5" y="0.5" width="17" height="17" rx="4.5" stroke="#1F1A34"/>
<defs>
<clipPath id="clip0_1738_8960">
<rect x="1" y="1" width="16" height="16" rx="4" fill="white"/>
</clipPath>
</defs>
</svg>
