<svg width="18" height="18" viewBox="0 0 18 18" fill="none" xmlns="http://www.w3.org/2000/svg">
<g clip-path="url(#clip0_1739_9040)">
<rect x="1" y="1" width="16" height="16" rx="4" fill="white" fill-opacity="0.08"/>
<path d="M13.5986 11.827C13.4861 12.0008 13.3635 12.1679 13.2316 12.3275L11.9223 11.471C12.0449 11.3386 12.1578 11.1975 12.26 11.0488L11.6947 10.7221C11.2511 11.3486 10.588 11.7854 9.8373 11.9457C9.77993 11.869 9.70458 11.8075 9.61788 11.7667C9.53117 11.7259 9.43577 11.707 9.34006 11.7117C9.24435 11.7164 9.15126 11.7446 9.06899 11.7937C8.98671 11.8428 8.91777 11.9114 8.86821 11.9934C8.2344 11.9231 7.63865 11.6557 7.16497 11.2287C7.17873 11.1789 7.18572 11.1274 7.18577 11.0758C7.18593 10.9987 7.17088 10.9224 7.14148 10.8513C7.11208 10.7801 7.06892 10.7154 7.01446 10.661C6.96 10.6065 6.89533 10.5633 6.82415 10.5339C6.75296 10.5045 6.67668 10.4895 6.59966 10.4896H6.56663C6.2988 10.0317 6.15617 9.51142 6.15305 8.98095C6.23147 8.93687 6.29872 8.87537 6.3496 8.80119C6.40049 8.72701 6.43366 8.64213 6.44654 8.5531C6.45943 8.46407 6.4517 8.37327 6.42393 8.2877C6.39617 8.20213 6.34912 8.12409 6.28642 8.05958C6.4479 7.54108 6.74412 7.07473 7.14484 6.70819C7.54556 6.34166 8.0364 6.08807 8.56721 5.97335C8.67344 6.07377 8.8138 6.13018 8.95998 6.13119C9.04618 6.13128 9.13133 6.11235 9.20937 6.07576C9.28742 6.03917 9.35643 5.98582 9.41149 5.91951C9.87909 5.95047 10.3331 6.08953 10.7379 6.32574C10.7496 6.47257 10.8161 6.60962 10.9242 6.70961C11.0324 6.8096 11.1742 6.8652 11.3215 6.86535C11.351 6.86478 11.3804 6.86233 11.4096 6.85801C11.5124 6.96487 11.6069 7.0794 11.6923 7.20062L12.2527 6.86535C12.143 6.7038 12.0203 6.55156 11.8856 6.41017C11.8969 6.36453 11.9026 6.3177 11.9027 6.27068C11.9028 6.20653 11.8921 6.14282 11.8709 6.08225L13.0236 5.36277C13.2362 5.58898 13.4287 5.83342 13.5986 6.09326L14.1664 5.76411C13.4856 4.7123 12.49 3.90248 11.3215 3.45029C11.291 3.32204 11.2181 3.20784 11.1146 3.12614C11.0112 3.04443 10.8832 2.99999 10.7513 3C10.5979 2.99946 10.4505 3.05974 10.3414 3.16764C8.93771 2.89019 7.481 3.13472 6.24482 3.8553C6.17596 3.82768 6.10243 3.81355 6.02824 3.8137C5.8729 3.81402 5.72401 3.87587 5.61416 3.98572C5.50432 4.09556 5.44246 4.24445 5.44214 4.3998C5.44214 4.3998 5.44214 4.40836 5.44214 4.41326C4.64091 5.07369 4.02862 5.93429 3.66738 6.90776C3.30614 7.88123 3.20882 8.93293 3.38527 9.95616C3.25596 10.0033 3.14738 10.0945 3.07855 10.2137C3.00972 10.3329 2.98503 10.4725 3.00882 10.6081C3.03261 10.7436 3.10335 10.8665 3.20864 10.9552C3.31394 11.0438 3.44708 11.0926 3.58472 11.0929C3.62211 11.0929 3.65941 11.0892 3.69607 11.0819C4.02252 11.9244 4.53732 12.6811 5.20109 13.2941C5.20109 13.3149 5.20109 13.3357 5.20109 13.3565C5.20093 13.4336 5.21598 13.5098 5.24538 13.581C5.27477 13.6522 5.31794 13.7169 5.3724 13.7713C5.42685 13.8258 5.49153 13.869 5.56271 13.8984C5.63389 13.9278 5.71018 13.9428 5.78719 13.9426C5.85653 13.9424 5.92528 13.93 5.99031 13.9059C7.19413 14.6928 8.64481 15.0106 10.0673 14.7992C10.1378 14.88 10.2292 14.9399 10.3314 14.9724C10.4336 15.0049 10.5427 15.0088 10.647 14.9835C10.7512 14.9583 10.8465 14.9049 10.9225 14.8293C10.9985 14.7536 11.0523 14.6586 11.078 14.5544C12.3502 14.1255 13.4394 13.2779 14.1676 12.1501L13.5986 11.827ZM11.0939 4.06086C11.7494 4.31488 12.3472 4.69765 12.8522 5.18657L11.751 5.87546C11.6965 5.81588 11.6301 5.76834 11.5562 5.73589C11.4822 5.70345 11.4023 5.6868 11.3215 5.68702H11.2836L10.9801 4.12571C11.0204 4.10845 11.0586 4.0867 11.0939 4.06086ZM10.3598 4.02538C10.4639 4.11934 10.5988 4.17199 10.7391 4.17343L11.0462 5.74943C10.5661 5.47327 10.0299 5.3089 9.47757 5.26855C9.46774 5.24912 9.45671 5.23032 9.44453 5.21227L10.3598 4.02538ZM6.60945 4.39246C7.70024 3.77288 8.97703 3.56493 10.2081 3.80635C10.2081 3.80635 10.2081 3.81737 10.2081 3.82226L9.25977 5.04586C9.12732 4.96622 8.96868 4.94236 8.81867 4.97952C8.66865 5.01668 8.53949 5.11182 8.45953 5.24408L6.59722 4.54051C6.60855 4.49447 6.6143 4.44722 6.61435 4.3998L6.60945 4.39246ZM6.08331 4.98223C6.16256 4.97503 6.23949 4.95166 6.30936 4.91357C6.37923 4.87548 6.44055 4.82347 6.48954 4.76076L8.17933 5.39703C7.26224 5.6633 6.48251 6.27174 6.00132 7.09661L6.08331 4.98223ZM3.9518 8.96015C3.95171 8.19558 4.11891 7.44024 4.44169 6.74714C4.76446 6.05404 5.23498 5.43995 5.82023 4.94797L5.8447 4.95654L5.73458 7.66314C5.70195 7.7496 5.67258 7.8377 5.64648 7.92743C5.53792 7.97117 5.44495 8.0464 5.37952 8.14345C5.3141 8.24049 5.27923 8.3549 5.2794 8.47193C5.27933 8.56623 5.30244 8.65909 5.3467 8.74235L4.06559 10.0467C3.9902 9.68943 3.95206 9.3253 3.9518 8.96015ZM4.14023 10.3159L5.49965 8.93445V8.96015C5.49875 9.62817 5.67979 10.2838 6.02335 10.8567L4.16348 10.4138C4.15846 10.3806 4.15069 10.3478 4.14023 10.3159ZM5.82635 12.7729H5.78475C5.72928 12.773 5.67409 12.7808 5.62078 12.7961C4.9969 12.2137 4.52441 11.488 4.24424 10.6818L6.01234 11.1051C6.01688 11.2012 6.04505 11.2947 6.09435 11.3773C6.14365 11.4599 6.21257 11.529 6.29499 11.5786L5.82635 12.7729ZM6.0625 12.8402L6.52747 11.6582C6.57456 11.6647 6.62232 11.6647 6.66941 11.6582C7.10003 12.0636 7.62159 12.3598 8.19034 12.522L6.27908 13.0433C6.22522 12.9584 6.15071 12.8885 6.0625 12.8402ZM9.97802 14.1543C9.72039 14.1927 9.46028 14.2119 9.19981 14.2118C8.19411 14.2127 7.20958 13.9229 6.36473 13.3773C6.36473 13.3773 6.36473 13.3639 6.36473 13.3565C6.36477 13.3286 6.36232 13.3008 6.35739 13.2733L8.71159 12.6322L8.89391 12.6517C8.94843 12.7241 9.01905 12.7828 9.10018 12.8232C9.1813 12.8635 9.27071 12.8844 9.36132 12.8842C9.40498 12.8843 9.4485 12.8794 9.49103 12.8695L10.1334 13.9585C10.0701 14.0126 10.0189 14.0793 9.98291 14.1543H9.97802ZM10.5017 13.8288C10.4517 13.8291 10.402 13.8357 10.3537 13.8484L9.71984 12.7655C9.77829 12.7212 9.82807 12.6664 9.86667 12.604C10.321 12.5227 10.756 12.3567 11.149 12.1146L10.58 13.8399C10.5558 13.8349 10.5313 13.8312 10.5066 13.8288H10.5017ZM10.8504 13.9439L10.8064 13.9145L11.483 11.8821C11.5736 11.8111 11.6617 11.7365 11.7461 11.657L13.0676 12.5135C12.4631 13.1697 11.7019 13.6619 10.8553 13.9439H10.8504Z" fill="white"/>
</g>
<rect x="0.5" y="0.5" width="17" height="17" rx="4.5" stroke="#1F1A34"/>
<defs>
<clipPath id="clip0_1739_9040">
<rect x="1" y="1" width="16" height="16" rx="4" fill="white"/>
</clipPath>
</defs>
</svg>
