<svg width="18" height="18" viewBox="0 0 18 18" fill="none" xmlns="http://www.w3.org/2000/svg">
<g clip-path="url(#clip0_1739_9058)">
<rect x="1" y="1" width="16" height="16" rx="4" fill="white" fill-opacity="0.08"/>
<path d="M8.49264 15C11.8063 15 14.4926 12.3137 14.4926 9C14.4926 5.68629 11.8063 3 8.49264 3C6.83579 3 5.33579 3.67157 4.25 4.75736L6.37132 6.87868C6.91421 6.33579 7.66421 6 8.49264 6C10.1495 6 11.4926 7.34315 11.4926 9C11.4926 10.6569 10.1495 12 8.49264 12C7.66421 12 6.91421 11.6642 6.37132 11.1213L4.25 13.2426C5.33579 14.3284 6.83579 15 8.49264 15Z" fill="#25D695"/>
<path d="M8.49264 10.5C9.32107 10.5 9.99264 9.82843 9.99264 9C9.99264 8.17157 9.32107 7.5 8.49264 7.5C7.66422 7.5 6.99264 8.17157 6.99264 9C6.99264 9.82843 7.66422 10.5 8.49264 10.5Z" fill="#25D695"/>
</g>
<rect x="0.5" y="0.5" width="17" height="17" rx="4.5" stroke="#1F1A34"/>
<defs>
<clipPath id="clip0_1739_9058">
<rect x="1" y="1" width="16" height="16" rx="4" fill="white"/>
</clipPath>
</defs>
</svg>
