<svg width="189" height="38" viewBox="0 0 189 38" fill="none" xmlns="http://www.w3.org/2000/svg">
<mask id="path-1-outside-1_2236_9058" maskUnits="userSpaceOnUse" x="-2.14643" y="-5" width="194" height="43" fill="black">
<rect fill="white" x="-2.14643" y="-5" width="194" height="43"/>
<path fillRule="evenodd" clipRule="evenodd" d="M21.6639 24.4743L19.0953 21.873C18.1196 22.7833 17.1334 23.5043 16.1358 24.0357C15.139 24.5665 13.9467 24.8318 12.5595 24.8318C11.4754 24.8318 10.473 24.6208 9.55173 24.1979C8.63046 23.775 7.83377 23.1956 7.16168 22.4581C6.48958 21.7212 5.96972 20.8597 5.60076 19.8735C5.23227 18.8873 5.04845 17.8301 5.04845 16.7036C5.04845 15.5762 5.23227 14.5247 5.60076 13.5491C5.96972 12.5739 6.48958 11.7233 7.16168 10.9969C7.83377 10.2709 8.63046 9.69666 9.55173 9.27377C10.473 8.85132 11.4754 8.63988 12.5595 8.63988C13.8598 8.63988 15.0197 8.90001 16.0384 9.4203C17.0575 9.94013 18.0222 10.6231 18.9321 11.4685L21.5011 8.51004C20.9594 7.98977 20.3851 7.51293 19.7778 7.07908C19.1711 6.64566 18.51 6.27147 17.7945 5.95737C17.079 5.64285 16.2933 5.39939 15.4369 5.22611C14.5806 5.05239 13.6321 4.96553 12.5919 4.96553C10.8577 4.96553 9.27534 5.2748 7.84473 5.89246C6.4137 6.51011 5.17829 7.35545 4.1377 8.42845C3.0971 9.50145 2.28988 10.753 1.71518 12.1839C1.14048 13.6145 0.853569 15.1428 0.853569 16.7686C0.853569 18.4158 1.14618 19.9547 1.73141 21.3856C2.31664 22.8157 3.12429 24.0567 4.15393 25.1082C5.18356 26.1594 6.40272 26.9885 7.81184 27.5955C9.22095 28.2026 10.7604 28.5058 12.4292 28.5058C13.4917 28.5058 14.4617 28.4136 15.3395 28.2295C16.2174 28.0451 17.025 27.7746 17.762 27.417C18.4991 27.0591 19.1874 26.6362 19.827 26.1487C20.4663 25.6609 21.0786 25.1025 21.6639 24.4743Z"/>
<path fillRule="evenodd" clipRule="evenodd" d="M73.2593 11.4103C73.2593 10.6531 73.5827 10.0098 74.2298 9.48019C74.8764 8.94973 75.7821 8.68495 76.9463 8.68495C77.9812 8.68495 79.0052 8.88539 80.0183 9.28542C81.032 9.68546 82.0559 10.2641 83.0904 11.0208L85.2249 8.00392C84.0612 7.07386 82.816 6.36572 81.49 5.87947C80.1636 5.39278 78.6711 5.14943 77.0109 5.14943C75.8898 5.14943 74.855 5.30612 73.9118 5.61993C72.963 5.9333 72.1551 6.38192 71.481 6.96577C70.8073 7.55005 70.2789 8.24726 69.891 9.05827C69.5084 9.86928 69.3143 10.7722 69.3143 11.767C69.3143 12.8266 69.4813 13.7243 69.8155 14.4596C70.1498 15.1949 70.6402 15.822 71.2763 16.3411C71.9121 16.8602 72.7044 17.2926 73.642 17.6388C74.5854 17.9851 75.6583 18.298 76.8708 18.5793C77.9276 18.8389 78.7839 19.0876 79.4471 19.3252C80.1047 19.5633 80.6223 19.8176 81.0049 20.0875C81.3819 20.358 81.641 20.6553 81.781 20.9795C81.9211 21.3044 81.9909 21.6715 81.9909 22.0825C81.9909 22.9697 81.6301 23.6726 80.908 24.1911C80.1855 24.7108 79.2099 24.9698 77.9812 24.9698C76.5583 24.9698 75.2861 24.7155 74.1652 24.2074C73.0439 23.6993 71.9338 22.9697 70.8339 22.0177L68.4411 24.8726C69.7994 26.105 71.2763 27.019 72.8716 27.6138C74.467 28.2086 76.1377 28.5058 77.8839 28.5058C79.0698 28.5058 80.1588 28.3544 81.1505 28.0519C82.1367 27.7486 82.9883 27.3053 83.689 26.7214C84.395 26.1376 84.9448 25.4241 85.3436 24.5807C85.7372 23.7374 85.9365 22.7749 85.9365 21.6934C85.9365 20.742 85.7803 19.9147 85.4676 19.2118C85.1546 18.5089 84.6913 17.8931 84.0879 17.3626C83.484 16.8331 82.7187 16.384 81.8024 16.0164C80.8866 15.6492 79.8298 15.3139 78.644 15.011C77.5607 14.7515 76.6714 14.5025 75.9654 14.2648C75.2647 14.0272 74.7149 13.7676 74.3105 13.4862C73.9118 13.2052 73.6372 12.9023 73.4858 12.578C73.3352 12.2533 73.2593 11.8642 73.2593 11.4103Z"/>
<path fillRule="evenodd" clipRule="evenodd" d="M117.528 11.7316V27.954H121.48V5.33331H117.236L110.338 16.0298L103.439 5.33331H99.1962V27.954H103.147V11.7962L110.24 22.3959H110.37L117.528 11.7316Z"/>
<path fillRule="evenodd" clipRule="evenodd" d="M154.678 16.7686C154.678 17.874 154.489 18.9199 154.11 19.9064C153.732 20.8925 153.207 21.7485 152.536 22.4744C151.865 23.2003 151.059 23.775 150.118 24.1979C149.177 24.621 148.144 24.8318 147.019 24.8318C145.893 24.8318 144.855 24.6151 143.903 24.1818C142.951 23.748 142.134 23.1627 141.453 22.4261C140.771 21.6888 140.241 20.8272 139.862 19.841C139.484 18.8549 139.294 17.8087 139.294 16.7036C139.294 15.5977 139.484 14.5519 139.862 13.5658C140.241 12.5792 140.765 11.7234 141.436 10.9969C142.107 10.2709 142.913 9.69666 143.854 9.27377C144.795 8.85134 145.829 8.63988 146.954 8.63988C148.079 8.63988 149.118 8.85661 150.069 9.29045C151.021 9.72386 151.838 10.3091 152.519 11.046C153.201 11.7826 153.732 12.6446 154.11 13.6307C154.489 14.6168 154.678 15.6631 154.678 16.7686ZM158.865 16.7036C158.865 15.0994 158.572 13.582 157.988 12.151C157.405 10.721 156.593 9.47425 155.555 8.41221C154.516 7.34974 153.272 6.51011 151.822 5.89246C150.372 5.2748 148.771 4.96553 147.019 4.96553C145.266 4.96553 143.665 5.28006 142.215 5.90868C140.765 6.5373 139.51 7.3879 138.45 8.4609C137.39 9.5339 136.568 10.7859 135.984 12.2164C135.4 13.6469 135.108 15.1643 135.108 16.7686C135.108 18.3724 135.4 19.8893 135.984 21.3203C136.568 22.7511 137.379 23.9974 138.418 25.0596C139.456 26.1215 140.701 26.9616 142.151 27.5792C143.6 28.1969 145.201 28.5058 146.954 28.5058C148.706 28.5058 150.307 28.1912 151.757 27.5631C153.207 26.9345 154.462 26.0838 155.522 25.0104C156.582 23.9378 157.405 22.6858 157.988 21.2554C158.572 19.8249 158.865 18.3075 158.865 16.7036Z"/>
<path fillRule="evenodd" clipRule="evenodd" d="M175.469 11.4103C175.469 10.6531 175.793 10.0098 176.439 9.48019C177.086 8.94973 177.992 8.68495 179.156 8.68495C180.191 8.68495 181.215 8.88539 182.228 9.28542C183.241 9.68546 184.265 10.2641 185.3 11.0208L187.435 8.00392C186.27 7.07386 185.026 6.36572 183.7 5.87947C182.374 5.39278 180.881 5.14943 179.221 5.14943C178.1 5.14943 177.065 5.30612 176.122 5.61993C175.173 5.9333 174.365 6.38192 173.691 6.96577C173.017 7.55005 172.489 8.24726 172.101 9.05827C171.718 9.86928 171.524 10.7722 171.524 11.767C171.524 12.8266 171.691 13.7243 172.026 14.4596C172.36 15.1949 172.85 15.822 173.486 16.3411C174.122 16.8602 174.914 17.2926 175.852 17.6388C176.795 17.9851 177.868 18.298 179.081 18.5793C180.137 18.8389 180.994 19.0876 181.657 19.3252C182.314 19.5633 182.832 19.8176 183.215 20.0875C183.592 20.358 183.85 20.6553 183.991 20.9795C184.132 21.3044 184.201 21.6715 184.201 22.0825C184.201 22.9697 183.839 23.6726 183.118 24.1911C182.395 24.7108 181.42 24.9698 180.191 24.9698C178.768 24.9698 177.496 24.7155 176.375 24.2074C175.254 23.6993 174.144 22.9697 173.044 22.0177L170.651 24.8726C172.009 26.105 173.486 27.019 175.081 27.6138C176.677 28.2086 178.347 28.5058 180.094 28.5058C181.28 28.5058 182.368 28.3544 183.36 28.0519C184.346 27.7486 185.198 27.3053 185.899 26.7214C186.605 26.1376 187.155 25.4241 187.554 24.5807C187.947 23.7374 188.146 22.7749 188.146 21.6934C188.146 20.742 187.989 19.9147 187.678 19.2118C187.365 18.5089 186.901 17.8931 186.297 17.3626C185.694 16.8331 184.929 16.384 184.013 16.0164C183.096 15.6492 182.039 15.3139 180.854 15.011C179.771 14.7515 178.881 14.5025 178.175 14.2648C177.475 14.0272 176.925 13.7676 176.52 13.4862C176.122 13.2052 175.847 12.9023 175.696 12.578C175.545 12.2533 175.469 11.8642 175.469 11.4103Z"/>
<path fillRule="evenodd" clipRule="evenodd" d="M48.7692 9.86177L37.9424 20.6741C37.8029 20.4036 37.6768 20.1217 37.564 19.8293C37.1859 18.8469 36.9968 17.8045 36.9968 16.7037C36.9968 15.602 37.1859 14.5602 37.564 13.5777C37.9424 12.5949 38.4668 11.7423 39.1371 11.0186C39.8077 10.2953 40.6134 9.72324 41.5537 9.30196C42.4947 8.8811 43.527 8.67047 44.6513 8.67047C45.776 8.67047 46.8139 8.88635 47.7649 9.31857C48.1186 9.47895 48.4533 9.65986 48.7692 9.86177ZM47.8139 24.1697C46.873 24.591 45.8407 24.8013 44.7164 24.8013C43.5917 24.8013 42.5538 24.5853 41.6023 24.1536C41.2491 23.9927 40.9144 23.8118 40.5989 23.6095L51.4251 12.7981C51.5649 13.0682 51.6909 13.3496 51.8037 13.6424C52.1818 14.6248 52.3709 15.6671 52.3709 16.7684C52.3709 17.8696 52.1818 18.9114 51.8037 19.8944C51.4251 20.8767 50.9009 21.7294 50.2304 22.4526C49.5601 23.176 48.7547 23.7485 47.8139 24.1697ZM49.452 27.5222C50.9009 26.8959 52.1551 26.0485 53.2146 24.9791C54.274 23.9106 55.0954 22.6633 55.6793 21.2382C56.2635 19.8132 56.5554 18.3015 56.5554 16.7037C56.5554 15.1055 56.2635 13.5939 55.6793 12.1684C55.3332 11.3232 54.9069 10.5426 54.401 9.82636L61.4427 2.7943L58.6447 0L51.5815 7.05348C50.9474 6.62171 50.2589 6.2485 49.5167 5.93341C48.0677 5.31809 46.4677 5.00999 44.7164 5.00999C42.9646 5.00999 41.3647 5.32332 39.9158 5.94958C38.4668 6.57582 37.2125 7.4232 36.1531 8.49215C35.0935 9.5611 34.2717 10.8083 33.6879 12.2335C33.1041 13.6586 32.8122 15.1702 32.8122 16.7684C32.8122 18.3662 33.1041 19.8774 33.6879 21.3029C34.0345 22.1485 34.4607 22.9291 34.9666 23.6457L27.9254 30.6771L30.7234 33.4713L37.7862 26.4182C38.4203 26.85 39.1088 27.2233 39.851 27.5383C41.3 28.1535 42.8998 28.4614 44.6513 28.4614C46.403 28.4614 48.003 28.1479 49.452 27.5222Z"/>
</mask>
<path fillRule="evenodd" clipRule="evenodd" d="M21.6639 24.4743L19.0953 21.873C18.1196 22.7833 17.1334 23.5043 16.1358 24.0357C15.139 24.5665 13.9467 24.8318 12.5595 24.8318C11.4754 24.8318 10.473 24.6208 9.55173 24.1979C8.63046 23.775 7.83377 23.1956 7.16168 22.4581C6.48958 21.7212 5.96972 20.8597 5.60076 19.8735C5.23227 18.8873 5.04845 17.8301 5.04845 16.7036C5.04845 15.5762 5.23227 14.5247 5.60076 13.5491C5.96972 12.5739 6.48958 11.7233 7.16168 10.9969C7.83377 10.2709 8.63046 9.69666 9.55173 9.27377C10.473 8.85132 11.4754 8.63988 12.5595 8.63988C13.8598 8.63988 15.0197 8.90001 16.0384 9.4203C17.0575 9.94013 18.0222 10.6231 18.9321 11.4685L21.5011 8.51004C20.9594 7.98977 20.3851 7.51293 19.7778 7.07908C19.1711 6.64566 18.51 6.27147 17.7945 5.95737C17.079 5.64285 16.2933 5.39939 15.4369 5.22611C14.5806 5.05239 13.6321 4.96553 12.5919 4.96553C10.8577 4.96553 9.27534 5.2748 7.84473 5.89246C6.4137 6.51011 5.17829 7.35545 4.1377 8.42845C3.0971 9.50145 2.28988 10.753 1.71518 12.1839C1.14048 13.6145 0.853569 15.1428 0.853569 16.7686C0.853569 18.4158 1.14618 19.9547 1.73141 21.3856C2.31664 22.8157 3.12429 24.0567 4.15393 25.1082C5.18356 26.1594 6.40272 26.9885 7.81184 27.5955C9.22095 28.2026 10.7604 28.5058 12.4292 28.5058C13.4917 28.5058 14.4617 28.4136 15.3395 28.2295C16.2174 28.0451 17.025 27.7746 17.762 27.417C18.4991 27.0591 19.1874 26.6362 19.827 26.1487C20.4663 25.6609 21.0786 25.1025 21.6639 24.4743Z" fill="white"/>
<path fillRule="evenodd" clipRule="evenodd" d="M73.2593 11.4103C73.2593 10.6531 73.5827 10.0098 74.2298 9.48019C74.8764 8.94973 75.7821 8.68495 76.9463 8.68495C77.9812 8.68495 79.0052 8.88539 80.0183 9.28542C81.032 9.68546 82.0559 10.2641 83.0904 11.0208L85.2249 8.00392C84.0612 7.07386 82.816 6.36572 81.49 5.87947C80.1636 5.39278 78.6711 5.14943 77.0109 5.14943C75.8898 5.14943 74.855 5.30612 73.9118 5.61993C72.963 5.9333 72.1551 6.38192 71.481 6.96577C70.8073 7.55005 70.2789 8.24726 69.891 9.05827C69.5084 9.86928 69.3143 10.7722 69.3143 11.767C69.3143 12.8266 69.4813 13.7243 69.8155 14.4596C70.1498 15.1949 70.6402 15.822 71.2763 16.3411C71.9121 16.8602 72.7044 17.2926 73.642 17.6388C74.5854 17.9851 75.6583 18.298 76.8708 18.5793C77.9276 18.8389 78.7839 19.0876 79.4471 19.3252C80.1047 19.5633 80.6223 19.8176 81.0049 20.0875C81.3819 20.358 81.641 20.6553 81.781 20.9795C81.9211 21.3044 81.9909 21.6715 81.9909 22.0825C81.9909 22.9697 81.6301 23.6726 80.908 24.1911C80.1855 24.7108 79.2099 24.9698 77.9812 24.9698C76.5583 24.9698 75.2861 24.7155 74.1652 24.2074C73.0439 23.6993 71.9338 22.9697 70.8339 22.0177L68.4411 24.8726C69.7994 26.105 71.2763 27.019 72.8716 27.6138C74.467 28.2086 76.1377 28.5058 77.8839 28.5058C79.0698 28.5058 80.1588 28.3544 81.1505 28.0519C82.1367 27.7486 82.9883 27.3053 83.689 26.7214C84.395 26.1376 84.9448 25.4241 85.3436 24.5807C85.7372 23.7374 85.9365 22.7749 85.9365 21.6934C85.9365 20.742 85.7803 19.9147 85.4676 19.2118C85.1546 18.5089 84.6913 17.8931 84.0879 17.3626C83.484 16.8331 82.7187 16.384 81.8024 16.0164C80.8866 15.6492 79.8298 15.3139 78.644 15.011C77.5607 14.7515 76.6714 14.5025 75.9654 14.2648C75.2647 14.0272 74.7149 13.7676 74.3105 13.4862C73.9118 13.2052 73.6372 12.9023 73.4858 12.578C73.3352 12.2533 73.2593 11.8642 73.2593 11.4103Z" fill="white"/>
<path fillRule="evenodd" clipRule="evenodd" d="M117.528 11.7316V27.954H121.48V5.33331H117.236L110.338 16.0298L103.439 5.33331H99.1962V27.954H103.147V11.7962L110.24 22.3959H110.37L117.528 11.7316Z" fill="white"/>
<path fillRule="evenodd" clipRule="evenodd" d="M154.678 16.7686C154.678 17.874 154.489 18.9199 154.11 19.9064C153.732 20.8925 153.207 21.7485 152.536 22.4744C151.865 23.2003 151.059 23.775 150.118 24.1979C149.177 24.621 148.144 24.8318 147.019 24.8318C145.893 24.8318 144.855 24.6151 143.903 24.1818C142.951 23.748 142.134 23.1627 141.453 22.4261C140.771 21.6888 140.241 20.8272 139.862 19.841C139.484 18.8549 139.294 17.8087 139.294 16.7036C139.294 15.5977 139.484 14.5519 139.862 13.5658C140.241 12.5792 140.765 11.7234 141.436 10.9969C142.107 10.2709 142.913 9.69666 143.854 9.27377C144.795 8.85134 145.829 8.63988 146.954 8.63988C148.079 8.63988 149.118 8.85661 150.069 9.29045C151.021 9.72386 151.838 10.3091 152.519 11.046C153.201 11.7826 153.732 12.6446 154.11 13.6307C154.489 14.6168 154.678 15.6631 154.678 16.7686ZM158.865 16.7036C158.865 15.0994 158.572 13.582 157.988 12.151C157.405 10.721 156.593 9.47425 155.555 8.41221C154.516 7.34974 153.272 6.51011 151.822 5.89246C150.372 5.2748 148.771 4.96553 147.019 4.96553C145.266 4.96553 143.665 5.28006 142.215 5.90868C140.765 6.5373 139.51 7.3879 138.45 8.4609C137.39 9.5339 136.568 10.7859 135.984 12.2164C135.4 13.6469 135.108 15.1643 135.108 16.7686C135.108 18.3724 135.4 19.8893 135.984 21.3203C136.568 22.7511 137.379 23.9974 138.418 25.0596C139.456 26.1215 140.701 26.9616 142.151 27.5792C143.6 28.1969 145.201 28.5058 146.954 28.5058C148.706 28.5058 150.307 28.1912 151.757 27.5631C153.207 26.9345 154.462 26.0838 155.522 25.0104C156.582 23.9378 157.405 22.6858 157.988 21.2554C158.572 19.8249 158.865 18.3075 158.865 16.7036Z" fill="white"/>
<path fillRule="evenodd" clipRule="evenodd" d="M175.469 11.4103C175.469 10.6531 175.793 10.0098 176.439 9.48019C177.086 8.94973 177.992 8.68495 179.156 8.68495C180.191 8.68495 181.215 8.88539 182.228 9.28542C183.241 9.68546 184.265 10.2641 185.3 11.0208L187.435 8.00392C186.27 7.07386 185.026 6.36572 183.7 5.87947C182.374 5.39278 180.881 5.14943 179.221 5.14943C178.1 5.14943 177.065 5.30612 176.122 5.61993C175.173 5.9333 174.365 6.38192 173.691 6.96577C173.017 7.55005 172.489 8.24726 172.101 9.05827C171.718 9.86928 171.524 10.7722 171.524 11.767C171.524 12.8266 171.691 13.7243 172.026 14.4596C172.36 15.1949 172.85 15.822 173.486 16.3411C174.122 16.8602 174.914 17.2926 175.852 17.6388C176.795 17.9851 177.868 18.298 179.081 18.5793C180.137 18.8389 180.994 19.0876 181.657 19.3252C182.314 19.5633 182.832 19.8176 183.215 20.0875C183.592 20.358 183.85 20.6553 183.991 20.9795C184.132 21.3044 184.201 21.6715 184.201 22.0825C184.201 22.9697 183.839 23.6726 183.118 24.1911C182.395 24.7108 181.42 24.9698 180.191 24.9698C178.768 24.9698 177.496 24.7155 176.375 24.2074C175.254 23.6993 174.144 22.9697 173.044 22.0177L170.651 24.8726C172.009 26.105 173.486 27.019 175.081 27.6138C176.677 28.2086 178.347 28.5058 180.094 28.5058C181.28 28.5058 182.368 28.3544 183.36 28.0519C184.346 27.7486 185.198 27.3053 185.899 26.7214C186.605 26.1376 187.155 25.4241 187.554 24.5807C187.947 23.7374 188.146 22.7749 188.146 21.6934C188.146 20.742 187.989 19.9147 187.678 19.2118C187.365 18.5089 186.901 17.8931 186.297 17.3626C185.694 16.8331 184.929 16.384 184.013 16.0164C183.096 15.6492 182.039 15.3139 180.854 15.011C179.771 14.7515 178.881 14.5025 178.175 14.2648C177.475 14.0272 176.925 13.7676 176.52 13.4862C176.122 13.2052 175.847 12.9023 175.696 12.578C175.545 12.2533 175.469 11.8642 175.469 11.4103Z" fill="white"/>
<path fillRule="evenodd" clipRule="evenodd" d="M48.7692 9.86177L37.9424 20.6741C37.8029 20.4036 37.6768 20.1217 37.564 19.8293C37.1859 18.8469 36.9968 17.8045 36.9968 16.7037C36.9968 15.602 37.1859 14.5602 37.564 13.5777C37.9424 12.5949 38.4668 11.7423 39.1371 11.0186C39.8077 10.2953 40.6134 9.72324 41.5537 9.30196C42.4947 8.8811 43.527 8.67047 44.6513 8.67047C45.776 8.67047 46.8139 8.88635 47.7649 9.31857C48.1186 9.47895 48.4533 9.65986 48.7692 9.86177ZM47.8139 24.1697C46.873 24.591 45.8407 24.8013 44.7164 24.8013C43.5917 24.8013 42.5538 24.5853 41.6023 24.1536C41.2491 23.9927 40.9144 23.8118 40.5989 23.6095L51.4251 12.7981C51.5649 13.0682 51.6909 13.3496 51.8037 13.6424C52.1818 14.6248 52.3709 15.6671 52.3709 16.7684C52.3709 17.8696 52.1818 18.9114 51.8037 19.8944C51.4251 20.8767 50.9009 21.7294 50.2304 22.4526C49.5601 23.176 48.7547 23.7485 47.8139 24.1697ZM49.452 27.5222C50.9009 26.8959 52.1551 26.0485 53.2146 24.9791C54.274 23.9106 55.0954 22.6633 55.6793 21.2382C56.2635 19.8132 56.5554 18.3015 56.5554 16.7037C56.5554 15.1055 56.2635 13.5939 55.6793 12.1684C55.3332 11.3232 54.9069 10.5426 54.401 9.82636L61.4427 2.7943L58.6447 0L51.5815 7.05348C50.9474 6.62171 50.2589 6.2485 49.5167 5.93341C48.0677 5.31809 46.4677 5.00999 44.7164 5.00999C42.9646 5.00999 41.3647 5.32332 39.9158 5.94958C38.4668 6.57582 37.2125 7.4232 36.1531 8.49215C35.0935 9.5611 34.2717 10.8083 33.6879 12.2335C33.1041 13.6586 32.8122 15.1702 32.8122 16.7684C32.8122 18.3662 33.1041 19.8774 33.6879 21.3029C34.0345 22.1485 34.4607 22.9291 34.9666 23.6457L27.9254 30.6771L30.7234 33.4713L37.7862 26.4182C38.4203 26.85 39.1088 27.2233 39.851 27.5383C41.3 28.1535 42.8998 28.4614 44.6513 28.4614C46.403 28.4614 48.003 28.1479 49.452 27.5222Z" fill="white"/>
<path fillRule="evenodd" clipRule="evenodd" d="M21.6639 24.4743L19.0953 21.873C18.1196 22.7833 17.1334 23.5043 16.1358 24.0357C15.139 24.5665 13.9467 24.8318 12.5595 24.8318C11.4754 24.8318 10.473 24.6208 9.55173 24.1979C8.63046 23.775 7.83377 23.1956 7.16168 22.4581C6.48958 21.7212 5.96972 20.8597 5.60076 19.8735C5.23227 18.8873 5.04845 17.8301 5.04845 16.7036C5.04845 15.5762 5.23227 14.5247 5.60076 13.5491C5.96972 12.5739 6.48958 11.7233 7.16168 10.9969C7.83377 10.2709 8.63046 9.69666 9.55173 9.27377C10.473 8.85132 11.4754 8.63988 12.5595 8.63988C13.8598 8.63988 15.0197 8.90001 16.0384 9.4203C17.0575 9.94013 18.0222 10.6231 18.9321 11.4685L21.5011 8.51004C20.9594 7.98977 20.3851 7.51293 19.7778 7.07908C19.1711 6.64566 18.51 6.27147 17.7945 5.95737C17.079 5.64285 16.2933 5.39939 15.4369 5.22611C14.5806 5.05239 13.6321 4.96553 12.5919 4.96553C10.8577 4.96553 9.27534 5.2748 7.84473 5.89246C6.4137 6.51011 5.17829 7.35545 4.1377 8.42845C3.0971 9.50145 2.28988 10.753 1.71518 12.1839C1.14048 13.6145 0.853569 15.1428 0.853569 16.7686C0.853569 18.4158 1.14618 19.9547 1.73141 21.3856C2.31664 22.8157 3.12429 24.0567 4.15393 25.1082C5.18356 26.1594 6.40272 26.9885 7.81184 27.5955C9.22095 28.2026 10.7604 28.5058 12.4292 28.5058C13.4917 28.5058 14.4617 28.4136 15.3395 28.2295C16.2174 28.0451 17.025 27.7746 17.762 27.417C18.4991 27.0591 19.1874 26.6362 19.827 26.1487C20.4663 25.6609 21.0786 25.1025 21.6639 24.4743Z" stroke="#09031D" strokeWidth="6" mask="url(#path-1-outside-1_2236_9058)"/>
<path fillRule="evenodd" clipRule="evenodd" d="M73.2593 11.4103C73.2593 10.6531 73.5827 10.0098 74.2298 9.48019C74.8764 8.94973 75.7821 8.68495 76.9463 8.68495C77.9812 8.68495 79.0052 8.88539 80.0183 9.28542C81.032 9.68546 82.0559 10.2641 83.0904 11.0208L85.2249 8.00392C84.0612 7.07386 82.816 6.36572 81.49 5.87947C80.1636 5.39278 78.6711 5.14943 77.0109 5.14943C75.8898 5.14943 74.855 5.30612 73.9118 5.61993C72.963 5.9333 72.1551 6.38192 71.481 6.96577C70.8073 7.55005 70.2789 8.24726 69.891 9.05827C69.5084 9.86928 69.3143 10.7722 69.3143 11.767C69.3143 12.8266 69.4813 13.7243 69.8155 14.4596C70.1498 15.1949 70.6402 15.822 71.2763 16.3411C71.9121 16.8602 72.7044 17.2926 73.642 17.6388C74.5854 17.9851 75.6583 18.298 76.8708 18.5793C77.9276 18.8389 78.7839 19.0876 79.4471 19.3252C80.1047 19.5633 80.6223 19.8176 81.0049 20.0875C81.3819 20.358 81.641 20.6553 81.781 20.9795C81.9211 21.3044 81.9909 21.6715 81.9909 22.0825C81.9909 22.9697 81.6301 23.6726 80.908 24.1911C80.1855 24.7108 79.2099 24.9698 77.9812 24.9698C76.5583 24.9698 75.2861 24.7155 74.1652 24.2074C73.0439 23.6993 71.9338 22.9697 70.8339 22.0177L68.4411 24.8726C69.7994 26.105 71.2763 27.019 72.8716 27.6138C74.467 28.2086 76.1377 28.5058 77.8839 28.5058C79.0698 28.5058 80.1588 28.3544 81.1505 28.0519C82.1367 27.7486 82.9883 27.3053 83.689 26.7214C84.395 26.1376 84.9448 25.4241 85.3436 24.5807C85.7372 23.7374 85.9365 22.7749 85.9365 21.6934C85.9365 20.742 85.7803 19.9147 85.4676 19.2118C85.1546 18.5089 84.6913 17.8931 84.0879 17.3626C83.484 16.8331 82.7187 16.384 81.8024 16.0164C80.8866 15.6492 79.8298 15.3139 78.644 15.011C77.5607 14.7515 76.6714 14.5025 75.9654 14.2648C75.2647 14.0272 74.7149 13.7676 74.3105 13.4862C73.9118 13.2052 73.6372 12.9023 73.4858 12.578C73.3352 12.2533 73.2593 11.8642 73.2593 11.4103Z" stroke="#09031D" strokeWidth="6" mask="url(#path-1-outside-1_2236_9058)"/>
<path fillRule="evenodd" clipRule="evenodd" d="M117.528 11.7316V27.954H121.48V5.33331H117.236L110.338 16.0298L103.439 5.33331H99.1962V27.954H103.147V11.7962L110.24 22.3959H110.37L117.528 11.7316Z" stroke="#09031D" strokeWidth="6" mask="url(#path-1-outside-1_2236_9058)"/>
<path fillRule="evenodd" clipRule="evenodd" d="M154.678 16.7686C154.678 17.874 154.489 18.9199 154.11 19.9064C153.732 20.8925 153.207 21.7485 152.536 22.4744C151.865 23.2003 151.059 23.775 150.118 24.1979C149.177 24.621 148.144 24.8318 147.019 24.8318C145.893 24.8318 144.855 24.6151 143.903 24.1818C142.951 23.748 142.134 23.1627 141.453 22.4261C140.771 21.6888 140.241 20.8272 139.862 19.841C139.484 18.8549 139.294 17.8087 139.294 16.7036C139.294 15.5977 139.484 14.5519 139.862 13.5658C140.241 12.5792 140.765 11.7234 141.436 10.9969C142.107 10.2709 142.913 9.69666 143.854 9.27377C144.795 8.85134 145.829 8.63988 146.954 8.63988C148.079 8.63988 149.118 8.85661 150.069 9.29045C151.021 9.72386 151.838 10.3091 152.519 11.046C153.201 11.7826 153.732 12.6446 154.11 13.6307C154.489 14.6168 154.678 15.6631 154.678 16.7686ZM158.865 16.7036C158.865 15.0994 158.572 13.582 157.988 12.151C157.405 10.721 156.593 9.47425 155.555 8.41221C154.516 7.34974 153.272 6.51011 151.822 5.89246C150.372 5.2748 148.771 4.96553 147.019 4.96553C145.266 4.96553 143.665 5.28006 142.215 5.90868C140.765 6.5373 139.51 7.3879 138.45 8.4609C137.39 9.5339 136.568 10.7859 135.984 12.2164C135.4 13.6469 135.108 15.1643 135.108 16.7686C135.108 18.3724 135.4 19.8893 135.984 21.3203C136.568 22.7511 137.379 23.9974 138.418 25.0596C139.456 26.1215 140.701 26.9616 142.151 27.5792C143.6 28.1969 145.201 28.5058 146.954 28.5058C148.706 28.5058 150.307 28.1912 151.757 27.5631C153.207 26.9345 154.462 26.0838 155.522 25.0104C156.582 23.9378 157.405 22.6858 157.988 21.2554C158.572 19.8249 158.865 18.3075 158.865 16.7036Z" stroke="#09031D" strokeWidth="6" mask="url(#path-1-outside-1_2236_9058)"/>
<path fillRule="evenodd" clipRule="evenodd" d="M175.469 11.4103C175.469 10.6531 175.793 10.0098 176.439 9.48019C177.086 8.94973 177.992 8.68495 179.156 8.68495C180.191 8.68495 181.215 8.88539 182.228 9.28542C183.241 9.68546 184.265 10.2641 185.3 11.0208L187.435 8.00392C186.27 7.07386 185.026 6.36572 183.7 5.87947C182.374 5.39278 180.881 5.14943 179.221 5.14943C178.1 5.14943 177.065 5.30612 176.122 5.61993C175.173 5.9333 174.365 6.38192 173.691 6.96577C173.017 7.55005 172.489 8.24726 172.101 9.05827C171.718 9.86928 171.524 10.7722 171.524 11.767C171.524 12.8266 171.691 13.7243 172.026 14.4596C172.36 15.1949 172.85 15.822 173.486 16.3411C174.122 16.8602 174.914 17.2926 175.852 17.6388C176.795 17.9851 177.868 18.298 179.081 18.5793C180.137 18.8389 180.994 19.0876 181.657 19.3252C182.314 19.5633 182.832 19.8176 183.215 20.0875C183.592 20.358 183.85 20.6553 183.991 20.9795C184.132 21.3044 184.201 21.6715 184.201 22.0825C184.201 22.9697 183.839 23.6726 183.118 24.1911C182.395 24.7108 181.42 24.9698 180.191 24.9698C178.768 24.9698 177.496 24.7155 176.375 24.2074C175.254 23.6993 174.144 22.9697 173.044 22.0177L170.651 24.8726C172.009 26.105 173.486 27.019 175.081 27.6138C176.677 28.2086 178.347 28.5058 180.094 28.5058C181.28 28.5058 182.368 28.3544 183.36 28.0519C184.346 27.7486 185.198 27.3053 185.899 26.7214C186.605 26.1376 187.155 25.4241 187.554 24.5807C187.947 23.7374 188.146 22.7749 188.146 21.6934C188.146 20.742 187.989 19.9147 187.678 19.2118C187.365 18.5089 186.901 17.8931 186.297 17.3626C185.694 16.8331 184.929 16.384 184.013 16.0164C183.096 15.6492 182.039 15.3139 180.854 15.011C179.771 14.7515 178.881 14.5025 178.175 14.2648C177.475 14.0272 176.925 13.7676 176.52 13.4862C176.122 13.2052 175.847 12.9023 175.696 12.578C175.545 12.2533 175.469 11.8642 175.469 11.4103Z" stroke="#09031D" strokeWidth="6" mask="url(#path-1-outside-1_2236_9058)"/>
<path fillRule="evenodd" clipRule="evenodd" d="M48.7692 9.86177L37.9424 20.6741C37.8029 20.4036 37.6768 20.1217 37.564 19.8293C37.1859 18.8469 36.9968 17.8045 36.9968 16.7037C36.9968 15.602 37.1859 14.5602 37.564 13.5777C37.9424 12.5949 38.4668 11.7423 39.1371 11.0186C39.8077 10.2953 40.6134 9.72324 41.5537 9.30196C42.4947 8.8811 43.527 8.67047 44.6513 8.67047C45.776 8.67047 46.8139 8.88635 47.7649 9.31857C48.1186 9.47895 48.4533 9.65986 48.7692 9.86177ZM47.8139 24.1697C46.873 24.591 45.8407 24.8013 44.7164 24.8013C43.5917 24.8013 42.5538 24.5853 41.6023 24.1536C41.2491 23.9927 40.9144 23.8118 40.5989 23.6095L51.4251 12.7981C51.5649 13.0682 51.6909 13.3496 51.8037 13.6424C52.1818 14.6248 52.3709 15.6671 52.3709 16.7684C52.3709 17.8696 52.1818 18.9114 51.8037 19.8944C51.4251 20.8767 50.9009 21.7294 50.2304 22.4526C49.5601 23.176 48.7547 23.7485 47.8139 24.1697ZM49.452 27.5222C50.9009 26.8959 52.1551 26.0485 53.2146 24.9791C54.274 23.9106 55.0954 22.6633 55.6793 21.2382C56.2635 19.8132 56.5554 18.3015 56.5554 16.7037C56.5554 15.1055 56.2635 13.5939 55.6793 12.1684C55.3332 11.3232 54.9069 10.5426 54.401 9.82636L61.4427 2.7943L58.6447 0L51.5815 7.05348C50.9474 6.62171 50.2589 6.2485 49.5167 5.93341C48.0677 5.31809 46.4677 5.00999 44.7164 5.00999C42.9646 5.00999 41.3647 5.32332 39.9158 5.94958C38.4668 6.57582 37.2125 7.4232 36.1531 8.49215C35.0935 9.5611 34.2717 10.8083 33.6879 12.2335C33.1041 13.6586 32.8122 15.1702 32.8122 16.7684C32.8122 18.3662 33.1041 19.8774 33.6879 21.3029C34.0345 22.1485 34.4607 22.9291 34.9666 23.6457L27.9254 30.6771L30.7234 33.4713L37.7862 26.4182C38.4203 26.85 39.1088 27.2233 39.851 27.5383C41.3 28.1535 42.8998 28.4614 44.6513 28.4614C46.403 28.4614 48.003 28.1479 49.452 27.5222Z" stroke="#09031D" strokeWidth="6" mask="url(#path-1-outside-1_2236_9058)"/>
</svg>
