<svg width="18" height="18" viewBox="0 0 18 18" fill="none" xmlns="http://www.w3.org/2000/svg">
<g clip-path="url(#clip0_1677_1345)">
<rect x="1" y="1" width="16" height="16" rx="4" fill="#191659"/>
<path fillRule="evenodd" clipRule="evenodd" d="M9.64932 13.416C9.86342 12.4819 10.0123 11.174 10.0482 9.69519L10.3763 9.70316C10.34 11.1962 10.1896 12.5273 9.96916 13.4893C9.85922 13.969 9.7299 14.3657 9.58378 14.6463C9.51082 14.7864 9.42956 14.9057 9.33778 14.992C9.24536 15.0789 9.1318 15.1414 9.00005 15.1414C8.84884 15.1414 8.72226 15.0595 8.62233 14.9516C8.52207 14.8434 8.43297 14.6931 8.35292 14.515C8.19232 14.1576 8.05236 13.6521 7.93872 13.0435L8.26127 12.9833C8.37288 13.581 8.50705 14.0575 8.65222 14.3805C8.72505 14.5426 8.79675 14.6571 8.86304 14.7286C8.92966 14.8005 8.97536 14.8133 9.00005 14.8133C9.02178 14.8133 9.05893 14.8038 9.11305 14.7529C9.16781 14.7014 9.22891 14.6174 9.29274 14.4948C9.42015 14.2501 9.54197 13.8844 9.64932 13.416Z" fill="url(#paint0_linear_1677_1345)"/>
<path fillRule="evenodd" clipRule="evenodd" d="M8.4534 4.182C8.25705 4.86867 8.10111 5.84651 8.01558 6.99472L7.68835 6.97034C7.77479 5.81003 7.93314 4.80794 8.13793 4.09179C8.23997 3.73494 8.35612 3.43977 8.48624 3.23019C8.61002 3.03087 8.77858 2.85858 8.99992 2.85858C9.13167 2.85858 9.24523 2.92114 9.33765 3.00801C9.42941 3.09427 9.51069 3.2136 9.58363 3.35368C9.72977 3.63432 9.85908 4.031 9.96903 4.51067C10.1895 5.47268 10.3398 6.80384 10.3761 8.29685L10.0481 8.30482C10.0121 6.82606 9.86329 5.51813 9.64919 4.58398C9.54184 4.11558 9.42002 3.74992 9.2926 3.50523C9.22878 3.38265 9.16768 3.29857 9.11291 3.2471C9.0588 3.19623 9.02164 3.18671 8.99992 3.18671C8.96159 3.18671 8.8783 3.22084 8.765 3.40329C8.65807 3.57549 8.55194 3.83744 8.4534 4.182Z" fill="url(#paint1_linear_1677_1345)"/>
<path fillRule="evenodd" clipRule="evenodd" d="M8.01571 6.99471C7.96908 7.62076 7.94348 8.29592 7.94348 8.99998C7.94348 10.5371 8.06545 11.9345 8.26127 12.9832L7.93871 13.0434C7.73836 11.9705 7.61536 10.5523 7.61536 8.99998C7.61536 8.2881 7.64122 7.60479 7.68849 6.97034L8.01571 6.99471Z" fill="url(#paint2_linear_1677_1345)"/>
<path fillRule="evenodd" clipRule="evenodd" d="M7.8625 9.5574C6.7981 8.9076 5.87852 8.24871 5.19555 7.66644L4.98267 7.91615C5.68163 8.51203 6.61594 9.18084 7.69153 9.83745L7.8625 9.5574Z" fill="url(#paint3_linear_1677_1345)"/>
<path fillRule="evenodd" clipRule="evenodd" d="M12.4931 11.7703C11.5771 11.4887 10.3701 10.9637 9.07153 10.2555L8.91443 10.5436C10.2255 11.2586 11.4533 11.7939 12.3966 12.0839C12.867 12.2285 13.2751 12.3149 13.5912 12.3286C13.749 12.3355 13.8929 12.3248 14.0135 12.2884C14.135 12.2518 14.2459 12.1848 14.3118 12.0707C14.4229 11.8782 14.3571 11.645 14.2453 11.4372C14.1277 11.2186 13.9284 10.9691 13.6682 10.7008C13.146 10.1623 12.351 9.52046 11.3823 8.86237L11.1979 9.13378C12.1565 9.78504 12.9317 10.4127 13.4327 10.9292C13.684 11.1884 13.8595 11.4127 13.9563 11.5927C14.0589 11.7834 14.0469 11.8732 14.0276 11.9066C14.0168 11.9254 13.9899 11.9528 13.9188 11.9743C13.8469 11.996 13.7435 12.0068 13.6055 12.0008C13.3299 11.9888 12.9523 11.9115 12.4931 11.7703Z" fill="url(#paint4_linear_1677_1345)"/>
<path fillRule="evenodd" clipRule="evenodd" d="M9.52145 8.08497C10.1218 8.43157 10.6854 8.78566 11.1979 9.1338L11.3823 8.86238C10.863 8.50958 10.2925 8.15127 9.68551 7.8008C8.24926 6.97159 6.8749 6.34025 5.81365 5.98771C5.2843 5.81187 4.8247 5.70261 4.47062 5.67585C4.29402 5.66251 4.13419 5.66886 4.00153 5.70347C3.86862 5.73814 3.74556 5.80628 3.67455 5.92929C3.59836 6.06126 3.60672 6.21314 3.65109 6.35462C3.69563 6.4967 3.78271 6.65038 3.89885 6.81036C4.13189 7.13132 4.50543 7.50926 4.98265 7.91611L5.19552 7.66642C4.7267 7.26672 4.37538 6.90819 4.16437 6.61758C4.05851 6.47177 3.99379 6.35089 3.96418 6.25645C3.93438 6.16145 3.94628 6.1149 3.95871 6.09335C3.97034 6.07321 4.00077 6.04278 4.08435 6.02097C4.16817 5.99911 4.28783 5.9911 4.44589 6.00305C4.76114 6.02686 5.19153 6.1268 5.71021 6.29911C6.74499 6.64285 8.09878 7.26359 9.52145 8.08497Z" fill="url(#paint5_linear_1677_1345)"/>
<path fillRule="evenodd" clipRule="evenodd" d="M9.11596 7.72768C10.2181 7.12837 11.2538 6.66135 12.1 6.36402L11.9912 6.05444C11.1248 6.35888 10.073 6.83382 8.95923 7.4394L9.11596 7.72768Z" fill="url(#paint6_linear_1677_1345)"/>
<path fillRule="evenodd" clipRule="evenodd" d="M4.85026 10.6527C5.54708 10.0036 6.59822 9.2244 7.85347 8.45647L7.68223 8.17657C6.41489 8.95192 5.34435 9.74399 4.62659 10.4127C4.2687 10.7461 3.99189 11.0549 3.82327 11.3205C3.73909 11.4532 3.67691 11.5827 3.64844 11.7048C3.61975 11.8279 3.62258 11.957 3.68821 12.0707C3.79917 12.2629 4.03354 12.3225 4.26888 12.3298C4.51641 12.3374 4.83142 12.2899 5.19303 12.1991C5.91873 12.0169 6.86975 11.6507 7.92177 11.1425L7.77905 10.847C6.73798 11.35 5.80914 11.7062 5.11314 11.8809C4.76391 11.9686 4.48261 12.0081 4.279 12.0018C4.06321 11.9952 3.99161 11.9399 3.97238 11.9066C3.96155 11.8879 3.95125 11.8512 3.968 11.7793C3.98494 11.7067 4.02674 11.6123 4.1003 11.4964C4.24715 11.265 4.50085 10.9782 4.85026 10.6527Z" fill="url(#paint7_linear_1677_1345)"/>
<path fillRule="evenodd" clipRule="evenodd" d="M9.53511 9.91501C8.93136 10.2636 8.33961 10.5763 7.77905 10.8471L7.92179 11.1425C8.48985 10.8681 9.08872 10.5516 9.69917 10.1992C11.1354 9.36996 12.3694 8.49541 13.2053 7.7526C13.6222 7.3821 13.9467 7.0387 14.1469 6.74542C14.2467 6.59918 14.3212 6.45756 14.3575 6.32537C14.3939 6.19294 14.3965 6.0523 14.3254 5.92929C14.2501 5.79884 14.1166 5.73019 13.9739 5.69745C13.8307 5.66459 13.657 5.6623 13.4638 5.68163C13.0763 5.7204 12.5716 5.8505 11.9912 6.05446L12.0999 6.36402C12.6699 6.16374 13.1465 6.04314 13.4965 6.00813C13.6721 5.99056 13.8061 5.9956 13.9005 6.01726C13.9953 6.03903 14.029 6.07206 14.0413 6.09336C14.0529 6.1135 14.0641 6.15507 14.0411 6.23835C14.0182 6.32188 13.9653 6.42949 13.8759 6.56042C13.6976 6.82151 13.3959 7.14427 12.9873 7.50732C12.1722 8.2316 10.9578 9.09364 9.53511 9.91501Z" fill="url(#paint8_linear_1677_1345)"/>
<path d="M8.15201 13.4276C8.38873 13.4276 8.58063 13.2357 8.58063 12.9989C8.58063 12.7622 8.38873 12.5703 8.15201 12.5703C7.91529 12.5703 7.72339 12.7622 7.72339 12.9989C7.72339 13.2357 7.91529 13.4276 8.15201 13.4276Z" fill="white"/>
<path d="M4.73474 7.52056C4.8531 7.31555 5.11524 7.24531 5.32024 7.36367C5.52525 7.48203 5.59549 7.74417 5.47713 7.94918C5.35877 8.15418 5.09663 8.22442 4.89162 8.10606C4.68662 7.9877 4.61638 7.72556 4.73474 7.52056Z" fill="white"/>
<path d="M12.4172 6.05183C12.5355 6.25683 12.4653 6.51897 12.2603 6.63733C12.0553 6.75569 11.7931 6.68545 11.6748 6.48045C11.5564 6.27544 11.6266 6.0133 11.8316 5.89494C12.0367 5.77658 12.2988 5.84682 12.4172 6.05183Z" fill="white"/>
<path fillRule="evenodd" clipRule="evenodd" d="M9.0001 8.25397C9.41223 8.25397 9.74631 8.58805 9.74631 9.00016C9.74631 9.41229 9.41223 9.74638 9.0001 9.74638C8.58799 9.74638 8.25391 9.41229 8.25391 9.00016C8.25391 8.58805 8.58799 8.25397 9.0001 8.25397Z" fill="white"/>
</g>
<rect x="0.5" y="0.5" width="17" height="17" rx="4.5" stroke="#1F1A34"/>
<defs>
<linearGradient id="paint0_linear_1677_1345" x1="9.15749" y1="15.1414" x2="10.7428" y2="9.80406" gradientUnits="userSpaceOnUse">
<stop offset="0.377307" stop-color="white" stop-opacity="0.6"/>
<stop offset="0.992239" stop-color="white" stop-opacity="0"/>
</linearGradient>
<linearGradient id="paint1_linear_1677_1345" x1="9.03224" y1="2.85858" x2="11.0771" y2="8.02928" gradientUnits="userSpaceOnUse">
<stop offset="0.634963" stop-color="white" stop-opacity="0.81"/>
<stop offset="1" stop-color="white" stop-opacity="0"/>
</linearGradient>
<linearGradient id="paint2_linear_1677_1345" x1="8.25493" y1="6.97034" x2="8.25493" y2="13.0504" gradientUnits="userSpaceOnUse">
<stop stop-color="white" stop-opacity="0.81"/>
<stop offset="0.646422" stop-color="white"/>
</linearGradient>
<linearGradient id="paint3_linear_1677_1345" x1="5.20445" y1="7.62401" x2="7.88574" y2="9.5154" gradientUnits="userSpaceOnUse">
<stop stop-color="white" stop-opacity="0.6"/>
<stop offset="1" stop-color="white" stop-opacity="0"/>
</linearGradient>
<linearGradient id="paint4_linear_1677_1345" x1="14.6245" y1="12.0493" x2="8.67915" y2="11.0599" gradientUnits="userSpaceOnUse">
<stop offset="0.60731" stop-color="white" stop-opacity="0.81"/>
<stop offset="1" stop-color="white" stop-opacity="0"/>
</linearGradient>
<linearGradient id="paint5_linear_1677_1345" x1="11.2233" y1="8.80592" x2="3.50562" y2="5.94431" gradientUnits="userSpaceOnUse">
<stop stop-color="white" stop-opacity="0.81"/>
<stop offset="0.478389" stop-color="white"/>
</linearGradient>
<linearGradient id="paint6_linear_1677_1345" x1="12.1613" y1="6.38698" x2="8.94599" y2="7.88099" gradientUnits="userSpaceOnUse">
<stop stop-color="white" stop-opacity="0.6"/>
<stop offset="1" stop-color="white" stop-opacity="0"/>
</linearGradient>
<linearGradient id="paint7_linear_1677_1345" x1="3.50967" y1="12.0925" x2="7.53464" y2="7.89504" gradientUnits="userSpaceOnUse">
<stop offset="0.54518" stop-color="white" stop-opacity="0.81"/>
<stop offset="1" stop-color="white" stop-opacity="0"/>
</linearGradient>
<linearGradient id="paint8_linear_1677_1345" x1="14.4907" y1="5.77726" x2="7.99191" y2="11.1826" gradientUnits="userSpaceOnUse">
<stop offset="0.518582" stop-color="white"/>
<stop offset="1" stop-color="white" stop-opacity="0.81"/>
</linearGradient>
<clipPath id="clip0_1677_1345">
<rect x="1" y="1" width="16" height="16" rx="4" fill="white"/>
</clipPath>
</defs>
</svg>
