<svg width="18" height="18" viewBox="0 0 18 18" fill="none" xmlns="http://www.w3.org/2000/svg">
<g clip-path="url(#clip0_1739_9160)">
<rect x="1" y="1" width="16" height="16" rx="4" fill="white" fill-opacity="0.08"/>
<path fill-rule="evenodd" clip-rule="evenodd" d="M9.43407 3C10.4637 2.99937 11.4762 3.26374 12.3739 3.76765C13.2717 4.27155 14.0246 4.99801 14.5599 5.87706C14.1458 5.87116 13.7347 5.94758 13.3505 6.10186C12.9663 6.25614 12.6166 6.48521 12.3217 6.77575C12.0268 7.06628 11.7926 7.41253 11.6328 7.79431C11.473 8.17608 11.3907 8.58584 11.3907 8.99969C11.3907 9.41354 11.473 9.82325 11.6328 10.205C11.7926 10.5868 12.0268 10.9331 12.3217 11.2236C12.6166 11.5141 12.9663 11.7432 13.3505 11.8975C13.7347 12.0518 14.1458 12.1282 14.5599 12.1223C14.0146 13.0166 13.2447 13.7526 12.3266 14.2573C11.4085 14.762 10.3742 15.0177 9.32655 14.999C8.27891 14.9804 7.25439 14.688 6.35484 14.151C5.4553 13.614 4.71205 12.851 4.19899 11.9379C3.68592 11.0248 3.42091 9.99345 3.43029 8.94626C3.43968 7.8991 3.72313 6.87259 4.25248 5.96884C4.78182 5.06508 5.53862 4.31553 6.44765 3.7947C7.35668 3.27386 8.38626 2.99989 9.43407 3Z" fill="#FFC780"/>
<path fill-rule="evenodd" clip-rule="evenodd" d="M14.5598 5.87516C14.1458 5.86927 13.7347 5.94568 13.3505 6.09996C12.9663 6.25425 12.6165 6.48331 12.3216 6.77386C12.0268 7.06442 11.7926 7.41062 11.6328 7.7924C11.473 8.17422 11.3907 8.58393 11.3907 8.99778C11.3907 9.41163 11.473 9.82138 11.6328 10.2032C11.7926 10.5849 12.0268 10.9311 12.3216 11.2217C12.6165 11.5123 12.9663 11.7413 13.3505 11.8956C13.7347 12.0499 14.1458 12.1263 14.5598 12.1204L14.5415 12.1508C13.9313 12.7038 13.1735 13.0676 12.3603 13.1979C11.5471 13.3282 10.7135 13.2195 9.96095 12.8849C9.20845 12.5503 8.56946 12.0043 8.12179 11.3134C7.67411 10.6224 7.43706 9.81627 7.43947 8.99311C7.44188 8.16995 7.68365 7.36527 8.13539 6.67694C8.58708 5.98862 9.22927 5.44638 9.98373 5.1162C10.7382 4.78603 11.5724 4.68216 12.3849 4.81725C13.1973 4.95233 13.953 5.32054 14.5598 5.87707V5.87516Z" fill="url(#paint0_linear_1739_9160)"/>
</g>
<rect x="0.5" y="0.5" width="17" height="17" rx="4.5" stroke="#1F1A34"/>
<defs>
<linearGradient id="paint0_linear_1739_9160" x1="10.9983" y1="13.2516" x2="10.9983" y2="4.7573" gradientUnits="userSpaceOnUse">
<stop stop-color="#FFC780"/>
<stop offset="1" stop-color="#964B48"/>
</linearGradient>
<clipPath id="clip0_1739_9160">
<rect x="1" y="1" width="16" height="16" rx="4" fill="white"/>
</clipPath>
</defs>
</svg>
