<svg width="18" height="18" viewBox="0 0 18 18" fill="none" xmlns="http://www.w3.org/2000/svg">
<g clip-path="url(#clip0_1677_1405)">
<rect x="1" y="1" width="16" height="16" rx="4" fill="#002D74"/>
<path d="M9.00599 11.8012L11.4267 10.4006L10.4239 9.82133L9.00599 10.6427L7.58813 9.82133V8.18733L8.99735 7.366L10.4152 8.18733L11.4267 7.59943L9.00599 6.19885L6.5766 7.59943V10.4006L9.00599 11.8012Z" fill="white"/>
<path fill-rule="evenodd" clip-rule="evenodd" d="M9.00602 3L14.1933 6V12L9.00602 15H8.99738L3.81006 12V6L8.99738 3V3.00499L9.00602 3ZM5.34896 11.1095V6.89049L9.00601 4.78099L12.6544 6.89049V11.1095L8.99738 13.219L5.34896 11.1095Z" fill="white"/>
</g>
<rect x="0.5" y="0.5" width="17" height="17" rx="4.5" stroke="#1F1A34"/>
<defs>
<clipPath id="clip0_1677_1405">
<rect x="1" y="1" width="16" height="16" rx="4" fill="white"/>
</clipPath>
</defs>
</svg>
