<svg width="18" height="18" viewBox="0 0 18 18" fill="none" xmlns="http://www.w3.org/2000/svg">
<g clip-path="url(#clip0_1739_9187)">
<rect x="1" y="1" width="16" height="16" rx="4" fill="white" fill-opacity="0.08"/>
<path d="M11.9988 3.81H5.99878L8.99996 9.00827L11.9988 3.81Z" fill="url(#paint0_linear_1739_9187)"/>
<path d="M11.9988 3.81L9 9.00827L11.9988 14.2042L15 9.00827L11.9988 3.81Z" fill="url(#paint1_linear_1739_9187)"/>
<path d="M5.99882 3.81L3 9.00827L5.99882 14.2042L9 9.00827L5.99882 3.81Z" fill="url(#paint2_linear_1739_9187)"/>
<path d="M8.99996 9.00824L5.99878 14.2041H11.9988L8.99996 9.00824Z" fill="url(#paint3_linear_1739_9187)"/>
</g>
<rect x="0.5" y="0.5" width="17" height="17" rx="4.5" stroke="#1F1A34"/>
<defs>
<linearGradient id="paint0_linear_1739_9187" x1="8.99949" y1="9.08891" x2="8.99949" y2="3.57108" gradientUnits="userSpaceOnUse">
<stop stop-color="#74C5EE"/>
<stop offset="0.32" stop-color="#73C2EF"/>
<stop offset="0.53" stop-color="#6EB9F1"/>
<stop offset="0.72" stop-color="#66AAF5"/>
<stop offset="0.88" stop-color="#5A95FA"/>
<stop offset="1" stop-color="#4F80FF"/>
</linearGradient>
<linearGradient id="paint1_linear_1739_9187" x1="8.99314" y1="9.00744" x2="15.0797" y2="9.00744" gradientUnits="userSpaceOnUse">
<stop stop-color="#96D4C8"/>
<stop offset="1" stop-color="#42C0C6"/>
</linearGradient>
<linearGradient id="paint2_linear_1739_9187" x1="2.99925" y1="9.00744" x2="8.99952" y2="9.00744" gradientUnits="userSpaceOnUse">
<stop stop-color="#4F80FF"/>
<stop offset="0.28" stop-color="#4E7FFC"/>
<stop offset="0.48" stop-color="#4A7CF3"/>
<stop offset="0.64" stop-color="#4477E4"/>
<stop offset="0.79" stop-color="#3C6FCE"/>
<stop offset="0.93" stop-color="#3166B3"/>
<stop offset="1" stop-color="#2B60A3"/>
</linearGradient>
<linearGradient id="paint3_linear_1739_9187" x1="8.99949" y1="8.74701" x2="8.99949" y2="14.2169" gradientUnits="userSpaceOnUse">
<stop stop-color="#74C5EE"/>
<stop offset="0.32" stop-color="#73C2EF"/>
<stop offset="0.53" stop-color="#6EB9F1"/>
<stop offset="0.72" stop-color="#66AAF5"/>
<stop offset="0.88" stop-color="#5A95FA"/>
<stop offset="1" stop-color="#4F80FF"/>
</linearGradient>
<clipPath id="clip0_1739_9187">
<rect x="1" y="1" width="16" height="16" rx="4" fill="white"/>
</clipPath>
</defs>
</svg>
