<svg width="18" height="18" viewBox="0 0 18 18" fill="none" xmlns="http://www.w3.org/2000/svg">
<g clip-path="url(#clip0_1740_9230)">
<rect x="1" y="1" width="16" height="16" rx="4" fill="#ED6C53"/>
<path fill-rule="evenodd" clip-rule="evenodd" d="M9.33125 13.9797C8.50858 14.3187 7.6979 14.5 6.98898 14.5C6.36371 14.5 5.84277 14.3551 5.49036 14.0757C5.10483 13.7707 4.82598 13.2333 4.64671 12.4807C4.46716 11.7268 4.38583 10.7496 4.40204 9.5555C4.41812 8.41388 4.49945 7.4871 4.65134 6.75917C4.80173 6.03838 5.02215 5.50765 5.32157 5.15691C5.52659 4.44793 5.8237 3.97393 6.22761 3.72471C6.648 3.46394 7.28936 3.43883 8.01912 3.6044C8.75148 3.7705 9.58422 4.13103 10.3974 4.6572C11.0394 5.07124 11.6855 5.60782 12.2068 6.2208C13.3027 7.21371 14.1745 8.53729 14.0035 9.92127C13.8613 11.0524 12.8806 12.5902 10.5599 13.553C10.1986 13.7039 9.83705 13.8226 9.48954 13.9092L9.48791 13.91L9.4777 13.9147C9.4548 13.9254 9.43152 13.9362 9.40809 13.9467C9.3826 13.9582 9.35699 13.9693 9.33125 13.9797ZM11.7531 11.7572C11.2601 12.1633 10.6424 12.5415 9.88147 12.8576C9.0588 13.1966 8.24784 13.378 7.53893 13.378C7.32219 13.378 7.11921 13.3597 6.93162 13.326L6.95956 13.3494C7.19822 13.5374 7.53798 13.6498 7.95141 13.6828C8.16202 13.6997 8.39075 13.6959 8.63336 13.6713C8.86522 13.6479 9.10988 13.6055 9.36339 13.5443C10.502 13.0396 11.2721 12.3971 11.7531 11.7572ZM12.3638 10.4499C12.3739 10.3982 12.3818 10.3481 12.3869 10.2988C12.4883 9.48024 12.1718 8.67028 11.6416 7.9427C11.1119 7.21545 10.3719 6.57549 9.63694 6.09967C8.62545 5.44394 7.60445 5.05956 6.82796 5.00276C6.57934 5.3075 6.38591 5.79097 6.2505 6.46705C6.11209 7.15798 6.03539 8.04428 6.01946 9.13407C5.99466 10.8619 6.17434 12.0885 6.54407 12.8092C6.8909 12.9695 7.36088 13.027 7.9066 12.9777C8.46022 12.9276 9.08768 12.768 9.73502 12.4991C10.9966 11.9742 11.8291 11.281 12.3301 10.5974C12.3431 10.5466 12.3544 10.4976 12.3638 10.4499ZM7.25407 4.67909C8.03642 4.81893 8.95404 5.19787 9.84754 5.77559C10.5802 6.24967 11.32 6.88378 11.8749 7.61257C12.3763 8.27094 12.7291 9.00974 12.7857 9.77955C12.8671 9.5694 12.9171 9.36617 12.9404 9.17692C13.0555 8.23482 12.6169 7.30059 11.9411 6.50042C11.6013 6.19165 11.2369 5.9147 10.8725 5.68038C9.80205 4.98779 8.6771 4.57804 7.86028 4.57804C7.74925 4.57804 7.64627 4.58549 7.5516 4.6C7.4411 4.61691 7.34194 4.64344 7.25407 4.67909ZM5.88255 5.17202C5.80844 5.21734 5.73692 5.27528 5.67099 5.34321C5.46801 6.08128 5.35862 7.10756 5.34092 8.43502C5.32661 9.47245 5.3856 10.3315 5.51583 11.0091C5.612 11.5093 5.7466 11.9076 5.91729 12.2053C5.70981 11.4323 5.61527 10.4045 5.63394 9.1289C5.64824 8.08597 5.71717 7.22244 5.84468 6.52614C5.96156 5.88731 6.12844 5.38626 6.35021 5.01599C6.25607 5.02874 6.16917 5.04855 6.08988 5.07534C6.01387 5.10105 5.94467 5.13328 5.88255 5.17202ZM9.27594 4.46377C8.50735 4.08914 7.7645 3.87906 7.18187 3.87906C6.86677 3.87906 6.61775 3.93888 6.43631 4.05355C6.22598 4.1832 6.04085 4.40952 5.88854 4.74139C6.10868 4.65512 6.36996 4.61571 6.65931 4.61926C6.73831 4.54185 6.81869 4.47626 6.90956 4.42013C7.24835 4.20784 7.73332 4.15158 8.29129 4.22536C8.59863 4.26605 8.93034 4.34641 9.27594 4.46377ZM6.21521 13.0676L6.19641 13.0558L6.16072 13.0328C6.12081 13.0065 6.08239 12.9793 6.04493 12.951L6.04384 12.9502C5.65846 12.6452 5.37865 12.1078 5.19883 11.3552C5.01888 10.6013 4.93755 9.62412 4.95553 8.43C4.96234 7.8426 4.98863 7.31132 5.03318 6.83438C4.88714 7.53302 4.8065 8.43691 4.79097 9.55699C4.77503 10.7019 4.84723 11.6283 5.00621 12.3336C5.16546 13.0405 5.40998 13.5167 5.73093 13.7722C5.96783 13.9586 6.30594 14.0711 6.71774 14.1045C7.02875 14.1298 7.37981 14.1098 7.75688 14.0441C7.33717 13.9884 6.98352 13.8567 6.72225 13.6492C6.54761 13.5104 6.39572 13.3261 6.26603 13.0979C6.24887 13.0879 6.23183 13.0778 6.21521 13.0676ZM13.2476 8.12504C13.337 8.4837 13.3671 8.85269 13.3216 9.22579C13.2634 9.69207 13.0649 10.2282 12.6854 10.7627C12.5134 11.3746 12.1077 12.0631 11.4064 12.6997C12.8707 11.8253 13.5115 10.7098 13.6154 9.87582C13.6906 9.27969 13.5413 8.68546 13.2476 8.12504Z" fill="white"/>
</g>
<rect x="0.5" y="0.5" width="17" height="17" rx="4.5" stroke="#1F1A34"/>
<defs>
<clipPath id="clip0_1740_9230">
<rect x="1" y="1" width="16" height="16" rx="4" fill="white"/>
</clipPath>
</defs>
</svg>
