<svg width="18" height="18" viewBox="0 0 18 18" fill="none" xmlns="http://www.w3.org/2000/svg">
<g clip-path="url(#clip0_1740_9262)">
<rect x="1" y="1" width="16" height="16" rx="4" fill="#191535"/>
<path d="M8.45961 11.8138C8.30376 11.66 8.1404 11.513 7.99486 11.3502C7.89921 11.2429 7.79455 11.2086 7.66102 11.2332C7.53011 11.109 7.52467 10.9687 7.65033 10.8412C7.82137 10.6673 7.99336 10.4942 8.16834 10.3245C8.28388 10.2125 8.37634 10.0835 8.47499 9.95764C8.68186 9.69319 8.58621 9.36854 8.41216 9.1793C8.31276 9.07127 8.20529 8.97056 8.10233 8.86553C8.07944 8.84227 8.04869 8.82464 8.04025 8.7892C8.07926 8.76181 8.11808 8.73443 8.15709 8.70705C8.21748 8.67554 8.27318 8.63803 8.31688 8.58476C8.32457 8.57764 8.33245 8.57051 8.34014 8.5632C8.35196 8.56901 8.36715 8.57182 8.37503 8.58101C8.74019 8.997 9.11191 9.40736 9.46657 9.83217C9.66407 10.0689 9.66575 10.3429 9.54384 10.6236C9.48589 10.757 9.39662 10.8682 9.3201 10.9888C9.29346 11.0136 9.26589 11.0374 9.24039 11.0633C8.98644 11.3198 8.72987 11.5741 8.45961 11.8138ZM8.14209 11.0593C8.29625 10.9046 8.44479 10.7446 8.57833 10.5719C8.66592 10.4584 8.73437 10.3331 8.76626 10.191C8.7972 10.1538 8.80639 10.1075 8.81783 10.063C8.8274 10.0257 8.81952 9.99046 8.78595 9.96533C8.74844 9.9372 8.71543 9.95689 8.68599 9.97846C8.64004 10.012 8.60178 10.0533 8.57946 10.1071C8.42285 10.3836 8.21429 10.6218 8.01905 10.8699C7.96879 10.9173 7.91834 10.9644 7.86864 11.0122C7.85138 11.0287 7.84107 11.0456 7.85382 11.073C7.92209 11.2206 7.99561 11.2337 8.10589 11.1167C8.12164 11.0998 8.13909 11.0843 8.14209 11.0593Z" fill="url(#paint0_linear_1740_9262)"/>
<path d="M7.76923 7.00333C6.8658 6.09952 5.96161 5.19646 5.05799 4.29284C4.96797 4.20263 4.86782 4.14224 4.7354 4.13342C4.46871 4.11579 4.27909 4.22551 4.15831 4.46107C4.1283 4.53797 4.10636 4.61637 4.11949 4.70039C4.11986 4.80336 4.14612 4.90313 4.21758 4.97478C5.21272 5.97293 6.21031 6.96864 7.20789 7.96434C7.48434 8.24023 7.76286 8.51425 8.04025 8.7892C8.07926 8.76181 8.11808 8.73443 8.15709 8.70705C8.21748 8.67554 8.27318 8.63803 8.31688 8.58476C8.32457 8.57764 8.33245 8.57051 8.34014 8.5632C8.39884 8.50974 8.45755 8.45667 8.51625 8.40322C8.57721 8.33026 8.63816 8.2573 8.69911 8.18434C8.72087 8.12789 8.76401 8.08625 8.79908 8.03918C8.45605 7.69371 8.11358 7.34768 7.76923 7.00333Z" fill="url(#paint1_linear_1740_9262)"/>
<path d="M10.3359 8.47899C10.2172 8.52925 10.1108 8.60652 9.98496 8.64103C9.97127 8.64309 9.95758 8.64516 9.94389 8.64722C9.93358 8.68904 9.90207 8.69955 9.86437 8.70067C9.81654 8.71905 9.73196 8.70986 9.78541 8.80514C9.81017 8.93286 9.82405 8.94205 9.9392 8.89629C10.1179 8.82502 10.2717 8.71886 10.3901 8.56507C10.4827 8.51875 10.5416 8.43622 10.6084 8.36214C10.506 8.37358 10.427 8.44035 10.3359 8.47899Z" fill="#DEB539"/>
<path d="M10.6084 8.36214C10.506 8.37358 10.427 8.44035 10.3359 8.47899C10.2172 8.52925 10.1108 8.60652 9.98496 8.64103C9.98571 8.63765 9.98534 8.63278 9.98722 8.63147C10.1886 8.50637 10.3936 8.3884 10.624 8.32294L10.627 8.32594C10.6208 8.33795 10.6144 8.35014 10.6084 8.36214Z" fill="#C18D05"/>
<path d="M9.94389 8.64722C9.93358 8.68904 9.90207 8.69955 9.86437 8.70067C9.87412 8.65791 9.90788 8.65078 9.94389 8.64722Z" fill="#C18D05"/>
<path d="M10.624 8.32294C10.6305 8.31394 10.6371 8.30475 10.6436 8.29575C10.6472 8.29931 10.6508 8.30288 10.6543 8.30644C10.6451 8.313 10.6361 8.31938 10.627 8.32594L10.624 8.32294Z" fill="#C18D05"/>
<path d="M8.78595 9.96533C8.74844 9.9372 8.71543 9.95689 8.68599 9.97846C8.64004 10.012 8.60178 10.0533 8.57946 10.1071C8.42285 10.3836 8.21429 10.6218 8.01905 10.8699C7.96879 10.9173 7.91834 10.9644 7.86864 11.0122C7.85138 11.0287 7.84107 11.0456 7.85382 11.073C7.92209 11.2206 7.99561 11.2337 8.10589 11.1167C8.12164 11.0998 8.13909 11.0843 8.14209 11.0593C8.29625 10.9046 8.44479 10.7446 8.57833 10.5719C8.66592 10.4584 8.73437 10.3331 8.76626 10.191C8.7972 10.1538 8.80639 10.1075 8.81783 10.063C8.8274 10.0257 8.81952 9.99046 8.78595 9.96533Z" fill="#DEB539"/>
<path d="M13.5674 10.549C13.4676 10.2392 13.3358 9.9462 13.088 9.70763C12.5058 9.14723 11.9439 8.56545 11.368 7.99848C11.2669 7.89908 11.208 7.7993 11.2294 7.65807C11.1144 7.5356 10.975 7.52941 10.8533 7.64213C10.8192 7.67383 10.7882 7.7089 10.7539 7.7406C10.4664 8.00561 10.2286 8.32444 9.879 8.52287C9.7599 8.59039 9.64981 8.61721 9.52059 8.58533C9.37824 8.55026 9.25408 8.48349 9.14942 8.38033C9.03333 8.26593 8.91574 8.15302 8.79908 8.03918C8.76401 8.08625 8.72087 8.12789 8.69911 8.18434C8.63816 8.2573 8.57721 8.33026 8.51625 8.40322C8.54532 8.48818 8.62709 8.52419 8.68467 8.58233C8.96394 8.86347 9.24451 9.14348 9.52697 9.42162C9.75953 9.65062 9.99603 9.87531 10.2292 10.1036C10.3494 10.2211 10.3535 10.1878 10.2344 10.3125C10.1288 10.4231 10.0084 10.5197 9.91932 10.6458C9.81823 10.7469 9.71827 10.8491 9.61568 10.9485C9.55191 11.0104 9.52265 11.0839 9.52434 11.1713C9.54122 11.1904 9.55829 11.2097 9.57517 11.2289C9.5943 11.1377 9.65056 11.0691 9.71339 11.0053C9.81073 10.9067 9.90976 10.8095 10.008 10.7118C10.3582 10.3928 10.6832 10.0488 11.0141 9.71045C11.0756 9.64743 11.1418 9.59417 11.2284 9.57128C11.3065 9.61555 11.344 9.69919 11.4083 9.75659C11.6427 9.96496 11.8565 10.1947 12.0831 10.411C12.2018 10.5242 12.301 10.6488 12.3747 10.7945C12.4072 10.7673 12.4209 10.7919 12.4314 10.8166C12.4563 10.8763 12.4794 10.9365 12.5032 10.9967C12.5765 11.2373 12.6126 11.483 12.6026 11.7347C12.5989 11.7743 12.5902 11.814 12.5921 11.8534C12.6013 12.0475 12.5289 12.2109 12.4083 12.3574C12.335 12.4466 12.3382 12.4845 12.4301 12.5575C12.4606 12.5819 12.4978 12.6031 12.5351 12.613C12.8543 12.6989 13.1394 12.6287 13.3926 12.4196C13.5998 12.2518 13.6932 12.0305 13.7137 11.7679C13.7467 11.3511 13.6944 10.943 13.5674 10.549ZM9.86437 8.70067C9.87412 8.65791 9.90788 8.65078 9.94389 8.64722C9.95758 8.64516 9.97127 8.64309 9.98496 8.64103C9.98571 8.63765 9.98534 8.63278 9.98722 8.63147C10.1886 8.50637 10.3936 8.3884 10.624 8.32294C10.6305 8.31394 10.6371 8.30475 10.6436 8.29575C10.6472 8.29931 10.6508 8.30288 10.6543 8.30644C10.6451 8.313 10.6361 8.31938 10.627 8.32594C10.6208 8.33795 10.6144 8.35014 10.6084 8.36214C10.5416 8.43622 10.4827 8.51875 10.3901 8.56507C10.2717 8.71886 10.1179 8.82502 9.9392 8.89629C9.82405 8.94205 9.81017 8.93286 9.78541 8.80514C9.73196 8.70986 9.81654 8.71905 9.86437 8.70067Z" fill="url(#paint2_linear_1740_9262)"/>
<path d="M13.6709 10.3757C13.5867 10.0934 13.4442 9.8483 13.229 9.63787C12.5871 9.00957 11.9552 8.37114 11.3188 7.73703C11.2907 7.70909 11.2594 7.68433 11.2294 7.65807C11.208 7.7993 11.2669 7.89908 11.368 7.99848C11.9439 8.56545 12.5058 9.14723 13.088 9.70763C13.3358 9.9462 13.4676 10.2392 13.5674 10.549C13.6944 10.943 13.7467 11.3511 13.7137 11.7679C13.6932 12.0305 13.5998 12.2518 13.3926 12.4196C13.1394 12.6287 12.8543 12.6989 12.5351 12.613C12.4978 12.6031 12.4606 12.5819 12.4301 12.5575C12.3382 12.4845 12.335 12.4466 12.4083 12.3574C12.5289 12.2109 12.6013 12.0475 12.5921 11.8534C12.5902 11.814 12.5989 11.7743 12.6026 11.7347C12.6126 11.483 12.5765 11.2373 12.5032 10.9967C12.4794 10.9365 12.4563 10.8763 12.4314 10.8166C12.4209 10.7919 12.4072 10.7673 12.3747 10.7945C12.4837 11.1293 12.5135 11.4723 12.4863 11.823C12.4606 12.1563 12.1859 12.4395 11.8554 12.4624C11.579 12.4815 11.3033 12.4907 11.0294 12.4361C10.8922 12.3988 10.7551 12.3613 10.6309 12.2885C10.624 12.2835 10.6165 12.278 10.6095 12.273C10.5651 12.2279 10.5206 12.1829 10.4762 12.1381C10.1757 11.8354 9.87562 11.5318 9.57517 11.2289C9.55829 11.2097 9.54122 11.1904 9.52434 11.1713C9.52265 11.0839 9.55191 11.0104 9.61568 10.9485C9.71827 10.8491 9.81823 10.7469 9.91932 10.6458C10.0084 10.5197 10.1288 10.4231 10.2344 10.3125C10.3535 10.1878 10.3494 10.2211 10.2292 10.1036C9.99603 9.87531 9.75953 9.65062 9.52697 9.42162C9.24451 9.14348 8.96394 8.86347 8.68467 8.58233C8.62709 8.52419 8.54532 8.48818 8.51625 8.40322C8.45755 8.45667 8.39884 8.50974 8.34014 8.5632C8.35196 8.56901 8.36715 8.57182 8.37503 8.58101C8.74019 8.997 9.11191 9.40736 9.46657 9.83217C9.66407 10.0689 9.66575 10.3429 9.54384 10.6236C9.48589 10.757 9.39662 10.8682 9.3201 10.9888C9.29346 11.0136 9.26589 11.0374 9.24039 11.0633C8.98644 11.3198 8.72987 11.5741 8.45961 11.8138C8.30376 11.66 8.1404 11.513 7.99486 11.3502C7.89921 11.2429 7.79455 11.2086 7.66102 11.2332C7.66946 11.2435 7.67696 11.2551 7.68634 11.2645C8.36865 11.9464 9.05133 12.6284 9.73346 13.3105C9.81467 13.3915 9.90657 13.4581 10.0092 13.5078C10.5266 13.7582 11.0803 13.8529 11.6482 13.8685C11.9012 13.8754 12.1551 13.8439 12.4087 13.8413C12.5936 13.8394 12.7675 13.7985 12.9297 13.7175C13.491 13.4369 13.833 13.002 13.8632 12.3562C13.8714 12.1796 13.8678 12.0021 13.8783 11.8257C13.9085 11.327 13.8118 10.8478 13.6709 10.3757Z" fill="url(#paint3_linear_1740_9262)"/>
</g>
<rect x="0.5" y="0.5" width="17" height="17" rx="4.5" stroke="#1F1A34"/>
<defs>
<linearGradient id="paint0_linear_1740_9262" x1="9.20553" y1="15.3261" x2="9.03043" y2="4.8317" gradientUnits="userSpaceOnUse">
<stop offset="1.06556e-08" stop-color="#DAA700"/>
<stop offset="0.0239" stop-color="#D9A600"/>
<stop offset="0.6053" stop-color="#C69204"/>
<stop offset="1" stop-color="#BF8B05"/>
</linearGradient>
<linearGradient id="paint1_linear_1740_9262" x1="7.33255" y1="10.3084" x2="9.81567" y2="7.83116" gradientUnits="userSpaceOnUse">
<stop offset="5.32779e-09" stop-color="#9E8C4F"/>
<stop offset="0.052" stop-color="#A5955C"/>
<stop offset="0.2961" stop-color="#C5BA96"/>
<stop offset="0.5215" stop-color="#DED8C3"/>
<stop offset="0.7211" stop-color="#F0EDE4"/>
<stop offset="0.8874" stop-color="#FBFAF8"/>
<stop offset="1" stop-color="white"/>
</linearGradient>
<linearGradient id="paint2_linear_1740_9262" x1="4.11522" y1="9.00092" x2="13.884" y2="9.00092" gradientUnits="userSpaceOnUse">
<stop offset="1.06556e-08" stop-color="#B88306"/>
<stop offset="1" stop-color="#BA8506"/>
</linearGradient>
<linearGradient id="paint3_linear_1740_9262" x1="8.93081" y1="8.40806" x2="12.7704" y2="13.5071" gradientUnits="userSpaceOnUse">
<stop offset="1.06556e-08" stop-color="#EDC960"/>
<stop offset="0.4523" stop-color="#EDC85E"/>
<stop offset="0.6357" stop-color="#EBC657"/>
<stop offset="0.7705" stop-color="#E8C14B"/>
<stop offset="0.8814" stop-color="#E4BB39"/>
<stop offset="0.9766" stop-color="#DFB223"/>
<stop offset="1" stop-color="#DDB01C"/>
</linearGradient>
<clipPath id="clip0_1740_9262">
<rect x="1" y="1" width="16" height="16" rx="4" fill="white"/>
</clipPath>
</defs>
</svg>
