<svg width="18" height="18" viewBox="0 0 18 18" fill="none" xmlns="http://www.w3.org/2000/svg">
<g clip-path="url(#clip0_1742_9287)">
<rect x="1" y="1" width="16" height="16" rx="4" fill="#0F2D32"/>
<path d="M10.7263 8.42153C10.5791 7.46292 9.76613 6.75464 8.75185 6.75464C7.716 6.75464 6.871 7.45295 6.65998 8.42153H5.75761V9.14436H6.62186C6.73967 10.2622 7.65064 11.0834 8.7689 11.0834C9.62782 11.0834 10.3252 10.7432 10.6312 10.1819L9.87436 9.69729C9.67885 10.0203 9.25358 10.2244 8.78577 10.2244C8.11403 10.2244 7.65472 9.81616 7.55277 9.14436H11.3972L11.6358 8.42153H10.7263ZM8.70082 7.53706C9.27063 7.53706 9.70428 7.90264 9.75537 8.42153H7.5867C7.73129 7.87715 8.13102 7.53706 8.70082 7.53706Z" fill="#DFF5EF"/>
<path d="M9.22957 3.13C12.4114 3.13 15 5.71856 15 8.90043H14.0059C14.0059 6.26668 11.8633 4.12401 9.22957 4.12401V3.13Z" fill="#DFF5EF"/>
<path d="M3 8.90043H3.994C3.994 11.5341 6.13667 13.677 8.77043 13.677V14.671C5.58856 14.671 3 12.0823 3 8.90043Z" fill="#DFF5EF"/>
</g>
<rect x="0.5" y="0.5" width="17" height="17" rx="4.5" stroke="#1F1A34"/>
<defs>
<clipPath id="clip0_1742_9287">
<rect x="1" y="1" width="16" height="16" rx="4" fill="white"/>
</clipPath>
</defs>
</svg>
