<svg width="18" height="18" viewBox="0 0 18 18" fill="none" xmlns="http://www.w3.org/2000/svg">
<g clip-path="url(#clip0_1750_5960)">
<rect x="1" y="1" width="16" height="16" rx="4" fill="#ED4E33"/>
<path d="M7.66784 5.51853C5.59393 6.31597 5.40395 8.35817 4.80928 9.31193C4.20756 10.277 2.82905 10.8095 3.01756 11.3014C3.20605 11.7931 4.58621 11.2649 5.67811 11.5787C6.75708 11.8888 8.26251 13.2793 10.3364 12.4818C11.3929 12.0756 12.1579 11.2395 12.5098 10.2491C12.5476 10.1428 12.4768 10.0291 12.3646 10.0186C12.2948 10.0121 12.2279 10.0487 12.1964 10.1113C11.8782 10.7462 11.3324 11.269 10.618 11.5436C9.43859 11.9971 8.1482 11.641 7.35568 10.7482C7.17569 10.5454 7.02173 10.3146 6.90021 10.0595C6.8668 9.98927 6.83503 9.91792 6.80686 9.84409C6.77853 9.77028 6.75445 9.69596 6.73234 9.62132C7.35568 9.3303 8.07498 9.02206 8.89044 8.70857C9.68999 8.40115 10.4177 8.1518 11.0656 7.95232C11.5039 7.81747 11.9056 7.70527 12.2683 7.61356C12.2945 7.607 12.3204 7.60044 12.3461 7.59404C12.401 7.58043 12.4573 7.60979 12.4776 7.66261C12.4896 7.69395 12.5003 7.72642 12.5113 7.75792C12.5831 7.96118 12.6369 8.16657 12.6724 8.37244C12.6879 8.46251 12.7862 8.51156 12.8668 8.46825C13.1645 8.30813 13.4369 8.15196 13.6802 8.00169C14.5871 7.4423 15.0899 6.96788 14.9867 6.69901C14.8837 6.42997 14.1932 6.41456 13.1455 6.60649C12.8126 6.66751 12.4434 6.74953 12.0456 6.85108C11.9768 6.86863 11.9072 6.88684 11.8368 6.90554C11.502 6.99446 11.1489 7.09632 10.7812 7.21034C10.0975 7.42245 9.36391 7.67656 8.60661 7.96774C7.89811 8.24022 7.22662 8.52271 6.61082 8.80421C6.60329 7.60947 7.3244 6.48 8.50375 6.02658C9.21799 5.75197 9.973 5.77445 10.6337 6.03315C10.6989 6.05874 10.7731 6.04102 10.8207 5.98935C10.897 5.9065 10.8736 5.77461 10.7745 5.7208C9.85147 5.22096 8.72436 5.11236 7.66784 5.51853Z" fill="white"/>
</g>
<rect x="0.5" y="0.5" width="17" height="17" rx="4.5" stroke="#1F1A34"/>
<defs>
<clipPath id="clip0_1750_5960">
<rect x="1" y="1" width="16" height="16" rx="4" fill="white"/>
</clipPath>
</defs>
</svg>
