<svg width="18" height="18" viewBox="0 0 18 18" fill="none" xmlns="http://www.w3.org/2000/svg">
<g clip-path="url(#clip0_1677_1846)">
<rect x="1" y="1" width="16" height="16" rx="4" fill="#202944"/>
<path d="M4 4V14H13.84V4H4ZM7.44 5.16H8.36V6.12H7.44V5.16ZM5.12 5.16H6.08V6.12H5.12V5.16ZM6.04 7.48V8.44H5.08V7.48H6.04ZM5.8 12.76H5.4V12.4H5.76V12.76H5.8ZM6.08 10.84H5.12V9.92H6.08V10.84ZM8.12 12.76H7.76V12.4H8.12V12.76ZM8.12 10.52H7.76V10.16H8.12V10.52ZM8.4 8.48H7.44V7.52H8.4V8.48ZM10.44 12.76H10.08V12.4H10.44V12.76ZM10.44 10.52H10.08V10.16H10.44V10.52ZM10.44 8.16H10.08V7.8H10.44V8.16ZM10.76 6.12H9.8V5.16H10.76V6.12ZM12.8 12.76H12.44V12.4H12.8V12.76ZM12.8 10.52H12.44V10.16H12.8V10.52ZM12.8 8.16H12.44V7.8H12.8V8.16ZM12.8 5.84H12.44V5.48H12.8V5.84Z" fill="white"/>
</g>
<rect x="0.5" y="0.5" width="17" height="17" rx="4.5" stroke="#1F1A34"/>
<defs>
<clipPath id="clip0_1677_1846">
<rect x="1" y="1" width="16" height="16" rx="4" fill="white"/>
</clipPath>
</defs>
</svg>
