<svg width="190" height="40" viewBox="0 0 190 40" fill="none" xmlns="http://www.w3.org/2000/svg">
<path d="M13.1099 8.36534V6.86534H11.6099H3.85361H2.35361V8.36534V19.678V21.178H3.85361H6.76625H8.26625V19.678V17.1872H11.1272H12.6272V15.6872V13.1768V12.4079H13.1099V10.9079V8.36534ZM27.8599 21.178H30.4878L29.1515 18.9152L27.2557 15.7052C27.5452 15.4414 27.8037 15.1399 28.0236 14.7994C28.5597 13.9695 28.8128 12.9928 28.8128 11.9378C28.8128 10.4718 28.2863 9.13526 27.178 8.18974C26.1002 7.27014 24.6432 6.86534 23.0323 6.86534H18.1886H16.6886V8.36534V19.678V21.178H18.1886H21.1013H22.6013V19.678V19.2222L23.2454 20.3985L23.6723 21.178H24.5611H27.8599ZM44.4707 21.178H46.599L45.8834 19.1736L41.8443 7.86096L41.4888 6.86534H40.4316H38.9998L38.618 5.66051L38.2587 6.86534H37.0362H35.9691L35.6192 7.8735L31.6927 19.1861L31.0014 21.178H33.1098H36.119H37.2397L37.5574 20.1033L37.7868 19.3274H39.6854L39.9568 20.1486L40.2969 21.178H41.3811H44.4707ZM56.1329 9.96922L54.6621 7.57919L54.2228 6.86534H53.3846H50.5203H49.0203V8.36534V19.678V21.178H50.5203H53.1915H54.6915V19.678V18.0458L56.1781 20.4636L56.6173 21.178H57.4559H60.3203H61.8203V19.678V8.36534V6.86534H60.3203H57.6329H56.1329V8.36534V9.96922ZM78.3162 19.0271L79.2244 17.9021L78.1336 16.9532L76.1543 15.2313L75.0365 14.2589L74.0503 15.3646C73.8246 15.6177 73.4708 15.8125 72.9169 15.8125C72.4387 15.8125 72.1235 15.6421 71.912 15.4031C71.6857 15.1474 71.4882 14.7056 71.4882 14.0458C71.4882 13.396 71.6847 12.946 71.9171 12.6807C72.1341 12.4329 72.4501 12.263 72.9169 12.263C73.4627 12.263 73.818 12.4559 74.0713 12.7464L75.0577 13.8779L76.1884 12.8907L78.216 11.1206L79.2803 10.1914L78.4165 9.07346C76.9504 7.17615 74.9056 6.57568 72.8364 6.57568C68.5669 6.57568 65.4629 9.81965 65.4629 14.0458C65.4629 16.0669 66.1353 17.9424 67.4489 19.3237C68.7721 20.7153 70.647 21.4998 72.8364 21.4998C74.8238 21.4998 76.8921 20.7913 78.3162 19.0271ZM92.9775 15.7642H92.4142V15.124V12.7745V12.2791H92.8809V10.7791V8.36534V6.86534H91.3809H83.5119H82.0119V8.36534V19.678V21.178H83.5119H91.4775H92.9775V19.678V17.2642V15.7642Z" fill="white" stroke="#09031D" stroke-width="3"/>
</svg>
