<svg width="20" height="20" viewBox="0 0 20 20" fill="none" xmlns="http://www.w3.org/2000/svg">
<path d="M0 10C0 4.4775 4.47833 0 10 0C15.5225 0 20 4.4775 20 10C20 14.4167 17.1383 18.1642 13.1675 19.4883C12.66 19.5867 12.5 19.2742 12.5 19.0083V16.2642C12.5 15.3308 12.1725 14.7225 11.8142 14.4125C14.0408 14.165 16.38 13.3192 16.38 9.47833C16.38 8.38667 15.9925 7.49417 15.3508 6.79417C15.4542 6.5425 15.7967 5.525 15.2525 4.1475C15.2525 4.1475 14.4142 3.87917 12.505 5.1725C11.7058 4.95083 10.85 4.84 10 4.83583C9.15 4.84 8.295 4.95083 7.4975 5.1725C5.58667 3.87917 4.74667 4.1475 4.74667 4.1475C4.20333 5.52417 4.54583 6.54167 4.64917 6.79417C4.01 7.49417 3.61917 8.38583 3.61917 9.47833C3.61917 13.3092 5.95417 14.1667 8.175 14.4208C7.88833 14.67 7.62917 15.1117 7.54 15.7575C6.96917 16.0133 5.52167 16.455 4.63 14.9267C4.63 14.9267 4.10167 13.9658 3.0975 13.8958C3.0975 13.8958 2.12083 13.8825 3.02833 14.5033C3.02833 14.5033 3.68417 14.8108 4.13917 15.9667C4.13917 15.9667 4.71833 17.7517 7.5 17.1467V19.0083C7.5 19.2717 7.33833 19.5817 6.83917 19.4892C2.865 18.1667 0 14.4183 0 10Z" fill="white"/>
</svg>
