<svg width="18" height="18" viewBox="0 0 18 18" fill="none" xmlns="http://www.w3.org/2000/svg">
<g clip-path="url(#clip0_1750_5998)">
<rect x="1" y="1" width="16" height="16" rx="4" fill="white" fill-opacity="0.08"/>
<path fill-rule="evenodd" clip-rule="evenodd" d="M8.33443 3H9.68828V4.21777C11.0417 4.51953 12.0534 5.7276 12.0534 7.17197C12.0534 8.84358 10.6983 10.1987 9.02672 10.1987C7.35511 10.1987 6 8.84358 6 7.17197C6 5.73855 6.99644 4.53786 8.33443 4.22479V3ZM10.7611 7.17197C10.7611 8.12986 9.98461 8.90638 9.02672 8.90638C8.06883 8.90638 7.29231 8.12986 7.29231 7.17197C7.29231 6.21408 8.06883 5.43756 9.02672 5.43756C9.98461 5.43756 10.7611 6.21408 10.7611 7.17197Z" fill="#883BE6"/>
<path d="M10.2648 12.0321C9.93828 12.3586 9.49545 12.542 9.03372 12.542C8.57198 12.542 8.12916 12.3586 7.80267 12.0321C7.47617 11.7056 7.29275 11.2628 7.29275 10.801H6.00044C6.00044 11.6055 6.32001 12.377 6.88886 12.9459C7.28984 13.3468 7.79151 13.624 8.33443 13.7526V15H9.68828V13.7629C10.2484 13.6391 10.7666 13.3578 11.1786 12.9459C11.7474 12.377 12.067 11.6055 12.067 10.801H10.7747C10.7747 11.2628 10.5913 11.7056 10.2648 12.0321Z" fill="#883BE6"/>
</g>
<rect x="0.5" y="0.5" width="17" height="17" rx="4.5" stroke="#1F1A34"/>
<defs>
<clipPath id="clip0_1750_5998">
<rect x="1" y="1" width="16" height="16" rx="4" fill="white"/>
</clipPath>
</defs>
</svg>
