<svg width="18" height="18" viewBox="0 0 18 18" fill="none" xmlns="http://www.w3.org/2000/svg">
<g clip-path="url(#clip0_1750_6206)">
<rect x="1" y="1" width="16" height="16" rx="4" fill="#002FA7"/>
<path d="M9.5031 10.9633L9.37938 10.9835H9.37024C9.3611 10.9859 9.35195 10.9859 9.34335 10.9883L9.31107 10.9926C7.68963 11.2583 6.31776 11.2927 5.12016 11.1002C4.79744 11.0464 4.32329 10.9582 3.918 10.7839C3.43875 10.5782 3.16631 10.2998 3.10902 9.95315C2.96406 9.10813 4.21652 8.4304 4.62989 8.20799C5.72448 7.61632 7.07375 7.18897 8.75248 6.9047C10.4312 6.62043 11.8461 6.5774 13.0746 6.77668C13.8753 6.90712 14.9572 7.16477 15.0855 7.92318C15.2138 8.68159 14.2787 9.28133 13.5646 9.66834C12.4967 10.2458 11.192 10.6634 9.57248 10.9488L9.54048 10.9533C9.5316 10.9558 9.52219 10.9558 9.51359 10.9579C9.50498 10.9601 9.50525 10.9633 9.5031 10.9633ZM9.36325 10.9176H9.36755L9.49368 10.8947H9.4961C9.50498 10.8923 9.51439 10.8923 9.523 10.8901L9.555 10.8853C11.1652 10.6034 12.4639 10.186 13.5265 9.61213C15.1482 8.73484 15.0446 8.13484 15.0132 7.93797C14.8803 7.14083 13.5109 6.91842 13.0617 6.84768C11.8415 6.65055 10.4352 6.69197 8.76351 6.97651C7.09177 7.26105 5.75137 7.68382 4.66135 8.27227C3.03964 9.14928 3.14291 9.74956 3.17491 9.94642C3.30938 10.7433 4.68098 10.9633 5.12931 11.0364C6.32045 11.229 7.68425 11.1946 9.30005 10.9289L9.33232 10.9243C9.34146 10.9221 9.35088 10.9221 9.35921 10.92L9.36325 10.9176Z" fill="white"/>
<path d="M9.38337 10.6403C9.35136 10.6452 9.31694 10.6519 9.28036 10.6564C9.21151 10.6677 9.13379 10.6793 9.0488 10.693L9.03966 10.6954C9.00308 10.6997 8.96436 10.707 8.92294 10.7113C8.88636 10.7159 8.84737 10.7229 8.80622 10.7275H8.79842C8.73683 10.7366 8.6704 10.7433 8.60371 10.7527H8.59483L8.50985 10.7616C8.48699 10.764 8.46171 10.7664 8.43912 10.771H8.43589C7.91603 10.8283 7.42117 10.8627 6.96774 10.8695C6.14317 10.8807 5.4813 10.8052 5.00447 10.6452C4.54915 10.4916 4.25816 10.2576 4.14574 9.95102C4.12623 9.8987 4.11164 9.84468 4.10217 9.78965C4.06183 9.54922 4.12046 9.31121 4.2786 9.08449C4.49752 8.76714 4.9141 8.46485 5.51734 8.18676C6.08212 7.92481 6.79535 7.68949 7.63821 7.48348C8.17179 7.35278 8.60021 7.27505 8.80864 7.24144C9.01707 7.20782 9.4541 7.13843 9.99494 7.0833C10.5904 7.02306 11.4609 6.96873 12.2325 7.04457C12.8944 7.10858 13.389 7.25757 13.7009 7.48886C13.9185 7.65023 14.0506 7.85301 14.0901 8.09317C14.0996 8.15075 14.1035 8.20912 14.1017 8.26745C14.0923 8.59475 13.8978 8.9086 13.5243 9.19933C13.1273 9.5078 12.5273 9.79853 11.7414 10.0599C11.3063 10.2041 10.827 10.3348 10.3161 10.4515C10.2984 10.4565 10.2804 10.4604 10.2623 10.4631L10.0861 10.5013C10.0401 10.5101 9.99655 10.5196 9.95164 10.5282L9.90834 10.5376C9.88306 10.5419 9.8602 10.5467 9.83519 10.5513C9.81018 10.5559 9.7814 10.5629 9.75451 10.5674L9.71094 10.5763C9.62622 10.5924 9.54823 10.6062 9.47965 10.6199C9.45033 10.629 9.41699 10.6357 9.38337 10.6403ZM8.5908 10.6863H8.60236C8.66637 10.6793 8.73038 10.6702 8.79224 10.661H8.79842C8.83769 10.6564 8.87641 10.6495 8.91541 10.6452C8.95441 10.6409 8.99609 10.6336 9.03213 10.629L9.04127 10.6269C9.12599 10.6129 9.20264 10.6016 9.27041 10.5922C9.34383 10.5809 9.40085 10.572 9.47427 10.558C9.54285 10.5465 9.62084 10.5311 9.70556 10.5144L9.74913 10.5053C9.77441 10.5007 9.80157 10.4962 9.82685 10.4894L9.89812 10.4755L9.94142 10.4663C9.98499 10.4572 10.0286 10.448 10.0743 10.4394L10.2507 10.4004C10.269 10.3958 10.2851 10.3934 10.3045 10.3889C10.8155 10.2746 11.2899 10.1417 11.7229 9.99916C12.5028 9.74044 13.0945 9.45401 13.4842 9.1493C13.8408 8.87014 14.0264 8.57458 14.0358 8.26745C14.0376 8.2134 14.0337 8.15931 14.0242 8.10608C13.9876 7.88447 13.8629 7.69595 13.6598 7.5448C13.3578 7.32319 12.8766 7.17608 12.2263 7.1145C11.4591 7.04107 10.5933 7.09432 10.0022 7.15349C9.4619 7.20728 9.0289 7.27425 8.82047 7.30921C8.61204 7.34417 8.18389 7.42351 7.65488 7.55126C6.8287 7.75269 6.09718 7.99313 5.54531 8.2505C4.95445 8.52428 4.54754 8.81743 4.334 9.12429C4.18743 9.33487 4.13256 9.55702 4.16914 9.77916C4.1777 9.83072 4.19121 9.88134 4.20948 9.93031C4.31706 10.2189 4.59218 10.4389 5.02921 10.5854C5.49878 10.7433 6.1515 10.8167 6.96908 10.8052C7.42279 10.7985 7.91522 10.7664 8.43266 10.707H8.43723C8.46105 10.7051 8.48474 10.702 8.50823 10.6976L8.5908 10.6863Z" fill="white"/>
<path d="M6.70633 9.96926L6.69961 9.96711H6.69315L6.69961 10.0311C6.71978 10.029 6.73833 10.029 6.75985 10.0265C6.81354 10.0225 6.86743 10.0217 6.92121 10.0241C6.84855 10.0102 6.7768 9.99183 6.70633 9.96926ZM7.48169 10.0752H7.47954V10.079H7.48411M14.0858 8.09824C14.0471 7.85619 13.9142 7.6561 13.6966 7.49366C13.3852 7.26237 12.8898 7.11365 12.2282 7.04937C11.4566 6.9738 10.5877 7.0292 9.99171 7.08837C9.45114 7.14215 9.016 7.20912 8.80542 7.24623C8.59483 7.28335 8.16776 7.35892 7.63391 7.48828C6.79132 7.69456 6.07647 7.93042 5.51304 8.19156C4.91034 8.46911 4.49537 8.7714 4.27403 9.08741C4.11589 9.31412 4.05645 9.55267 4.0976 9.79284C4.10459 9.83438 4.11457 9.87537 4.12745 9.91548C4.13203 9.92919 4.13633 9.94237 4.14117 9.95582C4.1444 9.96415 4.14763 9.97249 4.15112 9.98083C4.27188 10.2767 4.55884 10.5004 5.00232 10.6497C5.47888 10.811 6.14075 10.8855 6.96559 10.8742H6.97931L6.98818 10.863C7.10705 10.7371 7.23507 10.6069 7.36308 10.4961L7.37088 10.4894L7.44188 10.4275H7.33269C6.72112 10.4335 6.22842 10.3789 5.8675 10.2613H5.86428L5.86858 10.2597C6.18512 10.1325 6.44734 10.062 6.68885 10.0346C6.89942 10.0956 7.1166 10.131 7.33565 10.1398C7.18675 10.1322 7.03856 10.1143 6.89217 10.086L6.81444 10.0688L6.78298 10.0596C6.75259 10.0516 6.72274 10.043 6.69477 10.0327L6.68804 10.0311H6.68562C6.64371 10.0183 6.60258 10.003 6.56245 9.9854C6.32685 10.0244 6.06706 10.1037 5.76046 10.2328L5.6857 10.2648L5.68086 10.267L5.76154 10.2968C6.12085 10.4313 6.6278 10.5007 7.26411 10.4983C7.15654 10.5946 7.05326 10.7021 6.95483 10.8051C6.14505 10.817 5.49905 10.7417 5.03325 10.5857C4.61155 10.4448 4.34099 10.2361 4.22642 9.9612C4.22185 9.95098 4.21755 9.94102 4.21378 9.93027C4.21002 9.91951 4.20545 9.90768 4.20195 9.89638C4.18941 9.85804 4.17961 9.81885 4.17264 9.77912C4.13606 9.55751 4.19092 9.33483 4.3375 9.12398C4.54942 8.81739 4.95606 8.52424 5.54773 8.25154C6.0996 7.99497 6.83031 7.75453 7.65704 7.55229C8.18604 7.424 8.61447 7.34386 8.8229 7.31024C9.03133 7.27663 9.46405 7.20724 10.0046 7.15453C10.5963 7.09401 11.4612 7.04211 12.2285 7.11553C12.8791 7.17739 13.3599 7.32396 13.6622 7.54584C13.8663 7.69698 13.9898 7.8847 14.0264 8.10712C14.036 8.16033 14.0399 8.21443 14.0379 8.26848C14.0288 8.57534 13.8432 8.87064 13.4861 9.15007C13.0991 9.45236 12.5103 9.73878 11.7379 9.99535C11.6097 9.92892 11.4722 9.86088 11.3345 9.80064C11.9324 9.59006 12.388 9.36092 12.6903 9.11806L12.7567 9.06428H12.743L12.6698 9.06024C12.2438 9.03335 11.9254 9.05567 11.6713 9.12882L11.6643 9.13124L11.6575 9.13582C11.4785 9.25751 11.2862 9.35856 11.0844 9.43703L11.0521 9.44832C10.9903 9.47361 10.9239 9.49889 10.8577 9.52148L10.8163 9.53546L10.8176 9.52793C10.8201 9.51206 10.8225 9.49593 10.8244 9.48006C10.8364 9.38824 10.8414 9.29563 10.8394 9.20305C10.8397 9.18841 10.8391 9.17377 10.8375 9.15921C10.8357 9.14442 10.8359 9.1299 10.8346 9.11484C10.8332 9.09978 10.8322 9.08499 10.8308 9.06992C10.8295 9.05486 10.8276 9.04007 10.8254 9.02501C10.8227 9.00484 10.8198 8.98467 10.8163 8.9645C10.8128 8.94433 10.808 8.92443 10.8042 8.90426C10.8023 8.89404 10.8002 8.88409 10.798 8.8744C10.7628 8.71841 10.7053 8.56832 10.6272 8.42877C10.6005 8.3809 10.5716 8.33455 10.5406 8.28973C10.5312 8.27601 10.5215 8.26283 10.5116 8.24939C10.5016 8.23594 10.4946 8.22626 10.4847 8.21496C10.4747 8.20367 10.4659 8.19076 10.4562 8.17892C10.3493 8.04707 10.2234 7.93187 10.0826 7.8371C9.97135 7.76226 9.85131 7.70138 9.72519 7.65583C9.46366 7.56131 9.18297 7.53223 8.90761 7.57112C8.88051 7.57384 8.85357 7.57806 8.82693 7.58376H8.81994C8.5471 7.6379 8.29163 7.75793 8.07578 7.93338C7.97632 8.01248 7.88699 8.10353 7.8098 8.20447L7.80334 8.21362C7.75099 8.28172 7.70379 8.35364 7.66215 8.42877C7.65381 8.44383 7.64601 8.45889 7.63821 8.47395C7.63041 8.48901 7.62584 8.49789 7.62019 8.51053C7.61454 8.52317 7.60997 8.5307 7.60567 8.54146C7.58286 8.59157 7.56267 8.64282 7.54516 8.69502C7.54032 8.70901 7.53575 8.72191 7.53117 8.73724C7.5266 8.75257 7.52257 8.76414 7.51853 8.77974L7.50939 8.81228C7.51005 8.81429 7.51005 8.81645 7.50939 8.81846C7.50939 8.82196 7.50724 8.82573 7.50643 8.82949C7.50374 8.8389 7.50159 8.84966 7.49944 8.85854C7.49916 8.85969 7.49916 8.86088 7.49944 8.86203V8.86499C7.49729 8.87306 7.49594 8.88032 7.49433 8.88812C7.49271 8.89592 7.49137 8.90211 7.48976 8.90829C7.4868 8.92308 7.48411 8.93814 7.48169 8.95293C7.47606 8.98598 7.47122 9.01916 7.46716 9.05244C7.46716 9.06374 7.46474 9.0753 7.46367 9.0866C7.46259 9.09789 7.46125 9.11699 7.46017 9.13232C7.45614 9.2003 7.45614 9.26846 7.46017 9.33645C7.46179 9.36334 7.46367 9.39023 7.46663 9.41713C7.46633 9.42311 7.46697 9.42909 7.46851 9.43488C7.4712 9.45478 7.47389 9.47253 7.47685 9.49055C7.47653 9.49441 7.47718 9.49829 7.47873 9.50184C7.47846 9.50254 7.47846 9.5033 7.47873 9.504C7.47889 9.50708 7.47934 9.51014 7.48007 9.51314C7.4798 9.51383 7.4798 9.5146 7.48007 9.51529C7.48033 9.519 7.48087 9.52269 7.48169 9.52632C7.48169 9.53439 7.48411 9.54218 7.48572 9.55025C7.50041 9.62909 7.52054 9.70683 7.54596 9.78289C7.57925 9.88551 7.62258 9.9846 7.67533 10.0787H7.67667C7.68554 10.0946 7.69496 10.1105 7.70356 10.1266L7.71378 10.1427H7.70249L7.61992 10.1468H7.73476L7.79527 10.1443L7.76354 10.0946C7.76004 10.0892 7.75681 10.0838 7.75359 10.0779C7.6933 9.97857 7.6444 9.87275 7.60782 9.76245C7.58062 9.68176 7.55994 9.59902 7.54596 9.51502C7.54166 9.48544 7.53682 9.45801 7.5344 9.42815C7.53279 9.41229 7.53117 9.39615 7.52983 9.38028C7.51743 9.24103 7.52367 9.10075 7.54839 8.96315C7.59182 8.70435 7.69781 8.46007 7.85713 8.25154C7.87918 8.22464 7.90231 8.19587 7.92625 8.16897C7.98483 8.10191 8.04898 8.03993 8.118 7.98367C8.32522 7.81578 8.5702 7.70086 8.83177 7.64884L8.8385 7.64749L8.87319 7.64158L8.91353 7.63485C9.17829 7.59755 9.44815 7.62591 9.69938 7.71742C9.95461 7.8098 10.1824 7.96503 10.3618 8.16876C10.5412 8.37248 10.6663 8.61813 10.7257 8.88301C10.73 8.9099 10.737 8.9368 10.7415 8.968C10.7547 9.04363 10.7625 9.12012 10.7647 9.19686C10.7671 9.31688 10.7566 9.43681 10.7332 9.55456C10.7328 9.55966 10.7319 9.5647 10.7305 9.56962L10.7192 9.62905L10.7765 9.61076L10.7999 9.6027L10.8746 9.5758C10.9435 9.55294 11.0078 9.52766 11.0718 9.50265L11.1038 9.49109C11.3083 9.41028 11.5033 9.30738 11.6855 9.18422C11.9146 9.12022 12.2032 9.09709 12.5698 9.11322L12.5671 9.11538C12.26 9.34586 11.8073 9.56289 11.2224 9.76083L11.1331 9.79069L11.2192 9.82484L11.2264 9.82753C11.393 9.89514 11.5557 9.97191 11.7137 10.0575L11.7275 10.0645H11.7366C12.5225 9.80252 13.1225 9.51233 13.5186 9.20386C13.8935 8.91286 14.0882 8.60008 14.0966 8.27225C14.0988 8.21403 14.0952 8.15574 14.0858 8.09824ZM7.48061 10.0752H7.47846V10.079H7.48303M7.4599 10.147H7.46367L7.50293 10.1484H7.5344C7.50751 10.1484 7.48061 10.1468 7.4556 10.1454H7.42467M6.69369 9.96899L6.70014 10.033C6.72032 10.0309 6.73887 10.0309 6.76066 10.0287C6.81434 10.0244 6.86823 10.0235 6.92202 10.026C6.84929 10.0124 6.77744 9.99447 6.70687 9.97222L6.69988 9.97007L6.69369 9.96899ZM6.70687 9.97115L6.70014 9.96899H6.69369L6.70014 10.033C6.72032 10.0309 6.73887 10.0309 6.76066 10.0287C6.81434 10.0244 6.86823 10.0235 6.92202 10.026C6.84923 10.0114 6.77738 9.99247 6.70687 9.96926V9.97115ZM7.48249 10.075H7.48034V10.0787H7.48491M7.48249 10.0755H7.48034V10.0787H7.48491M6.70956 9.96899L6.70283 9.96684H6.69638L6.70283 10.0309C6.723 10.0287 6.74156 10.0287 6.76308 10.0263C6.81677 10.0222 6.87065 10.0214 6.92444 10.0239C6.85171 10.0102 6.77987 9.99229 6.70929 9.97007L6.70956 9.96899Z" fill="white"/>
<path d="M6.70633 9.96926L6.69961 9.96711H6.69315L6.69961 10.0311C6.71978 10.029 6.73833 10.029 6.75985 10.0265C6.81354 10.0225 6.86743 10.0217 6.92121 10.0241C6.84855 10.0102 6.7768 9.99183 6.70633 9.96926ZM7.48169 10.0752H7.47954V10.079H7.48411M14.0858 8.09824C14.0471 7.85619 13.9142 7.6561 13.6966 7.49366C13.3852 7.26237 12.8898 7.11365 12.2282 7.04937C11.4566 6.9738 10.5877 7.0292 9.99171 7.08837C9.45114 7.14215 9.016 7.20912 8.80542 7.24623C8.59483 7.28335 8.16776 7.35892 7.63391 7.48828C6.79132 7.69456 6.07647 7.93042 5.51304 8.19156C4.91034 8.46911 4.49537 8.7714 4.27403 9.08741C4.11589 9.31412 4.05645 9.55267 4.0976 9.79284C4.10459 9.83438 4.11457 9.87537 4.12745 9.91548C4.13203 9.92919 4.13633 9.94237 4.14117 9.95582C4.1444 9.96415 4.14763 9.97249 4.15112 9.98083C4.27188 10.2767 4.55884 10.5004 5.00232 10.6497C5.47888 10.811 6.14075 10.8855 6.96559 10.8742H6.97931L6.98818 10.863C7.10705 10.7371 7.23507 10.6069 7.36308 10.4961L7.37088 10.4894L7.44188 10.4275H7.33269C6.72112 10.4335 6.22842 10.3789 5.8675 10.2613H5.86428L5.86858 10.2597C6.18512 10.1325 6.44734 10.062 6.68885 10.0346C6.89942 10.0956 7.1166 10.131 7.33565 10.1398C7.18675 10.1322 7.03856 10.1143 6.89217 10.086L6.81444 10.0688L6.78298 10.0596C6.75259 10.0516 6.72274 10.043 6.69477 10.0327L6.68804 10.0311H6.68562C6.64371 10.0183 6.60258 10.003 6.56245 9.9854C6.32685 10.0244 6.06706 10.1037 5.76046 10.2328L5.6857 10.2648L5.68086 10.267L5.76154 10.2968C6.12085 10.4313 6.6278 10.5007 7.26411 10.4983C7.15654 10.5946 7.05326 10.7021 6.95483 10.8051C6.14505 10.817 5.49905 10.7417 5.03325 10.5857C4.61155 10.4448 4.34099 10.2361 4.22642 9.9612C4.22185 9.95098 4.21755 9.94102 4.21378 9.93027C4.21002 9.91951 4.20545 9.90768 4.20195 9.89638C4.18941 9.85804 4.17961 9.81885 4.17264 9.77912C4.13606 9.55751 4.19092 9.33483 4.3375 9.12398C4.54942 8.81739 4.95606 8.52424 5.54773 8.25154C6.0996 7.99497 6.83031 7.75453 7.65704 7.55229C8.18604 7.424 8.61447 7.34386 8.8229 7.31024C9.03133 7.27663 9.46405 7.20724 10.0046 7.15453C10.5963 7.09401 11.4612 7.04211 12.2285 7.11553C12.8791 7.17739 13.3599 7.32396 13.6622 7.54584C13.8663 7.69698 13.9898 7.8847 14.0264 8.10712C14.036 8.16033 14.0399 8.21443 14.0379 8.26848C14.0288 8.57534 13.8432 8.87064 13.4861 9.15007C13.0991 9.45236 12.5103 9.73878 11.7379 9.99535C11.6097 9.92892 11.4722 9.86088 11.3345 9.80064C11.9324 9.59006 12.388 9.36092 12.6903 9.11806L12.7567 9.06428H12.743L12.6698 9.06024C12.2438 9.03335 11.9254 9.05567 11.6713 9.12882L11.6643 9.13124L11.6575 9.13582C11.4785 9.25751 11.2862 9.35856 11.0844 9.43703L11.0521 9.44832C10.9903 9.47361 10.9239 9.49889 10.8577 9.52148L10.8163 9.53546L10.8176 9.52793C10.8201 9.51206 10.8225 9.49593 10.8244 9.48006C10.8364 9.38824 10.8414 9.29563 10.8394 9.20305C10.8397 9.18841 10.8391 9.17377 10.8375 9.15921C10.8357 9.14442 10.8359 9.1299 10.8346 9.11484C10.8332 9.09978 10.8322 9.08499 10.8308 9.06992C10.8295 9.05486 10.8276 9.04007 10.8254 9.02501C10.8227 9.00484 10.8198 8.98467 10.8163 8.9645C10.8128 8.94433 10.808 8.92443 10.8042 8.90426C10.8023 8.89404 10.8002 8.88409 10.798 8.8744C10.7628 8.71841 10.7053 8.56832 10.6272 8.42877C10.6005 8.3809 10.5716 8.33455 10.5406 8.28973C10.5312 8.27601 10.5215 8.26283 10.5116 8.24939C10.5016 8.23594 10.4946 8.22626 10.4847 8.21496C10.4747 8.20367 10.4659 8.19076 10.4562 8.17892C10.3493 8.04707 10.2234 7.93187 10.0826 7.8371C9.97135 7.76226 9.85131 7.70138 9.72519 7.65583C9.46366 7.56131 9.18297 7.53223 8.90761 7.57112C8.88051 7.57384 8.85357 7.57806 8.82693 7.58376H8.81994C8.5471 7.6379 8.29163 7.75793 8.07578 7.93338C7.97632 8.01248 7.88699 8.10353 7.8098 8.20447L7.80334 8.21362C7.75099 8.28172 7.70379 8.35364 7.66215 8.42877C7.65381 8.44383 7.64601 8.45889 7.63821 8.47395C7.63041 8.48901 7.62584 8.49789 7.62019 8.51053C7.61454 8.52317 7.60997 8.5307 7.60567 8.54146C7.58286 8.59157 7.56267 8.64282 7.54516 8.69502C7.54032 8.70901 7.53575 8.72191 7.53117 8.73724C7.5266 8.75257 7.52257 8.76414 7.51853 8.77974L7.50939 8.81228C7.51005 8.81429 7.51005 8.81645 7.50939 8.81846C7.50939 8.82196 7.50724 8.82573 7.50643 8.82949C7.50374 8.8389 7.50159 8.84966 7.49944 8.85854C7.49916 8.85969 7.49916 8.86088 7.49944 8.86203V8.86499C7.49729 8.87306 7.49594 8.88032 7.49433 8.88812C7.49271 8.89592 7.49137 8.90211 7.48976 8.90829C7.4868 8.92308 7.48411 8.93814 7.48169 8.95293C7.47606 8.98598 7.47122 9.01916 7.46716 9.05244C7.46716 9.06374 7.46474 9.0753 7.46367 9.0866C7.46259 9.09789 7.46125 9.11699 7.46017 9.13232C7.45614 9.2003 7.45614 9.26846 7.46017 9.33645C7.46179 9.36334 7.46367 9.39023 7.46663 9.41713C7.46633 9.42311 7.46697 9.42909 7.46851 9.43488C7.4712 9.45478 7.47389 9.47253 7.47685 9.49055C7.47653 9.49441 7.47718 9.49829 7.47873 9.50184C7.47846 9.50254 7.47846 9.5033 7.47873 9.504C7.47889 9.50708 7.47934 9.51014 7.48007 9.51314C7.4798 9.51383 7.4798 9.5146 7.48007 9.51529C7.48033 9.519 7.48087 9.52269 7.48169 9.52632C7.48169 9.53439 7.48411 9.54218 7.48572 9.55025C7.50041 9.62909 7.52054 9.70683 7.54596 9.78289C7.57925 9.88551 7.62258 9.9846 7.67533 10.0787H7.67667C7.68554 10.0946 7.69496 10.1105 7.70356 10.1266L7.71378 10.1427H7.70249L7.61992 10.1468H7.73476L7.79527 10.1443L7.76354 10.0946C7.76004 10.0892 7.75681 10.0838 7.75359 10.0779C7.6933 9.97857 7.6444 9.87275 7.60782 9.76245C7.58062 9.68176 7.55994 9.59902 7.54596 9.51502C7.54166 9.48544 7.53682 9.45801 7.5344 9.42815C7.53279 9.41229 7.53117 9.39615 7.52983 9.38028C7.51743 9.24103 7.52367 9.10075 7.54839 8.96315C7.59182 8.70435 7.69781 8.46007 7.85713 8.25154C7.87918 8.22464 7.90231 8.19587 7.92625 8.16897C7.98483 8.10191 8.04898 8.03993 8.118 7.98367C8.32522 7.81578 8.5702 7.70086 8.83177 7.64884L8.8385 7.64749L8.87319 7.64158L8.91353 7.63485C9.17829 7.59755 9.44815 7.62591 9.69938 7.71742C9.95461 7.8098 10.1824 7.96503 10.3618 8.16876C10.5412 8.37248 10.6663 8.61813 10.7257 8.88301C10.73 8.9099 10.737 8.9368 10.7415 8.968C10.7547 9.04363 10.7625 9.12012 10.7647 9.19686C10.7671 9.31688 10.7566 9.43681 10.7332 9.55456C10.7328 9.55966 10.7319 9.5647 10.7305 9.56962L10.7192 9.62905L10.7765 9.61076L10.7999 9.6027L10.8746 9.5758C10.9435 9.55294 11.0078 9.52766 11.0718 9.50265L11.1038 9.49109C11.3083 9.41028 11.5033 9.30738 11.6855 9.18422C11.9146 9.12022 12.2032 9.09709 12.5698 9.11322L12.5671 9.11538C12.26 9.34586 11.8073 9.56289 11.2224 9.76083L11.1331 9.79069L11.2192 9.82484L11.2264 9.82753C11.393 9.89514 11.5557 9.97191 11.7137 10.0575L11.7275 10.0645H11.7366C12.5225 9.80252 13.1225 9.51233 13.5186 9.20386C13.8935 8.91286 14.0882 8.60008 14.0966 8.27225C14.0988 8.21403 14.0952 8.15574 14.0858 8.09824ZM7.48061 10.0752H7.47846V10.079H7.48303M7.4599 10.147H7.46367L7.50293 10.1484H7.5344C7.50751 10.1484 7.48061 10.1468 7.4556 10.1454H7.42467M6.69369 9.96899L6.70014 10.033C6.72032 10.0309 6.73887 10.0309 6.76066 10.0287C6.81434 10.0244 6.86823 10.0235 6.92202 10.026C6.84929 10.0124 6.77744 9.99447 6.70687 9.97222L6.69988 9.97007L6.69369 9.96899ZM6.70687 9.97115L6.70014 9.96899H6.69369L6.70014 10.033C6.72032 10.0309 6.73887 10.0309 6.76066 10.0287C6.81434 10.0244 6.86823 10.0235 6.92202 10.026C6.84923 10.0114 6.77738 9.99247 6.70687 9.96926V9.97115ZM6.70714 9.96899L6.70041 9.96684H6.69396L6.70041 10.0309C6.72058 10.0287 6.73914 10.0287 6.76066 10.0263C6.81435 10.0222 6.86823 10.0214 6.92202 10.0239C6.84929 10.0102 6.77745 9.99229 6.70687 9.97007L6.70714 9.96899Z" fill="white"/>
<path d="M7.46052 10.0728L7.44841 10.0747H7.44599C7.40404 10.0747 7.36235 10.0715 7.32228 10.069C7.27082 10.0658 7.22107 10.0618 7.17302 10.0569C7.09233 10.0489 7.01703 10.0384 6.94711 10.0252C6.86446 10.0105 6.78288 9.99026 6.70291 9.9647L6.69565 9.96228H6.68892C6.64509 9.96712 6.60017 9.97384 6.55445 9.98245C6.32263 10.0228 6.06848 10.1 5.76861 10.2245C5.45825 10.1072 5.263 9.93673 5.18689 9.71835C5.18258 9.70625 5.17882 9.69415 5.17532 9.68177C5.17183 9.6694 5.16994 9.66053 5.16752 9.65004C5.1651 9.63955 5.16214 9.6218 5.15946 9.60835C5.12718 9.42009 5.17774 9.23533 5.30818 9.05891L5.31732 9.04734C5.49429 8.81309 5.81513 8.58826 6.27341 8.3801C6.52119 8.26916 6.77502 8.17227 7.03371 8.08991C7.31583 7.99793 7.62538 7.91134 7.95456 7.83254C8.10086 7.79757 8.2348 7.76664 8.35582 7.7419C8.36174 7.74029 8.36765 7.73948 8.37384 7.73814C8.26769 7.79195 8.16776 7.85725 8.07585 7.93285C7.97523 8.01294 7.8849 8.10517 7.80691 8.20744L7.80342 8.21363C7.78163 8.24213 7.76065 8.27118 7.74102 8.30103C7.65851 8.42307 7.59267 8.55557 7.54523 8.69503C7.54039 8.70901 7.53582 8.72192 7.53125 8.73725C7.52667 8.75258 7.52264 8.76415 7.51861 8.77975C7.51672 8.78593 7.51511 8.79212 7.5135 8.79857C7.51245 8.80323 7.5111 8.80781 7.50946 8.81229V8.81847C7.50946 8.82036 7.50731 8.82574 7.5065 8.8295C7.50382 8.83891 7.50166 8.84967 7.49951 8.85855C7.49924 8.8597 7.49924 8.86089 7.49951 8.86204V8.865C7.49736 8.87307 7.49602 8.88033 7.4944 8.88813C7.49279 8.89593 7.49144 8.90211 7.48983 8.9083C7.48955 8.91077 7.48901 8.9132 7.48822 8.91556C7.4858 8.92739 7.48364 8.93896 7.48176 8.95052C7.47558 8.98441 7.471 9.0183 7.46724 9.05245C7.46724 9.06375 7.46482 9.07531 7.46374 9.08661C7.46374 9.10194 7.46132 9.117 7.46025 9.13233C7.45621 9.20031 7.45621 9.26847 7.46025 9.33645C7.46186 9.36335 7.46401 9.39024 7.46697 9.41714C7.46669 9.42248 7.46724 9.42783 7.46858 9.433C7.47127 9.45317 7.47423 9.472 7.47719 9.49083C7.47708 9.49289 7.47708 9.49495 7.47719 9.49701L7.48122 9.52391C7.48445 9.54408 7.48795 9.56425 7.49252 9.58442C7.49203 9.58636 7.49203 9.58839 7.49252 9.59033C7.49494 9.60163 7.49736 9.61293 7.50005 9.62368C7.51027 9.66752 7.52183 9.70867 7.53421 9.7482C7.53743 9.75896 7.54093 9.76837 7.54416 9.77994L7.5576 9.81759C7.56218 9.8305 7.56675 9.84287 7.57186 9.85551C7.58181 9.88052 7.59203 9.90553 7.60278 9.93028C7.60763 9.94076 7.6122 9.95018 7.61731 9.96147C7.62242 9.97277 7.62726 9.98164 7.63237 9.99213C7.64608 10.019 7.66115 10.0483 7.67674 10.0752C7.68562 10.0911 7.69503 10.107 7.70364 10.1231L7.71359 10.1392H7.70229L7.61973 10.143H7.73806L7.7975 10.1406L7.76818 10.0908C7.76469 10.0855 7.76146 10.0798 7.75796 10.0742C7.69655 9.97546 7.64639 9.87018 7.60843 9.76031C7.58171 9.67957 7.56147 9.59683 7.54792 9.51288C7.54362 9.4833 7.53905 9.4556 7.53663 9.42601C7.53447 9.40853 7.53259 9.39132 7.53125 9.37384C7.51978 9.23594 7.52657 9.09713 7.55142 8.96101C7.59531 8.70264 7.70167 8.4589 7.86124 8.25101C7.87845 8.22922 7.89593 8.20798 7.91503 8.187C8.15277 7.90806 8.47839 7.71836 8.8383 7.64912V7.64885L8.82727 7.58484V7.5835L8.70786 7.60501C8.53144 7.63728 8.2625 7.69053 7.94219 7.76638C7.27118 7.92774 6.70318 8.1125 6.24974 8.31851C5.79039 8.52829 5.46094 8.755 5.27537 8.99517L5.26596 9.00673C5.11723 9.20387 5.05995 9.41014 5.09652 9.62073C5.09894 9.63471 5.1019 9.64762 5.10513 9.66107C5.10836 9.67451 5.11131 9.68796 5.11481 9.69979C5.11831 9.71163 5.12073 9.71996 5.12369 9.72884C5.19818 9.95583 5.38563 10.1344 5.68093 10.2611L5.68604 10.2635C5.70998 10.2737 5.73499 10.2837 5.76081 10.2933L5.77452 10.2976L5.78609 10.2933L5.86677 10.2597L5.87134 10.2581C6.186 10.1317 6.44661 10.0599 6.68946 10.0325H6.69269C6.72173 10.0416 6.75212 10.05 6.78332 10.0594C6.75293 10.0513 6.72281 10.0427 6.69511 10.0325L6.68812 10.0309H6.68596C6.64398 10.018 6.60276 10.0027 6.56252 9.98514C6.6069 9.97761 6.6502 9.97142 6.69269 9.96685L6.69914 10.0309C6.71931 10.0287 6.73814 10.0287 6.75965 10.0266C6.81333 10.0223 6.86723 10.0214 6.92102 10.0239C7.01512 10.0421 7.11009 10.0556 7.20556 10.0642C7.24563 10.068 7.28624 10.0709 7.32847 10.0736C7.37069 10.0763 7.4113 10.0779 7.45379 10.0793H7.45594L7.46347 10.0777H7.4788V10.0812H7.50758C7.54496 10.0812 7.58208 10.0833 7.61731 10.0833H7.67486C7.67431 10.0826 7.67386 10.0817 7.67352 10.0809H7.613C7.57804 10.0809 7.5412 10.0793 7.50408 10.079H7.47773M7.46294 10.1503L7.50113 10.1516H7.53447C7.50758 10.1516 7.48069 10.15 7.45567 10.1489H7.42878M7.45971 10.0777L7.46428 10.0793ZM7.67325 10.0841H7.61274C7.57777 10.0841 7.5412 10.0825 7.50516 10.0822H7.4901L7.48364 10.0806H7.47907V10.0825H7.50758C7.54496 10.0825 7.58208 10.0846 7.61758 10.0846H7.67486V10.0825L7.67325 10.0841Z" fill="white"/>
<path d="M10.7238 9.63255L10.7353 9.57203C10.7607 9.44928 10.7721 9.32406 10.7695 9.19874C10.7675 9.12235 10.7599 9.04621 10.7466 8.97095C10.7421 8.9411 10.7353 8.91367 10.7308 8.88623C10.6395 8.47845 10.3939 8.12183 10.0455 7.89115C9.93911 7.82036 9.82451 7.76274 9.70422 7.71957C9.45298 7.62812 9.18311 7.59986 8.91838 7.63727L8.90601 7.57165C9.06172 7.54637 9.38687 7.49608 9.79916 7.45708C10.2639 7.41109 10.9467 7.36994 11.5605 7.42481H11.565C12.0779 7.4708 12.4676 7.57837 12.726 7.74565L12.7376 7.75238C12.9415 7.88685 13.0628 8.05924 13.0972 8.26794C13.1024 8.29816 13.1054 8.32872 13.1063 8.35938C13.1155 8.62267 12.9735 8.87951 12.6833 9.11752L12.6717 9.12667H12.658C12.2506 9.10139 11.9319 9.12209 11.6847 9.1931C11.5025 9.31615 11.3074 9.41904 11.103 9.49996L11.071 9.51152C11.0067 9.53653 10.9427 9.56181 10.8738 9.58467C10.8418 9.59597 10.8098 9.60753 10.7754 9.6191L10.7238 9.63255ZM9.38338 7.56815C9.5001 7.58459 9.61482 7.61298 9.72574 7.65287C9.85186 7.69842 9.9719 7.7593 10.0832 7.83414C10.3094 7.98504 10.4962 8.18792 10.628 8.42581C10.7058 8.56551 10.7628 8.71582 10.7972 8.87198C10.8039 8.90183 10.8085 8.93249 10.8152 8.96127C10.8286 9.04005 10.8363 9.11967 10.8383 9.19955C10.841 9.31074 10.8333 9.42194 10.8152 9.53169L10.8566 9.51798C10.9231 9.49512 10.9895 9.46984 11.0513 9.44456L11.0834 9.43326C11.2851 9.35332 11.4771 9.25092 11.6559 9.12801L11.6627 9.12344L11.6696 9.12102C11.9216 9.04787 12.2344 9.02689 12.6545 9.05217C12.9202 8.83056 13.0509 8.59497 13.0415 8.3583C13.0408 8.32986 13.0377 8.30153 13.0324 8.27359C13.0004 8.08802 12.8928 7.9323 12.7118 7.80859L12.7026 7.80186C12.4552 7.6405 12.0728 7.53292 11.5666 7.48559H11.5621C10.9529 7.4318 10.2725 7.47187 9.80777 7.51786C9.65205 7.53454 9.50978 7.55067 9.38338 7.56815Z" fill="white"/>
<path d="M7.48284 10.0771V10.079H7.48956L7.48284 10.0771ZM7.67406 10.0793H7.61354C7.57858 10.0793 7.54174 10.0777 7.50462 10.0771L7.50812 10.0795C7.5455 10.0795 7.58262 10.0814 7.61785 10.0814H7.6754C7.67485 10.0807 7.6744 10.0799 7.67406 10.079V10.0793ZM7.46509 10.0744L7.4503 10.0769C7.40807 10.0769 7.36719 10.0736 7.32712 10.0709C7.28086 10.0685 7.23649 10.0653 7.19265 10.0607C7.10498 10.0529 7.01811 10.0405 6.93178 10.0241C6.8548 10.0099 6.7788 9.99077 6.70425 9.96686L6.69726 9.96471H6.69511L6.69027 9.96309C6.45145 9.88241 6.28928 9.76273 6.20779 9.60244C6.19989 9.58713 6.1928 9.57143 6.18654 9.55538C6.18331 9.54731 6.18009 9.53897 6.17713 9.53063C6.16712 9.50218 6.15948 9.47294 6.15427 9.44323C6.1341 9.33323 6.17041 9.22162 6.26185 9.10651C6.34081 9.01199 6.43302 8.92938 6.53563 8.86124C6.67242 8.76764 6.81629 8.68482 6.96593 8.61355C7.21591 8.49365 7.47317 8.38954 7.73618 8.30184L7.74129 8.29996C7.71296 8.34191 7.68678 8.38495 7.66276 8.42905C7.65442 8.44411 7.64662 8.45917 7.63882 8.47423C7.63102 8.48929 7.62672 8.49817 7.6208 8.51054C7.61489 8.52291 7.61058 8.53071 7.60628 8.54174C7.58369 8.59176 7.56352 8.64313 7.54577 8.6953C7.54093 8.70929 7.53636 8.7222 7.53179 8.73753C7.52721 8.75286 7.52318 8.76442 7.51914 8.77975C7.51511 8.79508 7.51296 8.80153 7.51027 8.81256C7.51055 8.81475 7.50997 8.81697 7.50866 8.81875C7.50866 8.82224 7.5065 8.82601 7.5057 8.8295C7.50301 8.83919 7.50086 8.84968 7.49871 8.85882C7.49844 8.85997 7.49844 8.86117 7.49871 8.86232V8.86527C7.49655 8.87307 7.49521 8.8806 7.4936 8.8884C7.49198 8.8962 7.48929 8.90723 7.48768 8.9153C7.48607 8.92337 7.48284 8.93843 7.48096 8.95026C7.47504 8.98415 7.4702 9.01803 7.46643 9.05219C7.46643 9.06348 7.46401 9.07478 7.46294 9.08634C7.46186 9.09791 7.46052 9.11673 7.45971 9.13179C7.45568 9.19978 7.45568 9.26794 7.45971 9.33592C7.46132 9.36282 7.46321 9.38971 7.46616 9.4166C7.46589 9.42194 7.46643 9.4273 7.46778 9.43247C7.47047 9.45264 7.47342 9.47147 7.47638 9.49002C7.47625 9.49217 7.47625 9.49433 7.47638 9.49648L7.48042 9.52337C7.48364 9.54363 7.48741 9.5638 7.49171 9.58388C7.49122 9.58583 7.49122 9.58786 7.49171 9.5898C7.4944 9.60083 7.49682 9.61212 7.49924 9.62315C7.50973 9.66699 7.52103 9.70814 7.5334 9.74767C7.53663 9.75816 7.54012 9.76784 7.54335 9.7794L7.5568 9.81706C7.56137 9.8297 7.56594 9.84234 7.57105 9.85498C7.581 9.87999 7.59122 9.905 7.60225 9.92947C7.60682 9.94023 7.61166 9.94964 7.6165 9.96094C7.62134 9.97224 7.62645 9.98111 7.63183 9.9916C7.64555 10.0185 7.66034 10.0475 7.67594 10.0747C7.68481 10.0906 7.69449 10.1062 7.70283 10.1223L7.71278 10.1387H7.70149L7.61892 10.1425H7.73753L7.79696 10.1401L7.77007 10.0927C7.76584 10.0862 7.76198 10.0795 7.7585 10.0726C7.69901 9.97386 7.65067 9.86887 7.61435 9.7595C7.5869 9.67898 7.56621 9.59631 7.55249 9.51235C7.54792 9.48249 7.54335 9.45506 7.54093 9.42521C7.52263 9.27038 7.52725 9.11369 7.55465 8.96021C7.59921 8.7017 7.70621 8.45798 7.86635 8.25021L7.91987 8.18674L7.93573 8.16656L7.92928 8.16845L7.83031 8.20018L7.8139 8.20556H7.81148C7.81046 8.20546 7.80943 8.20557 7.80846 8.2059C7.80748 8.20622 7.80659 8.20675 7.80584 8.20744C7.64447 8.26123 7.49315 8.31583 7.35186 8.37123C7.20466 8.42932 7.06831 8.48885 6.9428 8.54981C6.59479 8.71709 6.34737 8.88894 6.21236 9.06079C6.10909 9.1915 6.06794 9.32409 6.09134 9.45237C6.09667 9.478 6.1034 9.50332 6.11151 9.52821C6.11662 9.54516 6.12253 9.5621 6.12899 9.57851C6.13195 9.58523 6.13464 9.59222 6.13786 9.59868C6.20994 9.76165 6.3506 9.8894 6.55822 9.97977H6.56145L6.56682 9.98219C6.61093 9.97466 6.6545 9.96847 6.69699 9.96363L6.70345 10.0279C6.72362 10.0255 6.74217 10.0255 6.76369 10.0233C6.81738 10.0192 6.87126 10.0183 6.92505 10.0206C7.01902 10.0392 7.11391 10.0527 7.20932 10.061C7.24967 10.065 7.29001 10.068 7.3325 10.0704C7.37499 10.0728 7.41506 10.0747 7.45756 10.076H7.45971L7.46751 10.0744H7.48257M7.6797 10.0806C7.67915 10.0799 7.6787 10.0791 7.67836 10.0782H7.61785C7.58288 10.0782 7.54604 10.0766 7.51027 10.0763L7.5135 10.0785C7.55088 10.0785 7.58799 10.0806 7.62349 10.0806H7.6797ZM7.48741 10.0774L7.49386 10.076H7.48741V10.0774ZM7.46724 10.1449L7.50543 10.1465H7.53636C7.50946 10.1465 7.48257 10.1449 7.45756 10.1436H7.4269M7.6719 10.0801H7.61139C7.57643 10.0801 7.53958 10.0785 7.50247 10.0782H7.47558V10.0801H7.50758C7.54496 10.0801 7.58208 10.0822 7.61731 10.0822H7.67486C7.6744 10.0812 7.67413 10.0801 7.67406 10.079L7.6719 10.0801Z" fill="white"/>
<path d="M10.7238 9.63257L10.7354 9.57206C10.7607 9.4493 10.7722 9.32409 10.7695 9.19877C10.7676 9.12238 10.7599 9.04624 10.7467 8.97098C10.7421 8.94112 10.7354 8.91369 10.7308 8.88626C10.6396 8.47848 10.394 8.12186 10.0455 7.89118L9.9541 7.82932L10.0641 7.82717C10.3753 7.82205 10.6864 7.83552 10.996 7.86751C11.3808 7.91323 11.6683 7.99095 11.8566 8.10579C12.0032 8.19266 12.0879 8.30266 12.1086 8.43094C12.1153 8.47489 12.1175 8.5194 12.1153 8.5638C12.1037 8.78541 11.9617 8.9941 11.6939 9.18452L11.6869 9.18882C11.5357 9.29639 11.3391 9.39752 11.1076 9.49353L11.0756 9.50509C11.0113 9.5301 10.9473 9.55538 10.8787 9.57824C10.8467 9.58981 10.8144 9.60137 10.78 9.61267L10.7238 9.63257ZM10.1701 7.8944C10.3575 8.03709 10.5132 8.21725 10.6273 8.42341C10.7053 8.5633 10.7625 8.71377 10.7972 8.87012C10.804 8.89998 10.8085 8.93063 10.8153 8.95941C10.8286 9.03819 10.8363 9.11782 10.8384 9.19769C10.841 9.30889 10.8333 9.42009 10.8153 9.52984L10.8567 9.51612C10.9231 9.49326 10.9895 9.46798 11.0514 9.4427L11.0834 9.4314C11.285 9.35206 11.4771 9.2503 11.656 9.12804L11.6627 9.12347C11.908 8.94704 12.0392 8.7569 12.0475 8.55869C12.0499 8.51956 12.0476 8.4803 12.0408 8.4417C12.0228 8.33412 11.9491 8.24403 11.8214 8.16523C11.6428 8.05765 11.3642 7.98208 10.9876 7.93636C10.7161 7.9071 10.4432 7.89309 10.1701 7.8944Z" fill="white"/>
<path d="M7.67403 10.079H7.61352C7.57856 10.079 7.54171 10.0774 7.5046 10.0772L7.5081 10.0793C7.54548 10.0793 7.58259 10.0812 7.61782 10.0812H7.67538C7.67478 10.0806 7.67432 10.0798 7.67403 10.079ZM7.79613 10.1425L7.76924 10.0952C7.76491 10.0887 7.76105 10.082 7.75767 10.075C7.69824 9.97638 7.64989 9.87149 7.61352 9.76223C7.58607 9.68161 7.56538 9.59885 7.55166 9.5148C7.54709 9.48522 7.54252 9.45779 7.5401 9.42794L7.53445 9.3728L7.52827 9.37711L7.48927 9.40239L7.4648 9.41852H7.46345C7.40474 9.45819 7.34982 9.50321 7.2994 9.55299C7.21414 9.63825 7.17273 9.7235 7.17542 9.80472V9.81629C7.17576 9.83572 7.17884 9.855 7.18456 9.87357C7.18617 9.87976 7.18833 9.88594 7.19021 9.89213C7.20477 9.93359 7.22734 9.97179 7.25664 10.0045C7.27685 10.0276 7.29938 10.0485 7.32387 10.0669L7.3271 10.0691C7.32809 10.0698 7.32899 10.0706 7.32979 10.0715C7.36986 10.0739 7.41182 10.0758 7.45485 10.0772H7.45673L7.45189 10.0747L7.44785 10.0726L7.44328 10.0704L7.43414 10.0637H7.43172L7.41182 10.0519C7.36346 10.0249 7.32116 9.98831 7.28756 9.9443C7.2687 9.91878 7.255 9.88982 7.24722 9.85905C7.24722 9.8534 7.24507 9.84668 7.24427 9.83888C7.24346 9.83108 7.24158 9.82113 7.24023 9.81198C7.23324 9.74771 7.27008 9.67751 7.3435 9.60113C7.3838 9.56032 7.42763 9.52315 7.47448 9.49006V9.51588C7.47486 9.51886 7.4754 9.52183 7.47609 9.52475C7.47932 9.54501 7.48308 9.56519 7.48739 9.58527C7.4869 9.58721 7.4869 9.58924 7.48739 9.59118C7.49008 9.60248 7.4925 9.61377 7.49492 9.62453C7.50541 9.66837 7.5167 9.70952 7.52907 9.74905C7.5323 9.75981 7.5358 9.76922 7.53929 9.78079L7.55247 9.81871C7.55704 9.83135 7.56162 9.84372 7.56673 9.85636C7.57668 9.88137 7.5869 9.90638 7.59792 9.93112C7.60276 9.94161 7.60734 9.95103 7.61218 9.96232C7.61702 9.97362 7.62213 9.98249 7.62751 9.99298C7.64122 10.0199 7.65601 10.0492 7.67161 10.0761C7.68049 10.092 7.69017 10.1078 7.69851 10.124L7.70846 10.1401H7.69716L7.6146 10.1439H7.7332L7.79264 10.1414L7.79613 10.1425ZM7.67538 10.082C7.67478 10.0814 7.67432 10.0807 7.67403 10.0798H7.61352C7.57856 10.0798 7.54171 10.0782 7.5046 10.078L7.5081 10.0801C7.54548 10.0801 7.58259 10.082 7.61782 10.082H7.67538ZM7.67403 10.0798H7.61352C7.57856 10.0798 7.54171 10.0782 7.5046 10.078H7.48927L7.48282 10.0793H7.50756C7.54494 10.0793 7.58205 10.0812 7.61756 10.0812H7.67484C7.67469 10.0805 7.67469 10.0798 7.67484 10.079L7.67403 10.0798Z" fill="white"/>
<path d="M10.7238 9.63258L10.7354 9.57207C10.7607 9.44931 10.7722 9.3241 10.7695 9.19878C10.7676 9.12239 10.7599 9.04625 10.7467 8.97099C10.7421 8.94114 10.7354 8.9137 10.7308 8.88627L10.7192 8.83221L10.7744 8.84593C10.8483 8.86334 10.9204 8.88793 10.9895 8.91935C11.1132 8.97664 11.1864 9.05006 11.2071 9.1345C11.2095 9.14607 11.2117 9.15763 11.2138 9.17135C11.23 9.2835 11.1888 9.39296 11.088 9.49892L11.0834 9.50322L11.0764 9.50564C11.0124 9.53092 10.9484 9.5562 10.8795 9.57906C10.8475 9.59036 10.8152 9.60192 10.7811 9.61322L10.7238 9.63258ZM10.8085 8.925L10.8152 8.95915C10.8286 9.03793 10.8363 9.11756 10.8384 9.19744C10.841 9.30863 10.8333 9.41983 10.8152 9.52958L10.8567 9.51586C10.9207 9.493 10.9825 9.46987 11.0449 9.44486C11.1256 9.35557 11.1598 9.26629 11.1482 9.17915C11.1458 9.17 11.1458 9.16086 11.1436 9.1493C11.1275 9.08529 11.0656 9.02854 10.9621 8.97986C10.9124 8.95753 10.8611 8.93919 10.8085 8.925Z" fill="white"/>
<path d="M12.1508 10.274C12.0475 10.2304 11.9238 10.1664 11.7933 10.0997L11.7178 10.061L11.7498 10.0005L11.8253 10.0395C11.9561 10.1059 12.0773 10.1702 12.1782 10.2113L12.1508 10.274Z" fill="white"/>
<path d="M11.1162 9.48841L11.0726 9.43462C11.2419 9.29645 11.4364 9.19234 11.6452 9.12803C11.652 9.1261 11.6586 9.12376 11.6651 9.12103L11.6812 9.18746C11.6767 9.18961 11.6697 9.18961 11.6651 9.19203C11.4649 9.25494 11.2786 9.35553 11.1162 9.48841Z" fill="white"/>
<path d="M14.187 9.27999C13.9852 9.26843 13.7566 9.24099 13.5017 9.20657L13.4815 9.20442C13.2126 9.17241 12.9364 9.13799 12.6639 9.1197L12.6677 9.05139C12.9426 9.06753 13.2196 9.10195 13.4899 9.13638L13.51 9.13853C13.7642 9.17053 13.9909 9.19904 14.1926 9.20953L14.187 9.27999Z" fill="white"/>
<path d="M10.8933 9.56856L10.8395 9.52822C10.9562 9.37707 11.0571 9.25928 11.1531 9.1517C11.4462 8.83354 11.7351 8.63668 12.0624 8.53126L12.0693 8.52883C12.3959 8.42911 12.731 8.36006 13.0703 8.32256C13.4025 8.28248 13.7414 8.2564 14.0654 8.23354L14.0998 8.23112C14.432 8.20718 14.7429 8.18432 15.0411 8.14532L15.0503 8.21417C14.7501 8.2529 14.4366 8.27603 14.1044 8.29889L14.07 8.30104C13.7448 8.32417 13.4081 8.34918 13.0749 8.39033C12.6855 8.43847 12.3603 8.50517 12.0855 8.59419L12.0788 8.59661C11.766 8.69773 11.4879 8.89056 11.2001 9.19984C11.1084 9.30043 11.0103 9.41957 10.8933 9.56856Z" fill="white"/>
<path d="M10.8314 9.21811L10.7736 9.18181C10.8354 9.08552 10.8905 9.00296 10.943 8.92981C11.2189 8.54684 11.4906 8.28811 11.8066 8.11411L11.8111 8.11196C11.8152 8.11005 11.8191 8.1077 11.8227 8.10497C12.0631 7.97211 12.3539 7.85512 12.7067 7.74216H12.7089C13.009 7.6483 13.3089 7.57273 13.6687 7.48344L13.6889 7.47887C13.9847 7.40572 14.2636 7.33768 14.5293 7.25726L14.5495 7.32127C14.284 7.40195 14.0022 7.47242 13.7066 7.54584L13.6865 7.55041C13.328 7.64104 13.0278 7.71554 12.728 7.8094H12.725C12.377 7.9194 12.0906 8.03612 11.8523 8.16682C11.8477 8.16924 11.8456 8.17139 11.8431 8.17139L11.8388 8.17355C11.5341 8.34325 11.266 8.59498 10.9981 8.97069C10.9484 9.04169 10.8932 9.12425 10.8314 9.21811Z" fill="white"/>
<path d="M10.6273 8.45569L10.5679 8.42127C10.6691 8.23894 10.7913 8.06907 10.932 7.91512C10.9436 7.90356 10.9549 7.88984 10.9664 7.87855C11.1406 7.70544 11.3343 7.55318 11.5436 7.42484L11.5503 7.42054C11.759 7.28741 11.9833 7.16854 12.2122 7.04725L12.2466 7.02869C12.4322 6.93026 12.6094 6.83855 12.7705 6.74469L12.8057 6.80493C12.6409 6.90094 12.4644 6.99319 12.2789 7.09109L12.2447 7.10964C12.0132 7.2304 11.7889 7.34981 11.5799 7.48293L11.5729 7.48724C11.3693 7.61065 11.1813 7.7581 11.013 7.92642L10.9788 7.96057C10.8455 8.11356 10.7278 8.27942 10.6273 8.45569Z" fill="white"/>
<path d="M9.74589 7.69724L9.68188 7.67196C9.70717 7.61011 9.73702 7.54825 9.77332 7.47053C9.83518 7.34466 9.90403 7.21853 9.96831 7.10181L9.9909 7.06281C10.0485 6.95766 10.11 6.84981 10.1628 6.74438L10.2238 6.77451C10.17 6.87993 10.109 6.98966 10.0519 7.09535L10.0291 7.13435C9.96481 7.25107 9.89623 7.37478 9.83437 7.50092C9.79834 7.57595 9.76875 7.63781 9.74589 7.69724Z" fill="white"/>
<path d="M8.07372 7.98128C8.028 7.9275 7.97771 7.87828 7.92258 7.82315C7.82872 7.72929 7.73028 7.64188 7.62029 7.54399L7.59017 7.51709C7.49388 7.43049 7.40191 7.35008 7.31531 7.26536L7.36399 7.21857C7.4487 7.30113 7.54014 7.38343 7.63642 7.46814L7.66628 7.49342C7.77627 7.59186 7.8747 7.68168 7.97099 7.77528C8.02477 7.82906 8.07614 7.88285 8.12428 7.93664L8.07372 7.98128Z" fill="white"/>
<path d="M11.6856 9.18613C11.5034 9.30929 11.3083 9.41219 11.1038 9.49299L11.0718 9.50456C11.0078 9.52957 10.9436 9.55485 10.8747 9.57771L10.7999 9.6046L10.7765 9.61267L10.7193 9.63096L10.7305 9.57152C10.7317 9.56655 10.7326 9.56152 10.7332 9.55646C10.6628 9.57986 10.5864 9.60326 10.5038 9.62881C10.3573 9.67211 10.1991 9.71325 10.0251 9.75467C9.85111 9.79609 9.67011 9.83535 9.48239 9.86897C9.39759 9.88511 9.32202 9.89855 9.25568 9.90931C9.19167 9.91846 9.11368 9.93244 9.02654 9.94589C8.82967 9.97816 8.65325 10.0032 8.48624 10.0215C8.30739 10.0416 8.13796 10.0583 7.97767 10.0674C7.90452 10.0715 7.82948 10.0736 7.75768 10.0755H7.74961C7.75283 10.0814 7.75633 10.0868 7.75983 10.0922L7.79129 10.1419H7.79586C7.83863 10.1419 7.88112 10.139 7.92307 10.1371L7.98681 10.1336C8.14818 10.1245 8.31896 10.1083 8.4978 10.0879C8.66508 10.0696 8.84124 10.0443 9.04052 10.012C9.07737 10.0075 9.1126 10.0021 9.14622 9.99672L9.20404 9.98704L9.22421 9.98327L9.26912 9.97574C9.33555 9.96418 9.41328 9.95046 9.49799 9.93432C9.68147 9.90094 9.86405 9.86282 10.0456 9.82002C10.123 9.80209 10.1973 9.78345 10.2685 9.76408H10.2725C10.3616 9.74042 10.4465 9.71621 10.5288 9.69228C10.6179 9.66726 10.7007 9.63983 10.7784 9.61455C10.7851 9.61213 10.7921 9.60998 10.7986 9.60729C10.8255 9.59842 10.851 9.58927 10.8766 9.5804C10.9454 9.55754 11.0094 9.53226 11.0734 9.50698L11.1057 9.49568C11.3102 9.41477 11.5052 9.31188 11.6874 9.18882C11.9152 9.12481 12.2022 9.10195 12.5666 9.11755L12.5693 9.11567C12.2043 9.09899 11.9147 9.12212 11.6856 9.18613ZM7.46507 10.0736L7.45028 10.0761C7.40805 10.0761 7.36717 10.0728 7.3271 10.0701C7.28084 10.0677 7.23647 10.0645 7.19263 10.0599C7.10495 10.0521 7.01809 10.0397 6.93176 10.0233C6.85477 10.0091 6.77878 9.98997 6.70423 9.96606L6.69724 9.96391H6.69025C6.64749 9.96875 6.60419 9.9744 6.55954 9.98219C6.32422 10.0215 6.06496 10.1003 5.75837 10.2294L5.68333 10.2614L5.67822 10.2638L5.68333 10.2659L5.75729 10.2928C6.13542 10.4337 6.67169 10.5034 7.35131 10.4943H7.36421C7.56215 10.4916 7.77543 10.4827 7.99515 10.4674L8.03415 10.4652C8.04759 10.4631 8.06373 10.4631 8.07987 10.4606L8.09815 10.4582C8.18986 10.4515 8.27942 10.4445 8.3671 10.4354C8.42088 10.4311 8.47037 10.4241 8.51824 10.4195L8.61667 10.4079C8.66024 10.4034 8.70381 10.3964 8.74523 10.3918L8.75652 10.3896C8.89386 10.3735 9.02672 10.3551 9.15509 10.3345C9.22367 10.3256 9.28123 10.3162 9.3291 10.3076C9.37697 10.299 9.43667 10.2891 9.49396 10.2753C9.62843 10.2503 9.7629 10.2216 9.89495 10.1928C9.94067 10.1839 9.98639 10.1745 10.0345 10.1632L10.1284 10.1403C10.172 10.1288 10.2155 10.1202 10.2612 10.1083C10.3438 10.0898 10.4285 10.0669 10.5154 10.0441L10.5692 10.0303C10.5894 10.0258 10.6082 10.019 10.6286 10.0142L10.6359 10.0118C10.8432 9.95315 11.0439 9.89237 11.2316 9.82944L11.2402 9.82648H11.2426C11.8848 9.60864 12.3684 9.36928 12.6828 9.11083L12.7446 9.06L12.749 9.05596L12.6618 9.05139C12.2361 9.0245 11.9177 9.04682 11.6632 9.12024L11.6565 9.12239L11.6498 9.12696C11.4709 9.24905 11.2787 9.35046 11.0769 9.42925L11.0449 9.44082C10.9831 9.46583 10.9169 9.49111 10.8505 9.51397L10.8196 9.52499L10.7553 9.54759L10.7373 9.55404C10.6668 9.57744 10.5904 9.60084 10.5079 9.62639C10.3613 9.66968 10.2032 9.71083 10.0292 9.75225C9.85515 9.79367 9.67415 9.83293 9.48643 9.86655C9.40162 9.88269 9.32605 9.89613 9.25971 9.90689C9.1957 9.91603 9.11771 9.93002 9.03057 9.94347C8.83371 9.97574 8.65728 10.0008 8.49027 10.019C8.31142 10.0392 8.14199 10.0559 7.9817 10.065C7.90855 10.0691 7.83352 10.0712 7.76171 10.0731H7.73481C7.71626 10.0731 7.69797 10.0747 7.68103 10.0752H7.61944C7.58448 10.0752 7.5479 10.0736 7.51186 10.0731H7.48497V10.0779H7.50756C7.54467 10.0779 7.58179 10.0801 7.61729 10.0801H7.67457L7.67323 10.0777H7.67457C7.68345 10.0938 7.69313 10.1094 7.70147 10.1255L7.71142 10.1419H7.79506C7.83782 10.1406 7.88031 10.1387 7.92227 10.1368L7.98601 10.1333C8.14737 10.1242 8.31788 10.1083 8.49699 10.0876C8.66401 10.0693 8.84124 10.0451 9.04052 10.0129C9.07737 10.0083 9.1126 10.0029 9.14595 9.99752L9.20377 9.98784L9.22394 9.98408L9.26886 9.97655C9.33555 9.96498 9.41328 9.95127 9.49799 9.93513C9.68149 9.90185 9.86407 9.86373 10.0456 9.82083C10.123 9.8029 10.1973 9.78425 10.2685 9.76489H10.2723C10.3616 9.74149 10.4465 9.71729 10.5286 9.69335C10.6179 9.66807 10.7004 9.63956 10.7784 9.61536C10.7851 9.61294 10.7919 9.61079 10.7983 9.6081C10.8252 9.59922 10.8521 9.59035 10.8766 9.5812C10.9454 9.55834 11.0094 9.53306 11.0734 9.50778L11.1057 9.49649C11.3102 9.41562 11.5053 9.31273 11.6874 9.18963C11.9152 9.12562 12.2022 9.10276 12.5666 9.11836H12.5715C12.2646 9.34964 11.8133 9.56507 11.2267 9.76381H11.2246L11.134 9.7942C10.9707 9.84799 10.7997 9.89882 10.623 9.94723L10.616 9.94938C10.5958 9.95422 10.5773 9.96095 10.5555 9.96552L10.4915 9.98166C10.4092 10.0045 10.3266 10.025 10.2494 10.0435C10.2037 10.0548 10.1604 10.0637 10.1168 10.0755L10.023 10.0984C9.97482 10.1075 9.92884 10.1185 9.88312 10.1282C9.75026 10.1551 9.6174 10.1834 9.48455 10.2089C9.42027 10.2202 9.36379 10.2291 9.31269 10.2385C9.26159 10.2479 9.20754 10.2568 9.14111 10.2654C9.01363 10.2845 8.87916 10.3049 8.74469 10.3211L8.73339 10.3232C8.69305 10.3302 8.64868 10.3348 8.60511 10.3393L8.50668 10.3506C8.45854 10.3576 8.40824 10.3622 8.35768 10.3668C8.27081 10.3738 8.18153 10.3829 8.09197 10.3896L8.0761 10.3921C8.05996 10.3942 8.04625 10.3942 8.03038 10.3966L7.99112 10.3988C7.79264 10.413 7.60088 10.4219 7.41962 10.4257L7.34996 10.427H7.33409C6.7236 10.4329 6.23143 10.3783 5.87105 10.2614H5.86594C6.18195 10.1341 6.44175 10.0629 6.6881 10.0354H6.68568C6.6438 10.0225 6.60268 10.0072 6.5625 9.98972C6.60688 9.98219 6.65018 9.97601 6.69267 9.97117L6.69912 10.0354C6.71929 10.033 6.73785 10.033 6.75963 10.0309C6.81332 10.0267 6.86721 10.0258 6.921 10.0282C7.01496 10.0467 7.10986 10.0602 7.20527 10.0685C7.24561 10.0723 7.28595 10.0755 7.32844 10.0779C7.37094 10.0804 7.41101 10.0822 7.4535 10.0836H7.45377L7.46157 10.082H7.4769" fill="white"/>
<path d="M7.49217 8.98224C7.33925 8.84942 7.1717 8.73447 6.99274 8.63961L6.93896 8.61271C6.72001 8.51072 6.49021 8.43385 6.25396 8.38358C6.02025 8.32979 5.77525 8.29187 5.5254 8.25314L5.48533 8.24615C5.27529 8.21361 5.07869 8.18375 4.88855 8.14718L4.90253 8.08075C5.09241 8.11733 5.28954 8.14718 5.4942 8.17918L5.53455 8.18617C5.78654 8.22517 6.03155 8.26148 6.26768 8.31661C6.5088 8.368 6.74336 8.44639 6.96693 8.55032L7.02206 8.57721C7.20643 8.67417 7.37868 8.79261 7.5352 8.93007L7.49217 8.98224Z" fill="white"/>
<path d="M7.5562 9.79687C7.46449 9.72587 7.38005 9.66239 7.29748 9.60457C6.92419 9.34316 6.59313 9.18771 6.25076 9.11886L6.2279 9.11429C5.96595 9.064 5.66313 9.04571 5.29333 9.0605H5.29118C4.95904 9.0718 4.61318 9.10622 4.30847 9.13608H4.30148C3.98574 9.16701 3.68856 9.19686 3.41075 9.20869L3.40833 9.14011C3.68318 9.12882 3.98117 9.09977 4.29583 9.06696H4.30255C4.60646 9.03657 4.95258 9.00214 5.28661 8.99085H5.28903C5.66232 8.97686 5.97429 8.99515 6.23947 9.04813L6.2626 9.05244C6.61222 9.12371 6.95431 9.28157 7.33433 9.54944C7.41689 9.60995 7.50376 9.67046 7.59628 9.74415L7.5562 9.79687Z" fill="white"/>
<path d="M7.63875 10.0814H7.61858C7.58308 10.0814 7.54596 10.0798 7.50858 10.0795L7.50535 10.0771C7.42655 10.0274 7.35475 9.98486 7.2867 9.94694C7.25631 9.92999 7.22619 9.91359 7.19742 9.89826L7.18935 9.89423C6.83569 9.70597 6.52291 9.61399 6.20637 9.60216H6.13322C5.86428 9.60216 5.55365 9.64142 5.18628 9.71888L5.15185 9.72587L5.12496 9.73205C4.81514 9.79821 4.50316 9.88481 4.2232 9.96281L4.18555 9.97302L4.15193 9.9819C3.82651 10.0736 3.51965 10.1583 3.23323 10.2178L3.2179 10.15C3.49975 10.0906 3.8058 10.0066 4.12719 9.91547L4.13176 9.91413L4.16591 9.90498L4.19765 9.89611C4.47842 9.81838 4.79389 9.73178 5.10425 9.66213L5.13464 9.65514L5.1661 9.64868C5.52998 9.57069 5.83846 9.53142 6.1074 9.52954H6.1749C6.50059 9.53653 6.82036 9.62448 7.17321 9.80601L7.227 9.83291L7.24233 9.84124C7.35851 9.90337 7.48572 9.98029 7.63579 10.0779L7.63875 10.0814Z" fill="white"/>
<path d="M7.4718 10.0763H7.46292L7.45539 10.0779H7.45378C7.41129 10.0766 7.3696 10.0747 7.32845 10.0723C7.2873 10.0699 7.24535 10.0666 7.20555 10.0629L7.19183 10.0597C7.18579 10.0581 7.17969 10.0567 7.17354 10.0556C7.09921 10.039 7.02366 10.0284 6.94763 10.0239H6.92181C6.86802 10.0215 6.81413 10.0224 6.76045 10.0266C6.74028 10.0287 6.72172 10.0287 6.69994 10.0311L6.69348 9.96687V9.96176C6.71401 9.95926 6.73466 9.95783 6.75534 9.95746C6.92372 9.94587 7.09285 9.96232 7.25584 10.0061C7.30676 10.0196 7.35848 10.0353 7.41102 10.0532L7.43092 10.0605H7.43576L7.44248 10.065L7.46131 10.0723L7.46588 10.0739C7.46786 10.0747 7.46994 10.0753 7.47207 10.0755L7.4718 10.0763Z" fill="white"/>
<path d="M4.40262 10.9383L4.37708 10.8762C4.57421 10.7936 4.78049 10.6927 4.99806 10.5852L5.0142 10.5782C5.25624 10.4593 5.50636 10.3361 5.75836 10.2302L5.78364 10.292C5.53406 10.3974 5.28421 10.5187 5.04378 10.6379L5.02791 10.647C4.80792 10.7549 4.60299 10.8557 4.40262 10.9383Z" fill="white"/>
<path d="M9.38345 10.6403C9.35144 10.6451 9.31702 10.6518 9.28044 10.6564C9.21159 10.6677 9.13387 10.6793 9.04888 10.693L9.02871 10.6954L8.92329 10.7091C8.88671 10.7137 8.84798 10.7207 8.80684 10.725H8.7985C8.73691 10.7344 8.67048 10.7411 8.60379 10.7519H8.59706L8.51235 10.7608C7.99942 10.8218 7.48374 10.857 6.96728 10.8662L6.8866 10.8683L6.94038 10.8081C7.06292 10.6756 7.19209 10.5494 7.32739 10.43L7.33653 10.4208H7.34783C7.57455 10.4184 7.81982 10.4071 8.07397 10.3864L8.09253 10.3842C8.18397 10.3775 8.27379 10.3681 8.35824 10.3614C8.41203 10.3565 8.46367 10.3498 8.51396 10.3452L8.60567 10.3339C8.64924 10.3291 8.69012 10.3245 8.72911 10.3178L8.7431 10.3157C8.88053 10.2995 9.01204 10.2788 9.13925 10.2605C9.20577 10.2514 9.26305 10.2424 9.3111 10.2336C9.36139 10.2245 9.41868 10.2153 9.48268 10.2038C9.61554 10.1788 9.7484 10.15 9.88126 10.1231C9.92698 10.1137 9.97296 10.1029 10.0208 10.0932L10.1241 10.068C10.1653 10.0588 10.2064 10.0497 10.2478 10.0381C10.3255 10.0198 10.4057 9.99938 10.488 9.97626L10.5523 9.96039C10.786 9.89638 11.0095 9.82968 11.2187 9.75895L11.2327 9.75653L11.2416 9.75895C11.4127 9.82906 11.5802 9.90769 11.7434 9.99454L11.8166 10.0314L11.7396 10.0583C11.2448 10.22 10.7421 10.3568 10.2336 10.4681L10.0964 10.498C10.0458 10.5096 9.99771 10.5182 9.95199 10.5279L9.90842 10.537L9.83527 10.5507C9.80999 10.5553 9.78148 10.562 9.75727 10.5669L9.71397 10.5757C9.62899 10.5919 9.55261 10.6056 9.48242 10.6193C9.45022 10.6296 9.41706 10.6367 9.38345 10.6403ZM8.59088 10.6863H8.60002C8.6643 10.6793 8.72831 10.6701 8.79016 10.661H8.7985C8.83723 10.6564 8.87649 10.6494 8.9128 10.6451C8.94911 10.6408 8.98622 10.6357 9.01822 10.6311L9.03651 10.629C9.1215 10.6153 9.19788 10.6039 9.26565 10.5946C9.29966 10.5873 9.33405 10.5819 9.36865 10.5784C9.40093 10.5738 9.43508 10.5671 9.46951 10.5601C9.53809 10.5488 9.61581 10.5332 9.7008 10.5166L9.7441 10.5077C9.76938 10.5031 9.79466 10.4983 9.82209 10.4915L9.89309 10.4778L9.93666 10.4684C9.98238 10.4595 10.0305 10.4482 10.0808 10.4388L10.2153 10.409C10.7263 10.2944 11.205 10.1669 11.6377 10.0263C11.5049 9.95743 11.3653 9.89181 11.2278 9.83614C11.0218 9.90499 10.7994 9.97357 10.5681 10.0354L10.5143 10.0491C10.4272 10.0723 10.3428 10.0951 10.2602 10.1134C10.219 10.1226 10.1776 10.1333 10.1365 10.143L10.0311 10.1683C9.98291 10.1798 9.9372 10.1884 9.89148 10.1981C9.75862 10.228 9.62253 10.2554 9.49048 10.2804C9.42648 10.292 9.36973 10.3036 9.3189 10.3103C9.26807 10.317 9.21347 10.3286 9.14489 10.3372C9.01634 10.358 8.88348 10.3764 8.74632 10.3923L8.73261 10.3947C8.69119 10.399 8.65004 10.4036 8.60647 10.4106L8.51503 10.4222C8.46447 10.4267 8.41176 10.4335 8.3569 10.4383C8.27003 10.4472 8.18047 10.4542 8.08796 10.4609L8.06967 10.4633C7.8174 10.4816 7.57724 10.4929 7.35267 10.4977C7.2451 10.5916 7.13752 10.6992 7.03667 10.8046C7.48768 10.7955 7.97796 10.7586 8.49325 10.6992L8.58953 10.6855L8.59088 10.6863Z" fill="white"/>
<path d="M6.65155 11.2061L6.60583 11.1556C6.6884 11.0824 6.78441 10.9794 6.88526 10.8719L6.94255 10.81L6.99284 10.8581L6.93583 10.9184C6.83255 11.0276 6.73654 11.1303 6.65155 11.2061Z" fill="white"/>
<path d="M10.8 9.54401L11.2503 9.76475L11.2202 9.82634L10.7698 9.60559L10.8 9.54401Z" fill="white"/>
<path d="M7.70496 10.1438L7.70254 10.1462C7.67995 10.168 7.52638 10.3178 7.42042 10.4238L7.41719 10.4273L7.38035 10.4641L7.33032 10.4294L7.33489 10.4251L7.33947 10.4203C7.33947 10.4203 7.56457 10.1782 7.61863 10.1478L7.70146 10.1438H7.70496Z" fill="white"/>
<path d="M7.73261 10.1433H7.70141L7.61858 10.1471H7.5344C7.50751 10.1471 7.48061 10.1454 7.45587 10.1444H7.36712C7.36336 10.1446 7.35959 10.1446 7.35582 10.1444H7.33754C7.18865 10.1367 7.04046 10.1187 6.89405 10.0906C6.86716 10.0852 6.84188 10.0793 6.81633 10.0734L6.78486 10.0599C6.75447 10.0519 6.72462 10.0432 6.69665 10.033L6.68993 10.0314H6.68751C6.64559 10.0186 6.60446 10.0033 6.56433 9.9857C6.60871 9.97816 6.65201 9.97198 6.6945 9.96741L6.70095 10.0314C6.72112 10.0293 6.73968 10.0293 6.76146 10.0271C6.81514 10.0228 6.86904 10.0219 6.92283 10.0244C7.01684 10.0427 7.11172 10.0562 7.2071 10.0648C7.24744 10.0685 7.28778 10.0715 7.33028 10.0742C7.37277 10.0769 7.41284 10.0785 7.45533 10.0798H7.45748L7.46528 10.0782H7.48061V10.0809H7.51047C7.54758 10.0809 7.58469 10.0831 7.62019 10.0831H7.67748L7.67613 10.0806H7.67748C7.68635 10.0968 7.69604 10.1124 7.70437 10.1285L7.71432 10.1449L7.73261 10.1433Z" fill="white"/>
<path d="M10.8234 9.47766C10.8209 9.4938 10.8185 9.51021 10.8156 9.52634C10.8121 9.54651 10.8078 9.56776 10.8032 9.58847L10.8 9.60299V9.60756L10.7817 9.61375C10.6921 9.6436 10.6044 9.66996 10.5307 9.69228C10.4501 9.71595 10.3653 9.73934 10.2739 9.76274H10.2699C10.1999 9.78103 10.126 9.79905 10.0483 9.81653C9.85167 9.86386 9.66933 9.8999 9.50178 9.93137C9.43104 9.94482 9.35789 9.95826 9.2721 9.97279L9.22584 9.98112L9.20567 9.98462L9.14785 9.9943C9.11504 9.99941 9.07927 10.0045 9.04216 10.0096C8.84852 10.0411 8.67021 10.0658 8.49836 10.0852C8.32193 10.1054 8.14873 10.1204 7.98575 10.1312L7.92551 10.1347C7.88356 10.1368 7.84106 10.1385 7.7983 10.1398H7.71359L7.70337 10.1234C7.69395 10.1073 7.68454 10.0917 7.67647 10.0758C7.66061 10.0489 7.64581 10.0204 7.6321 9.99269C7.62672 9.98247 7.62188 9.97252 7.61704 9.96203C7.6122 9.95154 7.60735 9.94186 7.60251 9.93056C7.59095 9.90555 7.58073 9.88081 7.57132 9.85606C7.56648 9.84342 7.56163 9.83078 7.55706 9.81814C7.55249 9.8055 7.54792 9.79125 7.54335 9.7778L7.53366 9.74929C7.52156 9.70895 7.51 9.66861 7.49978 9.62478C7.49709 9.61402 7.49467 9.60272 7.49198 9.59143C7.49252 9.58949 7.49252 9.58745 7.49198 9.58551C7.48956 9.57395 7.48714 9.56265 7.48472 9.55055C7.4823 9.53845 7.48095 9.53145 7.47934 9.5215L7.4745 9.49138L7.46535 9.43087C7.46535 9.42657 7.46535 9.42226 7.46401 9.41796C7.4465 9.26053 7.45166 9.1014 7.47934 8.94543C7.51949 8.71405 7.60782 8.49368 7.7386 8.29863C7.75877 8.26716 7.78136 8.23677 7.80422 8.20665C7.88373 8.10425 7.97388 8.01058 8.07316 7.92722C8.25971 7.77513 8.47627 7.66414 8.70867 7.60153C8.74444 7.59185 8.78048 7.58351 8.81624 7.57652L8.89962 7.56227C9.19015 7.51982 9.48673 7.55399 9.75999 7.6614C10.0333 7.76881 10.2737 7.94573 10.4576 8.17464C10.4673 8.18648 10.4775 8.19858 10.4861 8.21068C10.4947 8.22279 10.5036 8.23381 10.513 8.24511C10.5224 8.2564 10.5332 8.272 10.542 8.28545C10.5705 8.3274 10.5974 8.37052 10.6227 8.41481C10.7001 8.55437 10.7575 8.70411 10.7932 8.85964C10.7975 8.87362 10.8018 8.88653 10.8051 8.90105C10.8099 8.91961 10.8139 8.93817 10.8169 8.95699V8.96049C10.8201 8.98066 10.8234 9.00083 10.8258 9.021C10.8282 9.03579 10.8298 9.05086 10.8314 9.06592C10.833 9.08098 10.8338 9.09577 10.8352 9.11083C10.8365 9.12589 10.8371 9.13987 10.8379 9.1552C10.8387 9.17053 10.8392 9.1821 10.8398 9.19528V9.19877C10.8427 9.29204 10.8372 9.38539 10.8234 9.47766Z" fill="white"/>
</g>
<rect x="0.5" y="0.5" width="17" height="17" rx="4.5" stroke="#1F1A34"/>
<defs>
<clipPath id="clip0_1750_6206">
<rect x="1" y="1" width="16" height="16" rx="4" fill="white"/>
</clipPath>
</defs>
</svg>
