<svg width="18" height="18" viewBox="0 0 18 18" fill="none" xmlns="http://www.w3.org/2000/svg">
<g clip-path="url(#clip0_1775_6081)">
<rect x="1" y="1" width="16" height="16" rx="4" fill="white" fill-opacity="0.08"/>
<path fill-rule="evenodd" clip-rule="evenodd" d="M7.31893 3.75V7.74905C7.9531 6.91713 8.73139 6.66901 9.53852 6.66901C11.5563 6.66901 12.4499 8.05554 12.4499 10.1718L12.4484 12.868C11.8615 12.9314 11.2755 12.9978 10.6903 13.067L10.6916 10.1864C10.6916 8.87286 10.0141 8.31825 9.07731 8.31825C8.03957 8.31825 7.31893 9.20855 7.31893 10.2886L7.31725 13.4989C6.7306 13.5797 6.14487 13.6634 5.56006 13.75L5.56055 3.75H7.31893Z" fill="white"/>
</g>
<rect x="0.5" y="0.5" width="17" height="17" rx="4.5" stroke="#1F1A34"/>
<defs>
<clipPath id="clip0_1775_6081">
<rect x="1" y="1" width="16" height="16" rx="4" fill="white"/>
</clipPath>
</defs>
</svg>
