<svg width="18" height="18" viewBox="0 0 18 18" fill="none" xmlns="http://www.w3.org/2000/svg">
<g clip-path="url(#clip0_1677_1859)">
<rect x="1" y="1" width="16" height="16" rx="4" fill="white" fill-opacity="0.08"/>
<path d="M4.45525 5.07164C4.53209 4.98039 4.60893 4.88915 4.68577 4.7979C4.69057 4.7931 4.69537 4.7931 4.70017 4.7883C4.70978 4.77869 4.71938 4.77389 4.72419 4.76429L4.72899 4.75468C4.78182 4.70185 4.84425 4.64903 4.91148 4.601C5.1516 4.41851 5.39652 4.27924 5.66065 4.1928C6.50107 3.89985 7.43274 4.07754 8.16751 4.76909C9.19042 5.72957 9.09917 7.27114 8.28276 8.29885C7.25025 9.83081 5.47816 11.9631 7.93219 13.8744C8.37401 14.2202 8.70057 14.5035 10.0933 14.9021C9.18561 15.0702 8.34039 15.0174 7.40392 14.7773C6.74119 14.4027 5.69907 13.6007 5.33889 12.5154C4.80102 10.8729 6.28497 8.41411 7.00052 7.46803C7.98501 6.15698 6.39062 4.74027 5.22364 6.32506C4.60893 7.15108 3.5428 9.48504 3.91258 11.2139C4.12869 12.1936 4.42164 12.9092 5.56941 13.8936C5.3581 13.7688 5.1468 13.6247 4.9499 13.4662C2.27977 10.9786 2.58712 7.12706 4.45525 5.06684V5.07164Z" fill="url(#paint0_linear_1677_1859)"/>
<path d="M13.551 12.9284C13.4742 13.0196 13.3973 13.1109 13.3205 13.2021C13.3157 13.2069 13.3109 13.2069 13.3061 13.2117C13.3013 13.2213 13.2869 13.2261 13.2821 13.2357L13.2725 13.2453C13.2196 13.2981 13.1572 13.351 13.09 13.399C12.8498 13.5815 12.6001 13.7208 12.3408 13.8072C11.5004 14.1001 10.5687 13.9225 9.83394 13.2309C8.81103 12.2704 8.90227 10.7289 9.71868 9.70115C10.7512 8.16918 12.5233 6.03692 10.0693 4.12557C9.62743 3.77979 9.30087 3.49645 7.90818 3.09785C8.81583 2.92977 9.66105 2.9826 10.5975 3.22272C11.2602 3.5973 12.3024 4.3993 12.6625 5.48465C13.2004 7.12706 11.7165 9.58589 11.0009 10.532C10.0164 11.843 11.6108 13.2597 12.7778 11.6749C13.3925 10.8489 14.4586 8.51496 14.0889 6.78609C13.8728 5.80641 13.5798 5.09085 12.432 4.10636C12.6433 4.23122 12.8546 4.37529 13.0515 4.53377C15.7217 7.02141 15.4143 10.8729 13.5462 12.9332L13.551 12.9284Z" fill="url(#paint1_linear_1677_1859)"/>
</g>
<rect x="0.5" y="0.5" width="17" height="17" rx="4.5" stroke="#1F1A34"/>
<defs>
<linearGradient id="paint0_linear_1677_1859" x1="4.10527" y1="9" x2="22.3468" y2="9" gradientUnits="userSpaceOnUse">
<stop stop-color="#0082FA"/>
<stop offset="1" stop-color="#00F2FE"/>
</linearGradient>
<linearGradient id="paint1_linear_1677_1859" x1="3.45159" y1="8.47134" x2="14.233" y2="8.47134" gradientUnits="userSpaceOnUse">
<stop stop-color="#0082FA"/>
<stop offset="1" stop-color="#00F2FE"/>
</linearGradient>
<clipPath id="clip0_1677_1859">
<rect x="1" y="1" width="16" height="16" rx="4" fill="white"/>
</clipPath>
</defs>
</svg>
