<svg width="18" height="18" viewBox="0 0 18 18" fill="none" xmlns="http://www.w3.org/2000/svg">
<g clip-path="url(#clip0_1750_6616)">
<rect x="1" y="1" width="16" height="16" rx="4" fill="#0C192B"/>
<path d="M6.642 11.6964L3.8892 12.006L5.5056 8.2764L3.8508 6.0204L7.8744 5.562L8.9676 3.048L11.3628 6.3036L14.1156 5.994L12.5064 9.7056L14.1492 11.946L10.146 12.402L9.036 14.952L6.642 11.6964ZM7.7856 11.4492C7.68 11.5008 7.5672 11.544 7.4508 11.5764L7.3452 11.6052L8.8968 13.7148L9.4476 12.4476L9.348 12.4344C8.8056 12.366 8.3124 12.0732 7.9944 11.634L7.8396 11.4204L7.7856 11.4492ZM7.2456 9.5364L8.4972 11.268C8.7516 11.6196 9.1632 11.8296 9.5976 11.8296C9.648 11.8296 9.6984 11.8272 9.7476 11.8212L13.014 11.4492L11.7132 9.6744C11.6484 9.5868 11.574 9.5076 11.4912 9.438L11.4144 9.3744L10.4832 11.478L8.8632 9.3336L7.2456 9.5364ZM7.2996 7.428C6.8148 7.4796 6.3924 7.7904 6.198 8.2392L4.8864 11.2668L7.0656 11.022C7.1736 11.01 7.2792 10.9848 7.3812 10.9476L7.4748 10.9128L6.126 9.0504L8.7852 8.7132L9.4176 7.2024L7.2996 7.428ZM9.3576 8.9556L10.3428 10.26L10.944 8.9028L11.208 8.3052C11.406 7.8576 11.3496 7.3356 11.0592 6.942L9.1068 4.2852L8.2284 6.3036C8.1852 6.4032 8.154 6.5076 8.1348 6.6156L8.118 6.714L10.3968 6.4728L9.3576 8.9556ZM11.7516 6.8868L11.79 6.9792C12.0012 7.4844 11.9964 8.0604 11.7756 8.5584L11.6688 8.7984L11.7204 8.8332C11.8188 8.8992 11.9112 8.976 11.9964 9.0612L12.0744 9.138L13.1172 6.732L11.7516 6.8868ZM4.986 6.5172L5.8164 7.65L5.8776 7.5708C6.2076 7.1424 6.7032 6.864 7.2348 6.8076L7.4952 6.78L7.5 6.7164C7.5084 6.5856 7.5312 6.4548 7.566 6.3276L7.596 6.2196L4.986 6.5172Z" fill="url(#paint0_linear_1750_6616)"/>
<path d="M8.4192 15C6.6912 14.8332 5.1384 13.9344 4.122 12.51L4.818 12.432C4.9332 12.5736 5.0556 12.7092 5.1816 12.8364C5.9364 13.5948 6.8808 14.106 7.9164 14.3172L8.4192 15Z" fill="url(#paint1_linear_1750_6616)"/>
<path d="M9.8688 14.3556C10.9896 14.1744 12.0084 13.65 12.8184 12.8364C12.8904 12.7632 12.9636 12.6852 13.0368 12.6036L13.8804 12.5076C12.8676 13.9308 11.3172 14.8308 9.5892 15L9.8688 14.3556Z" fill="url(#paint2_linear_1750_6616)"/>
<path d="M14.052 10.9236C14.2824 10.3104 14.4 9.6636 14.4 9C14.4 8.4144 14.3076 7.8384 14.1264 7.2888L14.4648 6.5088C14.82 7.2924 15 8.13 15 9C15 9.8688 14.82 10.7052 14.466 11.4888L14.052 10.9236Z" fill="url(#paint3_linear_1750_6616)"/>
<path d="M3.5376 11.4972C3.1812 10.7112 3 9.8724 3 9C3 8.1228 3.1824 7.2792 3.5436 6.4908L3.9564 7.0548C3.72 7.674 3.6 8.328 3.6 9C3.6 9.588 3.6924 10.1652 3.8748 10.7172L3.5376 11.4972Z" fill="url(#paint4_linear_1750_6616)"/>
<path d="M4.1472 5.4552C5.1624 4.0536 6.7032 3.1656 8.4156 3L8.136 3.6432C7.014 3.8232 5.9928 4.3488 5.1816 5.1636C5.1204 5.2248 5.0592 5.2908 4.998 5.358L4.1472 5.4552Z" fill="url(#paint5_linear_1750_6616)"/>
<path d="M13.1832 5.568C13.068 5.4264 12.9456 5.2908 12.8184 5.1636C12.0648 4.4064 11.1216 3.8952 10.0884 3.684L9.5856 3C11.3124 3.168 12.8628 4.0668 13.878 5.49L13.1832 5.568Z" fill="url(#paint6_linear_1750_6616)"/>
</g>
<rect x="0.5" y="0.5" width="17" height="17" rx="4.5" stroke="#1F1A34"/>
<defs>
<linearGradient id="paint0_linear_1750_6616" x1="3.35233" y1="13.869" x2="12.6894" y2="3.07619" gradientUnits="userSpaceOnUse">
<stop stop-color="#009DDE"/>
<stop offset="0.5" stop-color="#694D9F"/>
<stop offset="1" stop-color="#ED3554"/>
</linearGradient>
<linearGradient id="paint1_linear_1750_6616" x1="5.93876" y1="14.3048" x2="44.4574" y2="-8.71385" gradientUnits="userSpaceOnUse">
<stop stop-color="#009DDE"/>
<stop offset="0.5" stop-color="#694D9F"/>
<stop offset="1" stop-color="#ED3554"/>
</linearGradient>
<linearGradient id="paint2_linear_1750_6616" x1="-1.87829" y1="27.1405" x2="37.2646" y2="4.40567" gradientUnits="userSpaceOnUse">
<stop stop-color="#009DDE"/>
<stop offset="0.5" stop-color="#694D9F"/>
<stop offset="1" stop-color="#ED3554"/>
</linearGradient>
<linearGradient id="paint3_linear_1750_6616" x1="-87.6118" y1="27.2451" x2="-79.3254" y2="-16.2847" gradientUnits="userSpaceOnUse">
<stop stop-color="#009DDE"/>
<stop offset="0.5" stop-color="#694D9F"/>
<stop offset="1" stop-color="#ED3554"/>
</linearGradient>
<linearGradient id="paint4_linear_1750_6616" x1="-16.7131" y1="14.0617" x2="-8.44321" y2="-29.2279" gradientUnits="userSpaceOnUse">
<stop stop-color="#009DDE"/>
<stop offset="0.5" stop-color="#694D9F"/>
<stop offset="1" stop-color="#ED3554"/>
</linearGradient>
<linearGradient id="paint5_linear_1750_6616" x1="-7.31039" y1="37.9788" x2="32.2334" y2="15.233" gradientUnits="userSpaceOnUse">
<stop stop-color="#009DDE"/>
<stop offset="0.5" stop-color="#694D9F"/>
<stop offset="1" stop-color="#ED3554"/>
</linearGradient>
<linearGradient id="paint6_linear_1750_6616" x1="3.14997" y1="12.8268" x2="12.5097" y2="3.46707" gradientUnits="userSpaceOnUse">
<stop stop-color="#009DDE"/>
<stop offset="0.5" stop-color="#694D9F"/>
<stop offset="1" stop-color="#ED3554"/>
</linearGradient>
<clipPath id="clip0_1750_6616">
<rect x="1" y="1" width="16" height="16" rx="4" fill="white"/>
</clipPath>
</defs>
</svg>
