<svg width="18" height="18" viewBox="0 0 18 18" fill="none" xmlns="http://www.w3.org/2000/svg">
<g clip-path="url(#clip0_1750_6821)">
<rect x="1" y="1" width="16" height="16" rx="4" fill="white" fill-opacity="0.08"/>
<path fill-rule="evenodd" clip-rule="evenodd" d="M9.00553 3.55238C6.00455 3.55238 3.57107 5.9907 3.57107 8.99997C3.57107 12.0092 6.00455 14.4475 9.00553 14.4475C12.0065 14.4475 14.44 12.0092 14.44 8.99997C14.44 5.99178 12.0065 3.55238 9.00553 3.55238ZM3.02002 8.99997C3.02002 5.68557 5.70029 3 9.00553 3C12.3108 3 14.9911 5.6867 14.9911 8.99997C14.9911 12.3144 12.3108 15 9.00553 15C5.70029 15 3.02002 12.3144 3.02002 8.99997Z" fill="#FF7B7C"/>
<path fill-rule="evenodd" clip-rule="evenodd" d="M11.3684 7.5704L9.85857 7.50744L10.8846 6.39383L10.4713 5.98064L9.35931 7.00587L9.29869 5.49233H8.71568L8.65286 7.00587L7.54194 5.97733L7.12976 6.39161L8.1536 7.50632L6.64263 7.56598V8.15152L8.1525 8.21447L7.12644 9.32807L7.53974 9.74127L8.63413 8.73152L8.68262 11.1841L7.80865 11.2482V11.7928L8.69585 11.8602L8.71238 12.712H9.29538L9.31302 11.8613L10.209 11.7928V11.2482L9.32625 11.1841L9.37584 8.73261L10.4691 9.74348L10.8813 9.33029L9.85857 8.21558L11.3684 8.15483L11.3684 7.5704Z" fill="#FF7B7C"/>
</g>
<rect x="0.5" y="0.5" width="17" height="17" rx="4.5" stroke="#1F1A34"/>
<defs>
<clipPath id="clip0_1750_6821">
<rect x="1" y="1" width="16" height="16" rx="4" fill="white"/>
</clipPath>
</defs>
</svg>
