<svg width="18" height="18" viewBox="0 0 18 18" fill="none" xmlns="http://www.w3.org/2000/svg">
<g clip-path="url(#clip0_1677_1832)">
<rect x="1" y="1" width="16" height="16" rx="4" fill="#FF433E"/>
<path d="M9 15C12.3137 15 15 12.3137 15 9C15 5.68629 12.3137 3 9 3C5.68629 3 3 5.68629 3 9C3 12.3137 5.68629 15 9 15Z" fill="#FF433E"/>
<path d="M7.41094 5.53594H6.20156V12.4688H7.41094V5.53594Z" fill="white"/>
<path d="M10.7203 12.4641L8.06719 9L10.7203 5.53594H12.2344L9.62344 9L12.2344 12.4641H10.7203Z" fill="white"/>
</g>
<rect x="0.5" y="0.5" width="17" height="17" rx="4.5" stroke="#1F1A34"/>
<defs>
<clipPath id="clip0_1677_1832">
<rect x="1" y="1" width="16" height="16" rx="4" fill="white"/>
</clipPath>
</defs>
</svg>
