<svg width="18" height="18" viewBox="0 0 18 18" fill="none" xmlns="http://www.w3.org/2000/svg">
<g clip-path="url(#clip0_1750_6852)">
<rect x="1" y="1" width="16" height="16" rx="4" fill="#0000FF"/>
<path d="M10.3022 11.1418H12.25L9.96546 8.01554L11.9374 5.25H10.2059L8.28209 7.89532V5.25H6.67084V11.1418H8.28209V8.37627L10.3022 11.1418Z" fill="white"/>
<path d="M8.35422 12.8252C8.35422 13.4063 7.88313 13.8773 7.30211 13.8773C6.72098 13.8773 6.25 13.4063 6.25 12.8252C6.25 12.2441 6.72098 11.7731 7.30211 11.7731C7.88313 11.7731 8.35422 12.2441 8.35422 12.8252Z" fill="white"/>
</g>
<rect x="0.5" y="0.5" width="17" height="17" rx="4.5" stroke="#1F1A34"/>
<defs>
<clipPath id="clip0_1750_6852">
<rect x="1" y="1" width="16" height="16" rx="4" fill="white"/>
</clipPath>
</defs>
</svg>
