<svg width="18" height="18" viewBox="0 0 18 18" fill="none" xmlns="http://www.w3.org/2000/svg">
<g clip-path="url(#clip0_1750_6905)">
<rect x="1" y="1" width="16" height="16" rx="4" fill="white" fill-opacity="0.08"/>
<path d="M9.53711 13.9606C12.021 13.9606 14.0346 11.9512 14.0346 9.47245C14.0346 6.9937 12.021 4.98425 9.53711 4.98425C7.05324 4.98425 5.03968 6.9937 5.03968 9.47245C5.03968 11.9512 7.05324 13.9606 9.53711 13.9606Z" fill="#3D7BC2"/>
<path d="M11.4465 8.18109C11.7305 8.18109 11.9673 7.94488 11.9673 7.66142C11.9673 7.37795 11.7305 7.14172 11.4465 7.14172C11.1625 7.14172 10.9257 7.37795 10.9257 7.66142C10.9257 7.94488 11.1625 8.18109 11.4465 8.18109Z" fill="#102E5E"/>
<path d="M12.1093 10.9842C12.4722 10.9842 12.7721 10.685 12.7721 10.3228C12.7721 9.96063 12.4722 9.6614 12.1093 9.6614C11.7464 9.6614 11.4465 9.96063 11.4465 10.3228C11.4465 10.685 11.7464 10.9842 12.1093 10.9842Z" fill="#102E5E"/>
<path d="M14.0661 9.64567C14.3503 9.56692 14.5712 9.31495 14.5712 8.99999C14.5712 8.68503 14.3659 8.43306 14.0661 8.35433C13.8768 6.73227 12.9457 5.33071 11.6359 4.49606L11.8569 4.25984C11.9358 4.29134 12.0304 4.30709 12.1251 4.30709C12.4881 4.30709 12.7879 4.00787 12.7879 3.64567C12.7879 3.28346 12.4881 3 12.1093 3C11.7306 3 11.4465 3.29921 11.4465 3.66142C11.4465 3.7874 11.4781 3.89764 11.5412 4.00787L11.2572 4.30709C10.5155 3.91339 9.66335 3.69291 8.76386 3.69291C5.8287 3.69291 3.43005 6.08661 3.43005 9.01575C3.43005 11.9449 5.8287 14.3386 8.76386 14.3386C9.66335 14.3386 10.5155 14.1181 11.2572 13.7244L11.5412 14.0079C11.4781 14.1023 11.4465 14.2126 11.4465 14.3386C11.4465 14.7008 11.7464 15 12.1093 15C12.4723 15 12.7721 14.7008 12.7721 14.3386C12.7721 13.9764 12.4723 13.6772 12.1093 13.6772C12.0147 13.6772 11.92 13.6929 11.8411 13.7402L11.6201 13.5197C12.9299 12.6535 13.861 11.2677 14.0661 9.64567ZM13.6558 8.38583C13.4033 8.48032 13.2297 8.71652 13.2297 8.99999C13.2297 9.28345 13.4033 9.51968 13.64 9.61417C13.4507 11.126 12.567 12.4173 11.3203 13.1732L7.64344 9.33071C7.6908 9.23622 7.72234 9.12597 7.72234 8.99999C7.72234 8.874 7.6908 8.76378 7.62768 8.66929L11.3203 4.81102C12.5827 5.56692 13.4665 6.87402 13.6558 8.38583ZM8.76386 13.8976C6.04962 13.8976 3.84033 11.6929 3.84033 8.98425C3.84033 6.27559 6.04962 4.07087 8.76386 4.07087C9.5529 4.07087 10.2946 4.25984 10.9574 4.59055L7.32785 8.38583C7.31206 8.38583 7.29628 8.37007 7.28049 8.37007V6.29133C7.54878 6.19684 7.72234 5.96063 7.72234 5.6614C7.72234 5.29921 7.42251 5 7.05957 5C6.69662 5 6.39679 5.29921 6.39679 5.6614C6.39679 5.96063 6.60193 6.2126 6.87021 6.29133V8.35433C6.60193 8.43306 6.39679 8.68503 6.39679 8.98425C6.39679 9.28345 6.60193 9.53542 6.87021 9.61417V11.6614C6.60193 11.7401 6.39679 11.9921 6.39679 12.2913C6.39679 12.6535 6.69662 12.9528 7.05957 12.9528C7.42251 12.9528 7.72234 12.6535 7.72234 12.2913C7.72234 12.0079 7.53299 11.7559 7.28049 11.6614V9.62991C7.29628 9.62991 7.31206 9.61417 7.32785 9.61417L10.9416 13.3937C10.2946 13.7244 9.5529 13.8976 8.76386 13.8976Z" fill="white"/>
</g>
<rect x="0.5" y="0.5" width="17" height="17" rx="4.5" stroke="#1F1A34"/>
<defs>
<clipPath id="clip0_1750_6905">
<rect x="1" y="1" width="16" height="16" rx="4" fill="white"/>
</clipPath>
</defs>
</svg>
