<svg width="18" height="18" viewBox="0 0 18 18" fill="none" xmlns="http://www.w3.org/2000/svg">
<g clip-path="url(#clip0_1750_6960)">
<rect x="1" y="1" width="16" height="16" rx="4" fill="white" fill-opacity="0.08"/>
<path d="M12.5293 6.28434V6.79305H8.67773V6.28434H10.3834C10.2969 5.99478 10.2026 5.72869 10.1083 5.49391L10.6507 5.4C10.745 5.66609 10.8314 5.95565 10.9179 6.28434H12.5293Z" fill="#E53935"/>
<path fill-rule="evenodd" clip-rule="evenodd" d="M8.40262 7.32522V10.573H5.81658V7.54435C5.72227 7.64609 5.62009 7.74 5.5179 7.83391L5.4 7.27826C5.89519 6.80087 6.26462 6.18261 6.50045 5.41566L7.00349 5.57217C6.94061 5.73652 6.87773 5.89304 6.80698 6.04957H8.10394V6.42522C7.93887 6.78522 7.7738 7.08261 7.60873 7.32522H8.40262ZM6.01309 7.32522H7.06637C7.23929 7.09044 7.40436 6.80869 7.57729 6.49565H6.58691C6.41396 6.79304 6.21747 7.07478 6.01309 7.32522ZM6.30394 8.71827H6.88559V7.78695H6.30394V8.71827ZM7.34149 8.71827H7.91528V7.78695H7.34149V8.71827ZM7.34149 10.1035H7.91528V9.17217H7.34149V10.1035ZM6.30394 10.1035H6.88559V9.17217H6.30394V10.1035Z" fill="#E53935"/>
<path fill-rule="evenodd" clip-rule="evenodd" d="M10.9022 11.9504C10.9022 12.3809 10.6978 12.6 10.3048 12.6H9.66813L9.55809 12.0757C9.74672 12.0991 9.93538 12.1148 10.1162 12.1148C10.2734 12.1148 10.352 12.013 10.352 11.8174V9.72H9.09432V7.49739H12.152V9.72H10.9022V11.9504ZM9.62882 9.22696H11.6175V7.99826H9.62882V9.22696Z" fill="#E53935"/>
<path d="M12.6 11.9504L12.1834 12.24C11.9633 11.7 11.6568 11.1052 11.2795 10.4557L11.6961 10.2052C12.0891 10.8704 12.3878 11.4496 12.6 11.9504Z" fill="#E53935"/>
<path d="M9.78602 10.4557C9.5345 11.1913 9.2358 11.833 8.88995 12.373L8.4655 12.0678C8.79564 11.5513 9.08646 10.9409 9.33012 10.2365L9.78602 10.4557Z" fill="#E53935"/>
<path d="M8.62271 11.747L8.23755 11.8409C8.14323 11.5044 8.03319 11.1835 7.90743 10.8704L8.27686 10.7609C8.40262 11.0426 8.51266 11.3713 8.62271 11.747Z" fill="#E53935"/>
<path d="M7.81309 12.2478L7.40436 12.2948C7.36507 11.6843 7.28646 11.2148 7.16071 10.8861L7.55371 10.8391C7.67948 11.1835 7.76594 11.653 7.81309 12.2478Z" fill="#E53935"/>
<path d="M6.21747 10.9252C6.17031 11.52 6.06813 12.0443 5.90306 12.5061L5.47073 12.373C5.64368 11.9348 5.75371 11.4339 5.79302 10.8704L6.21747 10.9252Z" fill="#E53935"/>
<path d="M6.97205 12.3652L6.56332 12.4122C6.5476 11.7783 6.52401 11.2852 6.48472 10.9409L6.86201 10.8939C6.91703 11.2539 6.95632 11.747 6.97205 12.3652Z" fill="#E53935"/>
<path fill-rule="evenodd" clip-rule="evenodd" d="M15 9C15 5.68629 12.3137 3 9 3C5.68629 3 3 5.68629 3 9C3 12.3137 5.68629 15 9 15C12.3137 15 15 12.3137 15 9ZM3.55999 9C3.55999 5.99557 5.99557 3.56 9 3.56C12.0044 3.56 14.44 5.99557 14.44 9C14.44 12.0044 12.0044 14.44 9 14.44C5.99557 14.44 3.55999 12.0044 3.55999 9Z" fill="#E53935"/>
</g>
<rect x="0.5" y="0.5" width="17" height="17" rx="4.5" stroke="#1F1A34"/>
<defs>
<clipPath id="clip0_1750_6960">
<rect x="1" y="1" width="16" height="16" rx="4" fill="white"/>
</clipPath>
</defs>
</svg>
