<svg width="18" height="18" viewBox="0 0 18 18" fill="none" xmlns="http://www.w3.org/2000/svg">
<g clip-path="url(#clip0_1775_6096)">
<rect x="1" y="1" width="16" height="16" rx="4" fill="white" fill-opacity="0.08"/>
<path d="M14.6265 12.0837H14.3638L12.3619 11.0914L12.2451 10.9047L12.1284 10.7179V7.76459L12.2451 7.69455L15 11.8969L14.6265 12.0837Z" fill="#FFA80A"/>
<path d="M9 12.5097H8.73735L5.75486 11.0331V10.9047L5.8716 10.7179L8.8891 9.22374L9 9.29961L9.11673 9.22374L12.1284 10.7179L12.2451 10.9047V11.0447L9.26265 12.5097H9Z" fill="#95001A"/>
<path d="M12.2451 10.9047L12.3619 11.0914V13.0992L12.2451 13.2685L11.3813 13.6946H11.1187L9 12.644V12.5097L12.2451 10.9047Z" fill="#520033"/>
<path d="M12.2451 7.69455L9.82296 4H9V6.08366L9.11673 6.27043L12.1284 7.76459L12.2451 7.69455Z" fill="#FFE50A"/>
<path d="M5.75486 7.69455L8.17704 4H9V6.08366L8.90661 6.25875L5.8716 7.76459L5.75486 7.69455Z" fill="#FFA80A"/>
<path d="M14.6265 12.0837L12.2451 13.2685V10.9047L14.6265 12.0837Z" fill="#6D0044"/>
<path d="M3.37354 12.0837H3.63619L5.63813 11.0914L5.75486 10.9047L5.8716 10.7179V7.76459L5.75486 7.69455L3 11.8969L3.37354 12.0837Z" fill="#FF3417"/>
<path d="M5.75486 10.9047L5.63813 11.0914V13.0992L5.75486 13.2685L6.61868 13.6946H6.88132L9 12.644V12.5097L5.75486 10.9047Z" fill="#40004D"/>
<path d="M3.37354 12.0837L5.75486 13.2685V10.9047L3.37354 12.0837Z" fill="#6D0044"/>
<path d="M9 14.8735L11.3813 13.6946L9 12.5097L6.61868 13.6946L9 14.8735Z" fill="#6D0074"/>
<path d="M5.75486 10.9047L9 9.29961L9.11673 9.22374V6.27043L9 6.08366L5.75486 7.69455V10.9047Z" fill="#D7001F"/>
<path d="M12.2451 10.9047L9 9.29961V6.08366L12.2451 7.69455V10.9047Z" fill="#EF8109"/>
</g>
<rect x="0.5" y="0.5" width="17" height="17" rx="4.5" stroke="#1F1A34"/>
<defs>
<clipPath id="clip0_1775_6096">
<rect x="1" y="1" width="16" height="16" rx="4" fill="white"/>
</clipPath>
</defs>
</svg>
