<svg width="18" height="18" viewBox="0 0 18 18" fill="none" xmlns="http://www.w3.org/2000/svg">
<g clip-path="url(#clip0_1758_7084)">
<rect x="1" y="1" width="16" height="16" fill="url(#paint0_linear_1758_7084)"/>
<path d="M9.00001 5.8155C9.63942 5.8155 10.1578 5.29716 10.1578 4.65775C10.1578 4.01834 9.63942 3.5 9.00001 3.5C8.3606 3.5 7.84226 4.01834 7.84226 4.65775C7.84226 5.29716 8.3606 5.8155 9.00001 5.8155Z" fill="white"/>
<path d="M4.65775 10.1588C5.29716 10.1588 5.8155 9.64049 5.8155 9.00108C5.8155 8.36168 5.29716 7.84334 4.65775 7.84334C4.01834 7.84334 3.5 8.36168 3.5 9.00108C3.5 9.64049 4.01834 10.1588 4.65775 10.1588Z" fill="white"/>
<path d="M14.4994 9.00108C14.4994 9.64049 13.9811 10.1588 13.3417 10.1588C12.7023 10.1588 12.1839 9.64049 12.1839 9.00108C12.1839 8.36168 12.7023 7.84334 13.3417 7.84334C13.9811 7.84334 14.4994 8.36168 14.4994 9.00108Z" fill="white"/>
<path d="M8.99999 12.1845C8.36058 12.1845 7.84224 12.7028 7.84224 13.3423C7.84224 13.9817 8.36058 14.5 8.99999 14.5C9.6394 14.5 10.1577 13.9817 10.1577 13.3423C10.1577 12.7028 9.6394 12.1845 8.99999 12.1845Z" fill="white"/>
<path d="M6.6834 5.67306C6.6834 6.0728 6.35935 6.39686 5.9596 6.39686C5.55986 6.39686 5.2358 6.0728 5.2358 5.67306C5.2358 5.27331 5.55986 4.94926 5.9596 4.94926C6.35935 4.94926 6.6834 5.27331 6.6834 5.67306Z" fill="white"/>
<path d="M12.0404 11.6042C11.6407 11.6042 11.3166 11.9283 11.3166 12.328C11.3166 12.7278 11.6407 13.0518 12.0404 13.0518C12.4401 13.0518 12.7642 12.7278 12.7642 12.328C12.7642 11.9283 12.4401 11.6042 12.0404 11.6042Z" fill="white"/>
<path d="M12.7637 5.67306C12.7637 6.0728 12.4396 6.39686 12.0399 6.39686C11.6401 6.39686 11.3161 6.0728 11.3161 5.67306C11.3161 5.27331 11.6401 4.94926 12.0399 4.94926C12.4396 4.94926 12.7637 5.27331 12.7637 5.67306Z" fill="white"/>
<path d="M5.96012 11.6042C5.56037 11.6042 5.23632 11.9283 5.23632 12.328C5.23632 12.7278 5.56037 13.0518 5.96012 13.0518C6.35986 13.0518 6.68392 12.7278 6.68392 12.328C6.68392 11.9283 6.35986 11.6042 5.96012 11.6042Z" fill="white"/>
<path d="M8.99999 10.1588C8.36058 10.1588 7.84224 9.64049 7.84224 9.00108C7.84224 8.36168 8.36058 7.84334 8.99999 7.84334C9.6394 7.84334 10.1577 8.36168 10.1577 9.00108C10.1577 9.64049 9.6394 10.1588 8.99999 10.1588Z" fill="white"/>
</g>
<rect x="0.5" y="0.5" width="17" height="17" rx="4.5" stroke="#1F1A34"/>
<defs>
<linearGradient id="paint0_linear_1758_7084" x1="9" y1="1" x2="9" y2="17" gradientUnits="userSpaceOnUse">
<stop stop-color="#3286FF"/>
<stop offset="1" stop-color="#0F2478"/>
</linearGradient>
<clipPath id="clip0_1758_7084">
<rect x="1" y="1" width="16" height="16" rx="4" fill="white"/>
</clipPath>
</defs>
</svg>
