<svg width="18" height="18" viewBox="0 0 18 18" fill="none" xmlns="http://www.w3.org/2000/svg">
<g clip-path="url(#clip0_1758_7276)">
<rect x="1" y="1" width="16" height="16" rx="4" fill="white" fill-opacity="0.08"/>
<path fill-rule="evenodd" clip-rule="evenodd" d="M6.02509 5.38842C6.21803 4.99009 6.69728 4.8096 7.10806 4.99009C7.51884 5.17058 7.70555 5.64983 7.53751 6.06061C6.55413 8.23276 5.5583 10.4049 4.58736 12.5833C4.40065 13.0003 3.90896 13.187 3.49195 13.0065C3.07495 12.8198 2.88823 12.3281 3.06872 11.9111C4.03966 9.73273 5.03549 7.56057 6.01887 5.38842H6.02509Z" fill="#2073E9"/>
<path fill-rule="evenodd" clip-rule="evenodd" d="M9.69099 5.38842C9.88393 4.99009 10.3632 4.8096 10.774 4.99009C11.1847 5.17058 11.3714 5.64983 11.2034 6.06061C10.22 8.23276 10.7677 7.1249 9.79679 9.30327C9.61008 9.72028 9.11839 9.907 8.70138 9.7265C8.28438 9.53978 8.09766 9.04809 8.27815 8.63109C9.24909 6.45271 8.70138 7.56057 9.68476 5.38842H9.69099Z" fill="#2073E9"/>
<path fill-rule="evenodd" clip-rule="evenodd" d="M13.4191 5.38842C13.6121 4.99009 14.0913 4.8096 14.5021 4.99009C14.9129 5.17058 15.0996 5.64983 14.9315 6.06061C13.9482 8.23276 12.9523 10.4049 11.9814 12.5833C11.7947 13.0003 11.303 13.187 10.886 13.0065C10.469 12.8198 10.2823 12.3281 10.4628 11.9111C11.4337 9.73273 12.4295 7.56057 13.4129 5.38842H13.4191Z" fill="#C8E3FF"/>
<path d="M14.1722 6.57719C14.6294 6.57719 15 6.20658 15 5.74941C15 5.29224 14.6294 4.92163 14.1722 4.92163C13.715 4.92163 13.3444 5.29224 13.3444 5.74941C13.3444 6.20658 13.715 6.57719 14.1722 6.57719Z" fill="#2073E9"/>
<path d="M11.2283 13.075C11.6855 13.075 12.0561 12.7044 12.0561 12.2472C12.0561 11.79 11.6855 11.4194 11.2283 11.4194C10.7711 11.4194 10.4005 11.79 10.4005 12.2472C10.4005 12.7044 10.7711 13.075 11.2283 13.075Z" fill="#2073E9"/>
</g>
<rect x="0.5" y="0.5" width="17" height="17" rx="4.5" stroke="#1F1A34"/>
<defs>
<clipPath id="clip0_1758_7276">
<rect x="1" y="1" width="16" height="16" rx="4" fill="white"/>
</clipPath>
</defs>
</svg>
