<svg width="18" height="18" viewBox="0 0 18 18" fill="none" xmlns="http://www.w3.org/2000/svg">
<g clip-path="url(#clip0_1758_7313)">
<rect x="1" y="1" width="16" height="16" rx="4" fill="white" fill-opacity="0.08"/>
<path d="M5.5 3.5H9.77976C11.7595 3.5 13.3636 5.08242 13.3636 7.03218C13.3636 8.98195 11.7595 10.5625 9.78073 10.5625H6.21696V7.73768H9.77976C10.1755 7.73768 10.4967 7.42119 10.4967 7.03124C10.4967 6.64128 10.1755 6.3248 9.77976 6.3248H5.5V3.5Z" fill="#7D5AFF"/>
<path d="M10.4174 13.3854C10.4174 14.5533 9.45654 15.5 8.27127 15.5C7.08601 15.5 6.12517 14.5533 6.12517 13.3854C6.12517 12.2176 7.08601 11.2708 8.27127 11.2708C9.45654 11.2708 10.4174 12.2176 10.4174 13.3854Z" fill="#7D5AFF"/>
</g>
<rect x="0.5" y="0.5" width="17" height="17" rx="4.5" stroke="#1F1A34"/>
<defs>
<clipPath id="clip0_1758_7313">
<rect x="1" y="1" width="16" height="16" rx="4" fill="white"/>
</clipPath>
</defs>
</svg>
