<svg width="18" height="18" viewBox="0 0 18 18" fill="none" xmlns="http://www.w3.org/2000/svg">
<g clip-path="url(#clip0_1758_7536)">
<rect x="1" y="1" width="16" height="16" rx="4" fill="#191919"/>
<path d="M15.6909 6.57159C15.6909 6.57159 15.5433 7.17892 14.5101 7.17892C14.1634 7.17892 14.0451 7.28201 13.9665 7.37577C13.9098 7.44312 13.8731 7.50594 13.7871 7.52237C13.6498 7.49593 13.6385 7.35256 13.4713 7.25979C13.3872 7.21305 13.2635 7.17892 13.0641 7.17892C12.0308 7.17892 11.8172 6.57159 11.8172 6.57159C11.5846 7.45695 12.3208 8.09585 12.7819 8.41837C13.0135 8.58042 13.0992 8.88328 12.9864 9.14266C12.4493 10.3783 11.8333 10.7636 10.9966 10.7636C10.8448 10.7636 10.6879 10.7516 10.5249 10.7314C10.4805 10.7259 10.4356 10.7195 10.3902 10.7127C10.3599 10.7081 10.3297 10.7033 10.2991 10.6982C10.2684 10.693 10.2379 10.6878 10.2066 10.6824C9.92759 10.6324 9.63277 10.5645 9.32057 10.4917C9.28995 10.4846 9.25902 10.4772 9.22808 10.4701C8.76834 10.3624 8.27151 10.2474 7.73378 10.1659C7.68061 10.1579 7.62812 10.1505 7.57657 10.1434C7.56369 10.1414 7.5508 10.1398 7.53791 10.1382C7.51246 10.135 7.487 10.1317 7.46154 10.1289C7.44897 10.1273 7.4364 10.126 7.42386 10.1243C7.39872 10.1215 7.37389 10.1189 7.34911 10.116C7.29981 10.1108 7.25114 10.106 7.20314 10.1018C6.98792 10.0831 6.78753 10.0744 6.60128 10.0744C6.23947 10.0744 5.93082 10.107 5.66922 10.1588C5.64152 10.1643 5.61476 10.1698 5.58836 10.1756C5.56191 10.1814 5.53583 10.1875 5.51037 10.1939C5.47202 10.2033 5.43498 10.213 5.39888 10.2233C5.37504 10.23 5.35119 10.2368 5.32834 10.2439C5.30513 10.251 5.28258 10.2581 5.26067 10.2655C5.23845 10.2729 5.21685 10.2803 5.19561 10.2877C5.18497 10.2916 5.17464 10.2951 5.16436 10.2993C5.14371 10.307 5.12341 10.3148 5.10379 10.3225C5.09378 10.3263 5.08412 10.3303 5.07447 10.3344C5.05512 10.3425 5.03612 10.3505 5.01776 10.3586C5.00873 10.3628 4.99939 10.367 4.99037 10.3708C4.97232 10.3792 4.9549 10.3873 4.93784 10.3953C4.79253 10.4655 4.67816 10.539 4.58988 10.606C4.57957 10.6138 4.56958 10.6215 4.55992 10.6292C4.54381 10.6421 4.52834 10.655 4.51416 10.6672C4.51158 10.6698 4.50901 10.6718 4.50643 10.674C4.50611 10.6743 4.50546 10.6746 4.50514 10.675C4.50418 10.6756 4.50353 10.6766 4.50256 10.6772C4.50063 10.6789 4.49902 10.6804 4.49709 10.6821C4.49193 10.6869 4.48645 10.6914 4.48162 10.6959C4.40333 10.7668 4.34856 10.828 4.30506 10.9044C4.23934 11.0194 4.21775 11.099 4.21775 11.099C4.47486 11.6854 4.84215 12.2247 5.30804 12.6909C5.3106 12.6935 5.31352 12.696 5.31608 12.6986C5.31864 12.7016 5.32187 12.7048 5.32448 12.7074C6.26784 13.6514 7.50954 14.1888 8.83663 14.2326C8.93299 14.4462 9.12727 14.7371 9.46331 14.7001C9.46331 14.7001 9.67722 15.2945 10.2568 15.1624C10.2568 15.1624 10.3074 15.7278 11.581 15.7198C11.581 15.7198 10.7707 15.29 10.7666 14.5477C10.7653 14.3366 10.7292 14.1456 10.6551 13.9729C11.4061 13.7245 12.0949 13.3047 12.6736 12.7331C12.6823 12.7244 12.691 12.716 12.6997 12.7074C13.0335 12.3736 13.3164 12.0021 13.5448 11.6029C13.9446 10.9037 14.1766 10.1185 14.2198 9.29861C14.2204 9.28729 14.2211 9.27602 14.2214 9.26475C14.233 9.17841 14.242 9.1001 14.2494 9.03118C14.2681 8.85396 14.3673 8.6964 14.5165 8.5991C15.05 8.25116 15.9989 7.3922 15.6909 6.57159Z" fill="white"/>
<path d="M4.22423 9.01683C4.22423 7.73679 4.72233 6.53372 5.6267 5.62838C5.88381 5.37096 6.16542 5.14641 6.46568 4.95693C7.44708 4.3377 8.74808 5.00107 8.7819 6.16095C8.78257 6.18318 8.78288 6.20576 8.78288 6.22862V9.84166L9.24132 9.92607V6.22862C9.24132 6.20544 9.24168 6.18255 9.24231 6.15969C9.27711 5.00012 10.5768 4.33706 11.5585 4.95567C11.8595 5.14542 12.1413 5.37033 12.3991 5.62806C12.719 5.9483 12.9881 6.30594 13.2023 6.69096C13.394 6.70448 13.5555 6.74736 13.6933 6.82014C13.7194 6.83402 13.7436 6.84852 13.7662 6.86334C13.5103 6.29821 13.1517 5.77821 12.7004 5.32651C12.1781 4.80391 11.5643 4.40568 10.8955 4.14696C10.8619 4.13408 10.8284 4.12151 10.7949 4.10927C10.706 4.07705 10.6161 4.04709 10.5253 4.0197C10.3513 3.96719 10.1747 3.92401 9.99525 3.88986C9.74556 3.8425 9.49106 3.81318 9.23328 3.80287C9.16014 3.79965 9.08668 3.79803 9.01291 3.79803C8.93914 3.79803 8.86469 3.79965 8.79092 3.80287C8.53413 3.8135 8.28089 3.8425 8.0325 3.88953C7.85271 3.92337 7.67549 3.96686 7.50154 4.01938C7.41003 4.04676 7.31947 4.07673 7.22993 4.10959C7.1964 4.12183 7.16259 4.1344 7.1294 4.14729C6.46087 4.406 5.84743 4.80391 5.32515 5.32651C4.34054 6.3124 3.79797 7.62306 3.79797 9.01683C3.79797 9.52009 3.86853 10.0121 4.00546 10.4825C4.04735 10.4329 4.10566 10.371 4.18299 10.3033C4.23905 10.2544 4.29833 10.2077 4.36148 10.1632C4.27095 9.79236 4.22423 9.40797 4.22423 9.01683Z" fill="#3CCD64"/>
</g>
<rect x="0.5" y="0.5" width="17" height="17" rx="4.5" stroke="#1F1A34"/>
<defs>
<clipPath id="clip0_1758_7536">
<rect x="1" y="1" width="16" height="16" rx="4" fill="white"/>
</clipPath>
</defs>
</svg>
