<svg width="18" height="18" viewBox="0 0 18 18" fill="none" xmlns="http://www.w3.org/2000/svg">
<g clip-path="url(#clip0_1758_7599)">
<rect x="1" y="1" width="16" height="16" rx="4" fill="black"/>
<path d="M13.2119 6.26953C12.5568 6.47833 11.914 6.72399 11.2876 7.00921C7.71883 8.62096 5.33192 11.0652 5.9556 12.4654C6.08252 12.7302 6.29269 12.943 6.55472 13.0727C7.40358 13.5026 8.36844 13.6445 9.30465 13.4767C10.2408 13.3088 11.0979 12.8407 11.7475 12.142C12.3971 11.4432 12.8065 10.5507 12.9116 9.59947C13.0167 8.64825 12.8147 7.68748 12.333 6.86046L13.2105 6.26953H13.2119Z" fill="url(#paint0_linear_1758_7599)"/>
<path d="M12.0437 6.39102C11.3954 5.48348 10.4251 4.85434 9.32784 4.62916C8.2306 4.40398 7.08833 4.59913 6.13029 5.17778C5.17225 5.75506 4.47078 6.67079 4.16644 7.7421C3.86211 8.81341 3.97811 9.95842 4.48988 10.9478C5.32646 9.73597 7.18113 8.34804 9.53801 7.29857C10.3487 6.93555 11.1866 6.63258 12.0437 6.39239V6.39102Z" fill="url(#paint1_linear_1758_7599)"/>
<path d="M16 5.97203C14.7472 5.75368 14.5739 5.84375 14.028 6.99285C14.2464 5.74003 14.1563 5.56534 13.0072 5.02082C14.26 5.23917 14.4333 5.1491 14.9792 4C14.7609 5.25282 14.8509 5.42614 16 5.97203Z" fill="#4A13E5"/>
</g>
<rect x="0.5" y="0.5" width="17" height="17" rx="4.5" stroke="#1F1A34"/>
<defs>
<linearGradient id="paint0_linear_1758_7599" x1="7.01736" y1="10.8659" x2="18.2955" y2="8.23337" gradientUnits="userSpaceOnUse">
<stop stop-color="#2810B3"/>
<stop offset="1" stop-color="#8A76FF"/>
</linearGradient>
<linearGradient id="paint1_linear_1758_7599" x1="9.86964" y1="5.28423" x2="0.365677" y2="11.3518" gradientUnits="userSpaceOnUse">
<stop stop-color="#6000FF"/>
<stop offset="1" stop-color="#7472C9"/>
</linearGradient>
<clipPath id="clip0_1758_7599">
<rect x="1" y="1" width="16" height="16" rx="4" fill="white"/>
</clipPath>
</defs>
</svg>
