<svg width="18" height="18" viewBox="0 0 18 18" fill="none" xmlns="http://www.w3.org/2000/svg">
<g clip-path="url(#clip0_1758_7615)">
<rect x="1" y="1" width="16" height="16" rx="4" fill="#181C49"/>
<path d="M7.39578 13.8734L3 9.41912L7.44284 5.0352L8.47712 6.08134L7.88939 6.65722L7.44284 6.19881L4.16361 9.43098L7.39578 12.7102L7.8186 12.2985L8.39485 12.8862L7.39578 13.8734Z" fill="white"/>
<path d="M10.6279 11.1467L10.0517 10.5594L11.1449 9.47805L10.0165 8.3263L10.5924 7.75004L12.3085 9.48953L10.6279 11.1467Z" fill="white"/>
<path d="M10.5572 13.8268L6.17324 9.38392L9.5114 6.0932L10.6161 5L15 9.45432L10.5572 13.8264V13.8268ZM7.33685 9.39578L10.569 12.675L13.8364 9.44284L10.6042 6.16361L7.33685 9.39578Z" fill="white"/>
</g>
<rect x="0.5" y="0.5" width="17" height="17" rx="4.5" stroke="#1F1A34"/>
<defs>
<clipPath id="clip0_1758_7615">
<rect x="1" y="1" width="16" height="16" rx="4" fill="white"/>
</clipPath>
</defs>
</svg>
