<svg width="18" height="18" viewBox="0 0 18 18" fill="none" xmlns="http://www.w3.org/2000/svg">
<g clip-path="url(#clip0_1758_7785)">
<rect x="1" y="1" width="16" height="16" rx="4" fill="#010102"/>
<path d="M7.96979 8.1245L8.35004 9.24754H7.49225L7.89461 8.1245H7.96979ZM10.0214 9.84889H9.39349V10.07H10.941V9.84889H10.322V8.08028H10.941V7.85921H9.39349V8.08028H10.0214V9.84889ZM7.196 10.07L7.40825 9.47746H8.4296L8.62859 10.07H8.95577L8.1599 7.85921H7.70891L6.89978 10.07H7.196ZM12.1746 12.1746H5.82534V5.82531H12.1746V12.1746Z" fill="white"/>
<path d="M9.619 15C12.4532 14.7082 14.7082 12.4532 15 9.61903H14.2528C13.9875 12.0774 12.126 14.0361 9.619 14.3147V15Z" fill="white"/>
<path d="M3 9.61903C3.29182 12.4532 5.54679 14.7082 8.38097 15V14.3147C5.87398 14.0361 4.01695 12.073 3.74724 9.61903H3Z" fill="white"/>
<path d="M15 8.38097C14.7082 5.54679 12.4532 3.29182 9.619 3V3.68533C12.126 3.96389 13.983 5.92704 14.2528 8.38097H15Z" fill="white"/>
<path d="M8.38097 3C5.54679 3.29182 3.29182 5.54679 3 8.38097H3.74724C4.01252 5.92262 5.87398 3.96389 8.38097 3.68533V3Z" fill="white"/>
</g>
<rect x="0.5" y="0.5" width="17" height="17" rx="4.5" stroke="#1F1A34"/>
<defs>
<clipPath id="clip0_1758_7785">
<rect x="1" y="1" width="16" height="16" rx="4" fill="white"/>
</clipPath>
</defs>
</svg>
