<svg width="18" height="18" viewBox="0 0 18 18" fill="none" xmlns="http://www.w3.org/2000/svg">
<g clip-path="url(#clip0_1677_1687)">
<rect opacity="0.4" x="1" y="1" width="16" height="16" rx="4" fill="#412CD6"/>
<g clip-path="url(#clip1_1677_1687)">
<path d="M14.4618 5.12112C14.3399 4.65072 13.9477 4.18032 13.2417 3.65664C12.6753 3.23952 12.0738 3 11.5943 3C11.4983 3 11.4114 3.00864 11.3241 3.0264C11.1061 3.07056 10.9146 3.2304 10.7922 3.4704C10.6439 3.75456 10.6093 4.13616 10.7049 4.36704C10.7399 4.43808 10.7831 4.52688 10.8354 4.60656C10.3737 4.89072 10.1121 4.9704 10.077 4.97952C11.2799 5.388 12.2821 6.24 12.91 7.34928L12.9186 7.24272C12.9445 6.94992 13.0319 6.61248 13.1538 6.2664C13.2757 6.30192 13.3977 6.31968 13.5201 6.31968C13.8426 6.31968 14.1215 6.18672 14.2957 5.94672C14.4709 5.7072 14.5405 5.38752 14.4618 5.12112Z" fill="#602F92"/>
<path d="M13.2071 6.00912C14.0001 6.23088 14.3227 5.60976 14.218 5.19264C14.1047 4.77552 13.7385 4.34928 13.0939 3.87024C12.4487 3.39072 11.795 3.19584 11.3769 3.28464C10.9583 3.37344 10.8364 4.02144 10.9411 4.27008C10.9847 4.36752 11.0807 4.5096 11.2113 4.66944C11.0457 4.78464 10.8887 4.87344 10.7582 4.9536C11.5603 5.31744 12.2572 5.88576 12.7804 6.59568C12.8414 6.35616 12.9287 6.14304 13.007 5.9568C13.0675 5.96448 13.1371 5.98224 13.2071 6.00912Z" fill="url(#paint0_radial_1677_1687)"/>
<path d="M8.66581 14.7072C11.3567 14.7072 13.5383 12.4858 13.5383 9.74546C13.5383 7.00514 11.3567 4.78418 8.66581 4.78418C5.97494 4.78418 3.79333 7.00562 3.79333 9.74594C3.79333 12.4863 5.97494 14.7072 8.66581 14.7072Z" fill="url(#paint1_radial_1677_1687)"/>
<path opacity="0.6" d="M13.8172 4.78418C13.1548 4.07426 12.5971 3.88754 11.926 3.73682C11.4028 3.6125 11.5425 3.31058 12.179 3.37298C11.8737 3.26642 11.5862 3.24002 11.3769 3.28418C10.9583 3.37298 10.8364 4.02098 10.9411 4.26962C10.9847 4.36706 11.0807 4.50914 11.2113 4.66898C10.9761 4.82882 10.7755 4.94402 10.6099 5.03282C10.6881 5.06834 10.7841 5.1125 10.8974 5.1749C11.1935 5.33474 11.5161 5.60114 11.5161 5.60114C11.0279 5.1749 11.1326 4.98002 11.8036 4.5005C12.0129 4.34978 12.3964 4.36754 12.7535 4.55378C13.1107 4.74002 13.5292 5.21042 13.5292 5.21042L13.1284 5.99138C13.1543 6.0005 13.1807 6.00914 13.2067 6.01826C13.4596 6.0893 13.6598 6.07154 13.8167 6.00914C14.0001 5.89346 14.4796 5.50274 13.8172 4.78418Z" fill="#A98798"/>
<path d="M11.917 4.16256C12.0912 4.2336 12.3178 4.35792 12.5966 4.54416C12.9278 4.76592 13.2154 5.01456 13.3987 5.20992C13.0934 5.6184 12.8933 6.1776 12.7714 6.56784C12.8323 6.65664 12.9019 6.74544 12.9634 6.83424C13.0243 6.61248 13.129 6.28368 13.2686 5.95536C13.3037 5.96448 13.3469 5.96448 13.3906 5.96448C13.4952 5.96448 13.6171 5.94672 13.7131 5.86704C13.7827 5.81376 13.8614 5.71632 13.8528 5.53872C13.8528 5.37024 13.7222 5.15712 13.452 4.89984C13.26 4.7136 12.9989 4.50912 12.7373 4.32288C11.9875 3.81696 11.4648 3.67488 11.2296 3.9144C11.0726 4.07424 11.0899 4.2696 11.1422 4.41168C10.8634 4.59792 10.6282 4.73136 10.4712 4.82016C10.5758 4.85568 10.6718 4.89984 10.7765 4.94448C11.0539 4.7928 11.4552 4.53552 11.917 4.16256ZM13.5643 5.43216C13.5902 5.47632 13.5994 5.52096 13.5994 5.54736C13.5994 5.62704 13.5734 5.65392 13.5557 5.67168C13.5206 5.69808 13.451 5.71584 13.3901 5.71584C13.4424 5.60928 13.5034 5.52048 13.5643 5.43216ZM11.4115 4.10928C11.4374 4.08288 11.5075 4.06512 11.6208 4.08288C11.5334 4.15392 11.4466 4.21584 11.3592 4.27824C11.3506 4.21584 11.3592 4.15392 11.4115 4.10928Z" fill="#602F92"/>
<path d="M8.66586 4.49091C5.81562 4.49091 3.50586 6.84291 3.50586 9.74547C3.50586 12.648 5.81562 15 8.66586 15C11.5161 15 13.8259 12.648 13.8259 9.74547C13.8259 6.84339 11.5075 4.49091 8.66586 4.49091ZM8.66586 14.7072C5.97258 14.7072 3.79338 12.4882 3.79338 9.74547C3.79338 7.00275 5.97258 4.78371 8.66586 4.78371C11.3591 4.78371 13.5383 7.00275 13.5383 9.74547C13.5379 12.4882 11.3505 14.7072 8.66586 14.7072Z" fill="#602F92"/>
<path opacity="0.6" d="M8.66581 14.7072C11.3567 14.7072 13.5383 12.4858 13.5383 9.74546C13.5383 7.00514 11.3567 4.78418 8.66581 4.78418C5.97494 4.78418 3.79333 7.00562 3.79333 9.74594C3.79333 12.4863 5.97494 14.7072 8.66581 14.7072Z" fill="url(#paint2_linear_1677_1687)"/>
<path opacity="0.6" d="M8.63084 14.1033C5.9726 13.6685 4.16828 11.1211 4.60412 8.41391C4.79612 7.21583 5.38844 6.19487 6.22556 5.45807C5.00492 6.17759 4.09868 7.42895 3.85436 8.95583C3.42716 11.663 5.23148 14.2104 7.88108 14.6453C9.36284 14.8939 10.7923 14.4235 11.8468 13.5005C10.9147 14.0501 9.7814 14.2901 8.63084 14.1033Z" fill="#A98798"/>
<path opacity="0.6" d="M9.44153 4.85521C8.21273 4.65121 7.01849 4.93489 6.04217 5.56513C6.02489 5.58289 6.00713 5.60065 6.00713 5.60065C6.38201 5.36977 6.93113 5.16577 6.93113 5.16577C5.51897 6.00001 5.08313 6.94993 5.08313 6.94993C5.63225 5.86705 7.24457 5.10385 8.50841 5.05057C9.77225 4.99729 10.6003 5.37889 11.6111 6.20449C12.622 7.03873 13.2326 8.74273 13.1711 10.092C13.1188 11.4413 12.4214 12.5328 12.4214 12.5328C12.9009 11.9026 13.1884 11.4413 13.3713 10.9709C13.4063 10.8288 13.4409 10.6867 13.4587 10.536C13.8955 7.83745 12.0998 5.29009 9.44153 4.85521Z" fill="url(#paint3_linear_1677_1687)"/>
<path d="M13.294 9.70129C13.294 12.3019 11.2195 14.4144 8.66585 14.4144C6.11225 14.4144 4.02905 12.3019 4.02905 9.70129H13.294Z" fill="url(#paint4_linear_1677_1687)"/>
<g opacity="0.6">
<path opacity="0.6" d="M12.9278 9.70129C12.9278 12.2395 10.9579 14.3165 8.48254 14.4144C8.5435 14.4144 8.60446 14.4144 8.66542 14.4144C11.219 14.4144 13.2936 12.3019 13.2936 9.70129H12.9278Z" fill="url(#paint5_linear_1677_1687)"/>
</g>
<g opacity="0.7">
<path opacity="0.7" d="M4.68281 9.70129H4.02905C4.02905 12.3019 6.10361 14.4144 8.65721 14.4144C8.77049 14.4144 8.87513 14.4144 8.97977 14.4053C6.58265 14.2277 4.68281 12.1863 4.68281 9.70129Z" fill="url(#paint6_linear_1677_1687)"/>
</g>
<path d="M13.2854 9.74543C13.2854 9.20399 12.3614 8.89343 11.1326 8.78687C10.2436 8.71583 9.34601 8.80463 8.31737 9.12431C7.42841 9.39071 6.62633 9.34607 6.04265 9.27503C4.74377 9.12431 4.02905 9.10655 4.02905 9.74543C4.02905 10.6685 5.87705 11.8224 8.64857 11.423C10.0521 11.219 10.7755 10.8019 11.6035 10.5177C12.5011 10.2158 13.2854 10.2249 13.2854 9.74543Z" fill="url(#paint7_linear_1677_1687)"/>
<path d="M10.1821 7.50863C10.6156 7.50863 10.9665 7.15103 10.9665 6.70991C10.9665 6.26879 10.6151 5.91119 10.1821 5.91119C9.74919 5.91119 9.39783 6.26879 9.39783 6.70991C9.39783 7.15103 9.74919 7.50863 10.1821 7.50863Z" fill="white"/>
<path d="M11.4638 8.10335C11.6466 8.10335 11.795 7.95215 11.795 7.76591C11.795 7.57967 11.6466 7.42847 11.4638 7.42847C11.2809 7.42847 11.1326 7.57967 11.1326 7.76591C11.1326 7.95263 11.2809 8.10335 11.4638 8.10335Z" fill="white"/>
<g opacity="0.6">
<path opacity="0.6" d="M12.6488 6.07105C12.6402 6.07105 12.6316 6.07105 12.6316 6.07105C12.5792 6.06192 12.5442 6.00913 12.5533 5.94673C12.6316 5.53825 12.9628 5.148 12.9805 5.13024C13.0156 5.08608 13.0852 5.08608 13.1202 5.12112C13.1639 5.15664 13.1639 5.22768 13.1288 5.2632C13.1202 5.27184 12.8149 5.63616 12.7453 5.99088C12.7362 6.04416 12.6925 6.07105 12.6488 6.07105Z" fill="url(#paint8_linear_1677_1687)"/>
</g>
<path opacity="0.2" d="M8.34382 13.4467C8.4787 13.4467 8.58766 13.3354 8.58766 13.1981C8.58766 13.0608 8.47822 12.9495 8.34382 12.9495C8.20894 12.9495 8.09998 13.0608 8.09998 13.1981C8.09998 13.3354 8.20894 13.4467 8.34382 13.4467Z" fill="white"/>
<g opacity="0.4">
<path opacity="0.6" d="M8.20409 13.3584C8.10809 13.261 8.10809 13.1011 8.20409 13.0032C8.22137 12.9854 8.23913 12.9768 8.25641 12.959C8.22137 12.9682 8.19545 12.9854 8.16905 13.0123C8.07305 13.1098 8.07305 13.2696 8.16905 13.3675C8.24729 13.4472 8.36969 13.465 8.46521 13.4117C8.37833 13.4472 8.27369 13.4294 8.20409 13.3584Z" fill="url(#paint9_linear_1677_1687)"/>
</g>
<path opacity="0.3" d="M8.43062 13.1271C8.45942 13.1271 8.48294 13.1031 8.48294 13.0738C8.48294 13.0445 8.45942 13.0205 8.43062 13.0205C8.40182 13.0205 8.3783 13.0445 8.3783 13.0738C8.3783 13.1035 8.40134 13.1271 8.43062 13.1271Z" fill="white"/>
<path opacity="0.2" d="M9.61628 13.3224C9.75116 13.3224 9.86012 13.2111 9.86012 13.0738C9.86012 12.9365 9.75068 12.8251 9.61628 12.8251C9.4814 12.8251 9.37244 12.9365 9.37244 13.0738C9.37244 13.2111 9.48188 13.3224 9.61628 13.3224Z" fill="white"/>
<g opacity="0.4">
<path opacity="0.6" d="M9.47655 13.2341C9.38055 13.1366 9.38055 12.9768 9.47655 12.8789C9.49383 12.8611 9.51159 12.8525 9.52887 12.8347C9.49383 12.8438 9.46791 12.8611 9.44151 12.888C9.34551 12.9854 9.34551 13.1453 9.44151 13.2432C9.51975 13.3229 9.64215 13.3406 9.73767 13.2874C9.65079 13.3229 9.54615 13.3051 9.47655 13.2341Z" fill="url(#paint10_linear_1677_1687)"/>
</g>
<path opacity="0.3" d="M9.7032 13.0032C9.732 13.0032 9.75552 12.9792 9.75552 12.9499C9.75552 12.9207 9.732 12.8967 9.7032 12.8967C9.6744 12.8967 9.65088 12.9207 9.65088 12.9499C9.65088 12.9792 9.6744 13.0032 9.7032 13.0032Z" fill="white"/>
<path opacity="0.2" d="M8.98842 13.8993C9.0897 13.8993 9.1713 13.8158 9.1713 13.7131C9.1713 13.6104 9.08922 13.5269 8.98842 13.5269C8.88714 13.5269 8.80554 13.6104 8.80554 13.7131C8.80554 13.8158 8.88714 13.8993 8.98842 13.8993Z" fill="white"/>
<g opacity="0.4">
<path opacity="0.6" d="M8.88378 13.8288C8.81418 13.7578 8.81418 13.6334 8.88378 13.5624C8.89242 13.5533 8.9097 13.5446 8.91882 13.5355C8.8929 13.5446 8.87514 13.5624 8.85786 13.5797C8.78826 13.6507 8.78826 13.775 8.85786 13.8461C8.91882 13.908 9.00618 13.9171 9.08442 13.873C9.01434 13.8998 8.9361 13.8821 8.88378 13.8288Z" fill="url(#paint11_linear_1677_1687)"/>
</g>
<path opacity="0.3" d="M9.04932 13.6507C9.06852 13.6507 9.08436 13.6349 9.08436 13.6152C9.08436 13.5955 9.06852 13.5797 9.04932 13.5797C9.03012 13.5797 9.01428 13.5955 9.01428 13.6152C9.01428 13.6349 9.03012 13.6507 9.04932 13.6507Z" fill="white"/>
<path opacity="0.2" d="M10.1126 13.7664C10.2138 13.7664 10.2954 13.6829 10.2954 13.5802C10.2954 13.4774 10.2134 13.3939 10.1126 13.3939C10.0118 13.3939 9.92969 13.4774 9.92969 13.5802C9.92969 13.6829 10.0118 13.7664 10.1126 13.7664Z" fill="white"/>
<g opacity="0.4">
<path opacity="0.6" d="M10.0084 13.6954C9.93882 13.6243 9.93882 13.5 10.0084 13.429C10.0171 13.4199 10.0343 13.4112 10.0435 13.4026C10.0175 13.4117 9.99978 13.429 9.9825 13.4467C9.9129 13.5178 9.9129 13.6421 9.9825 13.7131C10.0435 13.7751 10.1308 13.7842 10.2091 13.7395C10.139 13.7664 10.0607 13.7487 10.0084 13.6954Z" fill="url(#paint12_linear_1677_1687)"/>
</g>
<path opacity="0.3" d="M10.1736 13.5178C10.1928 13.5178 10.2086 13.5019 10.2086 13.4822C10.2086 13.4626 10.1928 13.4467 10.1736 13.4467C10.1544 13.4467 10.1385 13.4626 10.1385 13.4822C10.139 13.5019 10.1544 13.5178 10.1736 13.5178Z" fill="white"/>
<path opacity="0.2" d="M7.30607 13.3579C7.52735 13.3579 7.70687 13.175 7.70687 12.9494C7.70687 12.7238 7.52735 12.541 7.30607 12.541C7.08479 12.541 6.90527 12.7238 6.90527 12.9494C6.90527 13.175 7.08479 13.3579 7.30607 13.3579Z" fill="white"/>
<g opacity="0.4">
<path opacity="0.6" d="M7.07995 13.2072C6.92299 13.0473 6.92299 12.7901 7.07995 12.6302C7.10587 12.6038 7.13227 12.5861 7.16731 12.5683C7.11499 12.5861 7.07131 12.6216 7.02763 12.6571C6.87067 12.8169 6.87067 13.0742 7.02763 13.2341C7.15819 13.367 7.35883 13.3939 7.51579 13.296C7.36747 13.3579 7.19323 13.3315 7.07995 13.2072Z" fill="url(#paint13_linear_1677_1687)"/>
</g>
<path opacity="0.3" d="M7.44576 12.8256C7.49376 12.8256 7.53312 12.7858 7.53312 12.7368C7.53312 12.6879 7.49424 12.648 7.44576 12.648C7.39776 12.648 7.3584 12.6879 7.3584 12.7368C7.3584 12.7858 7.39728 12.8256 7.44576 12.8256Z" fill="white"/>
<path opacity="0.2" d="M10.8887 12.3552C11.11 12.3552 11.2895 12.1723 11.2895 11.9467C11.2895 11.7211 11.11 11.5383 10.8887 11.5383C10.6674 11.5383 10.4879 11.7211 10.4879 11.9467C10.4879 12.1723 10.667 12.3552 10.8887 12.3552Z" fill="white"/>
<g opacity="0.4">
<path opacity="0.6" d="M10.6531 12.204C10.4961 12.0442 10.4961 11.7869 10.6531 11.627C10.679 11.6002 10.7054 11.5829 10.7404 11.5651C10.6881 11.5829 10.6444 11.6184 10.6008 11.6539C10.4438 11.8138 10.4438 12.071 10.6008 12.2309C10.7313 12.3638 10.932 12.3907 11.0889 12.2928C10.9406 12.3552 10.775 12.3283 10.6531 12.204Z" fill="url(#paint14_linear_1677_1687)"/>
</g>
<path opacity="0.3" d="M11.0279 11.8224C11.0759 11.8224 11.1153 11.7825 11.1153 11.7336C11.1153 11.6846 11.0764 11.6448 11.0279 11.6448C10.9799 11.6448 10.9406 11.6846 10.9406 11.7336C10.9406 11.7825 10.9794 11.8224 11.0279 11.8224Z" fill="white"/>
</g>
</g>
<rect x="0.5" y="0.5" width="17" height="17" rx="4.5" stroke="#1F1A34"/>
<defs>
<radialGradient id="paint0_radial_1677_1687" cx="0" cy="0" r="1" gradientUnits="userSpaceOnUse" gradientTransform="translate(14.0591 4.63335) scale(3.89562 3.96696)">
<stop stop-color="#FBEAF3" stop-opacity="0.6"/>
<stop offset="0.6807" stop-color="#A087BF"/>
<stop offset="1" stop-color="#17102E"/>
</radialGradient>
<radialGradient id="paint1_radial_1677_1687" cx="0" cy="0" r="1" gradientUnits="userSpaceOnUse" gradientTransform="translate(11.8918 6.32462) scale(9.53115 9.70572)">
<stop stop-color="#FBEAF3" stop-opacity="0.6"/>
<stop offset="0.6807" stop-color="#A087BF"/>
<stop offset="1" stop-color="#17102E"/>
</radialGradient>
<linearGradient id="paint2_linear_1677_1687" x1="7.85801" y1="14.6393" x2="9.47353" y2="4.85187" gradientUnits="userSpaceOnUse">
<stop stop-color="#9AD9E5"/>
<stop offset="0.6202" stop-color="white" stop-opacity="0"/>
</linearGradient>
<linearGradient id="paint3_linear_1677_1687" x1="12.1439" y1="6.42535" x2="8.04822" y2="10.1157" gradientUnits="userSpaceOnUse">
<stop offset="0.2888" stop-color="white"/>
<stop offset="0.7796" stop-color="white" stop-opacity="0"/>
</linearGradient>
<linearGradient id="paint4_linear_1677_1687" x1="4.02888" y1="12.0577" x2="13.2941" y2="12.0577" gradientUnits="userSpaceOnUse">
<stop stop-color="#384EA2"/>
<stop offset="0.9952" stop-color="#D54799"/>
</linearGradient>
<linearGradient id="paint5_linear_1677_1687" x1="13.7559" y1="10.1425" x2="8.63006" y2="14.8996" gradientUnits="userSpaceOnUse">
<stop offset="0.2888" stop-color="white"/>
<stop offset="0.7796" stop-color="white" stop-opacity="0"/>
</linearGradient>
<linearGradient id="paint6_linear_1677_1687" x1="4.02888" y1="12.0577" x2="8.97962" y2="12.0577" gradientUnits="userSpaceOnUse">
<stop stop-color="#2B2F82"/>
<stop offset="0.9952" stop-color="#72439A"/>
</linearGradient>
<linearGradient id="paint7_linear_1677_1687" x1="4.03902" y1="10.1342" x2="13.2856" y2="10.1342" gradientUnits="userSpaceOnUse">
<stop stop-color="#2B2F82"/>
<stop offset="0.9952" stop-color="#A14298"/>
</linearGradient>
<linearGradient id="paint8_linear_1677_1687" x1="13.146" y1="5.09455" x2="12.4638" y2="6.1832" gradientUnits="userSpaceOnUse">
<stop offset="0.2888" stop-color="white"/>
<stop offset="0.7796" stop-color="white" stop-opacity="0"/>
</linearGradient>
<linearGradient id="paint9_linear_1677_1687" x1="8.09711" y1="13.2004" x2="8.46587" y2="13.2004" gradientUnits="userSpaceOnUse">
<stop offset="0.2888" stop-color="white"/>
<stop offset="0.7796" stop-color="white" stop-opacity="0"/>
</linearGradient>
<linearGradient id="paint10_linear_1677_1687" x1="9.3685" y1="13.0761" x2="9.73727" y2="13.0761" gradientUnits="userSpaceOnUse">
<stop offset="0.2888" stop-color="white"/>
<stop offset="0.7796" stop-color="white" stop-opacity="0"/>
</linearGradient>
<linearGradient id="paint11_linear_1677_1687" x1="8.80416" y1="13.7183" x2="9.08101" y2="13.7183" gradientUnits="userSpaceOnUse">
<stop offset="0.2888" stop-color="white"/>
<stop offset="0.7796" stop-color="white" stop-opacity="0"/>
</linearGradient>
<linearGradient id="paint12_linear_1677_1687" x1="9.92486" y1="13.5852" x2="10.2017" y2="13.5852" gradientUnits="userSpaceOnUse">
<stop offset="0.2888" stop-color="white"/>
<stop offset="0.7796" stop-color="white" stop-opacity="0"/>
</linearGradient>
<linearGradient id="paint13_linear_1677_1687" x1="6.90578" y1="12.9613" x2="7.50799" y2="12.9613" gradientUnits="userSpaceOnUse">
<stop offset="0.2888" stop-color="white"/>
<stop offset="0.7796" stop-color="white" stop-opacity="0"/>
</linearGradient>
<linearGradient id="paint14_linear_1677_1687" x1="10.4825" y1="11.9583" x2="11.0847" y2="11.9583" gradientUnits="userSpaceOnUse">
<stop offset="0.2888" stop-color="white"/>
<stop offset="0.7796" stop-color="white" stop-opacity="0"/>
</linearGradient>
<clipPath id="clip0_1677_1687">
<rect x="1" y="1" width="16" height="16" rx="4" fill="white"/>
</clipPath>
<clipPath id="clip1_1677_1687">
<rect width="12" height="12" fill="white" transform="translate(3 3)"/>
</clipPath>
</defs>
</svg>
