<svg width="18" height="18" viewBox="0 0 18 18" fill="none" xmlns="http://www.w3.org/2000/svg">
<g clip-path="url(#clip0_1758_7838)">
<rect x="1" y="1" width="16" height="16" rx="4" fill="white" fill-opacity="0.08"/>
<path d="M9 3.5104C12.0284 3.5104 14.4783 5.9603 14.4783 8.98866C14.4783 12.017 12.0284 14.4669 9 14.4669C5.97164 14.4669 3.52174 12.017 3.52174 8.98866C3.52174 5.9603 5.97164 3.5104 9 3.5104ZM9 3C8.19471 3 7.4121 3.15879 6.66351 3.47637C5.94896 3.78261 5.3138 4.21361 4.75803 4.75803C4.21361 5.30246 3.77127 5.94896 3.47637 6.66352C3.15879 7.40076 3 8.18337 3 9C3 9.80529 3.15879 10.5879 3.47637 11.3365C3.78261 12.051 4.21361 12.6862 4.75803 13.242C5.30246 13.7864 5.94896 14.2287 6.66351 14.5236C7.40075 14.8412 8.18336 15 9 15C9.81663 15 10.5879 14.8412 11.3365 14.5236C12.051 14.2174 12.6862 13.7864 13.242 13.242C13.7864 12.6975 14.2287 12.051 14.5236 11.3365C14.8412 10.5992 15 9.81664 15 9C15 8.19471 14.8412 7.4121 14.5236 6.66352C14.2174 5.94896 13.7864 5.3138 13.242 4.75803C12.6975 4.21361 12.051 3.77127 11.3365 3.47637C10.5879 3.15879 9.80529 3 9 3Z" fill="white"/>
<path d="M9 4.16824C6.33459 4.16824 4.17958 6.32325 4.17958 8.98866C4.17958 11.6541 6.33459 13.8091 9 13.8091C11.6654 13.8091 13.8204 11.6541 13.8204 8.98866C13.8091 6.32325 11.6541 4.16824 9 4.16824ZM7.61626 8.41021L6.87902 9.14745H7.61626V9.95274C7.61626 10.5312 7.15123 10.9849 6.58412 10.9849C6.00567 10.9849 5.55199 10.5198 5.55199 9.95274V8.03592C5.55199 7.45747 6.01701 7.00378 6.58412 7.00378C7.16257 7.00378 7.61626 7.46881 7.61626 8.03592V8.41021ZM12.4594 9.14745V9.95274C12.4594 10.5312 11.9943 10.9849 11.4272 10.9849C10.8601 10.9849 10.3951 10.5198 10.3951 9.95274V8.03592C10.3951 7.45747 10.8601 7.00378 11.4272 7.00378C11.9943 7.00378 12.4594 7.46881 12.4594 8.03592V8.42155L11.7221 9.15879H12.4594V9.14745Z" fill="white"/>
</g>
<rect x="0.5" y="0.5" width="17" height="17" rx="4.5" stroke="#1F1A34"/>
<defs>
<clipPath id="clip0_1758_7838">
<rect x="1" y="1" width="16" height="16" rx="4" fill="white"/>
</clipPath>
</defs>
</svg>
