<svg width="18" height="18" viewBox="0 0 18 18" fill="none" xmlns="http://www.w3.org/2000/svg">
<g clip-path="url(#clip0_1766_5920)">
<rect x="1" y="1" width="16" height="16" rx="4" fill="white" fill-opacity="0.08"/>
<path d="M12.3306 8.33995C12.3306 8.80217 12.2245 9.22647 12.0124 9.61288C11.8002 9.99176 11.4744 10.2986 11.0349 10.5335C10.5954 10.7684 10.0499 10.8859 9.39827 10.8859H8.19352V13.75H6.25V5.77132H9.39827C10.0347 5.77132 10.5727 5.88119 11.0122 6.10093C11.4516 6.32066 11.7812 6.62376 12.001 7.01017C12.2207 7.39663 12.3306 7.83989 12.3306 8.33995ZM9.2505 9.34013C9.6218 9.34013 9.89838 9.25301 10.0802 9.07871C10.2621 8.90445 10.353 8.65819 10.353 8.33995C10.353 8.02172 10.2621 7.77545 10.0802 7.6012C9.89838 7.4269 9.6218 7.33977 9.2505 7.33977H8.19352V9.34013H9.2505Z" fill="white"/>
<path d="M12.3307 3.75H6.25006V5.03405H12.3307V3.75Z" fill="#E50913"/>
</g>
<rect x="0.5" y="0.5" width="17" height="17" rx="4.5" stroke="#1F1A34"/>
<defs>
<clipPath id="clip0_1766_5920">
<rect x="1" y="1" width="16" height="16" rx="4" fill="white"/>
</clipPath>
</defs>
</svg>
