<svg width="18" height="18" viewBox="0 0 18 18" fill="none" xmlns="http://www.w3.org/2000/svg">
<g clip-path="url(#clip0_1766_5969)">
<rect x="1" y="1" width="16" height="16" rx="4" fill="white" fill-opacity="0.08"/>
<path fill-rule="evenodd" clip-rule="evenodd" d="M13.9158 11.8587C14.0074 11.7847 14.1673 11.9805 14.1916 12.1508C14.2159 12.3211 14.1402 12.3968 14.078 12.4131C14.0158 12.4293 13.908 12.273 13.8807 12.1048C13.8617 11.9885 13.8455 11.9155 13.9158 11.8587Z" fill="url(#paint0_linear_1766_5969)"/>
<path fill-rule="evenodd" clip-rule="evenodd" d="M8.15884 9.0772C7.94781 8.76057 8.27315 8.30552 8.62753 8.15121C8.98196 7.99687 9.31918 7.98543 9.48495 8.15121C9.65073 8.31699 9.57643 8.81421 9.08483 9.0772C8.59319 9.34011 8.31889 9.3172 8.15884 9.0772Z" fill="#EDECEC"/>
<path fill-rule="evenodd" clip-rule="evenodd" d="M14.2798 10.2814C14.9992 10.6163 15.5001 11.3638 15.5001 12.2313C15.5001 13.4117 14.5726 14.3701 13.4303 14.3701C12.7699 14.3701 12.1813 14.0498 11.8026 13.551C11.679 13.3708 11.5962 12.9932 11.9112 12.6092C12.0875 12.3942 12.4947 12.1427 13.0726 11.8687C13.5207 11.6593 13.9621 11.4095 14.2443 11.1148C14.3499 11.0045 14.4195 10.8806 14.4555 10.7625C14.5082 10.5897 14.4511 10.3679 14.2798 10.2814Z" fill="#848788"/>
<path fill-rule="evenodd" clip-rule="evenodd" d="M14.4162 10.8647C15.0247 11.2635 15.0744 11.8755 15.0972 12.2349C15.1215 12.6164 14.8612 13.7303 13.7109 13.9059C12.5845 14.0779 12.065 13.2302 11.89 12.6358C11.8969 12.6269 11.9039 12.618 11.9112 12.6092C12.0875 12.3942 12.4947 12.1426 13.0725 11.8687C13.5207 11.6593 13.962 11.4095 14.2443 11.1148C14.3197 11.0361 14.3767 10.9504 14.4162 10.8647Z" fill="url(#paint1_linear_1766_5969)"/>
<path fill-rule="evenodd" clip-rule="evenodd" d="M13.7314 11.5171C13.7554 11.5569 13.7782 11.5924 13.8021 11.6195C14.2751 12.1569 14.537 11.6812 14.8309 11.9807C14.9806 12.1333 15.0616 12.2506 15.0898 12.4269C15.0343 12.9019 14.7048 13.7542 13.7109 13.9059C12.5845 14.0779 12.065 13.2302 11.89 12.6358C11.8969 12.6269 11.9039 12.618 11.9112 12.6092C12.0875 12.3942 12.4947 12.1427 13.0725 11.8687C13.3005 11.7622 13.5269 11.6452 13.7314 11.5171Z" fill="url(#paint2_linear_1766_5969)"/>
<path fill-rule="evenodd" clip-rule="evenodd" d="M13.5587 11.6199C13.7752 11.7467 14.0054 11.9499 14.2254 12.3499C14.4164 12.6971 14.6492 12.905 14.9146 13.0168C14.723 13.4117 14.3577 13.8071 13.7109 13.9059C12.5845 14.0778 12.065 13.2302 11.89 12.6357C11.8969 12.6269 11.9039 12.618 11.9112 12.6091C12.0875 12.3942 12.4947 12.1426 13.0725 11.8687C13.238 11.7914 13.4026 11.7085 13.5587 11.6199Z" fill="url(#paint3_linear_1766_5969)"/>
<path fill-rule="evenodd" clip-rule="evenodd" d="M12.1611 12.3834C12.3535 12.5315 12.3808 12.686 12.4576 13.0462C12.5417 13.4405 13.2329 14.1269 14.2023 13.7539C14.06 13.8245 13.8971 13.8775 13.7109 13.9059C12.5845 14.0779 12.065 13.2302 11.89 12.6358C11.8969 12.6269 11.9039 12.618 11.9112 12.6092C11.9697 12.5377 12.0538 12.4623 12.1611 12.3834Z" fill="url(#paint4_linear_1766_5969)"/>
<path fill-rule="evenodd" clip-rule="evenodd" d="M13.4643 11.7939C13.6523 11.6784 13.7184 11.7776 13.7508 11.8155C13.7833 11.8534 13.7102 12.0751 13.5588 12.1508C13.4074 12.2265 13.2858 12.1967 13.2425 12.1508C13.1992 12.1049 13.3101 11.8885 13.4643 11.7939Z" fill="#EDECEC"/>
<path fill-rule="evenodd" clip-rule="evenodd" d="M13.0391 11.885L13.0388 11.8846C13.0542 11.4482 13.1757 10.9863 13.3533 10.6521C13.5283 10.3229 13.9553 10.1531 14.2461 10.2667L14.2797 10.2814C14.451 10.3679 14.508 10.5897 14.4554 10.7625C14.4194 10.8806 14.3498 11.0045 14.2442 11.1148C13.962 11.4095 13.5206 11.6593 13.0724 11.8687L13.0391 11.885Z" fill="url(#paint5_linear_1766_5969)"/>
<path fill-rule="evenodd" clip-rule="evenodd" d="M6.65383 14.2265C4.79456 13.3889 3.5 11.5192 3.5 9.34946C3.5 6.39702 5.89703 4 8.84943 4C10.5562 4 12.0774 4.80108 13.0562 6.04867C13.3758 6.49925 13.5897 7.44389 12.7755 8.40434C12.3197 8.94196 11.2674 9.57117 9.77401 10.2562C8.61561 10.7801 7.4749 11.4049 6.7455 12.142C6.47272 12.4177 6.2927 12.7279 6.1997 13.0232C6.06353 13.4552 6.21097 14.01 6.65383 14.2265Z" fill="url(#paint6_linear_1766_5969)"/>
<path fill-rule="evenodd" clip-rule="evenodd" d="M6.27673 12.82C5.71268 12.4375 5.28885 11.8557 4.83019 10.759C4.17312 9.18769 4.64692 5.15402 8.70131 4.7166C10.5468 4.51754 12.5122 6.12398 12.9941 8.11049C12.9314 8.20794 12.8588 8.30608 12.7755 8.40433C12.3197 8.94195 11.2673 9.57116 9.77401 10.2561C8.61561 10.7801 7.4749 11.4049 6.7455 12.142C6.53467 12.3551 6.37932 12.5886 6.27673 12.82Z" fill="url(#paint7_linear_1766_5969)"/>
<path fill-rule="evenodd" clip-rule="evenodd" d="M4.61877 9.90295C4.81601 9.02523 5.29537 8.17848 6.34433 7.71637C6.59998 7.6038 7.89704 7.26606 8.8814 7.46795C9.83708 7.66386 9.83239 8.31786 10.7254 8.32051C11.3714 8.32236 11.8146 8.28938 12.034 8.40894C12.1746 8.48549 12.3213 8.59397 12.4597 8.71406C11.9123 9.17833 10.9891 9.69874 9.77401 10.2561C8.61561 10.7801 7.47489 11.4049 6.7455 12.142C6.53467 12.355 6.37932 12.5886 6.27673 12.82C5.71267 12.4375 5.28884 11.8557 4.83018 10.759C4.73132 10.5225 4.65804 10.2303 4.61877 9.90295Z" fill="url(#paint8_linear_1766_5969)"/>
<path fill-rule="evenodd" clip-rule="evenodd" d="M9.22724 7.57245C9.85292 7.83211 9.95571 8.31821 10.7254 8.32054C11.3714 8.32238 11.8146 8.28941 12.034 8.40897C12.1746 8.48552 12.3213 8.594 12.4597 8.71408C11.9123 9.17836 10.9891 9.69877 9.774 10.2562C8.6156 10.7801 7.47488 11.4049 6.74549 12.142C6.67957 12.2087 6.61907 12.2773 6.56394 12.3471C6.0849 11.6444 5.58042 10.4032 6.24755 9.27276C6.95267 8.07809 7.98145 7.59953 9.22724 7.57245Z" fill="url(#paint9_linear_1766_5969)"/>
<path fill-rule="evenodd" clip-rule="evenodd" d="M9.86031 10.2155L9.86083 10.2164C9.82091 11.3081 9.50716 12.4632 9.04802 13.2993C8.59586 14.1227 7.49222 14.5473 6.74068 14.2633L6.65386 14.2265C6.21101 14.01 6.0636 13.4552 6.19973 13.0232C6.29277 12.728 6.47276 12.4177 6.74554 12.142C7.47493 11.4049 8.61564 10.7801 9.77405 10.2562L9.86031 10.2155Z" fill="url(#paint10_linear_1766_5969)"/>
<path fill-rule="evenodd" clip-rule="evenodd" d="M9.28296 7.59674C9.85973 7.86114 9.97905 8.31831 10.7254 8.32052C11.3714 8.32236 11.8146 8.28938 12.034 8.40894C12.1746 8.48549 12.3213 8.59398 12.4596 8.71406C12.082 9.03443 11.5253 9.38147 10.8174 9.74898C10.3272 8.83137 9.78086 8.39282 9.28296 7.59674Z" fill="url(#paint11_linear_1766_5969)"/>
<path fill-rule="evenodd" clip-rule="evenodd" d="M9.9364 8.32272C10.142 8.24794 10.4223 8.44276 10.5651 8.78572C10.7081 9.12867 10.7406 9.55106 10.308 9.67166C9.95927 9.76883 9.84493 9.20867 9.81067 8.96289C9.77636 8.71711 9.7478 8.39133 9.9364 8.32272Z" fill="url(#paint12_linear_1766_5969)"/>
</g>
<rect x="0.5" y="0.5" width="17" height="17" rx="4.5" stroke="#1F1A34"/>
<defs>
<linearGradient id="paint0_linear_1766_5969" x1="13.9282" y1="11.8439" x2="14.1358" y2="12.3957" gradientUnits="userSpaceOnUse">
<stop stop-color="#ECEBEA"/>
<stop offset="1" stop-color="#D4D4D3"/>
</linearGradient>
<linearGradient id="paint1_linear_1766_5969" x1="15.1566" y1="11.6418" x2="14.1505" y2="12.3754" gradientUnits="userSpaceOnUse">
<stop stop-color="#BEC0BD"/>
<stop offset="1" stop-color="#ABADAD"/>
</linearGradient>
<linearGradient id="paint2_linear_1766_5969" x1="13.7178" y1="12.7441" x2="15.0593" y2="11.9476" gradientUnits="userSpaceOnUse">
<stop stop-color="#5C5E61"/>
<stop offset="1" stop-color="#5C5E61"/>
</linearGradient>
<linearGradient id="paint3_linear_1766_5969" x1="12.5138" y1="13.2593" x2="14.4213" y2="12.4628" gradientUnits="userSpaceOnUse">
<stop stop-color="#060808"/>
<stop offset="0.00510204" stop-color="#060808"/>
<stop offset="1" stop-color="#3C3D3F"/>
</linearGradient>
<linearGradient id="paint4_linear_1766_5969" x1="11.7351" y1="12.8525" x2="13.9069" y2="13.559" gradientUnits="userSpaceOnUse">
<stop stop-color="#595C5E"/>
<stop offset="1" stop-color="#1F2021"/>
</linearGradient>
<linearGradient id="paint5_linear_1766_5969" x1="13.259" y1="10.5891" x2="13.9618" y2="11.4217" gradientUnits="userSpaceOnUse">
<stop stop-color="#B9BBB9"/>
<stop offset="0.994898" stop-color="#7D8182"/>
<stop offset="1" stop-color="#7D8182"/>
</linearGradient>
<linearGradient id="paint6_linear_1766_5969" x1="3.49658" y1="11.1445" x2="13.0506" y2="5.66619" gradientUnits="userSpaceOnUse">
<stop stop-color="#AFB1AF"/>
<stop offset="0.994898" stop-color="#898C8D"/>
<stop offset="1" stop-color="#898C8D"/>
</linearGradient>
<linearGradient id="paint7_linear_1766_5969" x1="4.23309" y1="9.47411" x2="12.9576" y2="7.53199" gradientUnits="userSpaceOnUse">
<stop stop-color="#BEC0BD"/>
<stop offset="1" stop-color="#ABADAD"/>
</linearGradient>
<linearGradient id="paint8_linear_1766_5969" x1="4.6039" y1="10.1125" x2="8.26218" y2="10.1125" gradientUnits="userSpaceOnUse">
<stop stop-color="#818485"/>
<stop offset="1" stop-color="#28282A"/>
</linearGradient>
<linearGradient id="paint9_linear_1766_5969" x1="5.71194" y1="10.6291" x2="12.4152" y2="8.21306" gradientUnits="userSpaceOnUse">
<stop stop-color="#060808"/>
<stop offset="0.00510204" stop-color="#060808"/>
<stop offset="1" stop-color="#3C3D3F"/>
</linearGradient>
<linearGradient id="paint10_linear_1766_5969" x1="9.22949" y1="13.405" x2="7.53435" y2="11.4316" gradientUnits="userSpaceOnUse">
<stop stop-color="#B9BBB9"/>
<stop offset="0.994898" stop-color="#7D8182"/>
<stop offset="1" stop-color="#7D8182"/>
</linearGradient>
<linearGradient id="paint11_linear_1766_5969" x1="12.5263" y1="8.48525" x2="9.66896" y2="8.70174" gradientUnits="userSpaceOnUse">
<stop stop-color="#818485"/>
<stop offset="1" stop-color="#28282A"/>
</linearGradient>
<linearGradient id="paint12_linear_1766_5969" x1="9.91049" y1="8.22812" x2="10.4642" y2="9.66765" gradientUnits="userSpaceOnUse">
<stop stop-color="#ECEBEA"/>
<stop offset="1" stop-color="#D4D4D3"/>
</linearGradient>
<clipPath id="clip0_1766_5969">
<rect x="1" y="1" width="16" height="16" rx="4" fill="white"/>
</clipPath>
</defs>
</svg>
