<svg width="18" height="18" viewBox="0 0 18 18" fill="none" xmlns="http://www.w3.org/2000/svg">
<g clip-path="url(#clip0_1766_6005)">
<rect x="1" y="1" width="16" height="16" rx="4" fill="white" fill-opacity="0.08"/>
<path fill-rule="evenodd" clip-rule="evenodd" d="M10.0997 5.25096C8.76076 3.91202 6.58989 3.91202 5.25096 5.25096C3.91202 6.58989 3.91202 8.76076 5.25096 10.0997C6.58989 11.4386 8.76076 11.4386 10.0997 10.0997C11.4386 8.76076 11.4386 6.58989 10.0997 5.25096ZM4.36937 4.36937C6.19519 2.54354 9.15546 2.54354 10.9813 4.36937C12.8071 6.19519 12.8071 9.15546 10.9813 10.9813C9.15546 12.8071 6.19519 12.8071 4.36937 10.9813C2.54354 9.15546 2.54354 6.19519 4.36937 4.36937Z" fill="url(#paint0_linear_1766_6005)"/>
<path fill-rule="evenodd" clip-rule="evenodd" d="M12.749 7.90031C11.4101 6.56137 9.23924 6.56137 7.90031 7.90031C6.56137 9.23924 6.56137 11.4101 7.90031 12.749C9.23924 14.088 11.4101 14.088 12.749 12.749C14.088 11.4101 14.088 9.23924 12.749 7.90031ZM7.01872 7.01872C8.84454 5.19289 11.8048 5.19289 13.6306 7.01872C15.4565 8.84454 15.4565 11.8048 13.6306 13.6306C11.8048 15.4565 8.84454 15.4565 7.01872 13.6306C5.19289 11.8048 5.19289 8.84454 7.01872 7.01872Z" fill="url(#paint1_linear_1766_6005)"/>
<path fill-rule="evenodd" clip-rule="evenodd" d="M11.0302 6.96514C9.93231 6.73392 8.74578 7.04558 7.89572 7.89563C7.04564 8.74572 6.73399 9.93223 6.96522 11.0301C8.06307 11.2613 9.24961 10.9498 10.0997 10.0997C10.9498 9.24961 11.2614 8.06301 11.0302 6.96514ZM7.01414 7.01405C8.2894 5.73878 10.1186 5.35417 11.7274 5.86048L12.0373 5.95802L12.1349 6.26796C12.6412 7.87672 12.2565 9.70599 10.9813 10.9813C9.70598 12.2566 7.87677 12.6411 6.26804 12.1348L5.95811 12.0372L5.86057 11.7273C5.35424 10.1185 5.73884 8.28934 7.01414 7.01405Z" fill="url(#paint2_linear_1766_6005)"/>
</g>
<rect x="0.5" y="0.5" width="17" height="17" rx="4.5" stroke="#1F1A34"/>
<defs>
<linearGradient id="paint0_linear_1766_6005" x1="3" y1="3" x2="17.1176" y2="6.52941" gradientUnits="userSpaceOnUse">
<stop stop-color="#E95062"/>
<stop offset="1" stop-color="#E950D0"/>
</linearGradient>
<linearGradient id="paint1_linear_1766_6005" x1="0.818176" y1="2.99999" x2="19.6305" y2="8.5582" gradientUnits="userSpaceOnUse">
<stop stop-color="#5084E9"/>
<stop offset="1" stop-color="#6F50E9"/>
</linearGradient>
<linearGradient id="paint2_linear_1766_6005" x1="5.64477" y1="5.6447" x2="13.5341" y2="7.61703" gradientUnits="userSpaceOnUse">
<stop stop-color="#5084E9"/>
<stop offset="1" stop-color="#E95062"/>
</linearGradient>
<clipPath id="clip0_1766_6005">
<rect x="1" y="1" width="16" height="16" rx="4" fill="white"/>
</clipPath>
</defs>
</svg>
