<svg width="18" height="18" viewBox="0 0 18 18" fill="none" xmlns="http://www.w3.org/2000/svg">
<g clip-path="url(#clip0_1768_6083)">
<rect x="1" y="1" width="16" height="16" rx="4" fill="white" fill-opacity="0.08"/>
<path d="M8.46212 6.89514V6.90262L7.7584 3.18727L7.17447 3L6.80763 3.49438L8.46212 6.89514Z" fill="white"/>
<path d="M8.84393 5.34456L9.14339 6.78276L9.4653 5.32209L9.15087 5.11236L8.84393 5.34456Z" fill="white"/>
<path d="M11.0674 5.59926L10.6856 5.63672L10.2364 7.05994L11.2246 5.94384L11.0674 5.59926Z" fill="white"/>
<path d="M14.3314 5.89889V5.29214L13.74 5.10488L10.97 7.70413L14.3314 5.89889Z" fill="white"/>
<path d="M7.56374 7.43445L6.74024 6.1985L6.36593 6.25842L6.30604 6.63294L7.56374 7.43445Z" fill="white"/>
<path d="M12.8641 8.6929L11.3893 8.98504L12.8641 9.30713L13.0887 9.00002L12.8641 8.6929Z" fill="white"/>
<path d="M6.90495 8.99252L3.11683 8.51312L2.75 9.0075L3.11683 9.50189L6.90495 8.99252Z" fill="white"/>
<path d="M5.50498 9.81648L5.39269 10.1685L5.69962 10.3932L7.00975 9.65916L5.50498 9.81648Z" fill="white"/>
<path d="M5.93919 10.8577L5.92423 11.2322L6.28357 11.3596L7.33167 10.2584L5.93919 10.8577Z" fill="white"/>
<path d="M7.82576 10.7678L6.71029 11.7491L6.80761 12.1086L7.18942 12.1236L7.82576 10.7678Z" fill="white"/>
<path d="M9.15087 11.2022L8.85141 12.6554L9.15836 12.8727L9.4653 12.6479L9.15087 11.2022Z" fill="white"/>
<path d="M14.3389 12.0861L10.97 10.2959L13.755 12.8802L14.3389 12.6929V12.0861Z" fill="white"/>
<path d="M10.6257 12.3633L9.86954 11.0974L10.0417 12.5506L10.4011 12.6629L10.6257 12.3633Z" fill="white"/>
<path d="M8.4696 11.0974L6.83009 14.5056L7.19692 15L7.78085 14.8127L8.4696 11.0974Z" fill="white"/>
</g>
<rect x="0.5" y="0.5" width="17" height="17" rx="4.5" stroke="#1F1A34"/>
<defs>
<clipPath id="clip0_1768_6083">
<rect x="1" y="1" width="16" height="16" rx="4" fill="white"/>
</clipPath>
</defs>
</svg>
