<svg width="18" height="18" viewBox="0 0 18 18" fill="none" xmlns="http://www.w3.org/2000/svg">
<g clip-path="url(#clip0_1768_6173)">
<rect x="1" y="1" width="16" height="16" rx="4" fill="url(#paint0_linear_1768_6173)"/>
<path d="M14.2084 12.0089C14.1906 12.0445 14.1728 12.0801 14.155 12.0979L14.1194 12.1513C13.9947 12.3294 13.8523 12.4718 13.6743 12.5786L9.88199 14.7685C9.61493 14.9288 9.31225 15 9.02739 15C8.72472 15 8.43985 14.9288 8.17279 14.7685L4.84341 12.8635C4.8078 12.8279 4.77219 12.8101 4.73659 12.7923C4.70098 12.7389 4.68317 12.7033 4.68317 12.6499C4.71878 12.5252 5.00365 12.4718 5.02145 12.454C5.09267 12.4362 5.16389 12.4362 5.2351 12.4184H5.28851C5.41314 12.4006 5.53777 12.3828 5.6446 12.365C5.76923 12.3472 5.87605 12.3294 6.00068 12.3116C6.48139 12.2404 6.9443 12.1869 7.40721 12.1335C7.85231 12.0801 8.29742 12.0267 8.76033 11.9911C9.24104 11.9377 9.68614 11.9021 10.0778 11.8843C10.5051 11.8665 10.9324 11.8309 11.3419 11.8131C11.7514 11.7953 12.1609 11.7953 12.5704 11.7774C12.606 11.7774 12.6594 11.7774 12.695 11.7774H12.8197C13.1223 11.7774 13.4428 11.7774 13.7633 11.7953C13.7989 11.7953 13.8345 11.7953 13.8879 11.7953H13.9591C14.0838 11.8131 14.155 11.8487 14.1906 11.9021C14.2262 11.9377 14.2262 11.9733 14.2084 12.0089Z" fill="url(#paint1_linear_1768_6173)"/>
<path d="M14.4399 8.66172V9.90801C14.4399 10.3709 14.4399 10.3887 13.4784 10.4956L12.8553 10.549C12.7663 10.549 12.695 10.5668 12.606 10.5668L12.4102 10.6024C10.8256 10.7626 9.22323 10.905 7.63866 10.9941C6.9265 11.0297 6.23214 11.0653 5.51997 11.1009C5.19949 11.1187 4.86122 11.1187 4.54074 11.1365C4.3805 11.1365 4.22027 11.1365 4.06003 11.1365C3.9354 11.1365 3.73955 11.1721 3.63273 11.0831C3.54371 10.9941 3.56151 10.816 3.56151 10.6914V7.55786C3.56151 7.11276 3.70395 7.02374 4.61196 6.97033C4.77219 6.97033 4.91463 6.97033 5.12828 6.97033C7.7989 6.97033 10.6298 7.36202 14.0482 8.21662H14.066C14.1016 8.21662 14.1194 8.23442 14.155 8.23442C14.2974 8.28783 14.4399 8.25223 14.4399 8.66172Z" fill="url(#paint2_linear_1768_6173)"/>
<path d="M14.2084 6.59644C14.1906 6.61424 14.1728 6.61424 14.155 6.63205C14.0482 6.66766 13.9235 6.64985 13.8167 6.63205C13.6921 6.63205 13.5674 6.61424 13.4428 6.61424C13.2114 6.59644 12.9621 6.57864 12.7307 6.54303C12.4102 6.50742 12.0897 6.47181 11.787 6.4362C11.3063 6.38279 10.8256 6.32938 10.3627 6.27596C9.81077 6.22255 9.24104 6.15134 8.68911 6.09792C8.13718 6.04451 7.58525 5.97329 7.03332 5.91988C6.55261 5.86647 6.0897 5.81306 5.60899 5.77745C5.30632 5.74184 4.98584 5.70623 4.68317 5.67062C4.61196 5.67062 4.52294 5.65282 4.45172 5.65282C4.43392 5.65282 4.41611 5.65282 4.39831 5.65282C4.3449 5.63502 4.29148 5.63502 4.25587 5.59941C4.23807 5.5816 4.23807 5.54599 4.27368 5.49258L4.29148 5.47478C4.30929 5.45697 4.34489 5.43917 4.3627 5.42137C4.39831 5.40356 4.41611 5.38576 4.45172 5.36795L8.15498 3.23145C8.42205 3.08902 8.72472 3 9.02739 3C9.33006 3 9.63273 3.07122 9.88199 3.23145C9.88199 3.23145 13.5318 5.33234 13.5853 5.36795C13.8879 5.54599 14.1372 5.84866 14.2084 6.20475C14.2262 6.29377 14.2796 6.50742 14.2084 6.59644Z" fill="url(#paint3_linear_1768_6173)"/>
</g>
<rect x="0.5" y="0.5" width="17" height="17" rx="4.5" stroke="#1F1A34"/>
<defs>
<linearGradient id="paint0_linear_1768_6173" x1="3.6727" y1="14.1197" x2="13.4365" y2="4.73639" gradientUnits="userSpaceOnUse">
<stop offset="0.0156851" stop-color="#2E0E5B"/>
<stop offset="1" stop-color="#2E205B"/>
</linearGradient>
<linearGradient id="paint1_linear_1768_6173" x1="16.3001" y1="-29.9789" x2="-9.5587" y2="-18.3486" gradientUnits="userSpaceOnUse">
<stop offset="0.0403439" stop-color="#6AF2A6"/>
<stop offset="0.197" stop-color="#64EFAB"/>
<stop offset="0.4077" stop-color="#53E8B9"/>
<stop offset="0.6492" stop-color="#37DCD1"/>
<stop offset="0.9118" stop-color="#10CBF1"/>
<stop offset="1" stop-color="#01C5FD"/>
</linearGradient>
<linearGradient id="paint2_linear_1768_6173" x1="13.8963" y1="-12.4717" x2="-7.72126" y2="-1.4348" gradientUnits="userSpaceOnUse">
<stop offset="0.0403439" stop-color="#6AF2A6"/>
<stop offset="0.197" stop-color="#64EFAB"/>
<stop offset="0.4077" stop-color="#53E8B9"/>
<stop offset="0.6492" stop-color="#37DCD1"/>
<stop offset="0.9118" stop-color="#10CBF1"/>
<stop offset="1" stop-color="#01C5FD"/>
</linearGradient>
<linearGradient id="paint3_linear_1768_6173" x1="12.7812" y1="0.830207" x2="4.14405" y2="13.5102" gradientUnits="userSpaceOnUse">
<stop offset="0.0403439" stop-color="#6AF2A6"/>
<stop offset="0.197" stop-color="#64EFAB"/>
<stop offset="0.4077" stop-color="#53E8B9"/>
<stop offset="0.6492" stop-color="#37DCD1"/>
<stop offset="0.9118" stop-color="#10CBF1"/>
<stop offset="1" stop-color="#01C5FD"/>
</linearGradient>
<clipPath id="clip0_1768_6173">
<rect x="1" y="1" width="16" height="16" rx="4" fill="white"/>
</clipPath>
</defs>
</svg>
