<svg width="18" height="18" viewBox="0 0 18 18" fill="none" xmlns="http://www.w3.org/2000/svg">
<g clip-path="url(#clip0_1775_6111)">
<rect x="1" y="1" width="16" height="16" rx="4" fill="white" fill-opacity="0.08"/>
<path fill-rule="evenodd" clip-rule="evenodd" d="M8.96948 15C10.7474 15 12.3447 14.2268 13.4434 12.9981C12.9323 12.5538 12.1621 12.5269 11.618 12.9659L11.514 13.0498C10.5178 13.8537 9.06616 13.7349 8.21378 12.78C7.74886 12.2591 6.95268 12.2059 6.42263 12.6603L5.22418 13.6878C6.25065 14.509 7.55271 15 8.96948 15ZM10.9148 12.0947C11.8637 11.3289 13.1975 11.3564 14.1102 12.0958C14.6556 11.192 14.9695 10.1328 14.9695 8.9999C14.9695 7.74138 14.582 6.57332 13.9197 5.60856C13.4928 5.51764 13.0301 5.62382 12.6788 5.93509L12.5788 6.02368C11.6208 6.87268 10.1652 6.82109 9.26964 5.90642C8.78121 5.40754 7.9834 5.39115 7.47489 5.86957L6.08022 7.18164L5.31302 6.36615L6.70768 5.05405C7.66023 4.15788 9.15471 4.18858 10.0697 5.12308C10.5478 5.61139 11.3248 5.63892 11.8362 5.1857L11.9362 5.0971C12.2466 4.822 12.6059 4.63651 12.9819 4.53898C11.9189 3.58224 10.5122 3 8.96948 3C5.92366 3 3.40792 5.26954 3.02108 8.20964C3.94622 7.76572 5.08736 7.93672 5.84168 8.70917C6.31788 9.19682 7.08465 9.24828 7.62176 8.82851L8.40155 8.21934C9.38154 7.45375 10.7669 7.4908 11.7046 8.3078L13.2227 9.63045L12.4872 10.4745L10.9691 9.1519C10.4359 8.6874 9.64812 8.66642 9.09086 9.10163L8.31109 9.711C7.32426 10.4819 5.9155 10.3873 5.04059 9.49132C4.53184 8.97041 3.69976 8.95221 3.16874 9.45055L3 9.60888C3.12629 10.8621 3.63819 12.0012 4.41527 12.9065L5.69386 11.8103C6.68678 10.959 8.17825 11.0586 9.04912 12.0343C9.50416 12.5443 10.2791 12.6076 10.8109 12.1784L10.9148 12.0947Z" fill="#BA364E"/>
</g>
<rect x="0.5" y="0.5" width="17" height="17" rx="4.5" stroke="#1F1A34"/>
<defs>
<clipPath id="clip0_1775_6111">
<rect x="1" y="1" width="16" height="16" rx="4" fill="white"/>
</clipPath>
</defs>
</svg>
