<svg width="18" height="18" viewBox="0 0 18 18" fill="none" xmlns="http://www.w3.org/2000/svg">
<g clip-path="url(#clip0_1768_6206)">
<rect x="1" y="1" width="16" height="16" rx="4" fill="#142D52"/>
<path d="M9.023 15.4992C9.00892 15.5003 8.99478 15.5003 8.9807 15.4992C8.07439 15.4209 7.13478 15.0657 6.26477 14.4714C5.41246 13.8894 4.68885 13.1235 4.17195 12.2562C3.41414 10.9875 3.42524 9.37466 3.43124 8.41105L3.43214 8.17105V3.7469C3.43214 3.6104 3.54344 3.5 3.67994 3.5H14.3253C14.4618 3.5 14.5722 3.6104 14.5722 3.7469L14.5713 8.17135L14.5722 8.41135C14.5791 9.37496 14.5902 10.9878 13.8324 12.2565C13.3145 13.1238 12.5906 13.8894 11.7386 14.4717C10.8683 15.066 9.92901 15.4221 9.0227 15.4995L9.023 15.4992ZM4.17405 3.99381C4.03754 3.99381 3.92714 4.10421 3.92714 4.24071V8.17135L3.92624 8.41525C3.92234 8.90006 3.91814 9.50427 4.00244 10.1457C4.10085 10.8924 4.29465 11.5008 4.59555 12.0045C5.57206 13.6425 7.32768 14.8431 8.9777 15.0045C8.9939 15.0066 9.0098 15.0066 9.026 15.0045C10.6742 14.844 12.4304 13.6434 13.4081 12.0045C13.7081 11.5017 13.9029 10.8933 14.0013 10.1457C14.0856 9.50427 14.0817 8.90006 14.0787 8.41525L14.0778 8.17135L14.0787 4.24071C14.0787 4.10421 13.9683 3.99381 13.8318 3.99381H4.17405Z" fill="#00B6FA"/>
<path d="M13.16 8.97116C13.2323 9.02546 13.3355 8.97416 13.3355 8.88386L13.3334 8.38705L13.3343 4.84491C13.3343 4.78371 13.2851 4.73451 13.2239 4.73451H4.78005C4.71885 4.73451 4.66965 4.78371 4.66965 4.84491V7.02384C4.66962 7.11721 4.69138 7.20931 4.7332 7.2928C4.77502 7.37628 4.83575 7.44886 4.91055 7.50474L11.2622 12.2544C11.3174 12.2955 11.3213 12.3759 11.2712 12.423C11.1536 12.5337 11.0303 12.6382 10.9019 12.7362C10.8626 12.7662 10.8086 12.7662 10.7693 12.7371L4.84545 8.29765C4.77315 8.24335 4.66995 8.29465 4.66995 8.38585C4.66995 9.14666 4.60275 10.5669 5.24206 11.655C5.95667 12.8706 7.18308 13.83 8.44489 14.1402C8.62759 14.1843 8.8094 14.2164 8.9918 14.2326C8.9987 14.2335 9.0059 14.2335 9.0128 14.2326C9.83871 14.1582 10.679 13.7808 11.4005 13.2108C11.5811 13.0674 11.7548 12.9126 11.9195 12.747C12.2449 12.4198 12.5281 12.0533 12.7625 11.6559C12.9743 11.2965 13.1078 10.9011 13.193 10.5057C13.2119 10.4199 13.2283 10.3335 13.2422 10.2468C13.2794 10.02 13.1879 9.79107 13.0043 9.65367L7.62768 5.63182C7.54338 5.56852 7.58748 5.43412 7.69398 5.43412H8.40559C8.42959 5.43412 8.45269 5.44222 8.47189 5.45632L13.1603 8.97146L13.16 8.97116Z" fill="#00B6FA"/>
</g>
<rect x="0.5" y="0.5" width="17" height="17" rx="4.5" stroke="#1F1A34"/>
<defs>
<clipPath id="clip0_1768_6206">
<rect x="1" y="1" width="16" height="16" rx="4" fill="white"/>
</clipPath>
</defs>
</svg>
