<svg width="18" height="18" viewBox="0 0 18 18" fill="none" xmlns="http://www.w3.org/2000/svg">
<g clip-path="url(#clip0_1768_6240)">
<rect x="1" y="1" width="16" height="16" rx="4" fill="white" fill-opacity="0.08"/>
<path fill-rule="evenodd" clip-rule="evenodd" d="M8.7978 2.76933C8.70395 2.79903 8.72138 2.78831 6.44057 4.21793C3.87983 5.82303 4.02536 5.71665 3.96052 6.03067C3.94185 6.12101 4.3967 13.9339 4.43497 14.1805C4.47308 14.4261 4.65649 14.6385 4.90104 14.7202L4.99019 14.75L9.02264 14.7463L13.0551 14.7427L13.1383 14.7091C13.3277 14.6327 13.4884 14.4596 13.5484 14.2675C13.5914 14.1297 14.0766 6.19915 14.0511 6.05042C14.0291 5.92209 13.9512 5.77223 13.8595 5.68208C13.7451 5.56961 9.33951 2.81832 9.20948 2.77816C9.10117 2.74472 8.88995 2.74017 8.7978 2.76933ZM10.9907 5.07707C12.9459 6.29682 12.9805 6.32004 13.0012 6.42496C13.0137 6.48807 12.5879 13.5069 12.5686 13.5569C12.5462 13.615 12.5011 13.6655 12.4473 13.6929C12.3926 13.7209 12.3507 13.7212 8.99332 13.7212H5.59474L5.54652 13.6887C5.47208 13.6386 5.43667 13.5749 5.4271 13.4743C5.42247 13.4254 5.32164 11.8201 5.20303 9.90678L4.98737 6.42805L5.01954 6.36726C5.04511 6.31892 5.08126 6.28768 5.19609 6.21466C5.27551 6.16417 6.14734 5.6174 7.13341 4.99961L8.92636 3.87637L9.00493 3.88177C9.08108 3.88706 9.14283 3.92424 10.9907 5.07707ZM7.62684 6.12602L6.25584 6.98631L6.25954 7.05721C6.26159 7.09621 6.30151 7.73652 6.34834 8.48013C6.39513 9.22373 6.43339 9.84892 6.43339 9.86945V9.90678H8.31918H10.205L10.2048 9.95319C10.2047 9.97872 10.1887 10.2407 10.1693 10.5354C10.1498 10.83 10.1338 11.0888 10.1337 11.1104L10.1335 11.1497H9.00698H7.88042L7.87181 11.039C7.86711 10.9781 7.85608 10.7868 7.84736 10.6139C7.8386 10.4411 7.82857 10.2852 7.82506 10.2675L7.81862 10.2353H7.14032H6.46197L6.4619 10.3032C6.46178 10.3836 6.57222 12.3024 6.5844 12.4319L6.59281 12.5211H9.00605C10.3333 12.5211 11.4193 12.5163 11.4194 12.5105C11.4194 12.5046 11.474 11.62 11.5408 10.5448C11.6076 9.4696 11.6622 8.5776 11.6622 8.56259C11.6622 8.53586 11.6219 8.53528 9.69068 8.53528C8.12289 8.53528 7.71922 8.53162 7.71937 8.51743C7.71949 8.50763 7.70884 8.32722 7.69569 8.11661C7.67517 7.78743 7.67463 7.73096 7.69191 7.71465C7.7105 7.69709 8.91328 6.94041 8.97581 6.90697C8.99938 6.89432 9.10422 6.9548 9.66503 7.30438L10.3264 7.71669L10.3212 7.969L10.3159 8.22126L10.9998 8.21756L11.6836 8.21386L11.7146 7.68525C11.7317 7.39453 11.7462 7.11769 11.7468 7.07001L11.7479 6.98338L10.4014 6.14241C9.66086 5.67989 9.04208 5.29339 9.02638 5.28359C9.00069 5.2675 8.85832 5.35321 7.62684 6.12602Z" fill="#E4AC4C"/>
</g>
<rect x="0.5" y="0.5" width="17" height="17" rx="4.5" stroke="#1F1A34"/>
<defs>
<clipPath id="clip0_1768_6240">
<rect x="1" y="1" width="16" height="16" rx="4" fill="white"/>
</clipPath>
</defs>
</svg>
