<svg width="18" height="18" viewBox="0 0 18 18" fill="none" xmlns="http://www.w3.org/2000/svg">
<g clip-path="url(#clip0_1768_6255)">
<rect x="1" y="1" width="16" height="16" rx="4" fill="white" fill-opacity="0.08"/>
<path d="M9 15C12.3137 15 15 12.3137 15 9C15 5.68629 12.3137 3 9 3C5.68629 3 3 5.68629 3 9C3 12.3137 5.68629 15 9 15Z" fill="url(#paint0_linear_1768_6255)"/>
<path d="M9 14.625C12.1066 14.625 14.625 12.1066 14.625 9C14.625 5.8934 12.1066 3.375 9 3.375C5.8934 3.375 3.375 5.8934 3.375 9C3.375 12.1066 5.8934 14.625 9 14.625Z" fill="url(#paint1_linear_1768_6255)"/>
<path fill-rule="evenodd" clip-rule="evenodd" d="M13.78 7.69039C13.1883 5.68644 11.2723 4.21875 9.00001 4.21875C6.72774 4.21875 4.81172 5.68646 4.21994 7.69042C4.27721 5.50598 6.39539 3.75 9 3.75C11.6046 3.75 13.7227 5.50596 13.78 7.69039Z" fill="url(#paint2_linear_1768_6255)"/>
<path d="M11.6874 5.95471C11.7967 5.54969 11.6181 5.05191 11.1833 5.06267C10.3473 5.05107 10.211 6.21809 10.3049 7.23768L9.41821 7.99388C9.08786 7.71144 8.62619 7.65594 8.21102 7.75451C6.82274 8.09493 6.31132 10.0745 6.89208 11.21C6.60822 11.8759 6.64819 12.6934 7.03563 13.3113C7.36191 13.9623 8.3505 14.1735 8.15392 13.7461C8.10743 13.6882 8.10743 13.7089 8.03647 13.7014C7.10904 13.6426 6.8774 12.2495 7.13351 11.5819C7.95571 12.5493 9.76732 12.218 10.4068 11.3566C11.3522 10.0894 11.03 8.55295 10.835 7.17307C11.1801 6.82935 11.5651 6.44835 11.6874 5.95471ZM7.04461 10.7959C6.57233 8.95383 8.14821 7.46296 9.16291 8.21336H9.16372C8.28361 8.90993 7.56093 9.79119 7.04461 10.7959ZM10.0079 11.0121C9.46144 11.9844 7.8358 12.1973 7.22732 11.2183C7.40432 10.6965 7.67593 10.2128 8.02749 9.79203L8.03239 9.79037C8.43043 9.31578 8.86519 8.87432 9.33257 8.4693C9.54219 9.11451 9.02506 9.98666 8.41983 9.94443C8.45572 10.5143 9.30157 10.0712 9.46633 9.84338C9.86194 9.41103 9.89782 8.61838 9.6156 8.21917L10.3391 7.61039C10.4892 9.34062 10.592 9.85249 10.0079 11.0121ZM10.7861 6.77882C10.6352 5.15875 11.2673 5.31695 11.3481 5.45609C11.5659 5.89921 10.9884 6.6405 10.7861 6.77882Z" fill="#987918"/>
<path d="M11.4999 5.86096C11.6092 5.45594 11.4306 4.95816 10.9958 4.96892C10.1598 4.95732 10.0235 6.12434 10.1174 7.14393L9.23071 7.90013C8.90036 7.61769 8.43869 7.56219 8.02352 7.66076C6.63524 8.00118 6.12382 9.98071 6.70458 11.1163C6.42072 11.7822 6.46069 12.5996 6.84813 13.2175C7.17441 13.8685 8.163 14.0798 7.96642 13.6523C7.91993 13.5944 7.91993 13.6151 7.84897 13.6076C6.92154 13.5488 6.6899 12.1557 6.94601 11.4881C7.76821 12.4555 9.57982 12.1242 10.2193 11.2629C11.1647 9.99562 10.8425 8.4592 10.6475 7.07932C10.9926 6.7356 11.3776 6.3546 11.4999 5.86096ZM6.85711 10.7021C6.38483 8.86008 7.96071 7.36921 8.97541 8.11961H8.97622C8.09611 8.81618 7.37343 9.69744 6.85711 10.7021ZM9.82044 10.9183C9.27394 11.8907 7.6483 12.1035 7.03982 11.1245C7.21682 10.6027 7.48843 10.119 7.83999 9.69828L7.84489 9.69662C8.24293 9.22203 8.67769 8.78057 9.14507 8.37555C9.35469 9.02076 8.83756 9.89291 8.23233 9.85068C8.26822 10.4205 9.11407 9.9774 9.27883 9.74963C9.67444 9.31728 9.71032 8.52463 9.4281 8.12542L10.1516 7.51664C10.3017 9.24687 10.4045 9.75874 9.82044 10.9183ZM10.5986 6.68507C10.4477 5.065 11.0798 5.2232 11.1606 5.36234C11.3784 5.80546 10.8009 6.54675 10.5986 6.68507Z" fill="url(#paint3_linear_1768_6255)"/>
</g>
<rect x="0.5" y="0.5" width="17" height="17" rx="4.5" stroke="#1F1A34"/>
<defs>
<linearGradient id="paint0_linear_1768_6255" x1="9" y1="3" x2="9" y2="15" gradientUnits="userSpaceOnUse">
<stop stop-color="#FADC7E"/>
<stop offset="1" stop-color="#50400F"/>
</linearGradient>
<linearGradient id="paint1_linear_1768_6255" x1="9" y1="3" x2="9" y2="15" gradientUnits="userSpaceOnUse">
<stop stop-color="#DAAB16"/>
<stop offset="1" stop-color="#A78A30"/>
</linearGradient>
<linearGradient id="paint2_linear_1768_6255" x1="9.00002" y1="2.429" x2="9.00002" y2="18.9881" gradientUnits="userSpaceOnUse">
<stop stop-color="#FCD24F"/>
<stop offset="1" stop-color="#C39C22"/>
</linearGradient>
<linearGradient id="paint3_linear_1768_6255" x1="9" y1="4.96875" x2="9" y2="13.875" gradientUnits="userSpaceOnUse">
<stop stop-color="#FFE8A0"/>
<stop offset="1" stop-color="#DFC05C"/>
</linearGradient>
<clipPath id="clip0_1768_6255">
<rect x="1" y="1" width="16" height="16" rx="4" fill="white"/>
</clipPath>
</defs>
</svg>
