<svg width="18" height="18" viewBox="0 0 18 18" fill="none" xmlns="http://www.w3.org/2000/svg">
<g clip-path="url(#clip0_1768_6318)">
<rect x="1" y="1" width="16" height="16" rx="4" fill="#1F1F2D"/>
<path d="M11.1053 4C11.1053 5.1627 10.1627 6.10526 9 6.10526C7.8373 6.10526 6.89474 5.1627 6.89474 4H11.1053Z" fill="#F26057"/>
<path d="M11.8947 4C11.8947 5.1627 12.8373 6.10526 14 6.10526V4H11.8947Z" fill="#F26057"/>
<path d="M14 6.89474C12.8373 6.89474 11.8947 7.8373 11.8947 9C11.8947 10.1627 12.8373 11.1053 14 11.1053V6.89474Z" fill="#F26057"/>
<path d="M14 11.8947C12.8373 11.8947 11.8947 12.8373 11.8947 14H14V11.8947Z" fill="#F26057"/>
<path d="M11.1053 14C11.1053 12.8373 10.1627 11.8947 9 11.8947C7.8373 11.8947 6.89474 12.8373 6.89474 14H11.1053Z" fill="#F26057"/>
<path d="M6.10526 14C6.10526 12.8373 5.1627 11.8947 4 11.8947V14H6.10526Z" fill="#F26057"/>
<path d="M4 11.1053C5.1627 11.1053 6.10526 10.1627 6.10526 9C6.10526 7.8373 5.1627 6.89474 4 6.89474V11.1053Z" fill="#F26057"/>
<path d="M4 6.10526C5.1627 6.10526 6.10526 5.1627 6.10526 4H4V6.10526Z" fill="#F26057"/>
<path d="M11.1053 9C11.1053 10.1627 10.1627 11.1053 9 11.1053C7.8373 11.1053 6.89474 10.1627 6.89474 9C6.89474 7.8373 7.8373 6.89474 9 6.89474C10.1627 6.89474 11.1053 7.8373 11.1053 9Z" fill="#F26057"/>
</g>
<rect x="0.5" y="0.5" width="17" height="17" rx="4.5" stroke="#1F1A34"/>
<defs>
<clipPath id="clip0_1768_6318">
<rect x="1" y="1" width="16" height="16" rx="4" fill="white"/>
</clipPath>
</defs>
</svg>
