<svg width="18" height="18" viewBox="0 0 18 18" fill="none" xmlns="http://www.w3.org/2000/svg">
<g clip-path="url(#clip0_1768_6383)">
<rect x="1" y="1" width="16" height="16" rx="4" fill="#0B060C"/>
<path fill-rule="evenodd" clip-rule="evenodd" d="M9.18178 9.88433C12.4939 9.47765 15.0976 8.48513 14.9972 7.66749C14.8968 6.84985 12.1304 6.5167 8.81822 6.92338C5.50606 7.33006 2.90241 8.32257 3.00281 9.14022C3.1032 9.95786 5.86963 10.291 9.18178 9.88433Z" fill="white"/>
<path fill-rule="evenodd" clip-rule="evenodd" d="M9.1478 9.65119C12.2585 9.26924 14.7119 8.40279 14.6276 7.71591C14.5433 7.02904 11.9531 6.78185 8.8424 7.16381C5.73165 7.54576 3.27827 8.41221 3.3626 9.09909C3.44694 9.78595 6.03708 10.0331 9.1478 9.65119Z" fill="#000002"/>
<path fill-rule="evenodd" clip-rule="evenodd" d="M8.95723 11.7939C10.6011 11.7939 11.9935 10.7154 12.4686 9.2261C12.4796 9.19187 12.4191 9.23258 12.3054 9.26743C12.1088 9.32769 11.7357 9.4326 11.1728 9.54959C10.4027 9.70967 9.2977 9.87135 8.92065 9.91627C8.53014 9.9628 7.73367 10.0054 7.04636 10.0291C6.6414 10.043 6.33909 10.0665 6.11513 10.0585C5.95899 10.0529 5.80169 9.99757 5.83958 10.0585C6.49038 11.1045 7.63653 11.7939 8.95723 11.7939Z" fill="#6758FF"/>
<path fill-rule="evenodd" clip-rule="evenodd" d="M9.19851 11.4945C9.93934 11.4945 10.4685 11.0586 10.4685 10.9783C10.4685 10.898 9.93934 11.1749 9.19851 11.1749C8.4577 11.1749 7.71904 11.0947 7.71904 11.1749C7.71904 11.2255 8.09374 11.3767 8.55125 11.437C8.81923 11.4723 8.92486 11.4945 9.19851 11.4945Z" fill="#FF7FA7"/>
</g>
<rect x="0.5" y="0.5" width="17" height="17" rx="4.5" stroke="#1F1A34"/>
<defs>
<clipPath id="clip0_1768_6383">
<rect x="1" y="1" width="16" height="16" rx="4" fill="white"/>
</clipPath>
</defs>
</svg>
