<svg width="18" height="18" viewBox="0 0 18 18" fill="none" xmlns="http://www.w3.org/2000/svg">
<g clip-path="url(#clip0_1768_6402)">
<rect x="1" y="1" width="16" height="16" rx="4" fill="white" fill-opacity="0.08"/>
<path fill-rule="evenodd" clip-rule="evenodd" d="M9 14.4667C12.0191 14.4667 14.4667 12.0191 14.4667 9C14.4667 5.98085 12.0191 3.53333 9 3.53333C5.98085 3.53333 3.53333 5.98085 3.53333 9C3.53333 12.0191 5.98085 14.4667 9 14.4667ZM15 9C15 12.3137 12.3137 15 9 15C5.68629 15 3 12.3137 3 9C3 5.68629 5.68629 3 9 3C12.3137 3 15 5.68629 15 9Z" fill="url(#paint0_linear_1768_6402)"/>
<path d="M10.1127 4.498L10.3547 7.85867L13.6253 8.66667L10.504 9.93533L10.746 13.296L8.57534 10.7193L5.45401 11.9887L7.23334 9.12733L5.06201 6.55067L8.33267 7.35933L10.1127 4.498Z" fill="url(#paint1_linear_1768_6402)"/>
</g>
<rect x="0.5" y="0.5" width="17" height="17" rx="4.5" stroke="#1F1A34"/>
<defs>
<linearGradient id="paint0_linear_1768_6402" x1="3.01195" y1="0.953853" x2="15.8453" y2="1.32489" gradientUnits="userSpaceOnUse">
<stop stop-color="#FFF59E"/>
<stop offset="0.635417" stop-color="#81EFD9"/>
<stop offset="1" stop-color="#6B9BE3"/>
</linearGradient>
<linearGradient id="paint1_linear_1768_6402" x1="3.01195" y1="0.953853" x2="15.8453" y2="1.32489" gradientUnits="userSpaceOnUse">
<stop stop-color="#FFF59E"/>
<stop offset="0.635417" stop-color="#81EFD9"/>
<stop offset="1" stop-color="#6B9BE3"/>
</linearGradient>
<clipPath id="clip0_1768_6402">
<rect x="1" y="1" width="16" height="16" rx="4" fill="white"/>
</clipPath>
</defs>
</svg>
