<svg width="18" height="18" viewBox="0 0 18 18" fill="none" xmlns="http://www.w3.org/2000/svg">
<g clip-path="url(#clip0_1677_1636)">
<rect x="1" y="1" width="16" height="16" rx="4" fill="#E91179"/>
<path d="M9 14.8033C12.2051 14.8033 14.8033 12.2051 14.8033 9C14.8033 5.79494 12.2051 3.19672 9 3.19672C5.79494 3.19672 3.19672 5.79494 3.19672 9C3.19672 12.2051 5.79494 14.8033 9 14.8033Z" fill="#1B1B1B"/>
<path fillRule="evenodd" clipRule="evenodd" d="M10.7016 7.29838C10.7803 7.37707 10.9082 7.36723 10.9672 7.2787C11.0262 7.20985 11.0164 7.10166 10.9475 7.04264C10.2983 6.42297 9.718 6.10821 8.75406 6.15739C7.74095 6.20657 6.84587 6.73772 6.90488 7.85903C6.95377 8.84649 7.90642 9.212 8.7486 9.53513L8.7639 9.541C9.41308 9.7869 9.98357 10.0033 10.0131 10.4656C10.0426 10.9771 9.52128 11.282 9.06882 11.3115C8.21308 11.3607 7.71144 11.0558 7.15078 10.5148C7.08193 10.4459 6.97373 10.4459 6.90488 10.5049C6.82619 10.5738 6.82619 10.6918 6.89505 10.7705C7.52455 11.4 8.17373 11.7148 9.118 11.6656C10.0623 11.5967 11.2229 11.0656 11.1639 9.94428C11.1147 8.97051 10.1901 8.60657 9.35406 8.29182L9.35143 8.2908C8.66391 8.02562 8.02616 7.77963 7.99669 7.21969C7.97701 6.81641 8.45898 6.52133 8.80324 6.50166C9.63931 6.46231 10.1606 6.75739 10.7016 7.29838ZM10.8098 9.96395C10.8098 10.3967 10.5737 10.7705 10.2196 10.9869L10.2 10.9771C10.3278 10.8 10.3475 10.5738 10.3475 10.3574C10.3475 9.72347 9.66093 9.47634 8.93018 9.21332L8.91144 9.20657L8.89916 9.20213C8.08649 8.90842 7.23931 8.60223 7.23931 7.741C7.23931 7.34756 7.41636 6.92461 7.76062 6.72789L7.77046 6.74756C7.68193 6.93444 7.64259 7.141 7.64259 7.34756C7.64259 8.04971 8.40643 8.3361 9.18638 8.62853L9.20652 8.63608C10.0131 8.93116 10.8098 9.22625 10.8098 9.96395Z" fill="white"/>
<path fillRule="evenodd" clipRule="evenodd" d="M8.95079 4.18034C6.31942 4.18034 4.1803 6.31946 4.1803 8.95084C4.1803 11.5822 6.31942 13.7213 8.95079 13.7213C11.5822 13.7213 13.7213 11.5822 13.7213 8.95084C13.7213 6.31946 11.5822 4.18034 8.95079 4.18034ZM4.37702 8.95084C4.37702 6.42811 6.42806 4.37707 8.95079 4.37707C11.4735 4.37707 13.5246 6.42811 13.5246 8.95084C13.5246 11.4736 11.4735 13.5246 8.95079 13.5246C6.42806 13.5246 4.37702 11.4736 4.37702 8.95084Z" fill="white"/>
<path fillRule="evenodd" clipRule="evenodd" d="M3 9C3 5.68629 5.68629 3 9 3C12.3137 3 15 5.68629 15 9C15 12.3137 12.3137 15 9 15C5.68629 15 3 12.3137 3 9ZM9 3.39344C5.90358 3.39344 3.39344 5.90358 3.39344 9C3.39344 12.0964 5.90358 14.6066 9 14.6066C12.0964 14.6066 14.6066 12.0964 14.6066 9C14.6066 5.90358 12.0964 3.39344 9 3.39344Z" fill="white"/>
<path d="M9 16C12.866 16 16 12.866 16 9C16 5.13401 12.866 2 9 2C5.13401 2 2 5.13401 2 9C2 12.866 5.13401 16 9 16Z" fill="#E91179"/>
<path d="M9.1848 13.1104C8.1712 13.1104 7.3368 12.892 6.6928 12.4496C6.0992 12.0464 5.7184 11.4864 5.556 10.764C5.5336 10.652 5.6008 10.5456 5.7128 10.5176L7.1184 10.1536C7.2416 10.12 7.3592 10.1984 7.3928 10.3216C7.4656 10.5848 7.5664 10.7976 7.7008 10.96C7.88 11.1672 8.0928 11.3184 8.3448 11.4136C8.608 11.4976 8.888 11.5368 9.1904 11.5368C9.6496 11.5368 9.9912 11.4584 10.2096 11.3016C10.428 11.1336 10.54 10.932 10.54 10.6912C10.54 10.4504 10.4336 10.2656 10.2264 10.1424C10.0192 10.008 9.6832 9.896 9.224 9.812L8.7872 9.7336C8.244 9.6272 7.7456 9.4872 7.2976 9.308C6.8496 9.1176 6.4856 8.8656 6.2168 8.5408C5.9424 8.216 5.808 7.796 5.808 7.2864C5.808 6.5136 6.088 5.92 6.6536 5.5112C7.2192 5.0912 7.9584 4.884 8.8824 4.884C9.7504 4.884 10.4728 5.08 11.0496 5.4664C11.5592 5.8136 11.9176 6.2504 12.1136 6.788C12.1528 6.9 12.0912 7.0176 11.9736 7.0512L10.568 7.4824C10.4448 7.5216 10.316 7.4432 10.2768 7.32C10.1816 7.04 10.0304 6.8384 9.8232 6.704C9.5712 6.536 9.2576 6.452 8.8824 6.452C8.5072 6.452 8.216 6.5192 8.02 6.6536C7.824 6.7768 7.7232 6.956 7.7232 7.1856C7.7232 7.4376 7.8296 7.6224 8.0368 7.7512C8.244 7.8688 8.5296 7.9528 8.8824 8.02L9.3192 8.0984C9.9072 8.2048 10.4336 8.3448 10.904 8.524C11.3856 8.692 11.7608 8.9384 12.0352 9.2632C12.3152 9.5768 12.4608 10.008 12.4608 10.5512C12.4608 11.3688 12.164 12.0016 11.5648 12.4496C10.9768 12.8864 10.1872 13.1104 9.196 13.1104H9.1848Z" fill="white"/>
</g>
<rect x="0.5" y="0.5" width="17" height="17" rx="4.5" stroke="#1F1A34"/>
<defs>
<clipPath id="clip0_1677_1636">
<rect x="1" y="1" width="16" height="16" rx="4" fill="white"/>
</clipPath>
</defs>
</svg>
