<svg width="18" height="18" viewBox="0 0 18 18" fill="none" xmlns="http://www.w3.org/2000/svg">
<g clip-path="url(#clip0_1768_6557)">
<rect x="1" y="1" width="16" height="16" rx="4" fill="white" fill-opacity="0.08"/>
<path d="M7.33777 13.8219C7.29113 13.7808 7.26192 13.7234 7.2561 13.6614L6.79248 8.7291H8.44246V14.2548C8.44246 14.4656 8.19382 14.5777 8.03582 14.4383L7.33777 13.8219Z" fill="black"/>
<path d="M8.44246 8.63122V7.9427L6.70444 7.79254L6.78328 8.63122H8.44246Z" fill="black"/>
<path d="M8.44246 7.84446L6.69513 7.6935L6.42203 4.78805C6.40853 4.6445 6.52146 4.52046 6.66564 4.52046H8.19778C8.33292 4.52046 8.44246 4.63001 8.44246 4.76515V7.84446Z" fill="black"/>
<path d="M11.6674 8.63122H12.9251C12.9927 8.63122 13.0475 8.57642 13.0475 8.50888V7.78734C13.0475 7.71507 12.9851 7.65855 12.9132 7.66558L11.7453 7.77963L11.6674 8.63122Z" fill="black"/>
<path d="M11.6461 7.78931L9.90567 7.95925V8.63122H11.5691L11.6461 7.78931Z" fill="black"/>
<path d="M9.80783 7.96881V8.63122H5.17346C5.10589 8.63122 5.05111 8.57642 5.05111 8.50888V7.78572C5.05111 7.71404 5.11246 7.65772 5.18388 7.66382L9.30264 8.0161C9.31004 8.01673 9.31753 8.01669 9.32497 8.01596L9.80783 7.96881Z" fill="black"/>
<path d="M10.3246 14.4216C10.1709 14.5774 9.90567 14.4686 9.90567 14.2498V6.65906H11.7518L11.1096 13.5471C11.1044 13.6033 11.0798 13.656 11.0402 13.6962L10.3246 14.4216Z" fill="black"/>
<path d="M11.761 6.56118H9.90567V5.50622L11.8708 5.38363L11.761 6.56118Z" fill="black"/>
<path d="M9.90567 4.76519V5.40815L11.88 5.28499L11.9263 4.7879C11.9397 4.64442 11.8268 4.5205 11.6827 4.5205H10.1504C10.0153 4.5205 9.90567 4.63005 9.90567 4.76519Z" fill="black"/>
<path d="M8.44246 6.56119V5.50929L6.4798 5.4127L6.58718 6.56119H8.44246Z" fill="black"/>
<path d="M8.54035 6.56119H13.4879C13.542 6.56119 13.5858 6.51737 13.5858 6.46331V5.37598C13.5858 5.31948 13.5381 5.27472 13.4817 5.2783L9.2328 5.54818L8.54035 5.51411V6.56119Z" fill="black"/>
<path d="M6.37298 5.40744L6.49021 6.56119H4.50791C4.45385 6.56119 4.41003 6.51737 4.41003 6.46331V5.41365C4.41003 5.35771 4.45684 5.31314 4.51272 5.31589L6.37298 5.40744Z" fill="black"/>
<path d="M7.33777 13.8015C7.29113 13.7603 7.26192 13.7029 7.2561 13.641L6.79248 8.70866H8.44246V14.2344C8.44246 14.4451 8.19382 14.5573 8.03582 14.4178L7.33777 13.8015Z" fill="url(#paint0_linear_1768_6557)"/>
<path d="M8.44246 8.61077V7.92224L6.70444 7.77207L6.78328 8.61077H8.44246Z" fill="url(#paint1_linear_1768_6557)"/>
<path d="M8.44246 7.824L6.69513 7.67303L6.42203 4.76759C6.40853 4.62404 6.52146 4.5 6.66564 4.5H8.19778C8.33292 4.5 8.44246 4.60955 8.44246 4.74469V7.824Z" fill="url(#paint2_linear_1768_6557)"/>
<path d="M11.6674 8.61073H12.9251C12.9927 8.61073 13.0475 8.55598 13.0475 8.48839V7.76688C13.0475 7.69461 12.9851 7.63809 12.9132 7.64511L11.7453 7.75916L11.6674 8.61073Z" fill="url(#paint3_linear_1768_6557)"/>
<path d="M11.6461 7.76884L9.90567 7.93879V8.61073H11.5691L11.6461 7.76884Z" fill="url(#paint4_linear_1768_6557)"/>
<path d="M9.80783 7.94835V8.61073H5.17346C5.10589 8.61073 5.05111 8.55598 5.05111 8.48839V7.76526C5.05111 7.69358 5.11246 7.63725 5.18388 7.64336L9.30264 7.99563C9.31004 7.99627 9.31753 7.99622 9.32497 7.9955L9.80783 7.94835Z" fill="url(#paint5_linear_1768_6557)"/>
<path d="M10.3246 14.4012C10.1709 14.5569 9.90567 14.4481 9.90567 14.2293V6.63859H11.7518L11.1096 13.5266C11.1044 13.5828 11.0798 13.6355 11.0402 13.6757L10.3246 14.4012Z" fill="url(#paint6_linear_1768_6557)"/>
<path d="M11.761 6.54072H9.90567V5.48575L11.8708 5.36317L11.761 6.54072Z" fill="url(#paint7_linear_1768_6557)"/>
<path d="M9.90567 4.74472V5.38769L11.88 5.26453L11.9263 4.76744C11.9397 4.62395 11.8268 4.50004 11.6827 4.50004H10.1504C10.0153 4.50004 9.90567 4.60959 9.90567 4.74472Z" fill="url(#paint8_linear_1768_6557)"/>
<path d="M8.44246 6.54072V5.48883L6.4798 5.39224L6.58718 6.54072H8.44246Z" fill="url(#paint9_linear_1768_6557)"/>
<path d="M8.54035 6.54072H13.4879C13.542 6.54072 13.5858 6.4969 13.5858 6.44285V5.35552C13.5858 5.29902 13.5381 5.25425 13.4817 5.25784L9.2328 5.52772L8.54035 5.49364V6.54072Z" fill="url(#paint10_linear_1768_6557)"/>
<path d="M6.37298 5.38698L6.49021 6.54072H4.50791C4.45385 6.54072 4.41003 6.4969 4.41003 6.44285V5.39319C4.41003 5.33724 4.45684 5.29268 4.51272 5.29543L6.37298 5.38698Z" fill="url(#paint11_linear_1768_6557)"/>
<path d="M6.78851 7.6811L6.69513 7.67303L6.5887 6.54072H6.58718L6.4798 5.39224L6.48075 5.39228L6.42203 4.76759C6.40853 4.62404 6.52146 4.5 6.66564 4.5H8.19778C8.29166 4.5 8.3732 4.55287 8.41421 4.63046C8.38011 4.61243 8.34126 4.60222 8.3 4.60222H6.76786C6.62368 4.60222 6.51076 4.72626 6.52425 4.86981L6.58297 5.49451L6.58202 5.49446L6.6894 6.64295H6.69092L6.78851 7.6811Z" fill="white"/>
<path d="M8.54468 6.54071L8.64257 6.54072V5.59586L9.33503 5.62995L13.5839 5.36006L13.5858 5.35996V5.35552C13.5858 5.29902 13.5381 5.25425 13.4817 5.25784L11.9835 5.353H11.9822L9.2328 5.52772L8.54468 5.49386V6.54071Z" fill="white"/>
<path d="M11.8991 4.63046C11.8652 4.61249 11.8263 4.60226 11.7849 4.60226H10.2526C10.1175 4.60226 10.0079 4.71181 10.0079 4.84694V5.38131L9.90567 5.38769V4.74472C9.90567 4.60959 10.0153 4.50004 10.1504 4.50004H11.6827C11.7772 4.50004 11.8583 4.55332 11.8991 4.63046Z" fill="white"/>
<path d="M9.90567 6.64295H11.7514L11.7423 6.74082H10.0079V14.3315C10.0079 14.3739 10.0179 14.4122 10.035 14.4452C9.96063 14.4057 9.90567 14.3289 9.90567 14.2293V8.71295H9.91005V8.05057L9.90567 8.051V6.64295Z" fill="white"/>
<path d="M9.80783 8.06055V7.94835L9.32497 7.9955C9.31753 7.99622 9.31004 7.99627 9.30264 7.99563L6.70444 7.77207L6.70457 7.77342L5.18388 7.64336C5.11246 7.63725 5.05111 7.69358 5.05111 7.76526V8.48839C5.05111 8.5496 5.09606 8.60034 5.15476 8.60934C5.15382 8.60325 5.15333 8.59699 5.15333 8.59061V7.86748C5.15333 7.7958 5.21468 7.73948 5.2861 7.74558L6.80679 7.87564L6.80667 7.8743L9.40486 8.09786C9.41227 8.09849 9.41975 8.09844 9.42719 8.09772L9.80783 8.06055Z" fill="white"/>
<path d="M6.79289 8.71295L7.2561 13.641C7.26192 13.7029 7.29113 13.7603 7.33777 13.8015L7.39671 13.8535C7.37537 13.8206 7.36205 13.7829 7.35832 13.7432L6.8947 8.81088H8.44246V8.71299L6.79289 8.71295Z" fill="white"/>
<path d="M11.6807 8.61073H11.7789L11.8475 7.86138L13.0154 7.74734C13.0259 7.74631 13.0362 7.74664 13.046 7.74816C13.0364 7.68513 12.9788 7.63871 12.9132 7.64511L11.7593 7.75779L11.7287 8.08518L11.6807 8.61073Z" fill="white"/>
<path d="M6.3829 5.48466L6.37298 5.38698L4.51272 5.29543C4.45684 5.29268 4.41003 5.33724 4.41003 5.39319V6.44285C4.41003 6.4969 4.45385 6.54072 4.50791 6.54072H4.51226V5.49541C4.51226 5.43946 4.55907 5.3949 4.61494 5.39765L6.3829 5.48466Z" fill="white"/>
</g>
<rect x="0.5" y="0.5" width="17" height="17" rx="4.5" stroke="#1F1A34"/>
<defs>
<linearGradient id="paint0_linear_1768_6557" x1="-8.83897" y1="5.85352" x2="42.1882" y2="5.85352" gradientUnits="userSpaceOnUse">
<stop stop-color="#5433FF"/>
<stop offset="0.5" stop-color="#20BDFF"/>
<stop offset="1" stop-color="#A5FECB"/>
</linearGradient>
<linearGradient id="paint1_linear_1768_6557" x1="-7.70312" y1="24.9804" x2="40.7394" y2="24.9804" gradientUnits="userSpaceOnUse">
<stop stop-color="#5433FF"/>
<stop offset="0.5" stop-color="#20BDFF"/>
<stop offset="1" stop-color="#A5FECB"/>
</linearGradient>
<linearGradient id="paint2_linear_1768_6557" x1="-4.71744" y1="19.5113" x2="36.9312" y2="19.5113" gradientUnits="userSpaceOnUse">
<stop stop-color="#5433FF"/>
<stop offset="0.5" stop-color="#20BDFF"/>
<stop offset="1" stop-color="#A5FECB"/>
</linearGradient>
<linearGradient id="paint3_linear_1768_6557" x1="-43.8416" y1="23.5977" x2="17.1648" y2="23.5977" gradientUnits="userSpaceOnUse">
<stop stop-color="#5433FF"/>
<stop offset="0.5" stop-color="#20BDFF"/>
<stop offset="1" stop-color="#A5FECB"/>
</linearGradient>
<linearGradient id="paint4_linear_1768_6557" x1="-24.5634" y1="24.9412" x2="23.8117" y2="24.9412" gradientUnits="userSpaceOnUse">
<stop stop-color="#5433FF"/>
<stop offset="0.5" stop-color="#20BDFF"/>
<stop offset="1" stop-color="#A5FECB"/>
</linearGradient>
<linearGradient id="paint5_linear_1768_6557" x1="3.17339" y1="23.5825" x2="20.8734" y2="23.5825" gradientUnits="userSpaceOnUse">
<stop stop-color="#5433FF"/>
<stop offset="0.5" stop-color="#20BDFF"/>
<stop offset="1" stop-color="#A5FECB"/>
</linearGradient>
<linearGradient id="paint6_linear_1768_6557" x1="-22.904" y1="8.13859" x2="22.7005" y2="8.13859" gradientUnits="userSpaceOnUse">
<stop stop-color="#5433FF"/>
<stop offset="0.5" stop-color="#20BDFF"/>
<stop offset="1" stop-color="#A5FECB"/>
</linearGradient>
<linearGradient id="paint7_linear_1768_6557" x1="-21.2507" y1="39.5438" x2="21.5934" y2="39.5438" gradientUnits="userSpaceOnUse">
<stop stop-color="#5433FF"/>
<stop offset="0.5" stop-color="#20BDFF"/>
<stop offset="1" stop-color="#A5FECB"/>
</linearGradient>
<linearGradient id="paint8_linear_1768_6557" x1="-20.5322" y1="60.7127" x2="21.1123" y2="60.7127" gradientUnits="userSpaceOnUse">
<stop stop-color="#5433FF"/>
<stop offset="0.5" stop-color="#20BDFF"/>
<stop offset="1" stop-color="#A5FECB"/>
</linearGradient>
<linearGradient id="paint9_linear_1768_6557" x1="-5.26638" y1="40.1776" x2="37.6314" y2="40.1776" gradientUnits="userSpaceOnUse">
<stop stop-color="#5433FF"/>
<stop offset="0.5" stop-color="#20BDFF"/>
<stop offset="1" stop-color="#A5FECB"/>
</linearGradient>
<linearGradient id="paint10_linear_1768_6557" x1="-3.10147" y1="37.4839" x2="13.5858" y2="37.4839" gradientUnits="userSpaceOnUse">
<stop stop-color="#5433FF"/>
<stop offset="0.5" stop-color="#20BDFF"/>
<stop offset="1" stop-color="#A5FECB"/>
</linearGradient>
<linearGradient id="paint11_linear_1768_6557" x1="4.41003" y1="38.1792" x2="44.8845" y2="38.1792" gradientUnits="userSpaceOnUse">
<stop stop-color="#5433FF"/>
<stop offset="0.5" stop-color="#20BDFF"/>
<stop offset="1" stop-color="#A5FECB"/>
</linearGradient>
<clipPath id="clip0_1768_6557">
<rect x="1" y="1" width="16" height="16" rx="4" fill="white"/>
</clipPath>
</defs>
</svg>
