<svg width="13" height="12" viewBox="0 0 13 12" fill="none" xmlns="http://www.w3.org/2000/svg">
<path d="M12.9815 2.06257C12.5046 2.2743 11.992 2.4169 11.454 2.48117C12.0033 2.15224 12.4252 1.63102 12.6234 1.00987C12.1097 1.3145 11.5404 1.53595 10.9344 1.65532C10.4499 1.13842 9.75803 0.81543 8.99322 0.81543C7.27616 0.81543 6.01443 2.41744 6.40224 4.08048C4.1926 3.96975 2.23303 2.91111 0.92107 1.30208C0.224311 2.49737 0.559728 4.06103 1.74368 4.85285C1.30834 4.83881 0.897845 4.71944 0.539743 4.52014C0.510577 5.75216 1.39368 6.90478 2.67269 7.16134C2.29839 7.26288 1.88843 7.28665 1.47146 7.20671C1.80957 8.26319 2.79152 9.03179 3.95602 9.05339C2.83797 9.93001 1.42933 10.3216 0.0185242 10.1552C1.19545 10.9098 2.59383 11.35 4.09538 11.35C9.03319 11.35 11.8229 7.17971 11.6544 3.43935C12.174 3.06396 12.625 2.59568 12.9815 2.06257Z" fill="#5C586C"/>
</svg>
