<svg width="18" height="18" viewBox="0 0 18 18" fill="none" xmlns="http://www.w3.org/2000/svg">
<g clip-path="url(#clip0_2761_24137)">
<rect x="1" y="1" width="16" height="16" rx="4" fill="white"/>
<path d="M5.46 4.15507C3.96859 5.24664 3 7.01021 3 9C3 12.3137 5.68629 15 9 15C12.3137 15 15 12.3137 15 9C15 7.01021 14.0314 5.24664 12.54 4.15507V8.73C12.54 10.4697 11.1297 11.88 9.39 11.88H8.61C6.8703 11.88 5.46 10.4697 5.46 8.73V4.15507Z" fill="#51698D"/>
<path d="M10.65 3.22973V8.88C10.65 9.67529 10.0053 10.32 9.21 10.32H8.79C7.99471 10.32 7.35 9.67529 7.35 8.88V3.22973C7.87422 3.08011 8.42775 3 9 3C9.57224 3 10.1258 3.08011 10.65 3.22973Z" fill="#51698D"/>
</g>
<rect x="0.5" y="0.5" width="17" height="17" rx="4.5" stroke="#1F1A34"/>
<defs>
<clipPath id="clip0_2761_24137">
<rect x="1" y="1" width="16" height="16" rx="4" fill="white"/>
</clipPath>
</defs>
</svg>
