<svg width="18" height="14" viewBox="0 0 18 14" fill="none" xmlns="http://www.w3.org/2000/svg">
<path d="M17.3333 1.93679C16.7201 2.20901 16.0611 2.39234 15.3694 2.47498C16.0757 2.05206 16.618 1.38192 16.8729 0.583313C16.2125 0.97498 15.4805 1.2597 14.7014 1.41317C14.0785 0.748591 13.1889 0.333313 12.2055 0.333313C9.99791 0.333313 8.37568 2.39304 8.8743 4.53123C6.03332 4.38887 3.51388 3.02776 1.82707 0.959007C0.93124 2.49581 1.36249 4.50623 2.88471 5.52429C2.32499 5.50623 1.79721 5.35276 1.3368 5.09651C1.2993 6.68054 2.43471 8.16248 4.07916 8.49234C3.59791 8.6229 3.07082 8.65345 2.53471 8.55067C2.96943 9.90901 4.23193 10.8972 5.72916 10.925C4.29166 12.0521 2.48055 12.5555 0.666656 12.3416C2.17985 13.3118 3.97777 13.8778 5.90832 13.8778C12.2569 13.8778 15.8437 8.51595 15.6271 3.70692C16.2951 3.22429 16.875 2.6222 17.3333 1.93679V1.93679Z" fill="white"/>
</svg>
