<svg width="16" height="16" viewBox="0 0 16 16" fill="none" xmlns="http://www.w3.org/2000/svg">
<path d="M0 8C0 3.582 3.58267 0 8 0C12.418 0 16 3.582 16 8C16 11.5333 13.7107 14.5313 10.534 15.5907C10.128 15.6693 10 15.4193 10 15.2067V13.0113C10 12.2647 9.738 11.778 9.45133 11.53C11.2327 11.332 13.104 10.6553 13.104 7.58266C13.104 6.70933 12.794 5.99533 12.2807 5.43533C12.3633 5.234 12.6373 4.42 12.202 3.318C12.202 3.318 11.5313 3.10333 10.004 4.138C9.36467 3.96067 8.68 3.872 8 3.86867C7.32 3.872 6.636 3.96067 5.998 4.138C4.46933 3.10333 3.79733 3.318 3.79733 3.318C3.36267 4.41933 3.63667 5.23333 3.71933 5.43533C3.208 5.99533 2.89533 6.70866 2.89533 7.58266C2.89533 10.6473 4.76333 11.3333 6.54 11.5367C6.31067 11.736 6.10333 12.0893 6.032 12.606C5.57533 12.8107 4.41733 13.164 3.704 11.9413C3.704 11.9413 3.28133 11.1727 2.478 11.1167C2.478 11.1167 1.69667 11.106 2.42267 11.6027C2.42267 11.6027 2.94733 11.8487 3.31133 12.7733C3.31133 12.7733 3.77467 14.2013 6 13.7173V15.2067C6 15.4173 5.87067 15.6653 5.47133 15.5913C2.292 14.5333 0 11.5347 0 8Z" fill="white"/>
</svg>
